%TF.GenerationSoftware,KiCad,Pcbnew,(5.0.0)*%
%TF.CreationDate,2019-01-28T22:54:31-08:00*%
%TF.ProjectId,UT47.2,555434372E322E6B696361645F706362,rev?*%
%TF.SameCoordinates,Original*%
%TF.FileFunction,Paste,Bot*%
%TF.FilePolarity,Positive*%
%FSLAX46Y46*%
G04 Gerber Fmt 4.6, Leading zero omitted, Abs format (unit mm)*
G04 Created by KiCad (PCBNEW (5.0.0)) date 01/28/19 22:54:31*
%MOMM*%
%LPD*%
G01*
G04 APERTURE LIST*
%ADD10R,2.550000X2.500000*%
%ADD11R,1.200000X0.900000*%
%ADD12R,1.800000X1.400000*%
%ADD13R,1.800000X1.100000*%
%ADD14R,0.700000X1.000000*%
%ADD15R,0.700000X0.600000*%
%ADD16R,0.600000X1.450000*%
%ADD17R,0.300000X1.450000*%
%ADD18R,1.200000X1.400000*%
%ADD19R,0.800000X0.750000*%
%ADD20R,0.750000X0.800000*%
%ADD21R,0.500000X0.900000*%
%ADD22R,0.900000X0.500000*%
%ADD23R,0.700000X0.250000*%
%ADD24R,0.250000X0.700000*%
%ADD25R,1.035000X1.035000*%
%ADD26R,1.140000X2.030000*%
G04 APERTURE END LIST*
D10*
X156654500Y-93345000D03*
X143727500Y-95885000D03*
X249745500Y-46355000D03*
X262672500Y-43815000D03*
X51879500Y-74295000D03*
X38952500Y-76835000D03*
X49498250Y-55245000D03*
X36571250Y-57785000D03*
X263810750Y-55245000D03*
X250883750Y-57785000D03*
X125698250Y-93345000D03*
X112771250Y-95885000D03*
X187610750Y-93345000D03*
X174683750Y-95885000D03*
X47117000Y-36195000D03*
X34190000Y-38735000D03*
X66167000Y-36195000D03*
X53240000Y-38735000D03*
X85217000Y-36195000D03*
X72290000Y-38735000D03*
X104267000Y-36195000D03*
X91340000Y-38735000D03*
X123317000Y-36195000D03*
X110390000Y-38735000D03*
X142367000Y-36195000D03*
X129440000Y-38735000D03*
X161417000Y-36195000D03*
X148490000Y-38735000D03*
X180467000Y-36195000D03*
X167540000Y-38735000D03*
X199517000Y-36195000D03*
X186590000Y-38735000D03*
X218567000Y-36195000D03*
X205640000Y-38735000D03*
X237617000Y-36195000D03*
X224690000Y-38735000D03*
X70929500Y-55245000D03*
X58002500Y-57785000D03*
X89979500Y-55245000D03*
X77052500Y-57785000D03*
X109029500Y-55245000D03*
X96102500Y-57785000D03*
X128079500Y-55245000D03*
X115152500Y-57785000D03*
X147129500Y-55245000D03*
X134202500Y-57785000D03*
X166179500Y-55245000D03*
X153252500Y-57785000D03*
X185229500Y-55245000D03*
X172302500Y-57785000D03*
X204279500Y-55245000D03*
X191352500Y-57785000D03*
X223329500Y-55245000D03*
X210402500Y-57785000D03*
X242379500Y-55245000D03*
X229452500Y-57785000D03*
X75692000Y-74295000D03*
X62765000Y-76835000D03*
X94742000Y-74295000D03*
X81815000Y-76835000D03*
X113792000Y-74295000D03*
X100865000Y-76835000D03*
X132842000Y-74295000D03*
X119915000Y-76835000D03*
X151892000Y-74295000D03*
X138965000Y-76835000D03*
X170942000Y-74295000D03*
X158015000Y-76835000D03*
X189992000Y-74295000D03*
X177065000Y-76835000D03*
X209042000Y-74295000D03*
X196115000Y-76835000D03*
X228092000Y-74295000D03*
X215165000Y-76835000D03*
X247142000Y-74295000D03*
X234215000Y-76835000D03*
X266192000Y-74295000D03*
X253265000Y-76835000D03*
X47117000Y-93345000D03*
X34190000Y-95885000D03*
X66167000Y-93345000D03*
X53240000Y-95885000D03*
X85217000Y-93345000D03*
X72290000Y-95885000D03*
X104267000Y-93345000D03*
X91340000Y-95885000D03*
X209042000Y-93345000D03*
X196115000Y-95885000D03*
X228092000Y-93345000D03*
X215165000Y-95885000D03*
X247142000Y-93345000D03*
X234215000Y-95885000D03*
X266192000Y-93345000D03*
X253265000Y-95885000D03*
D11*
X49212500Y-42925000D03*
X49212500Y-39625000D03*
X68262500Y-42925000D03*
X68262500Y-39625000D03*
X87312500Y-42925000D03*
X87312500Y-39625000D03*
X106362500Y-42925000D03*
X106362500Y-39625000D03*
X125412500Y-42925000D03*
X125412500Y-39625000D03*
X144462500Y-42925000D03*
X144462500Y-39625000D03*
X163512500Y-42925000D03*
X163512500Y-39625000D03*
X182562500Y-42925000D03*
X182562500Y-39625000D03*
X201612500Y-42925000D03*
X201612500Y-39625000D03*
X220662500Y-42925000D03*
X220662500Y-39625000D03*
X223837500Y-45306250D03*
X223837500Y-42006250D03*
X263525000Y-40543750D03*
X263525000Y-37243750D03*
X51593750Y-61975000D03*
X51593750Y-58675000D03*
X73025000Y-61975000D03*
X73025000Y-58675000D03*
X92075000Y-61975000D03*
X92075000Y-58675000D03*
X111125000Y-61975000D03*
X111125000Y-58675000D03*
X130175000Y-61975000D03*
X130175000Y-58675000D03*
X149225000Y-61975000D03*
X149225000Y-58675000D03*
X168275000Y-61975000D03*
X168275000Y-58675000D03*
X187325000Y-61975000D03*
X187325000Y-58675000D03*
X206375000Y-61975000D03*
X206375000Y-58675000D03*
X225425000Y-61975000D03*
X225425000Y-58675000D03*
X228600000Y-64356250D03*
X228600000Y-61056250D03*
X265906250Y-61975000D03*
X265906250Y-58675000D03*
X53975000Y-81025000D03*
X53975000Y-77725000D03*
X77787500Y-81025000D03*
X77787500Y-77725000D03*
X96837500Y-81025000D03*
X96837500Y-77725000D03*
X115887500Y-81025000D03*
X115887500Y-77725000D03*
X134937500Y-81025000D03*
X134937500Y-77725000D03*
X153987500Y-81025000D03*
X153987500Y-77725000D03*
X173037500Y-81025000D03*
X173037500Y-77725000D03*
X192087500Y-81025000D03*
X192087500Y-77725000D03*
X211137500Y-81025000D03*
X211137500Y-77725000D03*
X230187500Y-81025000D03*
X230187500Y-77725000D03*
X249237500Y-81025000D03*
X249237500Y-77725000D03*
X265906250Y-81693750D03*
X265906250Y-84993750D03*
X49212500Y-100075000D03*
X49212500Y-96775000D03*
X68262500Y-100075000D03*
X68262500Y-96775000D03*
X87312500Y-100075000D03*
X87312500Y-96775000D03*
X106362500Y-100075000D03*
X106362500Y-96775000D03*
X127793750Y-100075000D03*
X127793750Y-96775000D03*
X158750000Y-100075000D03*
X158750000Y-96775000D03*
X189706250Y-100075000D03*
X189706250Y-96775000D03*
X211137500Y-100075000D03*
X211137500Y-96775000D03*
X230187500Y-100075000D03*
X230187500Y-96775000D03*
X249237500Y-100075000D03*
X249237500Y-96775000D03*
X252412500Y-102456250D03*
X252412500Y-99156250D03*
D12*
X239693750Y-47562500D03*
X239693750Y-50862500D03*
X244493750Y-50862500D03*
X244493750Y-47562500D03*
X181750000Y-47562500D03*
X181750000Y-50862500D03*
X186550000Y-50862500D03*
X186550000Y-47562500D03*
X115075000Y-47562500D03*
X115075000Y-50862500D03*
X119875000Y-50862500D03*
X119875000Y-47562500D03*
X48400000Y-47562500D03*
X48400000Y-50862500D03*
X53200000Y-50862500D03*
X53200000Y-47562500D03*
X48400000Y-85662500D03*
X48400000Y-88962500D03*
X53200000Y-88962500D03*
X53200000Y-85662500D03*
X115075000Y-85662500D03*
X115075000Y-88962500D03*
X119875000Y-88962500D03*
X119875000Y-85662500D03*
X181750000Y-85662500D03*
X181750000Y-88962500D03*
X186550000Y-88962500D03*
X186550000Y-85662500D03*
X248425000Y-85662500D03*
X248425000Y-88962500D03*
X253225000Y-88962500D03*
X253225000Y-85662500D03*
D13*
X234875000Y-89162500D03*
X228675000Y-85462500D03*
X234875000Y-85462500D03*
X228675000Y-89162500D03*
D14*
X247570500Y-41287000D03*
D15*
X245570500Y-41087000D03*
X247570500Y-42987000D03*
X245570500Y-42987000D03*
D16*
X249255750Y-37857500D03*
X242805750Y-37857500D03*
X248480750Y-37857500D03*
X243580750Y-37857500D03*
D17*
X244280750Y-37857500D03*
X247780750Y-37857500D03*
X244780750Y-37857500D03*
X247280750Y-37857500D03*
X245280750Y-37857500D03*
X246780750Y-37857500D03*
X246280750Y-37857500D03*
X245780750Y-37857500D03*
D18*
X251738500Y-63797000D03*
X251738500Y-65997000D03*
X250038500Y-65997000D03*
X250038500Y-63797000D03*
D19*
X255924750Y-63817500D03*
X254424750Y-63817500D03*
X255924750Y-65976500D03*
X254424750Y-65976500D03*
X235851000Y-63500000D03*
X237351000Y-63500000D03*
D20*
X245237000Y-59829000D03*
X245237000Y-61329000D03*
D19*
X250559000Y-69088000D03*
X249059000Y-69088000D03*
D20*
X247650000Y-59829000D03*
X247650000Y-61329000D03*
D19*
X241343750Y-45243750D03*
X242843750Y-45243750D03*
X183400000Y-45243750D03*
X184900000Y-45243750D03*
X116725000Y-45243750D03*
X118225000Y-45243750D03*
X50050000Y-45243750D03*
X51550000Y-45243750D03*
X50050000Y-83343750D03*
X51550000Y-83343750D03*
X116725000Y-83343750D03*
X118225000Y-83343750D03*
X183400000Y-83343750D03*
X184900000Y-83343750D03*
X250075000Y-83343750D03*
X251575000Y-83343750D03*
D21*
X235851000Y-65913000D03*
X237351000Y-65913000D03*
X245947500Y-56737250D03*
X247447500Y-56737250D03*
X247447500Y-54451250D03*
X245947500Y-54451250D03*
D22*
X253206250Y-37262500D03*
X253206250Y-35762500D03*
D21*
X241058000Y-70739000D03*
X242558000Y-70739000D03*
D22*
X242093750Y-42818750D03*
X242093750Y-41318750D03*
D23*
X245986000Y-64163000D03*
X245986000Y-64663000D03*
X245986000Y-65163000D03*
X245986000Y-65663000D03*
X245986000Y-66163000D03*
X245986000Y-66663000D03*
X245986000Y-67163000D03*
X245986000Y-67663000D03*
D24*
X245336000Y-68313000D03*
X244836000Y-68313000D03*
X244336000Y-68313000D03*
X243836000Y-68313000D03*
X243336000Y-68313000D03*
X242836000Y-68313000D03*
X242336000Y-68313000D03*
X241836000Y-68313000D03*
D23*
X241186000Y-67663000D03*
X241186000Y-67163000D03*
X241186000Y-66663000D03*
X241186000Y-66163000D03*
X241186000Y-65663000D03*
X241186000Y-65163000D03*
X241186000Y-64663000D03*
X241186000Y-64163000D03*
D24*
X241836000Y-63513000D03*
X242336000Y-63513000D03*
X242836000Y-63513000D03*
X243336000Y-63513000D03*
X243836000Y-63513000D03*
X244336000Y-63513000D03*
X244836000Y-63513000D03*
X245336000Y-63513000D03*
D25*
X242723500Y-66775500D03*
X242723500Y-65050500D03*
X244448500Y-66775500D03*
X244448500Y-65050500D03*
D26*
X233623000Y-46355000D03*
X236023000Y-46355000D03*
M02*
