%TF.GenerationSoftware,KiCad,Pcbnew,(5.0.0)*%
%TF.CreationDate,2019-01-28T22:54:31-08:00*%
%TF.ProjectId,UT47.2,555434372E322E6B696361645F706362,rev?*%
%TF.SameCoordinates,Original*%
%TF.FileFunction,Soldermask,Top*%
%TF.FilePolarity,Negative*%
%FSLAX46Y46*%
G04 Gerber Fmt 4.6, Leading zero omitted, Abs format (unit mm)*
G04 Created by KiCad (PCBNEW (5.0.0)) date 01/28/19 22:54:31*
%MOMM*%
%LPD*%
G01*
G04 APERTURE LIST*
%ADD10C,0.700000*%
%ADD11C,4.800000*%
%ADD12C,1.100000*%
%ADD13C,4.387800*%
%ADD14C,3.448000*%
%ADD15C,2.150000*%
%ADD16C,3.400000*%
%ADD17C,1.050000*%
%ADD18O,1.400000X2.500000*%
%ADD19O,1.400000X2.000000*%
G04 APERTURE END LIST*
D10*
X252706232Y-102433642D02*
X252402660Y-104862214D01*
X252509803Y-105147928D01*
X252634803Y-105290785D01*
X252902660Y-105433642D01*
X253474089Y-105433642D01*
X253777660Y-105290785D01*
X253938375Y-105147928D01*
X254116946Y-104862214D01*
X254420517Y-102433642D01*
X255420517Y-102433642D02*
X257134803Y-102433642D01*
X255902660Y-105433642D02*
X256277660Y-102433642D01*
X259295517Y-103433642D02*
X259045517Y-105433642D01*
X258724089Y-102290785D02*
X257741946Y-104433642D01*
X259599089Y-104433642D01*
X260706232Y-102433642D02*
X262706232Y-102433642D01*
X261045517Y-105433642D01*
X263509803Y-105147928D02*
X263634803Y-105290785D01*
X263474089Y-105433642D01*
X263349089Y-105290785D01*
X263509803Y-105147928D01*
X263474089Y-105433642D01*
X265099089Y-102719357D02*
X265259803Y-102576500D01*
X265563375Y-102433642D01*
X266277660Y-102433642D01*
X266545517Y-102576500D01*
X266670517Y-102719357D01*
X266777660Y-103005071D01*
X266741946Y-103290785D01*
X266545517Y-103719357D01*
X264616946Y-105433642D01*
X266474089Y-105433642D01*
D11*
X150812500Y-69850000D03*
D12*
X152462500Y-69850000D03*
X151979226Y-71016726D03*
X150812500Y-71500000D03*
X149645774Y-71016726D03*
X149162500Y-69850000D03*
X149645774Y-68683274D03*
X150812500Y-68200000D03*
X151979226Y-68683274D03*
D11*
X41275000Y-88900000D03*
D12*
X42925000Y-88900000D03*
X42441726Y-90066726D03*
X41275000Y-90550000D03*
X40108274Y-90066726D03*
X39625000Y-88900000D03*
X40108274Y-87733274D03*
X41275000Y-87250000D03*
X42441726Y-87733274D03*
X42441726Y-49633274D03*
X41275000Y-49150000D03*
X40108274Y-49633274D03*
X39625000Y-50800000D03*
X40108274Y-51966726D03*
X41275000Y-52450000D03*
X42441726Y-51966726D03*
X42925000Y-50800000D03*
D11*
X41275000Y-50800000D03*
D12*
X261516726Y-49633274D03*
X260350000Y-49150000D03*
X259183274Y-49633274D03*
X258700000Y-50800000D03*
X259183274Y-51966726D03*
X260350000Y-52450000D03*
X261516726Y-51966726D03*
X262000000Y-50800000D03*
D11*
X260350000Y-50800000D03*
D12*
X261516726Y-87733274D03*
X260350000Y-87250000D03*
X259183274Y-87733274D03*
X258700000Y-88900000D03*
X259183274Y-90066726D03*
X260350000Y-90550000D03*
X261516726Y-90066726D03*
X262000000Y-88900000D03*
D11*
X260350000Y-88900000D03*
D13*
X162750500Y-90170000D03*
X138874500Y-90170000D03*
D14*
X162750500Y-105410000D03*
X138874500Y-105410000D03*
D15*
X155892500Y-98425000D03*
X145732500Y-98425000D03*
D16*
X147002500Y-95885000D03*
D13*
X150812500Y-98425000D03*
D16*
X153352500Y-93345000D03*
D15*
X250507500Y-41275000D03*
X260667500Y-41275000D03*
D16*
X259397500Y-43815000D03*
D13*
X255587500Y-41275000D03*
D16*
X253047500Y-46355000D03*
D15*
X51117500Y-79375000D03*
X40957500Y-79375000D03*
D16*
X42227500Y-76835000D03*
D13*
X46037500Y-79375000D03*
D16*
X48577500Y-74295000D03*
D15*
X48736250Y-60325000D03*
X38576250Y-60325000D03*
D16*
X39846250Y-57785000D03*
D13*
X43656250Y-60325000D03*
D16*
X46196250Y-55245000D03*
D15*
X263048750Y-60325000D03*
X252888750Y-60325000D03*
D16*
X254158750Y-57785000D03*
D13*
X257968750Y-60325000D03*
D16*
X260508750Y-55245000D03*
D15*
X124936250Y-98425000D03*
X114776250Y-98425000D03*
D16*
X116046250Y-95885000D03*
D13*
X119856250Y-98425000D03*
D16*
X122396250Y-93345000D03*
D15*
X186848750Y-98425000D03*
X176688750Y-98425000D03*
D16*
X177958750Y-95885000D03*
D13*
X181768750Y-98425000D03*
D16*
X184308750Y-93345000D03*
D15*
X46355000Y-41275000D03*
X36195000Y-41275000D03*
D16*
X37465000Y-38735000D03*
D13*
X41275000Y-41275000D03*
D16*
X43815000Y-36195000D03*
D15*
X65405000Y-41275000D03*
X55245000Y-41275000D03*
D16*
X56515000Y-38735000D03*
D13*
X60325000Y-41275000D03*
D16*
X62865000Y-36195000D03*
D15*
X84455000Y-41275000D03*
X74295000Y-41275000D03*
D16*
X75565000Y-38735000D03*
D13*
X79375000Y-41275000D03*
D16*
X81915000Y-36195000D03*
D15*
X103505000Y-41275000D03*
X93345000Y-41275000D03*
D16*
X94615000Y-38735000D03*
D13*
X98425000Y-41275000D03*
D16*
X100965000Y-36195000D03*
D15*
X122555000Y-41275000D03*
X112395000Y-41275000D03*
D16*
X113665000Y-38735000D03*
D13*
X117475000Y-41275000D03*
D16*
X120015000Y-36195000D03*
D15*
X141605000Y-41275000D03*
X131445000Y-41275000D03*
D16*
X132715000Y-38735000D03*
D13*
X136525000Y-41275000D03*
D16*
X139065000Y-36195000D03*
D15*
X160655000Y-41275000D03*
X150495000Y-41275000D03*
D16*
X151765000Y-38735000D03*
D13*
X155575000Y-41275000D03*
D16*
X158115000Y-36195000D03*
D15*
X179705000Y-41275000D03*
X169545000Y-41275000D03*
D16*
X170815000Y-38735000D03*
D13*
X174625000Y-41275000D03*
D16*
X177165000Y-36195000D03*
D15*
X198755000Y-41275000D03*
X188595000Y-41275000D03*
D16*
X189865000Y-38735000D03*
D13*
X193675000Y-41275000D03*
D16*
X196215000Y-36195000D03*
D15*
X217805000Y-41275000D03*
X207645000Y-41275000D03*
D16*
X208915000Y-38735000D03*
D13*
X212725000Y-41275000D03*
D16*
X215265000Y-36195000D03*
D15*
X236855000Y-41275000D03*
X226695000Y-41275000D03*
D16*
X227965000Y-38735000D03*
D13*
X231775000Y-41275000D03*
D16*
X234315000Y-36195000D03*
D15*
X70167500Y-60325000D03*
X60007500Y-60325000D03*
D16*
X61277500Y-57785000D03*
D13*
X65087500Y-60325000D03*
D16*
X67627500Y-55245000D03*
D15*
X89217500Y-60325000D03*
X79057500Y-60325000D03*
D16*
X80327500Y-57785000D03*
D13*
X84137500Y-60325000D03*
D16*
X86677500Y-55245000D03*
D15*
X108267500Y-60325000D03*
X98107500Y-60325000D03*
D16*
X99377500Y-57785000D03*
D13*
X103187500Y-60325000D03*
D16*
X105727500Y-55245000D03*
D15*
X127317500Y-60325000D03*
X117157500Y-60325000D03*
D16*
X118427500Y-57785000D03*
D13*
X122237500Y-60325000D03*
D16*
X124777500Y-55245000D03*
D15*
X146367500Y-60325000D03*
X136207500Y-60325000D03*
D16*
X137477500Y-57785000D03*
D13*
X141287500Y-60325000D03*
D16*
X143827500Y-55245000D03*
D15*
X165417500Y-60325000D03*
X155257500Y-60325000D03*
D16*
X156527500Y-57785000D03*
D13*
X160337500Y-60325000D03*
D16*
X162877500Y-55245000D03*
D15*
X184467500Y-60325000D03*
X174307500Y-60325000D03*
D16*
X175577500Y-57785000D03*
D13*
X179387500Y-60325000D03*
D16*
X181927500Y-55245000D03*
D15*
X203517500Y-60325000D03*
X193357500Y-60325000D03*
D16*
X194627500Y-57785000D03*
D13*
X198437500Y-60325000D03*
D16*
X200977500Y-55245000D03*
D15*
X222567500Y-60325000D03*
X212407500Y-60325000D03*
D16*
X213677500Y-57785000D03*
D13*
X217487500Y-60325000D03*
D16*
X220027500Y-55245000D03*
D15*
X241617500Y-60325000D03*
X231457500Y-60325000D03*
D16*
X232727500Y-57785000D03*
D13*
X236537500Y-60325000D03*
D16*
X239077500Y-55245000D03*
D15*
X74930000Y-79375000D03*
X64770000Y-79375000D03*
D16*
X66040000Y-76835000D03*
D13*
X69850000Y-79375000D03*
D16*
X72390000Y-74295000D03*
D15*
X93980000Y-79375000D03*
X83820000Y-79375000D03*
D16*
X85090000Y-76835000D03*
D13*
X88900000Y-79375000D03*
D16*
X91440000Y-74295000D03*
D15*
X113030000Y-79375000D03*
X102870000Y-79375000D03*
D16*
X104140000Y-76835000D03*
D13*
X107950000Y-79375000D03*
D16*
X110490000Y-74295000D03*
D15*
X132080000Y-79375000D03*
X121920000Y-79375000D03*
D16*
X123190000Y-76835000D03*
D13*
X127000000Y-79375000D03*
D16*
X129540000Y-74295000D03*
D15*
X151130000Y-79375000D03*
X140970000Y-79375000D03*
D16*
X142240000Y-76835000D03*
D13*
X146050000Y-79375000D03*
D16*
X148590000Y-74295000D03*
D15*
X170180000Y-79375000D03*
X160020000Y-79375000D03*
D16*
X161290000Y-76835000D03*
D13*
X165100000Y-79375000D03*
D16*
X167640000Y-74295000D03*
D15*
X189230000Y-79375000D03*
X179070000Y-79375000D03*
D16*
X180340000Y-76835000D03*
D13*
X184150000Y-79375000D03*
D16*
X186690000Y-74295000D03*
D15*
X208280000Y-79375000D03*
X198120000Y-79375000D03*
D16*
X199390000Y-76835000D03*
D13*
X203200000Y-79375000D03*
D16*
X205740000Y-74295000D03*
D15*
X227330000Y-79375000D03*
X217170000Y-79375000D03*
D16*
X218440000Y-76835000D03*
D13*
X222250000Y-79375000D03*
D16*
X224790000Y-74295000D03*
D15*
X246380000Y-79375000D03*
X236220000Y-79375000D03*
D16*
X237490000Y-76835000D03*
D13*
X241300000Y-79375000D03*
D16*
X243840000Y-74295000D03*
D15*
X265430000Y-79375000D03*
X255270000Y-79375000D03*
D16*
X256540000Y-76835000D03*
D13*
X260350000Y-79375000D03*
D16*
X262890000Y-74295000D03*
D15*
X46355000Y-98425000D03*
X36195000Y-98425000D03*
D16*
X37465000Y-95885000D03*
D13*
X41275000Y-98425000D03*
D16*
X43815000Y-93345000D03*
D15*
X65405000Y-98425000D03*
X55245000Y-98425000D03*
D16*
X56515000Y-95885000D03*
D13*
X60325000Y-98425000D03*
D16*
X62865000Y-93345000D03*
D15*
X84455000Y-98425000D03*
X74295000Y-98425000D03*
D16*
X75565000Y-95885000D03*
D13*
X79375000Y-98425000D03*
D16*
X81915000Y-93345000D03*
D15*
X103505000Y-98425000D03*
X93345000Y-98425000D03*
D16*
X94615000Y-95885000D03*
D13*
X98425000Y-98425000D03*
D16*
X100965000Y-93345000D03*
D15*
X208280000Y-98425000D03*
X198120000Y-98425000D03*
D16*
X199390000Y-95885000D03*
D13*
X203200000Y-98425000D03*
D16*
X205740000Y-93345000D03*
D15*
X227330000Y-98425000D03*
X217170000Y-98425000D03*
D16*
X218440000Y-95885000D03*
D13*
X222250000Y-98425000D03*
D16*
X224790000Y-93345000D03*
D15*
X246380000Y-98425000D03*
X236220000Y-98425000D03*
D16*
X237490000Y-95885000D03*
D13*
X241300000Y-98425000D03*
D16*
X243840000Y-93345000D03*
D15*
X265430000Y-98425000D03*
X255270000Y-98425000D03*
D16*
X256540000Y-95885000D03*
D13*
X260350000Y-98425000D03*
D16*
X262890000Y-93345000D03*
D17*
X248920750Y-36412500D03*
X243140750Y-36412500D03*
D18*
X241710750Y-36942500D03*
X250350750Y-36942500D03*
D19*
X241710750Y-32762500D03*
X250350750Y-32762500D03*
M02*
