M48
;DRILL file {KiCad (5.0.0)} date 11/28/18 22:09:26
;FORMAT={-:-/ absolute / inch / decimal}
FMAT,2
INCH,TZ
T1C0.0256
T2C0.0689
T3C0.1181
T4C0.1200
T5C0.1570
%
G90
G05
M72
T1
X9.5725Y-1.4336
X9.8Y-1.4336
T2
X2.175Y-1.625
X2.575Y-1.625
X6.3Y-3.125
X6.7Y-3.125
X4.5187Y-3.875
X4.9188Y-3.875
X3.3Y-3.125
X3.7Y-3.125
X5.3625Y-2.375
X5.7625Y-2.375
X8.55Y-3.875
X8.95Y-3.875
X2.55Y-3.125
X2.95Y-3.125
X9.9562Y-2.375
X10.3562Y-2.375
X4.8Y-3.125
X5.2Y-3.125
X3.8625Y-2.375
X4.2625Y-2.375
X9.3Y-3.875
X9.7Y-3.875
X1.6125Y-3.125
X2.0125Y-3.125
X2.3625Y-2.375
X2.7625Y-2.375
X6.675Y-1.625
X7.075Y-1.625
X3.675Y-3.875
X4.075Y-3.875
X7.6125Y-2.375
X8.0125Y-2.375
X4.05Y-3.125
X4.45Y-3.125
X8.55Y-3.125
X8.95Y-3.125
X9.8625Y-1.625
X10.2625Y-1.625
X8.175Y-1.625
X8.575Y-1.625
X4.425Y-1.625
X4.825Y-1.625
X1.425Y-3.875
X1.825Y-3.875
X5.925Y-1.625
X6.325Y-1.625
X9.1125Y-2.375
X9.5125Y-2.375
X6.1125Y-2.375
X6.5125Y-2.375
X7.8Y-3.125
X8.2Y-3.125
X2.925Y-3.875
X3.325Y-3.875
X3.1125Y-2.375
X3.5125Y-2.375
X5.175Y-1.625
X5.575Y-1.625
X8.3625Y-2.375
X8.7625Y-2.375
X10.05Y-3.875
X10.45Y-3.875
X2.175Y-3.875
X2.575Y-3.875
X6.9562Y-3.875
X7.3563Y-3.875
X7.425Y-1.625
X7.825Y-1.625
X10.05Y-3.125
X10.45Y-3.125
X3.675Y-1.625
X4.075Y-1.625
X4.6125Y-2.375
X5.0125Y-2.375
X5.55Y-3.125
X5.95Y-3.125
X5.7375Y-3.875
X6.1375Y-3.875
X1.5188Y-2.375
X1.9187Y-2.375
X1.425Y-1.625
X1.825Y-1.625
X8.925Y-1.625
X9.325Y-1.625
X7.05Y-3.125
X7.45Y-3.125
X2.925Y-1.625
X3.325Y-1.625
X9.3Y-3.125
X9.7Y-3.125
X6.8625Y-2.375
X7.2625Y-2.375
X7.8Y-3.875
X8.2Y-3.875
T3
X8.225Y-1.525
X8.475Y-1.425
X4.475Y-1.525
X4.725Y-1.425
X1.475Y-3.775
X1.725Y-3.675
X5.975Y-1.525
X6.225Y-1.425
X9.1625Y-2.275
X9.4125Y-2.175
X6.1625Y-2.275
X6.4125Y-2.175
X7.85Y-3.025
X8.1Y-2.925
X2.975Y-3.775
X3.225Y-3.675
X3.1625Y-2.275
X3.4125Y-2.175
X5.225Y-1.525
X5.475Y-1.425
X8.4125Y-2.275
X8.6625Y-2.175
X10.1Y-3.775
X10.35Y-3.675
X2.225Y-3.775
X2.475Y-3.675
X7.0062Y-3.775
X7.2562Y-3.675
X7.475Y-1.525
X7.725Y-1.425
X10.1Y-3.025
X10.35Y-2.925
X3.725Y-1.525
X3.975Y-1.425
X4.6625Y-2.275
X4.9125Y-2.175
X5.6Y-3.025
X5.85Y-2.925
X5.7875Y-3.775
X6.0375Y-3.675
X1.5687Y-2.275
X1.8187Y-2.175
X1.475Y-1.525
X1.725Y-1.425
X8.975Y-1.525
X9.225Y-1.425
X7.1Y-3.025
X7.35Y-2.925
X2.975Y-1.525
X3.225Y-1.425
X9.35Y-3.025
X9.6Y-2.925
X6.9125Y-2.275
X7.1625Y-2.175
X7.85Y-3.775
X8.1Y-3.675
X2.225Y-1.525
X2.475Y-1.425
X6.35Y-3.025
X6.6Y-2.925
X4.5687Y-3.775
X4.8187Y-3.675
X3.35Y-3.025
X3.6Y-2.925
X5.4125Y-2.275
X5.6625Y-2.175
X8.6Y-3.775
X8.85Y-3.675
X2.6Y-3.025
X2.85Y-2.925
X10.0062Y-2.275
X10.2562Y-2.175
X4.85Y-3.025
X5.1Y-2.925
X3.9125Y-2.275
X4.1625Y-2.175
X9.35Y-3.775
X9.6Y-3.675
X1.6625Y-3.025
X1.9125Y-2.925
X2.4125Y-2.275
X2.6625Y-2.175
X6.725Y-1.525
X6.975Y-1.425
X3.725Y-3.775
X3.975Y-3.675
X7.6625Y-2.275
X7.9125Y-2.175
X4.1Y-3.025
X4.35Y-2.925
X8.6Y-3.025
X8.85Y-2.925
X9.9625Y-1.825
X10.2125Y-1.725
T4
X5.4675Y-4.15
X6.4075Y-4.15
T5
X2.5625Y-2.375
X6.875Y-1.625
X3.875Y-3.875
X7.8125Y-2.375
X4.25Y-3.125
X8.75Y-3.125
X10.0625Y-1.625
X8.375Y-1.625
X4.625Y-1.625
X1.625Y-3.875
X6.125Y-1.625
X9.3125Y-2.375
X6.3125Y-2.375
X8.Y-3.125
X3.125Y-3.875
X3.3125Y-2.375
X5.375Y-1.625
X8.5625Y-2.375
X10.25Y-3.875
X2.375Y-3.875
X7.1562Y-3.875
X7.625Y-1.625
X10.25Y-3.125
X3.875Y-1.625
X4.8125Y-2.375
X5.75Y-3.125
X5.4675Y-3.55
X5.9375Y-3.875
X6.4075Y-3.55
X1.7188Y-2.375
X1.625Y-1.625
X9.125Y-1.625
X7.25Y-3.125
X3.125Y-1.625
X9.5Y-3.125
X7.0625Y-2.375
X8.Y-3.875
X2.375Y-1.625
X6.5Y-3.125
X4.7188Y-3.875
X3.5Y-3.125
X5.5625Y-2.375
X8.75Y-3.875
X2.75Y-3.125
X10.1562Y-2.375
X5.Y-3.125
X4.0625Y-2.375
X9.5Y-3.875
X1.8125Y-3.125
T0
M30
