%TF.GenerationSoftware,KiCad,Pcbnew,(5.0.0)*%
%TF.CreationDate,2018-11-28T22:09:23-08:00*%
%TF.ProjectId,UT47.2,555434372E322E6B696361645F706362,rev?*%
%TF.SameCoordinates,Original*%
%TF.FileFunction,Legend,Top*%
%TF.FilePolarity,Positive*%
%FSLAX46Y46*%
G04 Gerber Fmt 4.6, Leading zero omitted, Abs format (unit mm)*
G04 Created by KiCad (PCBNEW (5.0.0)) date 11/28/18 22:09:23*
%MOMM*%
%LPD*%
G01*
G04 APERTURE LIST*
%ADD10C,0.010000*%
%ADD11C,0.700000*%
%ADD12C,4.387800*%
%ADD13C,3.448000*%
%ADD14C,2.150000*%
%ADD15C,3.400000*%
%ADD16C,1.050000*%
%ADD17O,1.400000X2.500000*%
%ADD18O,1.400000X2.000000*%
G04 APERTURE END LIST*
D10*
G36*
X150542947Y-70749625D02*
X150884149Y-70846847D01*
X151217109Y-71013769D01*
X151537435Y-71250293D01*
X151670536Y-71373709D01*
X151980312Y-71729349D01*
X152244749Y-72134180D01*
X152463470Y-72580426D01*
X152636097Y-73060312D01*
X152762252Y-73566063D01*
X152841557Y-74089902D01*
X152873635Y-74624055D01*
X152858106Y-75160745D01*
X152794594Y-75692198D01*
X152682720Y-76210638D01*
X152522107Y-76708289D01*
X152312376Y-77177376D01*
X152053150Y-77610124D01*
X151978690Y-77714254D01*
X151692426Y-78049224D01*
X151378723Y-78319995D01*
X151040216Y-78524546D01*
X150786430Y-78628414D01*
X150596741Y-78672262D01*
X150365756Y-78696747D01*
X150122391Y-78700872D01*
X149895560Y-78683637D01*
X149781564Y-78663132D01*
X149561401Y-78587085D01*
X149319890Y-78462478D01*
X149075376Y-78301504D01*
X148846207Y-78116359D01*
X148650728Y-77919234D01*
X148635487Y-77901408D01*
X148338249Y-77494476D01*
X148089582Y-77041164D01*
X147890301Y-76549734D01*
X147741220Y-76028447D01*
X147643154Y-75485565D01*
X147596916Y-74929352D01*
X147603322Y-74368069D01*
X147663185Y-73809978D01*
X147777319Y-73263341D01*
X147946540Y-72736421D01*
X148092813Y-72395013D01*
X148261606Y-72069324D01*
X148436910Y-71794372D01*
X148633962Y-71548850D01*
X148867018Y-71312365D01*
X149183553Y-71059650D01*
X149513806Y-70877114D01*
X149853383Y-70764663D01*
X150197894Y-70722198D01*
X150542947Y-70749625D01*
X150542947Y-70749625D01*
G37*
X150542947Y-70749625D02*
X150884149Y-70846847D01*
X151217109Y-71013769D01*
X151537435Y-71250293D01*
X151670536Y-71373709D01*
X151980312Y-71729349D01*
X152244749Y-72134180D01*
X152463470Y-72580426D01*
X152636097Y-73060312D01*
X152762252Y-73566063D01*
X152841557Y-74089902D01*
X152873635Y-74624055D01*
X152858106Y-75160745D01*
X152794594Y-75692198D01*
X152682720Y-76210638D01*
X152522107Y-76708289D01*
X152312376Y-77177376D01*
X152053150Y-77610124D01*
X151978690Y-77714254D01*
X151692426Y-78049224D01*
X151378723Y-78319995D01*
X151040216Y-78524546D01*
X150786430Y-78628414D01*
X150596741Y-78672262D01*
X150365756Y-78696747D01*
X150122391Y-78700872D01*
X149895560Y-78683637D01*
X149781564Y-78663132D01*
X149561401Y-78587085D01*
X149319890Y-78462478D01*
X149075376Y-78301504D01*
X148846207Y-78116359D01*
X148650728Y-77919234D01*
X148635487Y-77901408D01*
X148338249Y-77494476D01*
X148089582Y-77041164D01*
X147890301Y-76549734D01*
X147741220Y-76028447D01*
X147643154Y-75485565D01*
X147596916Y-74929352D01*
X147603322Y-74368069D01*
X147663185Y-73809978D01*
X147777319Y-73263341D01*
X147946540Y-72736421D01*
X148092813Y-72395013D01*
X148261606Y-72069324D01*
X148436910Y-71794372D01*
X148633962Y-71548850D01*
X148867018Y-71312365D01*
X149183553Y-71059650D01*
X149513806Y-70877114D01*
X149853383Y-70764663D01*
X150197894Y-70722198D01*
X150542947Y-70749625D01*
G36*
X124027941Y-45414423D02*
X124155987Y-45425891D01*
X124261116Y-45450346D01*
X124368095Y-45492156D01*
X124405056Y-45509113D01*
X124624814Y-45644349D01*
X124830521Y-45829677D01*
X125000138Y-46043060D01*
X125079101Y-46183158D01*
X125127104Y-46295661D01*
X125156412Y-46398725D01*
X125171395Y-46517117D01*
X125176423Y-46675602D01*
X125176643Y-46736000D01*
X125173734Y-46912298D01*
X125162148Y-47040751D01*
X125137601Y-47145951D01*
X125095805Y-47252491D01*
X125081024Y-47284640D01*
X125003704Y-47425823D01*
X124909851Y-47565255D01*
X124855048Y-47632856D01*
X124724691Y-47777146D01*
X124879561Y-47888366D01*
X124969723Y-47960588D01*
X125092371Y-48068872D01*
X125229609Y-48197045D01*
X125332714Y-48297868D01*
X125634819Y-48624823D01*
X125900148Y-48962078D01*
X126126690Y-49303689D01*
X126312436Y-49643710D01*
X126455376Y-49976197D01*
X126553500Y-50295205D01*
X126604797Y-50594788D01*
X126607258Y-50869002D01*
X126558873Y-51111902D01*
X126457631Y-51317542D01*
X126383988Y-51407201D01*
X126209821Y-51535986D01*
X125992875Y-51611850D01*
X125740600Y-51634256D01*
X125460442Y-51602665D01*
X125159850Y-51516540D01*
X125113646Y-51498957D01*
X124870115Y-51385020D01*
X124600540Y-51227928D01*
X124324556Y-51040919D01*
X124061797Y-50837231D01*
X123847375Y-50645276D01*
X123570393Y-50375693D01*
X123282432Y-50725188D01*
X122987110Y-51048417D01*
X122668622Y-51332916D01*
X122337858Y-51570801D01*
X122005708Y-51754192D01*
X121700561Y-51870250D01*
X121434003Y-51916258D01*
X121202631Y-51920113D01*
X120915068Y-51909217D01*
X120530445Y-52307108D01*
X120400008Y-52439639D01*
X120290773Y-52545998D01*
X120210734Y-52618782D01*
X120167884Y-52650587D01*
X120163260Y-52647210D01*
X120178535Y-52592502D01*
X120208472Y-52482073D01*
X120249187Y-52330363D01*
X120296793Y-52151809D01*
X120313235Y-52089902D01*
X120445772Y-51590384D01*
X120354169Y-51451963D01*
X120218825Y-51184719D01*
X120133178Y-50872479D01*
X120096974Y-50522889D01*
X120107650Y-50210969D01*
X120722283Y-50210969D01*
X120748883Y-50459357D01*
X120771087Y-50610219D01*
X120801894Y-50705262D01*
X120846812Y-50761174D01*
X120849128Y-50762943D01*
X120931858Y-50817569D01*
X121052712Y-50888424D01*
X121195794Y-50967227D01*
X121345208Y-51045699D01*
X121485060Y-51115558D01*
X121599455Y-51168525D01*
X121672497Y-51196319D01*
X121685349Y-51198567D01*
X121752192Y-51183100D01*
X121855921Y-51142654D01*
X121936535Y-51104646D01*
X122123014Y-51010150D01*
X121866832Y-50910477D01*
X121524507Y-50756838D01*
X121200317Y-50572611D01*
X120924083Y-50375338D01*
X120722283Y-50210969D01*
X120107650Y-50210969D01*
X120109957Y-50143596D01*
X120171870Y-49742248D01*
X120196424Y-49649938D01*
X120814329Y-49649938D01*
X120815191Y-49736420D01*
X120856639Y-49810293D01*
X120946813Y-49896167D01*
X120976571Y-49921265D01*
X121122282Y-50031520D01*
X121303666Y-50151282D01*
X121507701Y-50273720D01*
X121721366Y-50392006D01*
X121931639Y-50499309D01*
X122125499Y-50588802D01*
X122289925Y-50653654D01*
X122411893Y-50687037D01*
X122442384Y-50690027D01*
X122499933Y-50665035D01*
X122578635Y-50600282D01*
X122619865Y-50557044D01*
X122737605Y-50422946D01*
X122451267Y-50326487D01*
X121944279Y-50119832D01*
X121480647Y-49855618D01*
X121090843Y-49561099D01*
X120887614Y-49387057D01*
X120845914Y-49526238D01*
X120814329Y-49649938D01*
X120196424Y-49649938D01*
X120282460Y-49326490D01*
X120380344Y-49065896D01*
X121058214Y-49065896D01*
X121086823Y-49107046D01*
X121164541Y-49178154D01*
X121279205Y-49270284D01*
X121418656Y-49374503D01*
X121570730Y-49481877D01*
X121723266Y-49583472D01*
X121864102Y-49670355D01*
X121935890Y-49710622D01*
X122079980Y-49783157D01*
X122248061Y-49861210D01*
X122424574Y-49938323D01*
X122593958Y-50008040D01*
X122740657Y-50063906D01*
X122849112Y-50099463D01*
X122895687Y-50108908D01*
X122934258Y-50079885D01*
X122984890Y-50004411D01*
X123009431Y-49956711D01*
X123081845Y-49802851D01*
X122804815Y-49707608D01*
X122326079Y-49516616D01*
X121906084Y-49293529D01*
X121548420Y-49040354D01*
X121434811Y-48941496D01*
X121267235Y-48787029D01*
X121162724Y-48912215D01*
X121099546Y-48993728D01*
X121062376Y-49052964D01*
X121058214Y-49065896D01*
X120380344Y-49065896D01*
X120439145Y-48909352D01*
X120507551Y-48739880D01*
X120542527Y-48626994D01*
X120543194Y-48573710D01*
X120538048Y-48570095D01*
X120483448Y-48559532D01*
X120451413Y-48554358D01*
X123490288Y-48554358D01*
X123491964Y-48661791D01*
X123497075Y-48746692D01*
X123549232Y-49036064D01*
X123667651Y-49340708D01*
X123849131Y-49654891D01*
X124090470Y-49972876D01*
X124321171Y-50222827D01*
X124605242Y-50482825D01*
X124881679Y-50683020D01*
X125164071Y-50833004D01*
X125217781Y-50855903D01*
X125396066Y-50912321D01*
X125576330Y-50940698D01*
X125736178Y-50939198D01*
X125849939Y-50907781D01*
X125916054Y-50849441D01*
X125974553Y-50764440D01*
X126022217Y-50597394D01*
X126016838Y-50394581D01*
X125962854Y-50164537D01*
X125864701Y-49915798D01*
X125726817Y-49656900D01*
X125553639Y-49396379D01*
X125349604Y-49142770D01*
X125119148Y-48904610D01*
X124916657Y-48729283D01*
X124655000Y-48536961D01*
X124420909Y-48400196D01*
X124202800Y-48313439D01*
X123989092Y-48271142D01*
X123953945Y-48268087D01*
X123822220Y-48260643D01*
X123738453Y-48266413D01*
X123678329Y-48292040D01*
X123617534Y-48344163D01*
X123595507Y-48365982D01*
X123536249Y-48428925D01*
X123503113Y-48484227D01*
X123490288Y-48554358D01*
X120451413Y-48554358D01*
X120378251Y-48542542D01*
X120243760Y-48522541D01*
X120223643Y-48519672D01*
X119848062Y-48447540D01*
X119482737Y-48341639D01*
X119137738Y-48207140D01*
X118823135Y-48049214D01*
X118548998Y-47873032D01*
X118325396Y-47683765D01*
X118162400Y-47486584D01*
X118139559Y-47449421D01*
X118045854Y-47226721D01*
X118023026Y-47007980D01*
X118040966Y-46926291D01*
X118805054Y-46926291D01*
X118837923Y-47081819D01*
X118861075Y-47131558D01*
X118981666Y-47292850D01*
X119163348Y-47440539D01*
X119395508Y-47572204D01*
X119667533Y-47685427D01*
X119968808Y-47777788D01*
X120288722Y-47846868D01*
X120616660Y-47890248D01*
X120942009Y-47905507D01*
X121254156Y-47890227D01*
X121542488Y-47841988D01*
X121729500Y-47785445D01*
X121941396Y-47683696D01*
X122085822Y-47565160D01*
X122164830Y-47433866D01*
X122180472Y-47293843D01*
X122134798Y-47149120D01*
X122029862Y-47003726D01*
X121867714Y-46861691D01*
X121650407Y-46727044D01*
X121379991Y-46603815D01*
X121075380Y-46500877D01*
X120739813Y-46422037D01*
X120398891Y-46375719D01*
X120063974Y-46361117D01*
X119746424Y-46377426D01*
X119457604Y-46423839D01*
X119208873Y-46499550D01*
X119011595Y-46603752D01*
X118951481Y-46651556D01*
X118842545Y-46784788D01*
X118805054Y-46926291D01*
X118040966Y-46926291D01*
X118069379Y-46796921D01*
X118183219Y-46597268D01*
X118362850Y-46412745D01*
X118606579Y-46247078D01*
X118711929Y-46191667D01*
X118953417Y-46082800D01*
X119185894Y-46001285D01*
X119427572Y-45943165D01*
X119696665Y-45904483D01*
X120011386Y-45881285D01*
X120170150Y-45874926D01*
X120644288Y-45873054D01*
X121069686Y-45901940D01*
X121464622Y-45964492D01*
X121847370Y-46063616D01*
X122236208Y-46202222D01*
X122242069Y-46204572D01*
X122548266Y-46327516D01*
X122644189Y-46131615D01*
X122780504Y-45921769D01*
X122969368Y-45727179D01*
X123190853Y-45566770D01*
X123300016Y-45508819D01*
X123412303Y-45460942D01*
X123515374Y-45431715D01*
X123633967Y-45416782D01*
X123792822Y-45411784D01*
X123852214Y-45411571D01*
X124027941Y-45414423D01*
X124027941Y-45414423D01*
G37*
X124027941Y-45414423D02*
X124155987Y-45425891D01*
X124261116Y-45450346D01*
X124368095Y-45492156D01*
X124405056Y-45509113D01*
X124624814Y-45644349D01*
X124830521Y-45829677D01*
X125000138Y-46043060D01*
X125079101Y-46183158D01*
X125127104Y-46295661D01*
X125156412Y-46398725D01*
X125171395Y-46517117D01*
X125176423Y-46675602D01*
X125176643Y-46736000D01*
X125173734Y-46912298D01*
X125162148Y-47040751D01*
X125137601Y-47145951D01*
X125095805Y-47252491D01*
X125081024Y-47284640D01*
X125003704Y-47425823D01*
X124909851Y-47565255D01*
X124855048Y-47632856D01*
X124724691Y-47777146D01*
X124879561Y-47888366D01*
X124969723Y-47960588D01*
X125092371Y-48068872D01*
X125229609Y-48197045D01*
X125332714Y-48297868D01*
X125634819Y-48624823D01*
X125900148Y-48962078D01*
X126126690Y-49303689D01*
X126312436Y-49643710D01*
X126455376Y-49976197D01*
X126553500Y-50295205D01*
X126604797Y-50594788D01*
X126607258Y-50869002D01*
X126558873Y-51111902D01*
X126457631Y-51317542D01*
X126383988Y-51407201D01*
X126209821Y-51535986D01*
X125992875Y-51611850D01*
X125740600Y-51634256D01*
X125460442Y-51602665D01*
X125159850Y-51516540D01*
X125113646Y-51498957D01*
X124870115Y-51385020D01*
X124600540Y-51227928D01*
X124324556Y-51040919D01*
X124061797Y-50837231D01*
X123847375Y-50645276D01*
X123570393Y-50375693D01*
X123282432Y-50725188D01*
X122987110Y-51048417D01*
X122668622Y-51332916D01*
X122337858Y-51570801D01*
X122005708Y-51754192D01*
X121700561Y-51870250D01*
X121434003Y-51916258D01*
X121202631Y-51920113D01*
X120915068Y-51909217D01*
X120530445Y-52307108D01*
X120400008Y-52439639D01*
X120290773Y-52545998D01*
X120210734Y-52618782D01*
X120167884Y-52650587D01*
X120163260Y-52647210D01*
X120178535Y-52592502D01*
X120208472Y-52482073D01*
X120249187Y-52330363D01*
X120296793Y-52151809D01*
X120313235Y-52089902D01*
X120445772Y-51590384D01*
X120354169Y-51451963D01*
X120218825Y-51184719D01*
X120133178Y-50872479D01*
X120096974Y-50522889D01*
X120107650Y-50210969D01*
X120722283Y-50210969D01*
X120748883Y-50459357D01*
X120771087Y-50610219D01*
X120801894Y-50705262D01*
X120846812Y-50761174D01*
X120849128Y-50762943D01*
X120931858Y-50817569D01*
X121052712Y-50888424D01*
X121195794Y-50967227D01*
X121345208Y-51045699D01*
X121485060Y-51115558D01*
X121599455Y-51168525D01*
X121672497Y-51196319D01*
X121685349Y-51198567D01*
X121752192Y-51183100D01*
X121855921Y-51142654D01*
X121936535Y-51104646D01*
X122123014Y-51010150D01*
X121866832Y-50910477D01*
X121524507Y-50756838D01*
X121200317Y-50572611D01*
X120924083Y-50375338D01*
X120722283Y-50210969D01*
X120107650Y-50210969D01*
X120109957Y-50143596D01*
X120171870Y-49742248D01*
X120196424Y-49649938D01*
X120814329Y-49649938D01*
X120815191Y-49736420D01*
X120856639Y-49810293D01*
X120946813Y-49896167D01*
X120976571Y-49921265D01*
X121122282Y-50031520D01*
X121303666Y-50151282D01*
X121507701Y-50273720D01*
X121721366Y-50392006D01*
X121931639Y-50499309D01*
X122125499Y-50588802D01*
X122289925Y-50653654D01*
X122411893Y-50687037D01*
X122442384Y-50690027D01*
X122499933Y-50665035D01*
X122578635Y-50600282D01*
X122619865Y-50557044D01*
X122737605Y-50422946D01*
X122451267Y-50326487D01*
X121944279Y-50119832D01*
X121480647Y-49855618D01*
X121090843Y-49561099D01*
X120887614Y-49387057D01*
X120845914Y-49526238D01*
X120814329Y-49649938D01*
X120196424Y-49649938D01*
X120282460Y-49326490D01*
X120380344Y-49065896D01*
X121058214Y-49065896D01*
X121086823Y-49107046D01*
X121164541Y-49178154D01*
X121279205Y-49270284D01*
X121418656Y-49374503D01*
X121570730Y-49481877D01*
X121723266Y-49583472D01*
X121864102Y-49670355D01*
X121935890Y-49710622D01*
X122079980Y-49783157D01*
X122248061Y-49861210D01*
X122424574Y-49938323D01*
X122593958Y-50008040D01*
X122740657Y-50063906D01*
X122849112Y-50099463D01*
X122895687Y-50108908D01*
X122934258Y-50079885D01*
X122984890Y-50004411D01*
X123009431Y-49956711D01*
X123081845Y-49802851D01*
X122804815Y-49707608D01*
X122326079Y-49516616D01*
X121906084Y-49293529D01*
X121548420Y-49040354D01*
X121434811Y-48941496D01*
X121267235Y-48787029D01*
X121162724Y-48912215D01*
X121099546Y-48993728D01*
X121062376Y-49052964D01*
X121058214Y-49065896D01*
X120380344Y-49065896D01*
X120439145Y-48909352D01*
X120507551Y-48739880D01*
X120542527Y-48626994D01*
X120543194Y-48573710D01*
X120538048Y-48570095D01*
X120483448Y-48559532D01*
X120451413Y-48554358D01*
X123490288Y-48554358D01*
X123491964Y-48661791D01*
X123497075Y-48746692D01*
X123549232Y-49036064D01*
X123667651Y-49340708D01*
X123849131Y-49654891D01*
X124090470Y-49972876D01*
X124321171Y-50222827D01*
X124605242Y-50482825D01*
X124881679Y-50683020D01*
X125164071Y-50833004D01*
X125217781Y-50855903D01*
X125396066Y-50912321D01*
X125576330Y-50940698D01*
X125736178Y-50939198D01*
X125849939Y-50907781D01*
X125916054Y-50849441D01*
X125974553Y-50764440D01*
X126022217Y-50597394D01*
X126016838Y-50394581D01*
X125962854Y-50164537D01*
X125864701Y-49915798D01*
X125726817Y-49656900D01*
X125553639Y-49396379D01*
X125349604Y-49142770D01*
X125119148Y-48904610D01*
X124916657Y-48729283D01*
X124655000Y-48536961D01*
X124420909Y-48400196D01*
X124202800Y-48313439D01*
X123989092Y-48271142D01*
X123953945Y-48268087D01*
X123822220Y-48260643D01*
X123738453Y-48266413D01*
X123678329Y-48292040D01*
X123617534Y-48344163D01*
X123595507Y-48365982D01*
X123536249Y-48428925D01*
X123503113Y-48484227D01*
X123490288Y-48554358D01*
X120451413Y-48554358D01*
X120378251Y-48542542D01*
X120243760Y-48522541D01*
X120223643Y-48519672D01*
X119848062Y-48447540D01*
X119482737Y-48341639D01*
X119137738Y-48207140D01*
X118823135Y-48049214D01*
X118548998Y-47873032D01*
X118325396Y-47683765D01*
X118162400Y-47486584D01*
X118139559Y-47449421D01*
X118045854Y-47226721D01*
X118023026Y-47007980D01*
X118040966Y-46926291D01*
X118805054Y-46926291D01*
X118837923Y-47081819D01*
X118861075Y-47131558D01*
X118981666Y-47292850D01*
X119163348Y-47440539D01*
X119395508Y-47572204D01*
X119667533Y-47685427D01*
X119968808Y-47777788D01*
X120288722Y-47846868D01*
X120616660Y-47890248D01*
X120942009Y-47905507D01*
X121254156Y-47890227D01*
X121542488Y-47841988D01*
X121729500Y-47785445D01*
X121941396Y-47683696D01*
X122085822Y-47565160D01*
X122164830Y-47433866D01*
X122180472Y-47293843D01*
X122134798Y-47149120D01*
X122029862Y-47003726D01*
X121867714Y-46861691D01*
X121650407Y-46727044D01*
X121379991Y-46603815D01*
X121075380Y-46500877D01*
X120739813Y-46422037D01*
X120398891Y-46375719D01*
X120063974Y-46361117D01*
X119746424Y-46377426D01*
X119457604Y-46423839D01*
X119208873Y-46499550D01*
X119011595Y-46603752D01*
X118951481Y-46651556D01*
X118842545Y-46784788D01*
X118805054Y-46926291D01*
X118040966Y-46926291D01*
X118069379Y-46796921D01*
X118183219Y-46597268D01*
X118362850Y-46412745D01*
X118606579Y-46247078D01*
X118711929Y-46191667D01*
X118953417Y-46082800D01*
X119185894Y-46001285D01*
X119427572Y-45943165D01*
X119696665Y-45904483D01*
X120011386Y-45881285D01*
X120170150Y-45874926D01*
X120644288Y-45873054D01*
X121069686Y-45901940D01*
X121464622Y-45964492D01*
X121847370Y-46063616D01*
X122236208Y-46202222D01*
X122242069Y-46204572D01*
X122548266Y-46327516D01*
X122644189Y-46131615D01*
X122780504Y-45921769D01*
X122969368Y-45727179D01*
X123190853Y-45566770D01*
X123300016Y-45508819D01*
X123412303Y-45460942D01*
X123515374Y-45431715D01*
X123633967Y-45416782D01*
X123792822Y-45411784D01*
X123852214Y-45411571D01*
X124027941Y-45414423D01*
G36*
X119038595Y-54255366D02*
X119054474Y-54292172D01*
X119050425Y-54375764D01*
X119045220Y-54419500D01*
X119027224Y-54563267D01*
X119009315Y-54707825D01*
X119005216Y-54741218D01*
X118998219Y-54930758D01*
X119014156Y-55175499D01*
X119050524Y-55462677D01*
X119104823Y-55779526D01*
X119174549Y-56113278D01*
X119257203Y-56451168D01*
X119350281Y-56780430D01*
X119451284Y-57088298D01*
X119481233Y-57170507D01*
X119684756Y-57662738D01*
X119908462Y-58095024D01*
X120161663Y-58479173D01*
X120453671Y-58826993D01*
X120793797Y-59150291D01*
X121191355Y-59460876D01*
X121402929Y-59607312D01*
X121540773Y-59697098D01*
X121724298Y-59813159D01*
X121936614Y-59945003D01*
X122160833Y-60082135D01*
X122364500Y-60204776D01*
X122653338Y-60377908D01*
X122884674Y-60518373D01*
X123063885Y-60629731D01*
X123196354Y-60715541D01*
X123287461Y-60779362D01*
X123342584Y-60824753D01*
X123367106Y-60855273D01*
X123369063Y-60869285D01*
X123329143Y-60909661D01*
X123233929Y-60969101D01*
X123096294Y-61041769D01*
X122929111Y-61121828D01*
X122745252Y-61203443D01*
X122557590Y-61280775D01*
X122378996Y-61347990D01*
X122222343Y-61399249D01*
X122166563Y-61414522D01*
X121965857Y-61455862D01*
X121730169Y-61489828D01*
X121480619Y-61514745D01*
X121238329Y-61528939D01*
X121024418Y-61530734D01*
X120860007Y-61518455D01*
X120858643Y-61518249D01*
X120366235Y-61419981D01*
X119925794Y-61280179D01*
X119526338Y-61093422D01*
X119156888Y-60854290D01*
X118806461Y-60557360D01*
X118699643Y-60452392D01*
X118366328Y-60073906D01*
X118091625Y-59670989D01*
X117869549Y-59232796D01*
X117694110Y-58748479D01*
X117628724Y-58512368D01*
X117528921Y-58006879D01*
X117482307Y-57496959D01*
X117487282Y-56991308D01*
X117542249Y-56498628D01*
X117645608Y-56027620D01*
X117795763Y-55586985D01*
X117991114Y-55185426D01*
X118230062Y-54831643D01*
X118325618Y-54718576D01*
X118443741Y-54601056D01*
X118582008Y-54484742D01*
X118724619Y-54380717D01*
X118855770Y-54300065D01*
X118959661Y-54253869D01*
X118997778Y-54247143D01*
X119038595Y-54255366D01*
X119038595Y-54255366D01*
G37*
X119038595Y-54255366D02*
X119054474Y-54292172D01*
X119050425Y-54375764D01*
X119045220Y-54419500D01*
X119027224Y-54563267D01*
X119009315Y-54707825D01*
X119005216Y-54741218D01*
X118998219Y-54930758D01*
X119014156Y-55175499D01*
X119050524Y-55462677D01*
X119104823Y-55779526D01*
X119174549Y-56113278D01*
X119257203Y-56451168D01*
X119350281Y-56780430D01*
X119451284Y-57088298D01*
X119481233Y-57170507D01*
X119684756Y-57662738D01*
X119908462Y-58095024D01*
X120161663Y-58479173D01*
X120453671Y-58826993D01*
X120793797Y-59150291D01*
X121191355Y-59460876D01*
X121402929Y-59607312D01*
X121540773Y-59697098D01*
X121724298Y-59813159D01*
X121936614Y-59945003D01*
X122160833Y-60082135D01*
X122364500Y-60204776D01*
X122653338Y-60377908D01*
X122884674Y-60518373D01*
X123063885Y-60629731D01*
X123196354Y-60715541D01*
X123287461Y-60779362D01*
X123342584Y-60824753D01*
X123367106Y-60855273D01*
X123369063Y-60869285D01*
X123329143Y-60909661D01*
X123233929Y-60969101D01*
X123096294Y-61041769D01*
X122929111Y-61121828D01*
X122745252Y-61203443D01*
X122557590Y-61280775D01*
X122378996Y-61347990D01*
X122222343Y-61399249D01*
X122166563Y-61414522D01*
X121965857Y-61455862D01*
X121730169Y-61489828D01*
X121480619Y-61514745D01*
X121238329Y-61528939D01*
X121024418Y-61530734D01*
X120860007Y-61518455D01*
X120858643Y-61518249D01*
X120366235Y-61419981D01*
X119925794Y-61280179D01*
X119526338Y-61093422D01*
X119156888Y-60854290D01*
X118806461Y-60557360D01*
X118699643Y-60452392D01*
X118366328Y-60073906D01*
X118091625Y-59670989D01*
X117869549Y-59232796D01*
X117694110Y-58748479D01*
X117628724Y-58512368D01*
X117528921Y-58006879D01*
X117482307Y-57496959D01*
X117487282Y-56991308D01*
X117542249Y-56498628D01*
X117645608Y-56027620D01*
X117795763Y-55586985D01*
X117991114Y-55185426D01*
X118230062Y-54831643D01*
X118325618Y-54718576D01*
X118443741Y-54601056D01*
X118582008Y-54484742D01*
X118724619Y-54380717D01*
X118855770Y-54300065D01*
X118959661Y-54253869D01*
X118997778Y-54247143D01*
X119038595Y-54255366D01*
G36*
X179075598Y-66358972D02*
X179503224Y-66436036D01*
X179945830Y-66550891D01*
X180389933Y-66700521D01*
X180822049Y-66881910D01*
X180855948Y-66897822D01*
X181439208Y-67212645D01*
X181979478Y-67582809D01*
X182473429Y-68003994D01*
X182917732Y-68471880D01*
X183309056Y-68982148D01*
X183644074Y-69530478D01*
X183919456Y-70112550D01*
X184131872Y-70724044D01*
X184272844Y-71331266D01*
X184314936Y-71644285D01*
X184340912Y-72004148D01*
X184350570Y-72386892D01*
X184343706Y-72768555D01*
X184320118Y-73125175D01*
X184290109Y-73369702D01*
X184142739Y-74081644D01*
X183924802Y-74777917D01*
X183636869Y-75457199D01*
X183279511Y-76118168D01*
X182853300Y-76759501D01*
X182784313Y-76852795D01*
X182427434Y-77283375D01*
X182013150Y-77704405D01*
X181556575Y-78103499D01*
X181072821Y-78468271D01*
X180577000Y-78786334D01*
X180143167Y-79017531D01*
X179964307Y-79102767D01*
X179840617Y-79160083D01*
X179762017Y-79193324D01*
X179718424Y-79206331D01*
X179699757Y-79202948D01*
X179695929Y-79188008D01*
X179712213Y-79150417D01*
X179757816Y-79058313D01*
X179827863Y-78921197D01*
X179917482Y-78748567D01*
X180021797Y-78549922D01*
X180072952Y-78453222D01*
X180439339Y-77742133D01*
X180759472Y-77076610D01*
X181036271Y-76448845D01*
X181272654Y-75851034D01*
X181471541Y-75275368D01*
X181635852Y-74714042D01*
X181768507Y-74159250D01*
X181861099Y-73671879D01*
X181894432Y-73412788D01*
X181917014Y-73108692D01*
X181928973Y-72776875D01*
X181930435Y-72434618D01*
X181921527Y-72099204D01*
X181902378Y-71787916D01*
X181873113Y-71518037D01*
X181844020Y-71350495D01*
X181687806Y-70767165D01*
X181473983Y-70199135D01*
X181200580Y-69643618D01*
X180865625Y-69097824D01*
X180467149Y-68558965D01*
X180003180Y-68024252D01*
X179471748Y-67490895D01*
X178870881Y-66956107D01*
X178555077Y-66696357D01*
X178121797Y-66348428D01*
X178319220Y-66330285D01*
X178676436Y-66322716D01*
X179075598Y-66358972D01*
X179075598Y-66358972D01*
G37*
X179075598Y-66358972D02*
X179503224Y-66436036D01*
X179945830Y-66550891D01*
X180389933Y-66700521D01*
X180822049Y-66881910D01*
X180855948Y-66897822D01*
X181439208Y-67212645D01*
X181979478Y-67582809D01*
X182473429Y-68003994D01*
X182917732Y-68471880D01*
X183309056Y-68982148D01*
X183644074Y-69530478D01*
X183919456Y-70112550D01*
X184131872Y-70724044D01*
X184272844Y-71331266D01*
X184314936Y-71644285D01*
X184340912Y-72004148D01*
X184350570Y-72386892D01*
X184343706Y-72768555D01*
X184320118Y-73125175D01*
X184290109Y-73369702D01*
X184142739Y-74081644D01*
X183924802Y-74777917D01*
X183636869Y-75457199D01*
X183279511Y-76118168D01*
X182853300Y-76759501D01*
X182784313Y-76852795D01*
X182427434Y-77283375D01*
X182013150Y-77704405D01*
X181556575Y-78103499D01*
X181072821Y-78468271D01*
X180577000Y-78786334D01*
X180143167Y-79017531D01*
X179964307Y-79102767D01*
X179840617Y-79160083D01*
X179762017Y-79193324D01*
X179718424Y-79206331D01*
X179699757Y-79202948D01*
X179695929Y-79188008D01*
X179712213Y-79150417D01*
X179757816Y-79058313D01*
X179827863Y-78921197D01*
X179917482Y-78748567D01*
X180021797Y-78549922D01*
X180072952Y-78453222D01*
X180439339Y-77742133D01*
X180759472Y-77076610D01*
X181036271Y-76448845D01*
X181272654Y-75851034D01*
X181471541Y-75275368D01*
X181635852Y-74714042D01*
X181768507Y-74159250D01*
X181861099Y-73671879D01*
X181894432Y-73412788D01*
X181917014Y-73108692D01*
X181928973Y-72776875D01*
X181930435Y-72434618D01*
X181921527Y-72099204D01*
X181902378Y-71787916D01*
X181873113Y-71518037D01*
X181844020Y-71350495D01*
X181687806Y-70767165D01*
X181473983Y-70199135D01*
X181200580Y-69643618D01*
X180865625Y-69097824D01*
X180467149Y-68558965D01*
X180003180Y-68024252D01*
X179471748Y-67490895D01*
X178870881Y-66956107D01*
X178555077Y-66696357D01*
X178121797Y-66348428D01*
X178319220Y-66330285D01*
X178676436Y-66322716D01*
X179075598Y-66358972D01*
G36*
X133014811Y-44099916D02*
X133108925Y-44118454D01*
X133249536Y-44148559D01*
X133424579Y-44187676D01*
X133544237Y-44215133D01*
X134683989Y-44470256D01*
X135796358Y-44700588D01*
X136891874Y-44907574D01*
X137981068Y-45092655D01*
X139074470Y-45257274D01*
X140182610Y-45402874D01*
X141316021Y-45530897D01*
X142485231Y-45642787D01*
X143700772Y-45739986D01*
X144973174Y-45823937D01*
X145512485Y-45854794D01*
X145773361Y-45866638D01*
X146099341Y-45877387D01*
X146482967Y-45887027D01*
X146916780Y-45895541D01*
X147393320Y-45902915D01*
X147905130Y-45909133D01*
X148444751Y-45914181D01*
X149004722Y-45918042D01*
X149577587Y-45920701D01*
X150155885Y-45922144D01*
X150732158Y-45922355D01*
X151298947Y-45921318D01*
X151848794Y-45919019D01*
X152374239Y-45915443D01*
X152867823Y-45910573D01*
X153322088Y-45904395D01*
X153729575Y-45896893D01*
X154082825Y-45888053D01*
X154374380Y-45877858D01*
X154477357Y-45873133D01*
X155984240Y-45786108D01*
X157429841Y-45678890D01*
X158822905Y-45550329D01*
X160172179Y-45399276D01*
X161486409Y-45224582D01*
X162774341Y-45025097D01*
X164044721Y-44799673D01*
X165306294Y-44547159D01*
X166389188Y-44307844D01*
X166621055Y-44254303D01*
X166833678Y-44205001D01*
X167015218Y-44162700D01*
X167153837Y-44130162D01*
X167237694Y-44110148D01*
X167251879Y-44106622D01*
X167289326Y-44102375D01*
X167329044Y-44114493D01*
X167378899Y-44150301D01*
X167446758Y-44217123D01*
X167540488Y-44322285D01*
X167667954Y-44473111D01*
X167745010Y-44565782D01*
X168243989Y-45193369D01*
X168724768Y-45852170D01*
X169197723Y-46556875D01*
X169560123Y-47135143D01*
X170310968Y-48423478D01*
X171031861Y-49775515D01*
X171721950Y-51188473D01*
X172380381Y-52659572D01*
X173006301Y-54186031D01*
X173598858Y-55765070D01*
X174157198Y-57393908D01*
X174680468Y-59069765D01*
X175167815Y-60789861D01*
X175618386Y-62551414D01*
X176031328Y-64351644D01*
X176405788Y-66187771D01*
X176740913Y-68057014D01*
X177035849Y-69956592D01*
X177289744Y-71883726D01*
X177372724Y-72599714D01*
X177472379Y-73529491D01*
X177561481Y-74442263D01*
X177640564Y-75347297D01*
X177710160Y-76253859D01*
X177770804Y-77171217D01*
X177823027Y-78108638D01*
X177867363Y-79075387D01*
X177904346Y-80080733D01*
X177934507Y-81133942D01*
X177958381Y-82244282D01*
X177970685Y-82994500D01*
X177989607Y-84291714D01*
X122364500Y-84291714D01*
X122365196Y-83302928D01*
X122391315Y-81088863D01*
X122405842Y-80663143D01*
X126019299Y-80663143D01*
X174326501Y-80663143D01*
X174309380Y-80527071D01*
X174302980Y-80448411D01*
X174295447Y-80311199D01*
X174287398Y-80129434D01*
X174279452Y-79917114D01*
X174272229Y-79688240D01*
X174272092Y-79683428D01*
X174266335Y-79510465D01*
X174257931Y-79297344D01*
X174247373Y-79053545D01*
X174235157Y-78788545D01*
X174221778Y-78511822D01*
X174207731Y-78232855D01*
X174193510Y-77961121D01*
X174179611Y-77706099D01*
X174166528Y-77477266D01*
X174154757Y-77284100D01*
X174144792Y-77136080D01*
X174137128Y-77042684D01*
X174132658Y-77013190D01*
X174096912Y-77019085D01*
X174003617Y-77038260D01*
X173865990Y-77067907D01*
X173697246Y-77105218D01*
X173654357Y-77114827D01*
X173211019Y-77214022D01*
X172774736Y-77310902D01*
X172351193Y-77404254D01*
X171946070Y-77492864D01*
X171565052Y-77575520D01*
X171213820Y-77651008D01*
X170898058Y-77718114D01*
X170623448Y-77775625D01*
X170395673Y-77822328D01*
X170220415Y-77857010D01*
X170103359Y-77878456D01*
X170050185Y-77885454D01*
X170047634Y-77884944D01*
X170036466Y-77841486D01*
X170025472Y-77745450D01*
X170016881Y-77616798D01*
X170016293Y-77604123D01*
X170010889Y-77494219D01*
X170001948Y-77325473D01*
X169990224Y-77111490D01*
X169976468Y-76865873D01*
X169961430Y-76602225D01*
X169950968Y-76421488D01*
X169936990Y-76170652D01*
X169925606Y-75944554D01*
X169917211Y-75753026D01*
X169912201Y-75605904D01*
X169910973Y-75513021D01*
X169913197Y-75484065D01*
X169950598Y-75473488D01*
X170052448Y-75448796D01*
X170212318Y-75411453D01*
X170423778Y-75362919D01*
X170680396Y-75304657D01*
X170975744Y-75238130D01*
X171303391Y-75164799D01*
X171656907Y-75086127D01*
X171900590Y-75032139D01*
X172268392Y-74950352D01*
X172615118Y-74872396D01*
X172934254Y-74799792D01*
X173219284Y-74734064D01*
X173463692Y-74676735D01*
X173660964Y-74629328D01*
X173804585Y-74593366D01*
X173888038Y-74570373D01*
X173906916Y-74563118D01*
X173915677Y-74514739D01*
X173914433Y-74398445D01*
X173903411Y-74218163D01*
X173882840Y-73977823D01*
X173859275Y-73741270D01*
X173830178Y-73469158D01*
X173798071Y-73179525D01*
X173764040Y-72881211D01*
X173729171Y-72583055D01*
X173694551Y-72293897D01*
X173661266Y-72022576D01*
X173630402Y-71777934D01*
X173603046Y-71568808D01*
X173580285Y-71404040D01*
X173563204Y-71292469D01*
X173552891Y-71242935D01*
X173552041Y-71241445D01*
X173513935Y-71244738D01*
X173415193Y-71262084D01*
X173265942Y-71291453D01*
X173076312Y-71330817D01*
X172856434Y-71378145D01*
X172724918Y-71407138D01*
X172466909Y-71464246D01*
X172157209Y-71532406D01*
X171815077Y-71607406D01*
X171459767Y-71685031D01*
X171110538Y-71761065D01*
X170805929Y-71827124D01*
X170530510Y-71886860D01*
X170276380Y-71942261D01*
X170052647Y-71991317D01*
X169868418Y-72032023D01*
X169732802Y-72062371D01*
X169654906Y-72080352D01*
X169641082Y-72083883D01*
X169613926Y-72081460D01*
X169592454Y-72048292D01*
X169573593Y-71973249D01*
X169554268Y-71845200D01*
X169537932Y-71710384D01*
X169519078Y-71552500D01*
X169492833Y-71340831D01*
X169461498Y-71093512D01*
X169427376Y-70828679D01*
X169392766Y-70564468D01*
X169387305Y-70523217D01*
X169357816Y-70290888D01*
X169333958Y-70083061D01*
X169316744Y-69910375D01*
X169307190Y-69783467D01*
X169306310Y-69712976D01*
X169309026Y-69702484D01*
X169348665Y-69690296D01*
X169452638Y-69664156D01*
X169614376Y-69625575D01*
X169827306Y-69576061D01*
X170084857Y-69517121D01*
X170380460Y-69450265D01*
X170707542Y-69377002D01*
X171059532Y-69298839D01*
X171257334Y-69255195D01*
X171619465Y-69175281D01*
X171959812Y-69099808D01*
X172271867Y-69030244D01*
X172549122Y-68968056D01*
X172785072Y-68914714D01*
X172973209Y-68871685D01*
X173107026Y-68840438D01*
X173180015Y-68822440D01*
X173191866Y-68818730D01*
X173190659Y-68778965D01*
X173176980Y-68676168D01*
X173152303Y-68518523D01*
X173118100Y-68314219D01*
X173075841Y-68071441D01*
X173027001Y-67798375D01*
X172973049Y-67503208D01*
X172915460Y-67194126D01*
X172855705Y-66879316D01*
X172795256Y-66566963D01*
X172735585Y-66265255D01*
X172708482Y-66130714D01*
X172641738Y-65800854D01*
X172587926Y-65535197D01*
X172545124Y-65326912D01*
X172511406Y-65169169D01*
X172484849Y-65055137D01*
X172463529Y-64977985D01*
X172445521Y-64930882D01*
X172428901Y-64906997D01*
X172411746Y-64899499D01*
X172392131Y-64901558D01*
X172368132Y-64906342D01*
X172363763Y-64906904D01*
X172311954Y-64916479D01*
X172196337Y-64940253D01*
X172023951Y-64976707D01*
X171801837Y-65024323D01*
X171537036Y-65081583D01*
X171236586Y-65146968D01*
X170907530Y-65218961D01*
X170556907Y-65296042D01*
X170450486Y-65319509D01*
X170097728Y-65396938D01*
X169766742Y-65468798D01*
X169464219Y-65533691D01*
X169196850Y-65590219D01*
X168971325Y-65636984D01*
X168794334Y-65672590D01*
X168672569Y-65695639D01*
X168612719Y-65704734D01*
X168607690Y-65704428D01*
X168593760Y-65663988D01*
X168568869Y-65566866D01*
X168536507Y-65427494D01*
X168500164Y-65260308D01*
X168499159Y-65255537D01*
X168460997Y-65077888D01*
X168410975Y-64850355D01*
X168353726Y-64593728D01*
X168293885Y-64328796D01*
X168242785Y-64105408D01*
X168193382Y-63887839D01*
X168151104Y-63695650D01*
X168118189Y-63539534D01*
X168096878Y-63430183D01*
X168089412Y-63378290D01*
X168089902Y-63375595D01*
X168126778Y-63365884D01*
X168227736Y-63342127D01*
X168385977Y-63305854D01*
X168594703Y-63258598D01*
X168847115Y-63201890D01*
X169136416Y-63137262D01*
X169455806Y-63066245D01*
X169798488Y-62990372D01*
X169862500Y-62976233D01*
X170213641Y-62898605D01*
X170546793Y-62824767D01*
X170854527Y-62756379D01*
X171129413Y-62695101D01*
X171364024Y-62642591D01*
X171550930Y-62600509D01*
X171682702Y-62570515D01*
X171751912Y-62554269D01*
X171755627Y-62553330D01*
X171888898Y-62518997D01*
X171762555Y-62038855D01*
X171661149Y-61661093D01*
X171544054Y-61237667D01*
X171417922Y-60791959D01*
X171289405Y-60347351D01*
X171165155Y-59927227D01*
X171107090Y-59734901D01*
X171040470Y-59520782D01*
X170989077Y-59368380D01*
X170949378Y-59269308D01*
X170917842Y-59215177D01*
X170890935Y-59197600D01*
X170881304Y-59198726D01*
X170830295Y-59211398D01*
X170717796Y-59237403D01*
X170551916Y-59274959D01*
X170340766Y-59322283D01*
X170092456Y-59377593D01*
X169815098Y-59439108D01*
X169516801Y-59505044D01*
X169205677Y-59573620D01*
X168889836Y-59643053D01*
X168577388Y-59711561D01*
X168276444Y-59777361D01*
X167995115Y-59838672D01*
X167741511Y-59893711D01*
X167523743Y-59940696D01*
X167349921Y-59977845D01*
X167228156Y-60003375D01*
X167166558Y-60015505D01*
X167160905Y-60016265D01*
X167137115Y-59983572D01*
X167095341Y-59893275D01*
X167040226Y-59756719D01*
X166976414Y-59585255D01*
X166927076Y-59444765D01*
X166838803Y-59191711D01*
X166736176Y-58904413D01*
X166630887Y-58615234D01*
X166534629Y-58356537D01*
X166518657Y-58314371D01*
X166448360Y-58127481D01*
X166389023Y-57965959D01*
X166344720Y-57841211D01*
X166319528Y-57764644D01*
X166315488Y-57745774D01*
X166351658Y-57736382D01*
X166452180Y-57712828D01*
X166610539Y-57676580D01*
X166820218Y-57629105D01*
X167074700Y-57571871D01*
X167367470Y-57506346D01*
X167692012Y-57433997D01*
X168041809Y-57356291D01*
X168227864Y-57315064D01*
X168588170Y-57235116D01*
X168926644Y-57159667D01*
X169236754Y-57090198D01*
X169511967Y-57028189D01*
X169745754Y-56975118D01*
X169931581Y-56932466D01*
X170062918Y-56901712D01*
X170133234Y-56884335D01*
X170143489Y-56881106D01*
X170137552Y-56841377D01*
X170106756Y-56742209D01*
X170054074Y-56591189D01*
X169982474Y-56395900D01*
X169894926Y-56163929D01*
X169794401Y-55902861D01*
X169683868Y-55620282D01*
X169566297Y-55323777D01*
X169444659Y-55020932D01*
X169321924Y-54719332D01*
X169201061Y-54426562D01*
X169085040Y-54150208D01*
X168976831Y-53897856D01*
X168963028Y-53866143D01*
X168883384Y-53683644D01*
X168814624Y-53526322D01*
X168761652Y-53405373D01*
X168729369Y-53331995D01*
X168721714Y-53314945D01*
X168686868Y-53320253D01*
X168592359Y-53339187D01*
X168449314Y-53369396D01*
X168268863Y-53408533D01*
X168065493Y-53453496D01*
X167464255Y-53587228D01*
X166914177Y-53708869D01*
X166417354Y-53817971D01*
X165975883Y-53914086D01*
X165591863Y-53996769D01*
X165267388Y-54065571D01*
X165004557Y-54120046D01*
X164805466Y-54159745D01*
X164672213Y-54184223D01*
X164606893Y-54193032D01*
X164600594Y-54192419D01*
X164567524Y-54153125D01*
X164513390Y-54071194D01*
X164471989Y-54002198D01*
X164371627Y-53835845D01*
X164239097Y-53626580D01*
X164084944Y-53390159D01*
X163919714Y-53142338D01*
X163753953Y-52898875D01*
X163598206Y-52675525D01*
X163463020Y-52488047D01*
X163420629Y-52431329D01*
X163295603Y-52260177D01*
X163217496Y-52139046D01*
X163187101Y-52069256D01*
X163193304Y-52052048D01*
X163244320Y-52038740D01*
X163352206Y-52013814D01*
X163502786Y-51980447D01*
X163681882Y-51941816D01*
X163748357Y-51927706D01*
X163979859Y-51878424D01*
X164247509Y-51820846D01*
X164543806Y-51756633D01*
X164861247Y-51687450D01*
X165192330Y-51614958D01*
X165529552Y-51540821D01*
X165865412Y-51466702D01*
X166192406Y-51394263D01*
X166503033Y-51325168D01*
X166789790Y-51261078D01*
X167045175Y-51203658D01*
X167261686Y-51154570D01*
X167431820Y-51115477D01*
X167548074Y-51088041D01*
X167602947Y-51073926D01*
X167606267Y-51072614D01*
X167597774Y-51033231D01*
X167555903Y-50939428D01*
X167485017Y-50798770D01*
X167389477Y-50618822D01*
X167273646Y-50407151D01*
X167141887Y-50171320D01*
X166998563Y-49918896D01*
X166848036Y-49657444D01*
X166694668Y-49394530D01*
X166542823Y-49137719D01*
X166396863Y-48894575D01*
X166261150Y-48672666D01*
X166140047Y-48479555D01*
X166037917Y-48322809D01*
X165959122Y-48209993D01*
X165944205Y-48190343D01*
X165922175Y-48165248D01*
X165894679Y-48149411D01*
X165850970Y-48143713D01*
X165780303Y-48149033D01*
X165671930Y-48166251D01*
X165515104Y-48196246D01*
X165299079Y-48239898D01*
X165272357Y-48245344D01*
X164123195Y-48464840D01*
X162913698Y-48667729D01*
X161654467Y-48852718D01*
X160356104Y-49018513D01*
X159029212Y-49163822D01*
X157684392Y-49287351D01*
X156332245Y-49387808D01*
X155493357Y-49438021D01*
X154542334Y-49482863D01*
X153535209Y-49517791D01*
X152484983Y-49542847D01*
X151404657Y-49558072D01*
X150307231Y-49563510D01*
X149205705Y-49559203D01*
X148113080Y-49545192D01*
X147042356Y-49521520D01*
X146006534Y-49488229D01*
X145018614Y-49445361D01*
X144226643Y-49401449D01*
X142900107Y-49307183D01*
X141564914Y-49188099D01*
X140233728Y-49045809D01*
X138919220Y-48881926D01*
X137634055Y-48698063D01*
X136390901Y-48495834D01*
X135202427Y-48276850D01*
X134864943Y-48209453D01*
X134698308Y-48176038D01*
X134560906Y-48149407D01*
X134466383Y-48132137D01*
X134428385Y-48126808D01*
X134428196Y-48126938D01*
X134409336Y-48157925D01*
X134360884Y-48233921D01*
X134292903Y-48339156D01*
X134285397Y-48350714D01*
X134155987Y-48553283D01*
X134012573Y-48783681D01*
X133859360Y-49034613D01*
X133700557Y-49298785D01*
X133540370Y-49568900D01*
X133383007Y-49837664D01*
X133232676Y-50097781D01*
X133093583Y-50341957D01*
X132969936Y-50562895D01*
X132865942Y-50753302D01*
X132785808Y-50905882D01*
X132733743Y-51013339D01*
X132713952Y-51068379D01*
X132715013Y-51073645D01*
X132751159Y-51082720D01*
X132850639Y-51105585D01*
X133005882Y-51140574D01*
X133209317Y-51186019D01*
X133453370Y-51240252D01*
X133730472Y-51301607D01*
X134033050Y-51368416D01*
X134353533Y-51439012D01*
X134684348Y-51511727D01*
X135017925Y-51584894D01*
X135346692Y-51656847D01*
X135663077Y-51725916D01*
X135959509Y-51790436D01*
X136228415Y-51848739D01*
X136462225Y-51899157D01*
X136525000Y-51912626D01*
X136730067Y-51957621D01*
X136908171Y-51998723D01*
X137048138Y-52033185D01*
X137138795Y-52058263D01*
X137169071Y-52070874D01*
X137148626Y-52105853D01*
X137092569Y-52187669D01*
X137008818Y-52305096D01*
X136905293Y-52446905D01*
X136874340Y-52488778D01*
X136653231Y-52795584D01*
X136422466Y-53130800D01*
X136197909Y-53470648D01*
X135995423Y-53791346D01*
X135901081Y-53947785D01*
X135829409Y-54067366D01*
X135772822Y-54158527D01*
X135740392Y-54206779D01*
X135736351Y-54210857D01*
X135697886Y-54203357D01*
X135596880Y-54182069D01*
X135441663Y-54148810D01*
X135240568Y-54105397D01*
X135001926Y-54053647D01*
X134734069Y-53995378D01*
X134445329Y-53932405D01*
X134144037Y-53866547D01*
X133838526Y-53799621D01*
X133537127Y-53733442D01*
X133248171Y-53669830D01*
X132979992Y-53610600D01*
X132742487Y-53557919D01*
X132480917Y-53499991D01*
X132240371Y-53447198D01*
X132030567Y-53401638D01*
X131861227Y-53365403D01*
X131742070Y-53340590D01*
X131682816Y-53329294D01*
X131680146Y-53328941D01*
X131639270Y-53343749D01*
X131591477Y-53402839D01*
X131530672Y-53515262D01*
X131477216Y-53630285D01*
X131370168Y-53873273D01*
X131254077Y-54143919D01*
X131131811Y-54434913D01*
X131006239Y-54738945D01*
X130880230Y-55048705D01*
X130756650Y-55356883D01*
X130638370Y-55656168D01*
X130528256Y-55939251D01*
X130429178Y-56198822D01*
X130344003Y-56427570D01*
X130275599Y-56618185D01*
X130226836Y-56763357D01*
X130200582Y-56855777D01*
X130198972Y-56888013D01*
X130238746Y-56897565D01*
X130342746Y-56921267D01*
X130504329Y-56957635D01*
X130716853Y-57005188D01*
X130973675Y-57062444D01*
X131268153Y-57127921D01*
X131593644Y-57200136D01*
X131943507Y-57277607D01*
X132106790Y-57313715D01*
X132465061Y-57393155D01*
X132801605Y-57468253D01*
X133109826Y-57537504D01*
X133383128Y-57599405D01*
X133614917Y-57652450D01*
X133798598Y-57695136D01*
X133927574Y-57725956D01*
X133995252Y-57743408D01*
X134003963Y-57746510D01*
X133996990Y-57784054D01*
X133967797Y-57879426D01*
X133919797Y-58022560D01*
X133856402Y-58203392D01*
X133781024Y-58411856D01*
X133748515Y-58500094D01*
X133658035Y-58746748D01*
X133567448Y-58997871D01*
X133483025Y-59235779D01*
X133411036Y-59442789D01*
X133357750Y-59601216D01*
X133353944Y-59612928D01*
X133301106Y-59767127D01*
X133252233Y-59893651D01*
X133213419Y-59977632D01*
X133193548Y-60004259D01*
X133151644Y-59999496D01*
X133045704Y-59980278D01*
X132882509Y-59948020D01*
X132668839Y-59904137D01*
X132411472Y-59850044D01*
X132117190Y-59787158D01*
X131792771Y-59716894D01*
X131444995Y-59640667D01*
X131324834Y-59614129D01*
X130970172Y-59535784D01*
X130636190Y-59462260D01*
X130329736Y-59395045D01*
X130057657Y-59335630D01*
X129826803Y-59285505D01*
X129644020Y-59246160D01*
X129516157Y-59219085D01*
X129450062Y-59205771D01*
X129443018Y-59204655D01*
X129413946Y-59237732D01*
X129368368Y-59339065D01*
X129306994Y-59506409D01*
X129230530Y-59737521D01*
X129139687Y-60030155D01*
X129035172Y-60382067D01*
X128917694Y-60791014D01*
X128787962Y-61254750D01*
X128734230Y-61449857D01*
X128651970Y-61749844D01*
X128587290Y-61987302D01*
X128538721Y-62169731D01*
X128504793Y-62304627D01*
X128484038Y-62399491D01*
X128474988Y-62461820D01*
X128476172Y-62499113D01*
X128486124Y-62518868D01*
X128503372Y-62528583D01*
X128521807Y-62534280D01*
X128569173Y-62545902D01*
X128680439Y-62571640D01*
X128848650Y-62609929D01*
X129066850Y-62659202D01*
X129328081Y-62717894D01*
X129625387Y-62784441D01*
X129951813Y-62857276D01*
X130300402Y-62934834D01*
X130399712Y-62956890D01*
X130751519Y-63035172D01*
X131081707Y-63108986D01*
X131383528Y-63176799D01*
X131650234Y-63237078D01*
X131875077Y-63288292D01*
X132051309Y-63328907D01*
X132172180Y-63357391D01*
X132230944Y-63372213D01*
X132235442Y-63373759D01*
X132235054Y-63411958D01*
X132219703Y-63509305D01*
X132191584Y-63654436D01*
X132152895Y-63835984D01*
X132107893Y-64033790D01*
X132048755Y-64290558D01*
X131985911Y-64570327D01*
X131925257Y-64846409D01*
X131872688Y-65092118D01*
X131851050Y-65196357D01*
X131811154Y-65379178D01*
X131772693Y-65533613D01*
X131739164Y-65647122D01*
X131714065Y-65707167D01*
X131706816Y-65713428D01*
X131665006Y-65705760D01*
X131559055Y-65683725D01*
X131395645Y-65648780D01*
X131181461Y-65602383D01*
X130923185Y-65545989D01*
X130627502Y-65481055D01*
X130301096Y-65409037D01*
X129950649Y-65331394D01*
X129787285Y-65295095D01*
X129429114Y-65215819D01*
X129092652Y-65142078D01*
X128784478Y-65075264D01*
X128511173Y-65016768D01*
X128279318Y-64967984D01*
X128095492Y-64930302D01*
X127966276Y-64905114D01*
X127898250Y-64893811D01*
X127889314Y-64893662D01*
X127877423Y-64933331D01*
X127853711Y-65035868D01*
X127819846Y-65192831D01*
X127777498Y-65395782D01*
X127728339Y-65636281D01*
X127674038Y-65905888D01*
X127616265Y-66196165D01*
X127556689Y-66498671D01*
X127496982Y-66804968D01*
X127438813Y-67106614D01*
X127383852Y-67395172D01*
X127333769Y-67662201D01*
X127290234Y-67899262D01*
X127254917Y-68097915D01*
X127252577Y-68111434D01*
X127129810Y-68822153D01*
X129087357Y-69254434D01*
X131044904Y-69686714D01*
X131025411Y-69886285D01*
X131015232Y-69979726D01*
X130997637Y-70129948D01*
X130974199Y-70324385D01*
X130946495Y-70550470D01*
X130916099Y-70795637D01*
X130884587Y-71047319D01*
X130853534Y-71292949D01*
X130824516Y-71519961D01*
X130799108Y-71715789D01*
X130778884Y-71867864D01*
X130765421Y-71963622D01*
X130763286Y-71977354D01*
X130744874Y-72090850D01*
X130410044Y-72018350D01*
X130304001Y-71995247D01*
X130136200Y-71958508D01*
X129915748Y-71910136D01*
X129651756Y-71852132D01*
X129353331Y-71786498D01*
X129029581Y-71715236D01*
X128689616Y-71640349D01*
X128460934Y-71589943D01*
X128129896Y-71517263D01*
X127821201Y-71450076D01*
X127541943Y-71389885D01*
X127299214Y-71338191D01*
X127100107Y-71296493D01*
X126951713Y-71266295D01*
X126861127Y-71249097D01*
X126834902Y-71245789D01*
X126825879Y-71285243D01*
X126809571Y-71387751D01*
X126787060Y-71544594D01*
X126759426Y-71747053D01*
X126727752Y-71986406D01*
X126693117Y-72253935D01*
X126656603Y-72540920D01*
X126619292Y-72838642D01*
X126582265Y-73138379D01*
X126546602Y-73431414D01*
X126513386Y-73709026D01*
X126483696Y-73962495D01*
X126458615Y-74183101D01*
X126439223Y-74362126D01*
X126426602Y-74490849D01*
X126421833Y-74560551D01*
X126422662Y-74570494D01*
X126461640Y-74582091D01*
X126565009Y-74607631D01*
X126726249Y-74645631D01*
X126938836Y-74694603D01*
X127196251Y-74753065D01*
X127491972Y-74819530D01*
X127819477Y-74892515D01*
X128172246Y-74970534D01*
X128387929Y-75017961D01*
X128753589Y-75098248D01*
X129098758Y-75174134D01*
X129416780Y-75244149D01*
X129700998Y-75306822D01*
X129944756Y-75360683D01*
X130141398Y-75404264D01*
X130284268Y-75436092D01*
X130366710Y-75454699D01*
X130384129Y-75458831D01*
X130403045Y-75471203D01*
X130415579Y-75502680D01*
X130421902Y-75562838D01*
X130422185Y-75661254D01*
X130416599Y-75807504D01*
X130405314Y-76011166D01*
X130396538Y-76154363D01*
X130380441Y-76420077D01*
X130363790Y-76708651D01*
X130348072Y-76993445D01*
X130334769Y-77247819D01*
X130328779Y-77370214D01*
X130318431Y-77557781D01*
X130306817Y-77716498D01*
X130295086Y-77833760D01*
X130284386Y-77896965D01*
X130280085Y-77904415D01*
X130241305Y-77896628D01*
X130138038Y-77874576D01*
X129976661Y-77839651D01*
X129763549Y-77793248D01*
X129505078Y-77736758D01*
X129207624Y-77671576D01*
X128877562Y-77599093D01*
X128521269Y-77520703D01*
X128234123Y-77457428D01*
X126211604Y-77011453D01*
X126193720Y-77122798D01*
X126187258Y-77188404D01*
X126178098Y-77317461D01*
X126166707Y-77500917D01*
X126153551Y-77729721D01*
X126139098Y-77994819D01*
X126123814Y-78287162D01*
X126108166Y-78597696D01*
X126092621Y-78917371D01*
X126077645Y-79237135D01*
X126063705Y-79547935D01*
X126051268Y-79840720D01*
X126043432Y-80037214D01*
X126019299Y-80663143D01*
X122405842Y-80663143D01*
X122466208Y-78894225D01*
X122589369Y-76721803D01*
X122760289Y-74574384D01*
X122978464Y-72454756D01*
X123243385Y-70365709D01*
X123554546Y-68310031D01*
X123911441Y-66290509D01*
X124313562Y-64309931D01*
X124760402Y-62371087D01*
X125251456Y-60476765D01*
X125786215Y-58629752D01*
X126364174Y-56832837D01*
X126984825Y-55088809D01*
X127647662Y-53400455D01*
X127916749Y-52759428D01*
X128415412Y-51628746D01*
X128923789Y-50545306D01*
X129440086Y-49512250D01*
X129962508Y-48532723D01*
X130489261Y-47609866D01*
X131018549Y-46746822D01*
X131548579Y-45946735D01*
X132077556Y-45212747D01*
X132603685Y-44548001D01*
X132609760Y-44540714D01*
X132734409Y-44391147D01*
X132841426Y-44262478D01*
X132922748Y-44164420D01*
X132970312Y-44106689D01*
X132979261Y-44095501D01*
X133014811Y-44099916D01*
X133014811Y-44099916D01*
G37*
X133014811Y-44099916D02*
X133108925Y-44118454D01*
X133249536Y-44148559D01*
X133424579Y-44187676D01*
X133544237Y-44215133D01*
X134683989Y-44470256D01*
X135796358Y-44700588D01*
X136891874Y-44907574D01*
X137981068Y-45092655D01*
X139074470Y-45257274D01*
X140182610Y-45402874D01*
X141316021Y-45530897D01*
X142485231Y-45642787D01*
X143700772Y-45739986D01*
X144973174Y-45823937D01*
X145512485Y-45854794D01*
X145773361Y-45866638D01*
X146099341Y-45877387D01*
X146482967Y-45887027D01*
X146916780Y-45895541D01*
X147393320Y-45902915D01*
X147905130Y-45909133D01*
X148444751Y-45914181D01*
X149004722Y-45918042D01*
X149577587Y-45920701D01*
X150155885Y-45922144D01*
X150732158Y-45922355D01*
X151298947Y-45921318D01*
X151848794Y-45919019D01*
X152374239Y-45915443D01*
X152867823Y-45910573D01*
X153322088Y-45904395D01*
X153729575Y-45896893D01*
X154082825Y-45888053D01*
X154374380Y-45877858D01*
X154477357Y-45873133D01*
X155984240Y-45786108D01*
X157429841Y-45678890D01*
X158822905Y-45550329D01*
X160172179Y-45399276D01*
X161486409Y-45224582D01*
X162774341Y-45025097D01*
X164044721Y-44799673D01*
X165306294Y-44547159D01*
X166389188Y-44307844D01*
X166621055Y-44254303D01*
X166833678Y-44205001D01*
X167015218Y-44162700D01*
X167153837Y-44130162D01*
X167237694Y-44110148D01*
X167251879Y-44106622D01*
X167289326Y-44102375D01*
X167329044Y-44114493D01*
X167378899Y-44150301D01*
X167446758Y-44217123D01*
X167540488Y-44322285D01*
X167667954Y-44473111D01*
X167745010Y-44565782D01*
X168243989Y-45193369D01*
X168724768Y-45852170D01*
X169197723Y-46556875D01*
X169560123Y-47135143D01*
X170310968Y-48423478D01*
X171031861Y-49775515D01*
X171721950Y-51188473D01*
X172380381Y-52659572D01*
X173006301Y-54186031D01*
X173598858Y-55765070D01*
X174157198Y-57393908D01*
X174680468Y-59069765D01*
X175167815Y-60789861D01*
X175618386Y-62551414D01*
X176031328Y-64351644D01*
X176405788Y-66187771D01*
X176740913Y-68057014D01*
X177035849Y-69956592D01*
X177289744Y-71883726D01*
X177372724Y-72599714D01*
X177472379Y-73529491D01*
X177561481Y-74442263D01*
X177640564Y-75347297D01*
X177710160Y-76253859D01*
X177770804Y-77171217D01*
X177823027Y-78108638D01*
X177867363Y-79075387D01*
X177904346Y-80080733D01*
X177934507Y-81133942D01*
X177958381Y-82244282D01*
X177970685Y-82994500D01*
X177989607Y-84291714D01*
X122364500Y-84291714D01*
X122365196Y-83302928D01*
X122391315Y-81088863D01*
X122405842Y-80663143D01*
X126019299Y-80663143D01*
X174326501Y-80663143D01*
X174309380Y-80527071D01*
X174302980Y-80448411D01*
X174295447Y-80311199D01*
X174287398Y-80129434D01*
X174279452Y-79917114D01*
X174272229Y-79688240D01*
X174272092Y-79683428D01*
X174266335Y-79510465D01*
X174257931Y-79297344D01*
X174247373Y-79053545D01*
X174235157Y-78788545D01*
X174221778Y-78511822D01*
X174207731Y-78232855D01*
X174193510Y-77961121D01*
X174179611Y-77706099D01*
X174166528Y-77477266D01*
X174154757Y-77284100D01*
X174144792Y-77136080D01*
X174137128Y-77042684D01*
X174132658Y-77013190D01*
X174096912Y-77019085D01*
X174003617Y-77038260D01*
X173865990Y-77067907D01*
X173697246Y-77105218D01*
X173654357Y-77114827D01*
X173211019Y-77214022D01*
X172774736Y-77310902D01*
X172351193Y-77404254D01*
X171946070Y-77492864D01*
X171565052Y-77575520D01*
X171213820Y-77651008D01*
X170898058Y-77718114D01*
X170623448Y-77775625D01*
X170395673Y-77822328D01*
X170220415Y-77857010D01*
X170103359Y-77878456D01*
X170050185Y-77885454D01*
X170047634Y-77884944D01*
X170036466Y-77841486D01*
X170025472Y-77745450D01*
X170016881Y-77616798D01*
X170016293Y-77604123D01*
X170010889Y-77494219D01*
X170001948Y-77325473D01*
X169990224Y-77111490D01*
X169976468Y-76865873D01*
X169961430Y-76602225D01*
X169950968Y-76421488D01*
X169936990Y-76170652D01*
X169925606Y-75944554D01*
X169917211Y-75753026D01*
X169912201Y-75605904D01*
X169910973Y-75513021D01*
X169913197Y-75484065D01*
X169950598Y-75473488D01*
X170052448Y-75448796D01*
X170212318Y-75411453D01*
X170423778Y-75362919D01*
X170680396Y-75304657D01*
X170975744Y-75238130D01*
X171303391Y-75164799D01*
X171656907Y-75086127D01*
X171900590Y-75032139D01*
X172268392Y-74950352D01*
X172615118Y-74872396D01*
X172934254Y-74799792D01*
X173219284Y-74734064D01*
X173463692Y-74676735D01*
X173660964Y-74629328D01*
X173804585Y-74593366D01*
X173888038Y-74570373D01*
X173906916Y-74563118D01*
X173915677Y-74514739D01*
X173914433Y-74398445D01*
X173903411Y-74218163D01*
X173882840Y-73977823D01*
X173859275Y-73741270D01*
X173830178Y-73469158D01*
X173798071Y-73179525D01*
X173764040Y-72881211D01*
X173729171Y-72583055D01*
X173694551Y-72293897D01*
X173661266Y-72022576D01*
X173630402Y-71777934D01*
X173603046Y-71568808D01*
X173580285Y-71404040D01*
X173563204Y-71292469D01*
X173552891Y-71242935D01*
X173552041Y-71241445D01*
X173513935Y-71244738D01*
X173415193Y-71262084D01*
X173265942Y-71291453D01*
X173076312Y-71330817D01*
X172856434Y-71378145D01*
X172724918Y-71407138D01*
X172466909Y-71464246D01*
X172157209Y-71532406D01*
X171815077Y-71607406D01*
X171459767Y-71685031D01*
X171110538Y-71761065D01*
X170805929Y-71827124D01*
X170530510Y-71886860D01*
X170276380Y-71942261D01*
X170052647Y-71991317D01*
X169868418Y-72032023D01*
X169732802Y-72062371D01*
X169654906Y-72080352D01*
X169641082Y-72083883D01*
X169613926Y-72081460D01*
X169592454Y-72048292D01*
X169573593Y-71973249D01*
X169554268Y-71845200D01*
X169537932Y-71710384D01*
X169519078Y-71552500D01*
X169492833Y-71340831D01*
X169461498Y-71093512D01*
X169427376Y-70828679D01*
X169392766Y-70564468D01*
X169387305Y-70523217D01*
X169357816Y-70290888D01*
X169333958Y-70083061D01*
X169316744Y-69910375D01*
X169307190Y-69783467D01*
X169306310Y-69712976D01*
X169309026Y-69702484D01*
X169348665Y-69690296D01*
X169452638Y-69664156D01*
X169614376Y-69625575D01*
X169827306Y-69576061D01*
X170084857Y-69517121D01*
X170380460Y-69450265D01*
X170707542Y-69377002D01*
X171059532Y-69298839D01*
X171257334Y-69255195D01*
X171619465Y-69175281D01*
X171959812Y-69099808D01*
X172271867Y-69030244D01*
X172549122Y-68968056D01*
X172785072Y-68914714D01*
X172973209Y-68871685D01*
X173107026Y-68840438D01*
X173180015Y-68822440D01*
X173191866Y-68818730D01*
X173190659Y-68778965D01*
X173176980Y-68676168D01*
X173152303Y-68518523D01*
X173118100Y-68314219D01*
X173075841Y-68071441D01*
X173027001Y-67798375D01*
X172973049Y-67503208D01*
X172915460Y-67194126D01*
X172855705Y-66879316D01*
X172795256Y-66566963D01*
X172735585Y-66265255D01*
X172708482Y-66130714D01*
X172641738Y-65800854D01*
X172587926Y-65535197D01*
X172545124Y-65326912D01*
X172511406Y-65169169D01*
X172484849Y-65055137D01*
X172463529Y-64977985D01*
X172445521Y-64930882D01*
X172428901Y-64906997D01*
X172411746Y-64899499D01*
X172392131Y-64901558D01*
X172368132Y-64906342D01*
X172363763Y-64906904D01*
X172311954Y-64916479D01*
X172196337Y-64940253D01*
X172023951Y-64976707D01*
X171801837Y-65024323D01*
X171537036Y-65081583D01*
X171236586Y-65146968D01*
X170907530Y-65218961D01*
X170556907Y-65296042D01*
X170450486Y-65319509D01*
X170097728Y-65396938D01*
X169766742Y-65468798D01*
X169464219Y-65533691D01*
X169196850Y-65590219D01*
X168971325Y-65636984D01*
X168794334Y-65672590D01*
X168672569Y-65695639D01*
X168612719Y-65704734D01*
X168607690Y-65704428D01*
X168593760Y-65663988D01*
X168568869Y-65566866D01*
X168536507Y-65427494D01*
X168500164Y-65260308D01*
X168499159Y-65255537D01*
X168460997Y-65077888D01*
X168410975Y-64850355D01*
X168353726Y-64593728D01*
X168293885Y-64328796D01*
X168242785Y-64105408D01*
X168193382Y-63887839D01*
X168151104Y-63695650D01*
X168118189Y-63539534D01*
X168096878Y-63430183D01*
X168089412Y-63378290D01*
X168089902Y-63375595D01*
X168126778Y-63365884D01*
X168227736Y-63342127D01*
X168385977Y-63305854D01*
X168594703Y-63258598D01*
X168847115Y-63201890D01*
X169136416Y-63137262D01*
X169455806Y-63066245D01*
X169798488Y-62990372D01*
X169862500Y-62976233D01*
X170213641Y-62898605D01*
X170546793Y-62824767D01*
X170854527Y-62756379D01*
X171129413Y-62695101D01*
X171364024Y-62642591D01*
X171550930Y-62600509D01*
X171682702Y-62570515D01*
X171751912Y-62554269D01*
X171755627Y-62553330D01*
X171888898Y-62518997D01*
X171762555Y-62038855D01*
X171661149Y-61661093D01*
X171544054Y-61237667D01*
X171417922Y-60791959D01*
X171289405Y-60347351D01*
X171165155Y-59927227D01*
X171107090Y-59734901D01*
X171040470Y-59520782D01*
X170989077Y-59368380D01*
X170949378Y-59269308D01*
X170917842Y-59215177D01*
X170890935Y-59197600D01*
X170881304Y-59198726D01*
X170830295Y-59211398D01*
X170717796Y-59237403D01*
X170551916Y-59274959D01*
X170340766Y-59322283D01*
X170092456Y-59377593D01*
X169815098Y-59439108D01*
X169516801Y-59505044D01*
X169205677Y-59573620D01*
X168889836Y-59643053D01*
X168577388Y-59711561D01*
X168276444Y-59777361D01*
X167995115Y-59838672D01*
X167741511Y-59893711D01*
X167523743Y-59940696D01*
X167349921Y-59977845D01*
X167228156Y-60003375D01*
X167166558Y-60015505D01*
X167160905Y-60016265D01*
X167137115Y-59983572D01*
X167095341Y-59893275D01*
X167040226Y-59756719D01*
X166976414Y-59585255D01*
X166927076Y-59444765D01*
X166838803Y-59191711D01*
X166736176Y-58904413D01*
X166630887Y-58615234D01*
X166534629Y-58356537D01*
X166518657Y-58314371D01*
X166448360Y-58127481D01*
X166389023Y-57965959D01*
X166344720Y-57841211D01*
X166319528Y-57764644D01*
X166315488Y-57745774D01*
X166351658Y-57736382D01*
X166452180Y-57712828D01*
X166610539Y-57676580D01*
X166820218Y-57629105D01*
X167074700Y-57571871D01*
X167367470Y-57506346D01*
X167692012Y-57433997D01*
X168041809Y-57356291D01*
X168227864Y-57315064D01*
X168588170Y-57235116D01*
X168926644Y-57159667D01*
X169236754Y-57090198D01*
X169511967Y-57028189D01*
X169745754Y-56975118D01*
X169931581Y-56932466D01*
X170062918Y-56901712D01*
X170133234Y-56884335D01*
X170143489Y-56881106D01*
X170137552Y-56841377D01*
X170106756Y-56742209D01*
X170054074Y-56591189D01*
X169982474Y-56395900D01*
X169894926Y-56163929D01*
X169794401Y-55902861D01*
X169683868Y-55620282D01*
X169566297Y-55323777D01*
X169444659Y-55020932D01*
X169321924Y-54719332D01*
X169201061Y-54426562D01*
X169085040Y-54150208D01*
X168976831Y-53897856D01*
X168963028Y-53866143D01*
X168883384Y-53683644D01*
X168814624Y-53526322D01*
X168761652Y-53405373D01*
X168729369Y-53331995D01*
X168721714Y-53314945D01*
X168686868Y-53320253D01*
X168592359Y-53339187D01*
X168449314Y-53369396D01*
X168268863Y-53408533D01*
X168065493Y-53453496D01*
X167464255Y-53587228D01*
X166914177Y-53708869D01*
X166417354Y-53817971D01*
X165975883Y-53914086D01*
X165591863Y-53996769D01*
X165267388Y-54065571D01*
X165004557Y-54120046D01*
X164805466Y-54159745D01*
X164672213Y-54184223D01*
X164606893Y-54193032D01*
X164600594Y-54192419D01*
X164567524Y-54153125D01*
X164513390Y-54071194D01*
X164471989Y-54002198D01*
X164371627Y-53835845D01*
X164239097Y-53626580D01*
X164084944Y-53390159D01*
X163919714Y-53142338D01*
X163753953Y-52898875D01*
X163598206Y-52675525D01*
X163463020Y-52488047D01*
X163420629Y-52431329D01*
X163295603Y-52260177D01*
X163217496Y-52139046D01*
X163187101Y-52069256D01*
X163193304Y-52052048D01*
X163244320Y-52038740D01*
X163352206Y-52013814D01*
X163502786Y-51980447D01*
X163681882Y-51941816D01*
X163748357Y-51927706D01*
X163979859Y-51878424D01*
X164247509Y-51820846D01*
X164543806Y-51756633D01*
X164861247Y-51687450D01*
X165192330Y-51614958D01*
X165529552Y-51540821D01*
X165865412Y-51466702D01*
X166192406Y-51394263D01*
X166503033Y-51325168D01*
X166789790Y-51261078D01*
X167045175Y-51203658D01*
X167261686Y-51154570D01*
X167431820Y-51115477D01*
X167548074Y-51088041D01*
X167602947Y-51073926D01*
X167606267Y-51072614D01*
X167597774Y-51033231D01*
X167555903Y-50939428D01*
X167485017Y-50798770D01*
X167389477Y-50618822D01*
X167273646Y-50407151D01*
X167141887Y-50171320D01*
X166998563Y-49918896D01*
X166848036Y-49657444D01*
X166694668Y-49394530D01*
X166542823Y-49137719D01*
X166396863Y-48894575D01*
X166261150Y-48672666D01*
X166140047Y-48479555D01*
X166037917Y-48322809D01*
X165959122Y-48209993D01*
X165944205Y-48190343D01*
X165922175Y-48165248D01*
X165894679Y-48149411D01*
X165850970Y-48143713D01*
X165780303Y-48149033D01*
X165671930Y-48166251D01*
X165515104Y-48196246D01*
X165299079Y-48239898D01*
X165272357Y-48245344D01*
X164123195Y-48464840D01*
X162913698Y-48667729D01*
X161654467Y-48852718D01*
X160356104Y-49018513D01*
X159029212Y-49163822D01*
X157684392Y-49287351D01*
X156332245Y-49387808D01*
X155493357Y-49438021D01*
X154542334Y-49482863D01*
X153535209Y-49517791D01*
X152484983Y-49542847D01*
X151404657Y-49558072D01*
X150307231Y-49563510D01*
X149205705Y-49559203D01*
X148113080Y-49545192D01*
X147042356Y-49521520D01*
X146006534Y-49488229D01*
X145018614Y-49445361D01*
X144226643Y-49401449D01*
X142900107Y-49307183D01*
X141564914Y-49188099D01*
X140233728Y-49045809D01*
X138919220Y-48881926D01*
X137634055Y-48698063D01*
X136390901Y-48495834D01*
X135202427Y-48276850D01*
X134864943Y-48209453D01*
X134698308Y-48176038D01*
X134560906Y-48149407D01*
X134466383Y-48132137D01*
X134428385Y-48126808D01*
X134428196Y-48126938D01*
X134409336Y-48157925D01*
X134360884Y-48233921D01*
X134292903Y-48339156D01*
X134285397Y-48350714D01*
X134155987Y-48553283D01*
X134012573Y-48783681D01*
X133859360Y-49034613D01*
X133700557Y-49298785D01*
X133540370Y-49568900D01*
X133383007Y-49837664D01*
X133232676Y-50097781D01*
X133093583Y-50341957D01*
X132969936Y-50562895D01*
X132865942Y-50753302D01*
X132785808Y-50905882D01*
X132733743Y-51013339D01*
X132713952Y-51068379D01*
X132715013Y-51073645D01*
X132751159Y-51082720D01*
X132850639Y-51105585D01*
X133005882Y-51140574D01*
X133209317Y-51186019D01*
X133453370Y-51240252D01*
X133730472Y-51301607D01*
X134033050Y-51368416D01*
X134353533Y-51439012D01*
X134684348Y-51511727D01*
X135017925Y-51584894D01*
X135346692Y-51656847D01*
X135663077Y-51725916D01*
X135959509Y-51790436D01*
X136228415Y-51848739D01*
X136462225Y-51899157D01*
X136525000Y-51912626D01*
X136730067Y-51957621D01*
X136908171Y-51998723D01*
X137048138Y-52033185D01*
X137138795Y-52058263D01*
X137169071Y-52070874D01*
X137148626Y-52105853D01*
X137092569Y-52187669D01*
X137008818Y-52305096D01*
X136905293Y-52446905D01*
X136874340Y-52488778D01*
X136653231Y-52795584D01*
X136422466Y-53130800D01*
X136197909Y-53470648D01*
X135995423Y-53791346D01*
X135901081Y-53947785D01*
X135829409Y-54067366D01*
X135772822Y-54158527D01*
X135740392Y-54206779D01*
X135736351Y-54210857D01*
X135697886Y-54203357D01*
X135596880Y-54182069D01*
X135441663Y-54148810D01*
X135240568Y-54105397D01*
X135001926Y-54053647D01*
X134734069Y-53995378D01*
X134445329Y-53932405D01*
X134144037Y-53866547D01*
X133838526Y-53799621D01*
X133537127Y-53733442D01*
X133248171Y-53669830D01*
X132979992Y-53610600D01*
X132742487Y-53557919D01*
X132480917Y-53499991D01*
X132240371Y-53447198D01*
X132030567Y-53401638D01*
X131861227Y-53365403D01*
X131742070Y-53340590D01*
X131682816Y-53329294D01*
X131680146Y-53328941D01*
X131639270Y-53343749D01*
X131591477Y-53402839D01*
X131530672Y-53515262D01*
X131477216Y-53630285D01*
X131370168Y-53873273D01*
X131254077Y-54143919D01*
X131131811Y-54434913D01*
X131006239Y-54738945D01*
X130880230Y-55048705D01*
X130756650Y-55356883D01*
X130638370Y-55656168D01*
X130528256Y-55939251D01*
X130429178Y-56198822D01*
X130344003Y-56427570D01*
X130275599Y-56618185D01*
X130226836Y-56763357D01*
X130200582Y-56855777D01*
X130198972Y-56888013D01*
X130238746Y-56897565D01*
X130342746Y-56921267D01*
X130504329Y-56957635D01*
X130716853Y-57005188D01*
X130973675Y-57062444D01*
X131268153Y-57127921D01*
X131593644Y-57200136D01*
X131943507Y-57277607D01*
X132106790Y-57313715D01*
X132465061Y-57393155D01*
X132801605Y-57468253D01*
X133109826Y-57537504D01*
X133383128Y-57599405D01*
X133614917Y-57652450D01*
X133798598Y-57695136D01*
X133927574Y-57725956D01*
X133995252Y-57743408D01*
X134003963Y-57746510D01*
X133996990Y-57784054D01*
X133967797Y-57879426D01*
X133919797Y-58022560D01*
X133856402Y-58203392D01*
X133781024Y-58411856D01*
X133748515Y-58500094D01*
X133658035Y-58746748D01*
X133567448Y-58997871D01*
X133483025Y-59235779D01*
X133411036Y-59442789D01*
X133357750Y-59601216D01*
X133353944Y-59612928D01*
X133301106Y-59767127D01*
X133252233Y-59893651D01*
X133213419Y-59977632D01*
X133193548Y-60004259D01*
X133151644Y-59999496D01*
X133045704Y-59980278D01*
X132882509Y-59948020D01*
X132668839Y-59904137D01*
X132411472Y-59850044D01*
X132117190Y-59787158D01*
X131792771Y-59716894D01*
X131444995Y-59640667D01*
X131324834Y-59614129D01*
X130970172Y-59535784D01*
X130636190Y-59462260D01*
X130329736Y-59395045D01*
X130057657Y-59335630D01*
X129826803Y-59285505D01*
X129644020Y-59246160D01*
X129516157Y-59219085D01*
X129450062Y-59205771D01*
X129443018Y-59204655D01*
X129413946Y-59237732D01*
X129368368Y-59339065D01*
X129306994Y-59506409D01*
X129230530Y-59737521D01*
X129139687Y-60030155D01*
X129035172Y-60382067D01*
X128917694Y-60791014D01*
X128787962Y-61254750D01*
X128734230Y-61449857D01*
X128651970Y-61749844D01*
X128587290Y-61987302D01*
X128538721Y-62169731D01*
X128504793Y-62304627D01*
X128484038Y-62399491D01*
X128474988Y-62461820D01*
X128476172Y-62499113D01*
X128486124Y-62518868D01*
X128503372Y-62528583D01*
X128521807Y-62534280D01*
X128569173Y-62545902D01*
X128680439Y-62571640D01*
X128848650Y-62609929D01*
X129066850Y-62659202D01*
X129328081Y-62717894D01*
X129625387Y-62784441D01*
X129951813Y-62857276D01*
X130300402Y-62934834D01*
X130399712Y-62956890D01*
X130751519Y-63035172D01*
X131081707Y-63108986D01*
X131383528Y-63176799D01*
X131650234Y-63237078D01*
X131875077Y-63288292D01*
X132051309Y-63328907D01*
X132172180Y-63357391D01*
X132230944Y-63372213D01*
X132235442Y-63373759D01*
X132235054Y-63411958D01*
X132219703Y-63509305D01*
X132191584Y-63654436D01*
X132152895Y-63835984D01*
X132107893Y-64033790D01*
X132048755Y-64290558D01*
X131985911Y-64570327D01*
X131925257Y-64846409D01*
X131872688Y-65092118D01*
X131851050Y-65196357D01*
X131811154Y-65379178D01*
X131772693Y-65533613D01*
X131739164Y-65647122D01*
X131714065Y-65707167D01*
X131706816Y-65713428D01*
X131665006Y-65705760D01*
X131559055Y-65683725D01*
X131395645Y-65648780D01*
X131181461Y-65602383D01*
X130923185Y-65545989D01*
X130627502Y-65481055D01*
X130301096Y-65409037D01*
X129950649Y-65331394D01*
X129787285Y-65295095D01*
X129429114Y-65215819D01*
X129092652Y-65142078D01*
X128784478Y-65075264D01*
X128511173Y-65016768D01*
X128279318Y-64967984D01*
X128095492Y-64930302D01*
X127966276Y-64905114D01*
X127898250Y-64893811D01*
X127889314Y-64893662D01*
X127877423Y-64933331D01*
X127853711Y-65035868D01*
X127819846Y-65192831D01*
X127777498Y-65395782D01*
X127728339Y-65636281D01*
X127674038Y-65905888D01*
X127616265Y-66196165D01*
X127556689Y-66498671D01*
X127496982Y-66804968D01*
X127438813Y-67106614D01*
X127383852Y-67395172D01*
X127333769Y-67662201D01*
X127290234Y-67899262D01*
X127254917Y-68097915D01*
X127252577Y-68111434D01*
X127129810Y-68822153D01*
X129087357Y-69254434D01*
X131044904Y-69686714D01*
X131025411Y-69886285D01*
X131015232Y-69979726D01*
X130997637Y-70129948D01*
X130974199Y-70324385D01*
X130946495Y-70550470D01*
X130916099Y-70795637D01*
X130884587Y-71047319D01*
X130853534Y-71292949D01*
X130824516Y-71519961D01*
X130799108Y-71715789D01*
X130778884Y-71867864D01*
X130765421Y-71963622D01*
X130763286Y-71977354D01*
X130744874Y-72090850D01*
X130410044Y-72018350D01*
X130304001Y-71995247D01*
X130136200Y-71958508D01*
X129915748Y-71910136D01*
X129651756Y-71852132D01*
X129353331Y-71786498D01*
X129029581Y-71715236D01*
X128689616Y-71640349D01*
X128460934Y-71589943D01*
X128129896Y-71517263D01*
X127821201Y-71450076D01*
X127541943Y-71389885D01*
X127299214Y-71338191D01*
X127100107Y-71296493D01*
X126951713Y-71266295D01*
X126861127Y-71249097D01*
X126834902Y-71245789D01*
X126825879Y-71285243D01*
X126809571Y-71387751D01*
X126787060Y-71544594D01*
X126759426Y-71747053D01*
X126727752Y-71986406D01*
X126693117Y-72253935D01*
X126656603Y-72540920D01*
X126619292Y-72838642D01*
X126582265Y-73138379D01*
X126546602Y-73431414D01*
X126513386Y-73709026D01*
X126483696Y-73962495D01*
X126458615Y-74183101D01*
X126439223Y-74362126D01*
X126426602Y-74490849D01*
X126421833Y-74560551D01*
X126422662Y-74570494D01*
X126461640Y-74582091D01*
X126565009Y-74607631D01*
X126726249Y-74645631D01*
X126938836Y-74694603D01*
X127196251Y-74753065D01*
X127491972Y-74819530D01*
X127819477Y-74892515D01*
X128172246Y-74970534D01*
X128387929Y-75017961D01*
X128753589Y-75098248D01*
X129098758Y-75174134D01*
X129416780Y-75244149D01*
X129700998Y-75306822D01*
X129944756Y-75360683D01*
X130141398Y-75404264D01*
X130284268Y-75436092D01*
X130366710Y-75454699D01*
X130384129Y-75458831D01*
X130403045Y-75471203D01*
X130415579Y-75502680D01*
X130421902Y-75562838D01*
X130422185Y-75661254D01*
X130416599Y-75807504D01*
X130405314Y-76011166D01*
X130396538Y-76154363D01*
X130380441Y-76420077D01*
X130363790Y-76708651D01*
X130348072Y-76993445D01*
X130334769Y-77247819D01*
X130328779Y-77370214D01*
X130318431Y-77557781D01*
X130306817Y-77716498D01*
X130295086Y-77833760D01*
X130284386Y-77896965D01*
X130280085Y-77904415D01*
X130241305Y-77896628D01*
X130138038Y-77874576D01*
X129976661Y-77839651D01*
X129763549Y-77793248D01*
X129505078Y-77736758D01*
X129207624Y-77671576D01*
X128877562Y-77599093D01*
X128521269Y-77520703D01*
X128234123Y-77457428D01*
X126211604Y-77011453D01*
X126193720Y-77122798D01*
X126187258Y-77188404D01*
X126178098Y-77317461D01*
X126166707Y-77500917D01*
X126153551Y-77729721D01*
X126139098Y-77994819D01*
X126123814Y-78287162D01*
X126108166Y-78597696D01*
X126092621Y-78917371D01*
X126077645Y-79237135D01*
X126063705Y-79547935D01*
X126051268Y-79840720D01*
X126043432Y-80037214D01*
X126019299Y-80663143D01*
X122405842Y-80663143D01*
X122466208Y-78894225D01*
X122589369Y-76721803D01*
X122760289Y-74574384D01*
X122978464Y-72454756D01*
X123243385Y-70365709D01*
X123554546Y-68310031D01*
X123911441Y-66290509D01*
X124313562Y-64309931D01*
X124760402Y-62371087D01*
X125251456Y-60476765D01*
X125786215Y-58629752D01*
X126364174Y-56832837D01*
X126984825Y-55088809D01*
X127647662Y-53400455D01*
X127916749Y-52759428D01*
X128415412Y-51628746D01*
X128923789Y-50545306D01*
X129440086Y-49512250D01*
X129962508Y-48532723D01*
X130489261Y-47609866D01*
X131018549Y-46746822D01*
X131548579Y-45946735D01*
X132077556Y-45212747D01*
X132603685Y-44548001D01*
X132609760Y-44540714D01*
X132734409Y-44391147D01*
X132841426Y-44262478D01*
X132922748Y-44164420D01*
X132970312Y-44106689D01*
X132979261Y-44095501D01*
X133014811Y-44099916D01*
G36*
X176543007Y-87346441D02*
X176915080Y-87348401D01*
X177218961Y-87351600D01*
X177455740Y-87356050D01*
X177626510Y-87361762D01*
X177732363Y-87368747D01*
X177773117Y-87376177D01*
X177845719Y-87428060D01*
X177899081Y-87501732D01*
X177935810Y-87607635D01*
X177958513Y-87756213D01*
X177969796Y-87957907D01*
X177972357Y-88174285D01*
X177968578Y-88428535D01*
X177955523Y-88620914D01*
X177930617Y-88761812D01*
X177891286Y-88861619D01*
X177834955Y-88930727D01*
X177774796Y-88971496D01*
X177719992Y-88980915D01*
X177594305Y-88989027D01*
X177399412Y-88995798D01*
X177136992Y-89001195D01*
X176808719Y-89005186D01*
X176416274Y-89007739D01*
X175961331Y-89008820D01*
X175852028Y-89008857D01*
X173999071Y-89008857D01*
X173999071Y-91512571D01*
X177223233Y-91512571D01*
X177297484Y-91606967D01*
X177356930Y-91710047D01*
X177398436Y-91829325D01*
X177399390Y-91833752D01*
X177415548Y-91958531D01*
X177424092Y-92126498D01*
X177425446Y-92316884D01*
X177420038Y-92508921D01*
X177408295Y-92681842D01*
X177390642Y-92814879D01*
X177378222Y-92864546D01*
X177359614Y-92921655D01*
X177342137Y-92969133D01*
X177319389Y-93007868D01*
X177284968Y-93038744D01*
X177232472Y-93062648D01*
X177155500Y-93080466D01*
X177047649Y-93093084D01*
X176902518Y-93101389D01*
X176713704Y-93106267D01*
X176474806Y-93108604D01*
X176179422Y-93109285D01*
X175821151Y-93109198D01*
X175611194Y-93109143D01*
X173999071Y-93109143D01*
X173999071Y-96012000D01*
X175870171Y-96012000D01*
X176341576Y-96012743D01*
X176750660Y-96014950D01*
X177095788Y-96018591D01*
X177375321Y-96023633D01*
X177587622Y-96030045D01*
X177731053Y-96037796D01*
X177803978Y-96046854D01*
X177811081Y-96049361D01*
X177889961Y-96114290D01*
X177947797Y-96218484D01*
X177987426Y-96371109D01*
X178011686Y-96581336D01*
X178019412Y-96722473D01*
X178020271Y-97041500D01*
X177994973Y-97295845D01*
X177943701Y-97484404D01*
X177873943Y-97598624D01*
X177796421Y-97681143D01*
X175108532Y-97679550D01*
X174586803Y-97679040D01*
X174132878Y-97678112D01*
X173741993Y-97676676D01*
X173409380Y-97674643D01*
X173130275Y-97671925D01*
X172899910Y-97668431D01*
X172713521Y-97664074D01*
X172566341Y-97658764D01*
X172453605Y-97652412D01*
X172370546Y-97644929D01*
X172312399Y-97636225D01*
X172275500Y-97626608D01*
X172104794Y-97531096D01*
X171985049Y-97384130D01*
X171931491Y-97248333D01*
X171925187Y-97191332D01*
X171919622Y-97069429D01*
X171914792Y-96881903D01*
X171910693Y-96628033D01*
X171907321Y-96307098D01*
X171904672Y-95918376D01*
X171902741Y-95461146D01*
X171901523Y-94934687D01*
X171901016Y-94338276D01*
X171901214Y-93671194D01*
X171902113Y-92932718D01*
X171903034Y-92431984D01*
X171904344Y-91741524D01*
X171905425Y-91119924D01*
X171906478Y-90563471D01*
X171907705Y-90068455D01*
X171909310Y-89631164D01*
X171911494Y-89247888D01*
X171914458Y-88914914D01*
X171918407Y-88628533D01*
X171923540Y-88385031D01*
X171930062Y-88180700D01*
X171938174Y-88011826D01*
X171948077Y-87874700D01*
X171959976Y-87765609D01*
X171974070Y-87680843D01*
X171990564Y-87616690D01*
X172009658Y-87569440D01*
X172031555Y-87535381D01*
X172056458Y-87510801D01*
X172084568Y-87491991D01*
X172116088Y-87475237D01*
X172151220Y-87456830D01*
X172174835Y-87443003D01*
X172311786Y-87357857D01*
X175006707Y-87347887D01*
X175589912Y-87346195D01*
X176101648Y-87345710D01*
X176543007Y-87346441D01*
X176543007Y-87346441D01*
G37*
X176543007Y-87346441D02*
X176915080Y-87348401D01*
X177218961Y-87351600D01*
X177455740Y-87356050D01*
X177626510Y-87361762D01*
X177732363Y-87368747D01*
X177773117Y-87376177D01*
X177845719Y-87428060D01*
X177899081Y-87501732D01*
X177935810Y-87607635D01*
X177958513Y-87756213D01*
X177969796Y-87957907D01*
X177972357Y-88174285D01*
X177968578Y-88428535D01*
X177955523Y-88620914D01*
X177930617Y-88761812D01*
X177891286Y-88861619D01*
X177834955Y-88930727D01*
X177774796Y-88971496D01*
X177719992Y-88980915D01*
X177594305Y-88989027D01*
X177399412Y-88995798D01*
X177136992Y-89001195D01*
X176808719Y-89005186D01*
X176416274Y-89007739D01*
X175961331Y-89008820D01*
X175852028Y-89008857D01*
X173999071Y-89008857D01*
X173999071Y-91512571D01*
X177223233Y-91512571D01*
X177297484Y-91606967D01*
X177356930Y-91710047D01*
X177398436Y-91829325D01*
X177399390Y-91833752D01*
X177415548Y-91958531D01*
X177424092Y-92126498D01*
X177425446Y-92316884D01*
X177420038Y-92508921D01*
X177408295Y-92681842D01*
X177390642Y-92814879D01*
X177378222Y-92864546D01*
X177359614Y-92921655D01*
X177342137Y-92969133D01*
X177319389Y-93007868D01*
X177284968Y-93038744D01*
X177232472Y-93062648D01*
X177155500Y-93080466D01*
X177047649Y-93093084D01*
X176902518Y-93101389D01*
X176713704Y-93106267D01*
X176474806Y-93108604D01*
X176179422Y-93109285D01*
X175821151Y-93109198D01*
X175611194Y-93109143D01*
X173999071Y-93109143D01*
X173999071Y-96012000D01*
X175870171Y-96012000D01*
X176341576Y-96012743D01*
X176750660Y-96014950D01*
X177095788Y-96018591D01*
X177375321Y-96023633D01*
X177587622Y-96030045D01*
X177731053Y-96037796D01*
X177803978Y-96046854D01*
X177811081Y-96049361D01*
X177889961Y-96114290D01*
X177947797Y-96218484D01*
X177987426Y-96371109D01*
X178011686Y-96581336D01*
X178019412Y-96722473D01*
X178020271Y-97041500D01*
X177994973Y-97295845D01*
X177943701Y-97484404D01*
X177873943Y-97598624D01*
X177796421Y-97681143D01*
X175108532Y-97679550D01*
X174586803Y-97679040D01*
X174132878Y-97678112D01*
X173741993Y-97676676D01*
X173409380Y-97674643D01*
X173130275Y-97671925D01*
X172899910Y-97668431D01*
X172713521Y-97664074D01*
X172566341Y-97658764D01*
X172453605Y-97652412D01*
X172370546Y-97644929D01*
X172312399Y-97636225D01*
X172275500Y-97626608D01*
X172104794Y-97531096D01*
X171985049Y-97384130D01*
X171931491Y-97248333D01*
X171925187Y-97191332D01*
X171919622Y-97069429D01*
X171914792Y-96881903D01*
X171910693Y-96628033D01*
X171907321Y-96307098D01*
X171904672Y-95918376D01*
X171902741Y-95461146D01*
X171901523Y-94934687D01*
X171901016Y-94338276D01*
X171901214Y-93671194D01*
X171902113Y-92932718D01*
X171903034Y-92431984D01*
X171904344Y-91741524D01*
X171905425Y-91119924D01*
X171906478Y-90563471D01*
X171907705Y-90068455D01*
X171909310Y-89631164D01*
X171911494Y-89247888D01*
X171914458Y-88914914D01*
X171918407Y-88628533D01*
X171923540Y-88385031D01*
X171930062Y-88180700D01*
X171938174Y-88011826D01*
X171948077Y-87874700D01*
X171959976Y-87765609D01*
X171974070Y-87680843D01*
X171990564Y-87616690D01*
X172009658Y-87569440D01*
X172031555Y-87535381D01*
X172056458Y-87510801D01*
X172084568Y-87491991D01*
X172116088Y-87475237D01*
X172151220Y-87456830D01*
X172174835Y-87443003D01*
X172311786Y-87357857D01*
X175006707Y-87347887D01*
X175589912Y-87346195D01*
X176101648Y-87345710D01*
X176543007Y-87346441D01*
G36*
X135953966Y-87343246D02*
X136231918Y-87344838D01*
X136461582Y-87348316D01*
X136647813Y-87354073D01*
X136795467Y-87362502D01*
X136909402Y-87373994D01*
X136994473Y-87388944D01*
X137055537Y-87407742D01*
X137097451Y-87430783D01*
X137125071Y-87458459D01*
X137143253Y-87491163D01*
X137156854Y-87529287D01*
X137170730Y-87573224D01*
X137174180Y-87583357D01*
X137196997Y-87692005D01*
X137212540Y-87852873D01*
X137220802Y-88046035D01*
X137221776Y-88251570D01*
X137215452Y-88449553D01*
X137201824Y-88620060D01*
X137180884Y-88743168D01*
X137174641Y-88763816D01*
X137156676Y-88816928D01*
X137138944Y-88861766D01*
X137115557Y-88899030D01*
X137080626Y-88929419D01*
X137028264Y-88953631D01*
X136952583Y-88972366D01*
X136847694Y-88986323D01*
X136707710Y-88996201D01*
X136526742Y-89002699D01*
X136298903Y-89006517D01*
X136018304Y-89008353D01*
X135679057Y-89008906D01*
X135275274Y-89008876D01*
X135110855Y-89008857D01*
X133250214Y-89008857D01*
X133250214Y-91512571D01*
X134831028Y-91512571D01*
X135226153Y-91513400D01*
X135575463Y-91515821D01*
X135874501Y-91519737D01*
X136118813Y-91525052D01*
X136303941Y-91531668D01*
X136425429Y-91539489D01*
X136478821Y-91548417D01*
X136478869Y-91548443D01*
X136553281Y-91616058D01*
X136606866Y-91731570D01*
X136640842Y-91900826D01*
X136656432Y-92129672D01*
X136655642Y-92395597D01*
X136649165Y-92599065D01*
X136640635Y-92743945D01*
X136627951Y-92844221D01*
X136609008Y-92913874D01*
X136581704Y-92966889D01*
X136566450Y-92988613D01*
X136489972Y-93091000D01*
X133250214Y-93109890D01*
X133250214Y-96012000D01*
X137027227Y-96012000D01*
X137112014Y-96096787D01*
X137186823Y-96215544D01*
X137240277Y-96397327D01*
X137270878Y-96635358D01*
X137277929Y-96846571D01*
X137265440Y-97122318D01*
X137228974Y-97346896D01*
X137170030Y-97513528D01*
X137112014Y-97596356D01*
X137027227Y-97681143D01*
X131632734Y-97681143D01*
X131470831Y-97599500D01*
X131332268Y-97504824D01*
X131235277Y-97371416D01*
X131227286Y-97355954D01*
X131145643Y-97194051D01*
X131145643Y-87826805D01*
X131227286Y-87665733D01*
X131316575Y-87534662D01*
X131425669Y-87437471D01*
X131435929Y-87431259D01*
X131461519Y-87417464D01*
X131490630Y-87405488D01*
X131528351Y-87395181D01*
X131579774Y-87386393D01*
X131649990Y-87378973D01*
X131744089Y-87372770D01*
X131867162Y-87367636D01*
X132024300Y-87363420D01*
X132220593Y-87359971D01*
X132461133Y-87357139D01*
X132751010Y-87354775D01*
X133095315Y-87352728D01*
X133499139Y-87350847D01*
X133967572Y-87348983D01*
X134262134Y-87347883D01*
X134781808Y-87345858D01*
X135233767Y-87344149D01*
X135622867Y-87343147D01*
X135953966Y-87343246D01*
X135953966Y-87343246D01*
G37*
X135953966Y-87343246D02*
X136231918Y-87344838D01*
X136461582Y-87348316D01*
X136647813Y-87354073D01*
X136795467Y-87362502D01*
X136909402Y-87373994D01*
X136994473Y-87388944D01*
X137055537Y-87407742D01*
X137097451Y-87430783D01*
X137125071Y-87458459D01*
X137143253Y-87491163D01*
X137156854Y-87529287D01*
X137170730Y-87573224D01*
X137174180Y-87583357D01*
X137196997Y-87692005D01*
X137212540Y-87852873D01*
X137220802Y-88046035D01*
X137221776Y-88251570D01*
X137215452Y-88449553D01*
X137201824Y-88620060D01*
X137180884Y-88743168D01*
X137174641Y-88763816D01*
X137156676Y-88816928D01*
X137138944Y-88861766D01*
X137115557Y-88899030D01*
X137080626Y-88929419D01*
X137028264Y-88953631D01*
X136952583Y-88972366D01*
X136847694Y-88986323D01*
X136707710Y-88996201D01*
X136526742Y-89002699D01*
X136298903Y-89006517D01*
X136018304Y-89008353D01*
X135679057Y-89008906D01*
X135275274Y-89008876D01*
X135110855Y-89008857D01*
X133250214Y-89008857D01*
X133250214Y-91512571D01*
X134831028Y-91512571D01*
X135226153Y-91513400D01*
X135575463Y-91515821D01*
X135874501Y-91519737D01*
X136118813Y-91525052D01*
X136303941Y-91531668D01*
X136425429Y-91539489D01*
X136478821Y-91548417D01*
X136478869Y-91548443D01*
X136553281Y-91616058D01*
X136606866Y-91731570D01*
X136640842Y-91900826D01*
X136656432Y-92129672D01*
X136655642Y-92395597D01*
X136649165Y-92599065D01*
X136640635Y-92743945D01*
X136627951Y-92844221D01*
X136609008Y-92913874D01*
X136581704Y-92966889D01*
X136566450Y-92988613D01*
X136489972Y-93091000D01*
X133250214Y-93109890D01*
X133250214Y-96012000D01*
X137027227Y-96012000D01*
X137112014Y-96096787D01*
X137186823Y-96215544D01*
X137240277Y-96397327D01*
X137270878Y-96635358D01*
X137277929Y-96846571D01*
X137265440Y-97122318D01*
X137228974Y-97346896D01*
X137170030Y-97513528D01*
X137112014Y-97596356D01*
X137027227Y-97681143D01*
X131632734Y-97681143D01*
X131470831Y-97599500D01*
X131332268Y-97504824D01*
X131235277Y-97371416D01*
X131227286Y-97355954D01*
X131145643Y-97194051D01*
X131145643Y-87826805D01*
X131227286Y-87665733D01*
X131316575Y-87534662D01*
X131425669Y-87437471D01*
X131435929Y-87431259D01*
X131461519Y-87417464D01*
X131490630Y-87405488D01*
X131528351Y-87395181D01*
X131579774Y-87386393D01*
X131649990Y-87378973D01*
X131744089Y-87372770D01*
X131867162Y-87367636D01*
X132024300Y-87363420D01*
X132220593Y-87359971D01*
X132461133Y-87357139D01*
X132751010Y-87354775D01*
X133095315Y-87352728D01*
X133499139Y-87350847D01*
X133967572Y-87348983D01*
X134262134Y-87347883D01*
X134781808Y-87345858D01*
X135233767Y-87344149D01*
X135622867Y-87343147D01*
X135953966Y-87343246D01*
G36*
X170092787Y-87312612D02*
X170279349Y-87329678D01*
X170414461Y-87361421D01*
X170505055Y-87410429D01*
X170558060Y-87479290D01*
X170580407Y-87570589D01*
X170579028Y-87686916D01*
X170577807Y-87700497D01*
X170564084Y-87758873D01*
X170528790Y-87880393D01*
X170473532Y-88060264D01*
X170399913Y-88293690D01*
X170309542Y-88575877D01*
X170204023Y-88902029D01*
X170084961Y-89267353D01*
X169953964Y-89667054D01*
X169812637Y-90096336D01*
X169662584Y-90550406D01*
X169505413Y-91024468D01*
X169342730Y-91513728D01*
X169176139Y-92013391D01*
X169007246Y-92518662D01*
X168837658Y-93024746D01*
X168668981Y-93526850D01*
X168502819Y-94020177D01*
X168340779Y-94499935D01*
X168184467Y-94961326D01*
X168035488Y-95399558D01*
X167895448Y-95809836D01*
X167765954Y-96187363D01*
X167648610Y-96527347D01*
X167545022Y-96824992D01*
X167456797Y-97075504D01*
X167385540Y-97274087D01*
X167332857Y-97415947D01*
X167300354Y-97496290D01*
X167291678Y-97512500D01*
X167240419Y-97566234D01*
X167187063Y-97608571D01*
X167122552Y-97640945D01*
X167037829Y-97664788D01*
X166923835Y-97681533D01*
X166771514Y-97692613D01*
X166571808Y-97699460D01*
X166315659Y-97703508D01*
X166070643Y-97705644D01*
X165806842Y-97706278D01*
X165558880Y-97704448D01*
X165338543Y-97700432D01*
X165157616Y-97694506D01*
X165027885Y-97686946D01*
X164968292Y-97679787D01*
X164768737Y-97613546D01*
X164627214Y-97507871D01*
X164585765Y-97453852D01*
X164567143Y-97408687D01*
X164527301Y-97299465D01*
X164467858Y-97131016D01*
X164390433Y-96908168D01*
X164296645Y-96635748D01*
X164188112Y-96318585D01*
X164066453Y-95961507D01*
X163933285Y-95569342D01*
X163790229Y-95146919D01*
X163638902Y-94699065D01*
X163480923Y-94230610D01*
X163317911Y-93746380D01*
X163151484Y-93251205D01*
X162983260Y-92749913D01*
X162814859Y-92247331D01*
X162647899Y-91748289D01*
X162483999Y-91257614D01*
X162324776Y-90780134D01*
X162171851Y-90320678D01*
X162026840Y-89884074D01*
X161891364Y-89475150D01*
X161767040Y-89098735D01*
X161655487Y-88759656D01*
X161558323Y-88462742D01*
X161477168Y-88212822D01*
X161413640Y-88014722D01*
X161369357Y-87873272D01*
X161345938Y-87793300D01*
X161342931Y-87780515D01*
X161327931Y-87618903D01*
X161355630Y-87502279D01*
X161431532Y-87413313D01*
X161467919Y-87387187D01*
X161507405Y-87365698D01*
X161558157Y-87349427D01*
X161630062Y-87337666D01*
X161733009Y-87329708D01*
X161876886Y-87324847D01*
X162071580Y-87322376D01*
X162326979Y-87321589D01*
X162386085Y-87321571D01*
X162678967Y-87322556D01*
X162908481Y-87326729D01*
X163083817Y-87335920D01*
X163214164Y-87351958D01*
X163308713Y-87376672D01*
X163376653Y-87411891D01*
X163427176Y-87459443D01*
X163469470Y-87521159D01*
X163479989Y-87539285D01*
X163498872Y-87587698D01*
X163538025Y-87700845D01*
X163595997Y-87874220D01*
X163671336Y-88103314D01*
X163762588Y-88383618D01*
X163868303Y-88710624D01*
X163987027Y-89079824D01*
X164117310Y-89486708D01*
X164257698Y-89926770D01*
X164406740Y-90395499D01*
X164562984Y-90888389D01*
X164724978Y-91400929D01*
X164783085Y-91585143D01*
X164946111Y-92101961D01*
X165103295Y-92599726D01*
X165253236Y-93074027D01*
X165394532Y-93520455D01*
X165525782Y-93934598D01*
X165645584Y-94312048D01*
X165752537Y-94648394D01*
X165845240Y-94939226D01*
X165922290Y-95180134D01*
X165982287Y-95366708D01*
X166023829Y-95494537D01*
X166045515Y-95559212D01*
X166048246Y-95566291D01*
X166061885Y-95538186D01*
X166095540Y-95445011D01*
X166147841Y-95291043D01*
X166217420Y-95080560D01*
X166302906Y-94817840D01*
X166402931Y-94507161D01*
X166516126Y-94152802D01*
X166641120Y-93759039D01*
X166776545Y-93330153D01*
X166921031Y-92870419D01*
X167073210Y-92384118D01*
X167231711Y-91875525D01*
X167302590Y-91647434D01*
X167464543Y-91126461D01*
X167621384Y-90623219D01*
X167771677Y-90142244D01*
X167913988Y-89688071D01*
X168046882Y-89265236D01*
X168168926Y-88878275D01*
X168278683Y-88531725D01*
X168374720Y-88230120D01*
X168455602Y-87977996D01*
X168519894Y-87779891D01*
X168566163Y-87640338D01*
X168592973Y-87563875D01*
X168597732Y-87552362D01*
X168640099Y-87480494D01*
X168694273Y-87425400D01*
X168770105Y-87384564D01*
X168877443Y-87355467D01*
X169026138Y-87335592D01*
X169226037Y-87322423D01*
X169486991Y-87313442D01*
X169537593Y-87312164D01*
X169847845Y-87307636D01*
X170092787Y-87312612D01*
X170092787Y-87312612D01*
G37*
X170092787Y-87312612D02*
X170279349Y-87329678D01*
X170414461Y-87361421D01*
X170505055Y-87410429D01*
X170558060Y-87479290D01*
X170580407Y-87570589D01*
X170579028Y-87686916D01*
X170577807Y-87700497D01*
X170564084Y-87758873D01*
X170528790Y-87880393D01*
X170473532Y-88060264D01*
X170399913Y-88293690D01*
X170309542Y-88575877D01*
X170204023Y-88902029D01*
X170084961Y-89267353D01*
X169953964Y-89667054D01*
X169812637Y-90096336D01*
X169662584Y-90550406D01*
X169505413Y-91024468D01*
X169342730Y-91513728D01*
X169176139Y-92013391D01*
X169007246Y-92518662D01*
X168837658Y-93024746D01*
X168668981Y-93526850D01*
X168502819Y-94020177D01*
X168340779Y-94499935D01*
X168184467Y-94961326D01*
X168035488Y-95399558D01*
X167895448Y-95809836D01*
X167765954Y-96187363D01*
X167648610Y-96527347D01*
X167545022Y-96824992D01*
X167456797Y-97075504D01*
X167385540Y-97274087D01*
X167332857Y-97415947D01*
X167300354Y-97496290D01*
X167291678Y-97512500D01*
X167240419Y-97566234D01*
X167187063Y-97608571D01*
X167122552Y-97640945D01*
X167037829Y-97664788D01*
X166923835Y-97681533D01*
X166771514Y-97692613D01*
X166571808Y-97699460D01*
X166315659Y-97703508D01*
X166070643Y-97705644D01*
X165806842Y-97706278D01*
X165558880Y-97704448D01*
X165338543Y-97700432D01*
X165157616Y-97694506D01*
X165027885Y-97686946D01*
X164968292Y-97679787D01*
X164768737Y-97613546D01*
X164627214Y-97507871D01*
X164585765Y-97453852D01*
X164567143Y-97408687D01*
X164527301Y-97299465D01*
X164467858Y-97131016D01*
X164390433Y-96908168D01*
X164296645Y-96635748D01*
X164188112Y-96318585D01*
X164066453Y-95961507D01*
X163933285Y-95569342D01*
X163790229Y-95146919D01*
X163638902Y-94699065D01*
X163480923Y-94230610D01*
X163317911Y-93746380D01*
X163151484Y-93251205D01*
X162983260Y-92749913D01*
X162814859Y-92247331D01*
X162647899Y-91748289D01*
X162483999Y-91257614D01*
X162324776Y-90780134D01*
X162171851Y-90320678D01*
X162026840Y-89884074D01*
X161891364Y-89475150D01*
X161767040Y-89098735D01*
X161655487Y-88759656D01*
X161558323Y-88462742D01*
X161477168Y-88212822D01*
X161413640Y-88014722D01*
X161369357Y-87873272D01*
X161345938Y-87793300D01*
X161342931Y-87780515D01*
X161327931Y-87618903D01*
X161355630Y-87502279D01*
X161431532Y-87413313D01*
X161467919Y-87387187D01*
X161507405Y-87365698D01*
X161558157Y-87349427D01*
X161630062Y-87337666D01*
X161733009Y-87329708D01*
X161876886Y-87324847D01*
X162071580Y-87322376D01*
X162326979Y-87321589D01*
X162386085Y-87321571D01*
X162678967Y-87322556D01*
X162908481Y-87326729D01*
X163083817Y-87335920D01*
X163214164Y-87351958D01*
X163308713Y-87376672D01*
X163376653Y-87411891D01*
X163427176Y-87459443D01*
X163469470Y-87521159D01*
X163479989Y-87539285D01*
X163498872Y-87587698D01*
X163538025Y-87700845D01*
X163595997Y-87874220D01*
X163671336Y-88103314D01*
X163762588Y-88383618D01*
X163868303Y-88710624D01*
X163987027Y-89079824D01*
X164117310Y-89486708D01*
X164257698Y-89926770D01*
X164406740Y-90395499D01*
X164562984Y-90888389D01*
X164724978Y-91400929D01*
X164783085Y-91585143D01*
X164946111Y-92101961D01*
X165103295Y-92599726D01*
X165253236Y-93074027D01*
X165394532Y-93520455D01*
X165525782Y-93934598D01*
X165645584Y-94312048D01*
X165752537Y-94648394D01*
X165845240Y-94939226D01*
X165922290Y-95180134D01*
X165982287Y-95366708D01*
X166023829Y-95494537D01*
X166045515Y-95559212D01*
X166048246Y-95566291D01*
X166061885Y-95538186D01*
X166095540Y-95445011D01*
X166147841Y-95291043D01*
X166217420Y-95080560D01*
X166302906Y-94817840D01*
X166402931Y-94507161D01*
X166516126Y-94152802D01*
X166641120Y-93759039D01*
X166776545Y-93330153D01*
X166921031Y-92870419D01*
X167073210Y-92384118D01*
X167231711Y-91875525D01*
X167302590Y-91647434D01*
X167464543Y-91126461D01*
X167621384Y-90623219D01*
X167771677Y-90142244D01*
X167913988Y-89688071D01*
X168046882Y-89265236D01*
X168168926Y-88878275D01*
X168278683Y-88531725D01*
X168374720Y-88230120D01*
X168455602Y-87977996D01*
X168519894Y-87779891D01*
X168566163Y-87640338D01*
X168592973Y-87563875D01*
X168597732Y-87552362D01*
X168640099Y-87480494D01*
X168694273Y-87425400D01*
X168770105Y-87384564D01*
X168877443Y-87355467D01*
X169026138Y-87335592D01*
X169226037Y-87322423D01*
X169486991Y-87313442D01*
X169537593Y-87312164D01*
X169847845Y-87307636D01*
X170092787Y-87312612D01*
G36*
X159435480Y-87323204D02*
X159658955Y-87358482D01*
X159823803Y-87414905D01*
X159927516Y-87486576D01*
X160029071Y-87588132D01*
X160029071Y-92499563D01*
X160029177Y-93205595D01*
X160029377Y-93842651D01*
X160029496Y-94414326D01*
X160029361Y-94924215D01*
X160028795Y-95375913D01*
X160027625Y-95773014D01*
X160025676Y-96119114D01*
X160022774Y-96417808D01*
X160018742Y-96672691D01*
X160013407Y-96887357D01*
X160006595Y-97065402D01*
X159998129Y-97210420D01*
X159987836Y-97326006D01*
X159975542Y-97415756D01*
X159961070Y-97483264D01*
X159944247Y-97532126D01*
X159924897Y-97565936D01*
X159902847Y-97588288D01*
X159877920Y-97602779D01*
X159849944Y-97613003D01*
X159818743Y-97622555D01*
X159784141Y-97635030D01*
X159779401Y-97637047D01*
X159693268Y-97658442D01*
X159550311Y-97676673D01*
X159366227Y-97691269D01*
X159156713Y-97701757D01*
X158937466Y-97707666D01*
X158724184Y-97708524D01*
X158532563Y-97703858D01*
X158378301Y-97693197D01*
X158299201Y-97681549D01*
X158136512Y-97634608D01*
X158006097Y-97572739D01*
X157924878Y-97504727D01*
X157910754Y-97479946D01*
X157908045Y-97437201D01*
X157905429Y-97326119D01*
X157902925Y-97150931D01*
X157900553Y-96915873D01*
X157898330Y-96625176D01*
X157896278Y-96283075D01*
X157894413Y-95893802D01*
X157892757Y-95461592D01*
X157891327Y-94990676D01*
X157890144Y-94485290D01*
X157889225Y-93949665D01*
X157888591Y-93388036D01*
X157888260Y-92804636D01*
X157888214Y-92489318D01*
X157888234Y-91791998D01*
X157888328Y-91163606D01*
X157888546Y-90600496D01*
X157888941Y-90099026D01*
X157889563Y-89655550D01*
X157890464Y-89266425D01*
X157891694Y-88928006D01*
X157893304Y-88636649D01*
X157895347Y-88388710D01*
X157897873Y-88180545D01*
X157900932Y-88008510D01*
X157904577Y-87868959D01*
X157908859Y-87758251D01*
X157913828Y-87672739D01*
X157919537Y-87608780D01*
X157926035Y-87562729D01*
X157933374Y-87530943D01*
X157941605Y-87509777D01*
X157950780Y-87495588D01*
X157958430Y-87487213D01*
X158034161Y-87430402D01*
X158139683Y-87387003D01*
X158285129Y-87354922D01*
X158480636Y-87332064D01*
X158736340Y-87316334D01*
X158797584Y-87313781D01*
X159149612Y-87308496D01*
X159435480Y-87323204D01*
X159435480Y-87323204D01*
G37*
X159435480Y-87323204D02*
X159658955Y-87358482D01*
X159823803Y-87414905D01*
X159927516Y-87486576D01*
X160029071Y-87588132D01*
X160029071Y-92499563D01*
X160029177Y-93205595D01*
X160029377Y-93842651D01*
X160029496Y-94414326D01*
X160029361Y-94924215D01*
X160028795Y-95375913D01*
X160027625Y-95773014D01*
X160025676Y-96119114D01*
X160022774Y-96417808D01*
X160018742Y-96672691D01*
X160013407Y-96887357D01*
X160006595Y-97065402D01*
X159998129Y-97210420D01*
X159987836Y-97326006D01*
X159975542Y-97415756D01*
X159961070Y-97483264D01*
X159944247Y-97532126D01*
X159924897Y-97565936D01*
X159902847Y-97588288D01*
X159877920Y-97602779D01*
X159849944Y-97613003D01*
X159818743Y-97622555D01*
X159784141Y-97635030D01*
X159779401Y-97637047D01*
X159693268Y-97658442D01*
X159550311Y-97676673D01*
X159366227Y-97691269D01*
X159156713Y-97701757D01*
X158937466Y-97707666D01*
X158724184Y-97708524D01*
X158532563Y-97703858D01*
X158378301Y-97693197D01*
X158299201Y-97681549D01*
X158136512Y-97634608D01*
X158006097Y-97572739D01*
X157924878Y-97504727D01*
X157910754Y-97479946D01*
X157908045Y-97437201D01*
X157905429Y-97326119D01*
X157902925Y-97150931D01*
X157900553Y-96915873D01*
X157898330Y-96625176D01*
X157896278Y-96283075D01*
X157894413Y-95893802D01*
X157892757Y-95461592D01*
X157891327Y-94990676D01*
X157890144Y-94485290D01*
X157889225Y-93949665D01*
X157888591Y-93388036D01*
X157888260Y-92804636D01*
X157888214Y-92489318D01*
X157888234Y-91791998D01*
X157888328Y-91163606D01*
X157888546Y-90600496D01*
X157888941Y-90099026D01*
X157889563Y-89655550D01*
X157890464Y-89266425D01*
X157891694Y-88928006D01*
X157893304Y-88636649D01*
X157895347Y-88388710D01*
X157897873Y-88180545D01*
X157900932Y-88008510D01*
X157904577Y-87868959D01*
X157908859Y-87758251D01*
X157913828Y-87672739D01*
X157919537Y-87608780D01*
X157926035Y-87562729D01*
X157933374Y-87530943D01*
X157941605Y-87509777D01*
X157950780Y-87495588D01*
X157958430Y-87487213D01*
X158034161Y-87430402D01*
X158139683Y-87387003D01*
X158285129Y-87354922D01*
X158480636Y-87332064D01*
X158736340Y-87316334D01*
X158797584Y-87313781D01*
X159149612Y-87308496D01*
X159435480Y-87323204D01*
G36*
X154925454Y-87311511D02*
X155180796Y-87336397D01*
X155375445Y-87379048D01*
X155514468Y-87440423D01*
X155573819Y-87487165D01*
X155674786Y-87588132D01*
X155674786Y-92502744D01*
X155674772Y-93198588D01*
X155674695Y-93825530D01*
X155674502Y-94387238D01*
X155674139Y-94887380D01*
X155673551Y-95329627D01*
X155672687Y-95717647D01*
X155671491Y-96055108D01*
X155669911Y-96345679D01*
X155667893Y-96593029D01*
X155665383Y-96800827D01*
X155662327Y-96972742D01*
X155658673Y-97112443D01*
X155654367Y-97223598D01*
X155649354Y-97309876D01*
X155643582Y-97374947D01*
X155636996Y-97422478D01*
X155629544Y-97456139D01*
X155621171Y-97479598D01*
X155611824Y-97496525D01*
X155601647Y-97510337D01*
X155542419Y-97572572D01*
X155468687Y-97619886D01*
X155370414Y-97654180D01*
X155237561Y-97677355D01*
X155060090Y-97691314D01*
X154827964Y-97697958D01*
X154604357Y-97699285D01*
X154323026Y-97696998D01*
X154104122Y-97688868D01*
X153937606Y-97672994D01*
X153813441Y-97647474D01*
X153721588Y-97610406D01*
X153652009Y-97559889D01*
X153607067Y-97510337D01*
X153591634Y-97488898D01*
X153578538Y-97463122D01*
X153567590Y-97427253D01*
X153558596Y-97375535D01*
X153551364Y-97302211D01*
X153545704Y-97201525D01*
X153541422Y-97067721D01*
X153538326Y-96895043D01*
X153536226Y-96677734D01*
X153534928Y-96410039D01*
X153534240Y-96086201D01*
X153533971Y-95700464D01*
X153533929Y-95317678D01*
X153533929Y-93218000D01*
X149723929Y-93218000D01*
X149723394Y-95295357D01*
X149722891Y-95765576D01*
X149721580Y-96167709D01*
X149719367Y-96506236D01*
X149716157Y-96785640D01*
X149711855Y-97010401D01*
X149706369Y-97185001D01*
X149699602Y-97313922D01*
X149691462Y-97401643D01*
X149681853Y-97452648D01*
X149677750Y-97463428D01*
X149625296Y-97541941D01*
X149549867Y-97601803D01*
X149442128Y-97645423D01*
X149292747Y-97675208D01*
X149092390Y-97693566D01*
X148831722Y-97702905D01*
X148744214Y-97704261D01*
X148536376Y-97705752D01*
X148348340Y-97705165D01*
X148194601Y-97702694D01*
X148089652Y-97698532D01*
X148054786Y-97695071D01*
X147878156Y-97648806D01*
X147735541Y-97583853D01*
X147643168Y-97508368D01*
X147624753Y-97478923D01*
X147618377Y-97444224D01*
X147612605Y-97367855D01*
X147607416Y-97247400D01*
X147602791Y-97080445D01*
X147598709Y-96864573D01*
X147595149Y-96597368D01*
X147592093Y-96276415D01*
X147589519Y-95899297D01*
X147587407Y-95463598D01*
X147585738Y-94966903D01*
X147584490Y-94406796D01*
X147583645Y-93780860D01*
X147583181Y-93086680D01*
X147583072Y-92487787D01*
X147583072Y-87588132D01*
X147684039Y-87487165D01*
X147791798Y-87413968D01*
X147952113Y-87360078D01*
X148170048Y-87324534D01*
X148450668Y-87306377D01*
X148653500Y-87303428D01*
X148987806Y-87313226D01*
X149257598Y-87342410D01*
X149461061Y-87390668D01*
X149596378Y-87457688D01*
X149608893Y-87467783D01*
X149705786Y-87551108D01*
X149715786Y-89477411D01*
X149725787Y-91403714D01*
X153533929Y-91403714D01*
X153533929Y-87588132D01*
X153634896Y-87487165D01*
X153742655Y-87413968D01*
X153902970Y-87360078D01*
X154120905Y-87324534D01*
X154401526Y-87306377D01*
X154604357Y-87303428D01*
X154925454Y-87311511D01*
X154925454Y-87311511D01*
G37*
X154925454Y-87311511D02*
X155180796Y-87336397D01*
X155375445Y-87379048D01*
X155514468Y-87440423D01*
X155573819Y-87487165D01*
X155674786Y-87588132D01*
X155674786Y-92502744D01*
X155674772Y-93198588D01*
X155674695Y-93825530D01*
X155674502Y-94387238D01*
X155674139Y-94887380D01*
X155673551Y-95329627D01*
X155672687Y-95717647D01*
X155671491Y-96055108D01*
X155669911Y-96345679D01*
X155667893Y-96593029D01*
X155665383Y-96800827D01*
X155662327Y-96972742D01*
X155658673Y-97112443D01*
X155654367Y-97223598D01*
X155649354Y-97309876D01*
X155643582Y-97374947D01*
X155636996Y-97422478D01*
X155629544Y-97456139D01*
X155621171Y-97479598D01*
X155611824Y-97496525D01*
X155601647Y-97510337D01*
X155542419Y-97572572D01*
X155468687Y-97619886D01*
X155370414Y-97654180D01*
X155237561Y-97677355D01*
X155060090Y-97691314D01*
X154827964Y-97697958D01*
X154604357Y-97699285D01*
X154323026Y-97696998D01*
X154104122Y-97688868D01*
X153937606Y-97672994D01*
X153813441Y-97647474D01*
X153721588Y-97610406D01*
X153652009Y-97559889D01*
X153607067Y-97510337D01*
X153591634Y-97488898D01*
X153578538Y-97463122D01*
X153567590Y-97427253D01*
X153558596Y-97375535D01*
X153551364Y-97302211D01*
X153545704Y-97201525D01*
X153541422Y-97067721D01*
X153538326Y-96895043D01*
X153536226Y-96677734D01*
X153534928Y-96410039D01*
X153534240Y-96086201D01*
X153533971Y-95700464D01*
X153533929Y-95317678D01*
X153533929Y-93218000D01*
X149723929Y-93218000D01*
X149723394Y-95295357D01*
X149722891Y-95765576D01*
X149721580Y-96167709D01*
X149719367Y-96506236D01*
X149716157Y-96785640D01*
X149711855Y-97010401D01*
X149706369Y-97185001D01*
X149699602Y-97313922D01*
X149691462Y-97401643D01*
X149681853Y-97452648D01*
X149677750Y-97463428D01*
X149625296Y-97541941D01*
X149549867Y-97601803D01*
X149442128Y-97645423D01*
X149292747Y-97675208D01*
X149092390Y-97693566D01*
X148831722Y-97702905D01*
X148744214Y-97704261D01*
X148536376Y-97705752D01*
X148348340Y-97705165D01*
X148194601Y-97702694D01*
X148089652Y-97698532D01*
X148054786Y-97695071D01*
X147878156Y-97648806D01*
X147735541Y-97583853D01*
X147643168Y-97508368D01*
X147624753Y-97478923D01*
X147618377Y-97444224D01*
X147612605Y-97367855D01*
X147607416Y-97247400D01*
X147602791Y-97080445D01*
X147598709Y-96864573D01*
X147595149Y-96597368D01*
X147592093Y-96276415D01*
X147589519Y-95899297D01*
X147587407Y-95463598D01*
X147585738Y-94966903D01*
X147584490Y-94406796D01*
X147583645Y-93780860D01*
X147583181Y-93086680D01*
X147583072Y-92487787D01*
X147583072Y-87588132D01*
X147684039Y-87487165D01*
X147791798Y-87413968D01*
X147952113Y-87360078D01*
X148170048Y-87324534D01*
X148450668Y-87306377D01*
X148653500Y-87303428D01*
X148987806Y-87313226D01*
X149257598Y-87342410D01*
X149461061Y-87390668D01*
X149596378Y-87457688D01*
X149608893Y-87467783D01*
X149705786Y-87551108D01*
X149715786Y-89477411D01*
X149725787Y-91403714D01*
X153533929Y-91403714D01*
X153533929Y-87588132D01*
X153634896Y-87487165D01*
X153742655Y-87413968D01*
X153902970Y-87360078D01*
X154120905Y-87324534D01*
X154401526Y-87306377D01*
X154604357Y-87303428D01*
X154925454Y-87311511D01*
G36*
X145531165Y-87322181D02*
X145739064Y-87324475D01*
X145894566Y-87329148D01*
X146007756Y-87336896D01*
X146088718Y-87348413D01*
X146147535Y-87364396D01*
X146194293Y-87385540D01*
X146195143Y-87386003D01*
X146232746Y-87406558D01*
X146264751Y-87427257D01*
X146289549Y-87451995D01*
X146305533Y-87484668D01*
X146311096Y-87529173D01*
X146304631Y-87589404D01*
X146284529Y-87669259D01*
X146249183Y-87772632D01*
X146196986Y-87903419D01*
X146126331Y-88065517D01*
X146035609Y-88262821D01*
X145923213Y-88499226D01*
X145787537Y-88778630D01*
X145626971Y-89104927D01*
X145439909Y-89482014D01*
X145224744Y-89913785D01*
X144979867Y-90404138D01*
X144807214Y-90749700D01*
X143301357Y-93763786D01*
X143301357Y-95597850D01*
X143300660Y-96017156D01*
X143298623Y-96393468D01*
X143295330Y-96722324D01*
X143290863Y-96999259D01*
X143285304Y-97219809D01*
X143278737Y-97379509D01*
X143271245Y-97473896D01*
X143266130Y-97497736D01*
X143210838Y-97564566D01*
X143120124Y-97616149D01*
X142986301Y-97654149D01*
X142801684Y-97680234D01*
X142558585Y-97696067D01*
X142321643Y-97702400D01*
X142113811Y-97704520D01*
X141925780Y-97704472D01*
X141772043Y-97702409D01*
X141667091Y-97698487D01*
X141632214Y-97695071D01*
X141455584Y-97648806D01*
X141312970Y-97583853D01*
X141220597Y-97508368D01*
X141202182Y-97478923D01*
X141191716Y-97429695D01*
X141182888Y-97329542D01*
X141175631Y-97175312D01*
X141169876Y-96963850D01*
X141165555Y-96692003D01*
X141162599Y-96356616D01*
X141160941Y-95954535D01*
X141160500Y-95552683D01*
X141160500Y-93717924D01*
X139666743Y-90745134D01*
X139402798Y-90219817D01*
X139169717Y-89755423D01*
X138965850Y-89347997D01*
X138789544Y-88993583D01*
X138639148Y-88688225D01*
X138513008Y-88427968D01*
X138409475Y-88208857D01*
X138326895Y-88026935D01*
X138263617Y-87878247D01*
X138217990Y-87758838D01*
X138188360Y-87664751D01*
X138173076Y-87592032D01*
X138170488Y-87536725D01*
X138178941Y-87494873D01*
X138196785Y-87462522D01*
X138222368Y-87435716D01*
X138254038Y-87410499D01*
X138269375Y-87398963D01*
X138305837Y-87373983D01*
X138346994Y-87355041D01*
X138402799Y-87341304D01*
X138483203Y-87331941D01*
X138598157Y-87326120D01*
X138757615Y-87323006D01*
X138971527Y-87321769D01*
X139194661Y-87321571D01*
X139496901Y-87322850D01*
X139735966Y-87327634D01*
X139921223Y-87337346D01*
X140062038Y-87353408D01*
X140167780Y-87377242D01*
X140247813Y-87410272D01*
X140311506Y-87453920D01*
X140357694Y-87498188D01*
X140390346Y-87550120D01*
X140448623Y-87661118D01*
X140529133Y-87823730D01*
X140628484Y-88030503D01*
X140743285Y-88273984D01*
X140870144Y-88546721D01*
X141005670Y-88841261D01*
X141146471Y-89150153D01*
X141289156Y-89465943D01*
X141430332Y-89781179D01*
X141566609Y-90088410D01*
X141694594Y-90380181D01*
X141810897Y-90649041D01*
X141912125Y-90887538D01*
X141994888Y-91088219D01*
X142019486Y-91149714D01*
X142097486Y-91344825D01*
X142167587Y-91516447D01*
X142225007Y-91653166D01*
X142264961Y-91743570D01*
X142281752Y-91775619D01*
X142307886Y-91762878D01*
X142342790Y-91698215D01*
X142354822Y-91666762D01*
X142438626Y-91438688D01*
X142549146Y-91154710D01*
X142682276Y-90824625D01*
X142833913Y-90458232D01*
X142999952Y-90065328D01*
X143176288Y-89655712D01*
X143358818Y-89239181D01*
X143543437Y-88825533D01*
X143565543Y-88776541D01*
X143713830Y-88448626D01*
X143835774Y-88180439D01*
X143934811Y-87965527D01*
X144014373Y-87797437D01*
X144077894Y-87669715D01*
X144128808Y-87575908D01*
X144170549Y-87509562D01*
X144206550Y-87464225D01*
X144240245Y-87433442D01*
X144275069Y-87410761D01*
X144299214Y-87397684D01*
X144350996Y-87372899D01*
X144406275Y-87354147D01*
X144475583Y-87340592D01*
X144569455Y-87331402D01*
X144698421Y-87325743D01*
X144873016Y-87322782D01*
X145103772Y-87321683D01*
X145260786Y-87321571D01*
X145531165Y-87322181D01*
X145531165Y-87322181D01*
G37*
X145531165Y-87322181D02*
X145739064Y-87324475D01*
X145894566Y-87329148D01*
X146007756Y-87336896D01*
X146088718Y-87348413D01*
X146147535Y-87364396D01*
X146194293Y-87385540D01*
X146195143Y-87386003D01*
X146232746Y-87406558D01*
X146264751Y-87427257D01*
X146289549Y-87451995D01*
X146305533Y-87484668D01*
X146311096Y-87529173D01*
X146304631Y-87589404D01*
X146284529Y-87669259D01*
X146249183Y-87772632D01*
X146196986Y-87903419D01*
X146126331Y-88065517D01*
X146035609Y-88262821D01*
X145923213Y-88499226D01*
X145787537Y-88778630D01*
X145626971Y-89104927D01*
X145439909Y-89482014D01*
X145224744Y-89913785D01*
X144979867Y-90404138D01*
X144807214Y-90749700D01*
X143301357Y-93763786D01*
X143301357Y-95597850D01*
X143300660Y-96017156D01*
X143298623Y-96393468D01*
X143295330Y-96722324D01*
X143290863Y-96999259D01*
X143285304Y-97219809D01*
X143278737Y-97379509D01*
X143271245Y-97473896D01*
X143266130Y-97497736D01*
X143210838Y-97564566D01*
X143120124Y-97616149D01*
X142986301Y-97654149D01*
X142801684Y-97680234D01*
X142558585Y-97696067D01*
X142321643Y-97702400D01*
X142113811Y-97704520D01*
X141925780Y-97704472D01*
X141772043Y-97702409D01*
X141667091Y-97698487D01*
X141632214Y-97695071D01*
X141455584Y-97648806D01*
X141312970Y-97583853D01*
X141220597Y-97508368D01*
X141202182Y-97478923D01*
X141191716Y-97429695D01*
X141182888Y-97329542D01*
X141175631Y-97175312D01*
X141169876Y-96963850D01*
X141165555Y-96692003D01*
X141162599Y-96356616D01*
X141160941Y-95954535D01*
X141160500Y-95552683D01*
X141160500Y-93717924D01*
X139666743Y-90745134D01*
X139402798Y-90219817D01*
X139169717Y-89755423D01*
X138965850Y-89347997D01*
X138789544Y-88993583D01*
X138639148Y-88688225D01*
X138513008Y-88427968D01*
X138409475Y-88208857D01*
X138326895Y-88026935D01*
X138263617Y-87878247D01*
X138217990Y-87758838D01*
X138188360Y-87664751D01*
X138173076Y-87592032D01*
X138170488Y-87536725D01*
X138178941Y-87494873D01*
X138196785Y-87462522D01*
X138222368Y-87435716D01*
X138254038Y-87410499D01*
X138269375Y-87398963D01*
X138305837Y-87373983D01*
X138346994Y-87355041D01*
X138402799Y-87341304D01*
X138483203Y-87331941D01*
X138598157Y-87326120D01*
X138757615Y-87323006D01*
X138971527Y-87321769D01*
X139194661Y-87321571D01*
X139496901Y-87322850D01*
X139735966Y-87327634D01*
X139921223Y-87337346D01*
X140062038Y-87353408D01*
X140167780Y-87377242D01*
X140247813Y-87410272D01*
X140311506Y-87453920D01*
X140357694Y-87498188D01*
X140390346Y-87550120D01*
X140448623Y-87661118D01*
X140529133Y-87823730D01*
X140628484Y-88030503D01*
X140743285Y-88273984D01*
X140870144Y-88546721D01*
X141005670Y-88841261D01*
X141146471Y-89150153D01*
X141289156Y-89465943D01*
X141430332Y-89781179D01*
X141566609Y-90088410D01*
X141694594Y-90380181D01*
X141810897Y-90649041D01*
X141912125Y-90887538D01*
X141994888Y-91088219D01*
X142019486Y-91149714D01*
X142097486Y-91344825D01*
X142167587Y-91516447D01*
X142225007Y-91653166D01*
X142264961Y-91743570D01*
X142281752Y-91775619D01*
X142307886Y-91762878D01*
X142342790Y-91698215D01*
X142354822Y-91666762D01*
X142438626Y-91438688D01*
X142549146Y-91154710D01*
X142682276Y-90824625D01*
X142833913Y-90458232D01*
X142999952Y-90065328D01*
X143176288Y-89655712D01*
X143358818Y-89239181D01*
X143543437Y-88825533D01*
X143565543Y-88776541D01*
X143713830Y-88448626D01*
X143835774Y-88180439D01*
X143934811Y-87965527D01*
X144014373Y-87797437D01*
X144077894Y-87669715D01*
X144128808Y-87575908D01*
X144170549Y-87509562D01*
X144206550Y-87464225D01*
X144240245Y-87433442D01*
X144275069Y-87410761D01*
X144299214Y-87397684D01*
X144350996Y-87372899D01*
X144406275Y-87354147D01*
X144475583Y-87340592D01*
X144569455Y-87331402D01*
X144698421Y-87325743D01*
X144873016Y-87322782D01*
X145103772Y-87321683D01*
X145260786Y-87321571D01*
X145531165Y-87322181D01*
G36*
X128992977Y-87321095D02*
X129224465Y-87352946D01*
X129396676Y-87404011D01*
X129513459Y-87475417D01*
X129578661Y-87568291D01*
X129596284Y-87679347D01*
X129592019Y-87726834D01*
X129580336Y-87779729D01*
X129559002Y-87841162D01*
X129525787Y-87914262D01*
X129478460Y-88002161D01*
X129414790Y-88107989D01*
X129332545Y-88234875D01*
X129229495Y-88385950D01*
X129103408Y-88564345D01*
X128952053Y-88773188D01*
X128773200Y-89015611D01*
X128564617Y-89294744D01*
X128324072Y-89613717D01*
X128049336Y-89975660D01*
X127738176Y-90383704D01*
X127388361Y-90840978D01*
X126997662Y-91350612D01*
X126743370Y-91681942D01*
X126432264Y-92087170D01*
X127977660Y-94421513D01*
X128226811Y-94798751D01*
X128466684Y-95163658D01*
X128693872Y-95510948D01*
X128904969Y-95835338D01*
X129096570Y-96131540D01*
X129265267Y-96394270D01*
X129407656Y-96618242D01*
X129520329Y-96798171D01*
X129599882Y-96928770D01*
X129642909Y-97004755D01*
X129644921Y-97008833D01*
X129727937Y-97203020D01*
X129763108Y-97350929D01*
X129748479Y-97462505D01*
X129682094Y-97547691D01*
X129561999Y-97616428D01*
X129522271Y-97632626D01*
X129451520Y-97656174D01*
X129370913Y-97673575D01*
X129268669Y-97685705D01*
X129133005Y-97693436D01*
X128952138Y-97697645D01*
X128714285Y-97699203D01*
X128623786Y-97699285D01*
X128337225Y-97697701D01*
X128113001Y-97691743D01*
X127940922Y-97679600D01*
X127810799Y-97659465D01*
X127712441Y-97629529D01*
X127635658Y-97587981D01*
X127570261Y-97533014D01*
X127546010Y-97507947D01*
X127512446Y-97462300D01*
X127443190Y-97360187D01*
X127341378Y-97206454D01*
X127210147Y-97005945D01*
X127052632Y-96763505D01*
X126871970Y-96483978D01*
X126671297Y-96172211D01*
X126453750Y-95833047D01*
X126222464Y-95471332D01*
X125980576Y-95091910D01*
X125898097Y-94962281D01*
X124342072Y-92515562D01*
X124323303Y-95016709D01*
X124320040Y-95435838D01*
X124316716Y-95833262D01*
X124313396Y-96203094D01*
X124310142Y-96539449D01*
X124307020Y-96836440D01*
X124304092Y-97088183D01*
X124301423Y-97288791D01*
X124299076Y-97432379D01*
X124297115Y-97513061D01*
X124296089Y-97528969D01*
X124261113Y-97548978D01*
X124180596Y-97588242D01*
X124115286Y-97618486D01*
X124040375Y-97648900D01*
X123961057Y-97670794D01*
X123863228Y-97685789D01*
X123732783Y-97695505D01*
X123555615Y-97701561D01*
X123362357Y-97704980D01*
X123151337Y-97705803D01*
X122954080Y-97702719D01*
X122787325Y-97696269D01*
X122667810Y-97686992D01*
X122630344Y-97681327D01*
X122467862Y-97634634D01*
X122337461Y-97572882D01*
X122256132Y-97504880D01*
X122241897Y-97479946D01*
X122237995Y-97433954D01*
X122234469Y-97320717D01*
X122231311Y-97145348D01*
X122228516Y-96912962D01*
X122226077Y-96628676D01*
X122223987Y-96297603D01*
X122222240Y-95924858D01*
X122220830Y-95515557D01*
X122219749Y-95074815D01*
X122218992Y-94607746D01*
X122218551Y-94119465D01*
X122218421Y-93615088D01*
X122218594Y-93099729D01*
X122219065Y-92578504D01*
X122219826Y-92056527D01*
X122220872Y-91538913D01*
X122222195Y-91030778D01*
X122223790Y-90537236D01*
X122225649Y-90063402D01*
X122227767Y-89614391D01*
X122230136Y-89195318D01*
X122232750Y-88811298D01*
X122235603Y-88467447D01*
X122238687Y-88168879D01*
X122241998Y-87920708D01*
X122245527Y-87728051D01*
X122249269Y-87596021D01*
X122253217Y-87529735D01*
X122254584Y-87523121D01*
X122319690Y-87451474D01*
X122433123Y-87395945D01*
X122600815Y-87355068D01*
X122828695Y-87327382D01*
X123110929Y-87311809D01*
X123438806Y-87308746D01*
X123721537Y-87322371D01*
X123952413Y-87351861D01*
X124124725Y-87396390D01*
X124224179Y-87448636D01*
X124305786Y-87514703D01*
X124342072Y-92001133D01*
X125900457Y-89737783D01*
X126198936Y-89303382D01*
X126458931Y-88924225D01*
X126684212Y-88596555D01*
X126878551Y-88316614D01*
X127045718Y-88080646D01*
X127189485Y-87884893D01*
X127313623Y-87725598D01*
X127421902Y-87599006D01*
X127518095Y-87501357D01*
X127605971Y-87428896D01*
X127689302Y-87377865D01*
X127771859Y-87344507D01*
X127857414Y-87325066D01*
X127949736Y-87315784D01*
X128052598Y-87312905D01*
X128169769Y-87312670D01*
X128305023Y-87311324D01*
X128336774Y-87310528D01*
X128698363Y-87307331D01*
X128992977Y-87321095D01*
X128992977Y-87321095D01*
G37*
X128992977Y-87321095D02*
X129224465Y-87352946D01*
X129396676Y-87404011D01*
X129513459Y-87475417D01*
X129578661Y-87568291D01*
X129596284Y-87679347D01*
X129592019Y-87726834D01*
X129580336Y-87779729D01*
X129559002Y-87841162D01*
X129525787Y-87914262D01*
X129478460Y-88002161D01*
X129414790Y-88107989D01*
X129332545Y-88234875D01*
X129229495Y-88385950D01*
X129103408Y-88564345D01*
X128952053Y-88773188D01*
X128773200Y-89015611D01*
X128564617Y-89294744D01*
X128324072Y-89613717D01*
X128049336Y-89975660D01*
X127738176Y-90383704D01*
X127388361Y-90840978D01*
X126997662Y-91350612D01*
X126743370Y-91681942D01*
X126432264Y-92087170D01*
X127977660Y-94421513D01*
X128226811Y-94798751D01*
X128466684Y-95163658D01*
X128693872Y-95510948D01*
X128904969Y-95835338D01*
X129096570Y-96131540D01*
X129265267Y-96394270D01*
X129407656Y-96618242D01*
X129520329Y-96798171D01*
X129599882Y-96928770D01*
X129642909Y-97004755D01*
X129644921Y-97008833D01*
X129727937Y-97203020D01*
X129763108Y-97350929D01*
X129748479Y-97462505D01*
X129682094Y-97547691D01*
X129561999Y-97616428D01*
X129522271Y-97632626D01*
X129451520Y-97656174D01*
X129370913Y-97673575D01*
X129268669Y-97685705D01*
X129133005Y-97693436D01*
X128952138Y-97697645D01*
X128714285Y-97699203D01*
X128623786Y-97699285D01*
X128337225Y-97697701D01*
X128113001Y-97691743D01*
X127940922Y-97679600D01*
X127810799Y-97659465D01*
X127712441Y-97629529D01*
X127635658Y-97587981D01*
X127570261Y-97533014D01*
X127546010Y-97507947D01*
X127512446Y-97462300D01*
X127443190Y-97360187D01*
X127341378Y-97206454D01*
X127210147Y-97005945D01*
X127052632Y-96763505D01*
X126871970Y-96483978D01*
X126671297Y-96172211D01*
X126453750Y-95833047D01*
X126222464Y-95471332D01*
X125980576Y-95091910D01*
X125898097Y-94962281D01*
X124342072Y-92515562D01*
X124323303Y-95016709D01*
X124320040Y-95435838D01*
X124316716Y-95833262D01*
X124313396Y-96203094D01*
X124310142Y-96539449D01*
X124307020Y-96836440D01*
X124304092Y-97088183D01*
X124301423Y-97288791D01*
X124299076Y-97432379D01*
X124297115Y-97513061D01*
X124296089Y-97528969D01*
X124261113Y-97548978D01*
X124180596Y-97588242D01*
X124115286Y-97618486D01*
X124040375Y-97648900D01*
X123961057Y-97670794D01*
X123863228Y-97685789D01*
X123732783Y-97695505D01*
X123555615Y-97701561D01*
X123362357Y-97704980D01*
X123151337Y-97705803D01*
X122954080Y-97702719D01*
X122787325Y-97696269D01*
X122667810Y-97686992D01*
X122630344Y-97681327D01*
X122467862Y-97634634D01*
X122337461Y-97572882D01*
X122256132Y-97504880D01*
X122241897Y-97479946D01*
X122237995Y-97433954D01*
X122234469Y-97320717D01*
X122231311Y-97145348D01*
X122228516Y-96912962D01*
X122226077Y-96628676D01*
X122223987Y-96297603D01*
X122222240Y-95924858D01*
X122220830Y-95515557D01*
X122219749Y-95074815D01*
X122218992Y-94607746D01*
X122218551Y-94119465D01*
X122218421Y-93615088D01*
X122218594Y-93099729D01*
X122219065Y-92578504D01*
X122219826Y-92056527D01*
X122220872Y-91538913D01*
X122222195Y-91030778D01*
X122223790Y-90537236D01*
X122225649Y-90063402D01*
X122227767Y-89614391D01*
X122230136Y-89195318D01*
X122232750Y-88811298D01*
X122235603Y-88467447D01*
X122238687Y-88168879D01*
X122241998Y-87920708D01*
X122245527Y-87728051D01*
X122249269Y-87596021D01*
X122253217Y-87529735D01*
X122254584Y-87523121D01*
X122319690Y-87451474D01*
X122433123Y-87395945D01*
X122600815Y-87355068D01*
X122828695Y-87327382D01*
X123110929Y-87311809D01*
X123438806Y-87308746D01*
X123721537Y-87322371D01*
X123952413Y-87351861D01*
X124124725Y-87396390D01*
X124224179Y-87448636D01*
X124305786Y-87514703D01*
X124342072Y-92001133D01*
X125900457Y-89737783D01*
X126198936Y-89303382D01*
X126458931Y-88924225D01*
X126684212Y-88596555D01*
X126878551Y-88316614D01*
X127045718Y-88080646D01*
X127189485Y-87884893D01*
X127313623Y-87725598D01*
X127421902Y-87599006D01*
X127518095Y-87501357D01*
X127605971Y-87428896D01*
X127689302Y-87377865D01*
X127771859Y-87344507D01*
X127857414Y-87325066D01*
X127949736Y-87315784D01*
X128052598Y-87312905D01*
X128169769Y-87312670D01*
X128305023Y-87311324D01*
X128336774Y-87310528D01*
X128698363Y-87307331D01*
X128992977Y-87321095D01*
%LPC*%
D11*
X252706232Y-102433642D02*
X252402660Y-104862214D01*
X252509803Y-105147928D01*
X252634803Y-105290785D01*
X252902660Y-105433642D01*
X253474089Y-105433642D01*
X253777660Y-105290785D01*
X253938375Y-105147928D01*
X254116946Y-104862214D01*
X254420517Y-102433642D01*
X255420517Y-102433642D02*
X257134803Y-102433642D01*
X255902660Y-105433642D02*
X256277660Y-102433642D01*
X259295517Y-103433642D02*
X259045517Y-105433642D01*
X258724089Y-102290785D02*
X257741946Y-104433642D01*
X259599089Y-104433642D01*
X260706232Y-102433642D02*
X262706232Y-102433642D01*
X261045517Y-105433642D01*
X263509803Y-105147928D02*
X263634803Y-105290785D01*
X263474089Y-105433642D01*
X263349089Y-105290785D01*
X263509803Y-105147928D01*
X263474089Y-105433642D01*
X265099089Y-102719357D02*
X265259803Y-102576500D01*
X265563375Y-102433642D01*
X266277660Y-102433642D01*
X266545517Y-102576500D01*
X266670517Y-102719357D01*
X266777660Y-103005071D01*
X266741946Y-103290785D01*
X266545517Y-103719357D01*
X264616946Y-105433642D01*
X266474089Y-105433642D01*
D12*
X162750500Y-90170000D03*
X138874500Y-90170000D03*
D13*
X162750500Y-105410000D03*
X138874500Y-105410000D03*
D14*
X155892500Y-98425000D03*
X145732500Y-98425000D03*
D15*
X147002500Y-95885000D03*
D12*
X150812500Y-98425000D03*
D15*
X153352500Y-93345000D03*
D14*
X250507500Y-41275000D03*
X260667500Y-41275000D03*
D15*
X259397500Y-43815000D03*
D12*
X255587500Y-41275000D03*
D15*
X253047500Y-46355000D03*
D14*
X51117500Y-79375000D03*
X40957500Y-79375000D03*
D15*
X42227500Y-76835000D03*
D12*
X46037500Y-79375000D03*
D15*
X48577500Y-74295000D03*
D14*
X48736250Y-60325000D03*
X38576250Y-60325000D03*
D15*
X39846250Y-57785000D03*
D12*
X43656250Y-60325000D03*
D15*
X46196250Y-55245000D03*
D14*
X263048750Y-60325000D03*
X252888750Y-60325000D03*
D15*
X254158750Y-57785000D03*
D12*
X257968750Y-60325000D03*
D15*
X260508750Y-55245000D03*
D14*
X124936250Y-98425000D03*
X114776250Y-98425000D03*
D15*
X116046250Y-95885000D03*
D12*
X119856250Y-98425000D03*
D15*
X122396250Y-93345000D03*
D14*
X186848750Y-98425000D03*
X176688750Y-98425000D03*
D15*
X177958750Y-95885000D03*
D12*
X181768750Y-98425000D03*
D15*
X184308750Y-93345000D03*
D14*
X46355000Y-41275000D03*
X36195000Y-41275000D03*
D15*
X37465000Y-38735000D03*
D12*
X41275000Y-41275000D03*
D15*
X43815000Y-36195000D03*
D14*
X65405000Y-41275000D03*
X55245000Y-41275000D03*
D15*
X56515000Y-38735000D03*
D12*
X60325000Y-41275000D03*
D15*
X62865000Y-36195000D03*
D14*
X84455000Y-41275000D03*
X74295000Y-41275000D03*
D15*
X75565000Y-38735000D03*
D12*
X79375000Y-41275000D03*
D15*
X81915000Y-36195000D03*
D14*
X103505000Y-41275000D03*
X93345000Y-41275000D03*
D15*
X94615000Y-38735000D03*
D12*
X98425000Y-41275000D03*
D15*
X100965000Y-36195000D03*
D14*
X122555000Y-41275000D03*
X112395000Y-41275000D03*
D15*
X113665000Y-38735000D03*
D12*
X117475000Y-41275000D03*
D15*
X120015000Y-36195000D03*
D14*
X141605000Y-41275000D03*
X131445000Y-41275000D03*
D15*
X132715000Y-38735000D03*
D12*
X136525000Y-41275000D03*
D15*
X139065000Y-36195000D03*
D14*
X160655000Y-41275000D03*
X150495000Y-41275000D03*
D15*
X151765000Y-38735000D03*
D12*
X155575000Y-41275000D03*
D15*
X158115000Y-36195000D03*
D14*
X179705000Y-41275000D03*
X169545000Y-41275000D03*
D15*
X170815000Y-38735000D03*
D12*
X174625000Y-41275000D03*
D15*
X177165000Y-36195000D03*
D14*
X198755000Y-41275000D03*
X188595000Y-41275000D03*
D15*
X189865000Y-38735000D03*
D12*
X193675000Y-41275000D03*
D15*
X196215000Y-36195000D03*
D14*
X217805000Y-41275000D03*
X207645000Y-41275000D03*
D15*
X208915000Y-38735000D03*
D12*
X212725000Y-41275000D03*
D15*
X215265000Y-36195000D03*
D14*
X236855000Y-41275000D03*
X226695000Y-41275000D03*
D15*
X227965000Y-38735000D03*
D12*
X231775000Y-41275000D03*
D15*
X234315000Y-36195000D03*
D14*
X70167500Y-60325000D03*
X60007500Y-60325000D03*
D15*
X61277500Y-57785000D03*
D12*
X65087500Y-60325000D03*
D15*
X67627500Y-55245000D03*
D14*
X89217500Y-60325000D03*
X79057500Y-60325000D03*
D15*
X80327500Y-57785000D03*
D12*
X84137500Y-60325000D03*
D15*
X86677500Y-55245000D03*
D14*
X108267500Y-60325000D03*
X98107500Y-60325000D03*
D15*
X99377500Y-57785000D03*
D12*
X103187500Y-60325000D03*
D15*
X105727500Y-55245000D03*
D14*
X127317500Y-60325000D03*
X117157500Y-60325000D03*
D15*
X118427500Y-57785000D03*
D12*
X122237500Y-60325000D03*
D15*
X124777500Y-55245000D03*
D14*
X146367500Y-60325000D03*
X136207500Y-60325000D03*
D15*
X137477500Y-57785000D03*
D12*
X141287500Y-60325000D03*
D15*
X143827500Y-55245000D03*
D14*
X165417500Y-60325000D03*
X155257500Y-60325000D03*
D15*
X156527500Y-57785000D03*
D12*
X160337500Y-60325000D03*
D15*
X162877500Y-55245000D03*
D14*
X184467500Y-60325000D03*
X174307500Y-60325000D03*
D15*
X175577500Y-57785000D03*
D12*
X179387500Y-60325000D03*
D15*
X181927500Y-55245000D03*
D14*
X203517500Y-60325000D03*
X193357500Y-60325000D03*
D15*
X194627500Y-57785000D03*
D12*
X198437500Y-60325000D03*
D15*
X200977500Y-55245000D03*
D14*
X222567500Y-60325000D03*
X212407500Y-60325000D03*
D15*
X213677500Y-57785000D03*
D12*
X217487500Y-60325000D03*
D15*
X220027500Y-55245000D03*
D14*
X241617500Y-60325000D03*
X231457500Y-60325000D03*
D15*
X232727500Y-57785000D03*
D12*
X236537500Y-60325000D03*
D15*
X239077500Y-55245000D03*
D14*
X74930000Y-79375000D03*
X64770000Y-79375000D03*
D15*
X66040000Y-76835000D03*
D12*
X69850000Y-79375000D03*
D15*
X72390000Y-74295000D03*
D14*
X93980000Y-79375000D03*
X83820000Y-79375000D03*
D15*
X85090000Y-76835000D03*
D12*
X88900000Y-79375000D03*
D15*
X91440000Y-74295000D03*
D14*
X113030000Y-79375000D03*
X102870000Y-79375000D03*
D15*
X104140000Y-76835000D03*
D12*
X107950000Y-79375000D03*
D15*
X110490000Y-74295000D03*
D14*
X132080000Y-79375000D03*
X121920000Y-79375000D03*
D15*
X123190000Y-76835000D03*
D12*
X127000000Y-79375000D03*
D15*
X129540000Y-74295000D03*
D14*
X151130000Y-79375000D03*
X140970000Y-79375000D03*
D15*
X142240000Y-76835000D03*
D12*
X146050000Y-79375000D03*
D15*
X148590000Y-74295000D03*
D14*
X170180000Y-79375000D03*
X160020000Y-79375000D03*
D15*
X161290000Y-76835000D03*
D12*
X165100000Y-79375000D03*
D15*
X167640000Y-74295000D03*
D14*
X189230000Y-79375000D03*
X179070000Y-79375000D03*
D15*
X180340000Y-76835000D03*
D12*
X184150000Y-79375000D03*
D15*
X186690000Y-74295000D03*
D14*
X208280000Y-79375000D03*
X198120000Y-79375000D03*
D15*
X199390000Y-76835000D03*
D12*
X203200000Y-79375000D03*
D15*
X205740000Y-74295000D03*
D14*
X227330000Y-79375000D03*
X217170000Y-79375000D03*
D15*
X218440000Y-76835000D03*
D12*
X222250000Y-79375000D03*
D15*
X224790000Y-74295000D03*
D14*
X246380000Y-79375000D03*
X236220000Y-79375000D03*
D15*
X237490000Y-76835000D03*
D12*
X241300000Y-79375000D03*
D15*
X243840000Y-74295000D03*
D14*
X265430000Y-79375000D03*
X255270000Y-79375000D03*
D15*
X256540000Y-76835000D03*
D12*
X260350000Y-79375000D03*
D15*
X262890000Y-74295000D03*
D14*
X46355000Y-98425000D03*
X36195000Y-98425000D03*
D15*
X37465000Y-95885000D03*
D12*
X41275000Y-98425000D03*
D15*
X43815000Y-93345000D03*
D14*
X65405000Y-98425000D03*
X55245000Y-98425000D03*
D15*
X56515000Y-95885000D03*
D12*
X60325000Y-98425000D03*
D15*
X62865000Y-93345000D03*
D14*
X84455000Y-98425000D03*
X74295000Y-98425000D03*
D15*
X75565000Y-95885000D03*
D12*
X79375000Y-98425000D03*
D15*
X81915000Y-93345000D03*
D14*
X103505000Y-98425000D03*
X93345000Y-98425000D03*
D15*
X94615000Y-95885000D03*
D12*
X98425000Y-98425000D03*
D15*
X100965000Y-93345000D03*
D14*
X208280000Y-98425000D03*
X198120000Y-98425000D03*
D15*
X199390000Y-95885000D03*
D12*
X203200000Y-98425000D03*
D15*
X205740000Y-93345000D03*
D14*
X227330000Y-98425000D03*
X217170000Y-98425000D03*
D15*
X218440000Y-95885000D03*
D12*
X222250000Y-98425000D03*
D15*
X224790000Y-93345000D03*
D14*
X246380000Y-98425000D03*
X236220000Y-98425000D03*
D15*
X237490000Y-95885000D03*
D12*
X241300000Y-98425000D03*
D15*
X243840000Y-93345000D03*
D14*
X265430000Y-98425000D03*
X255270000Y-98425000D03*
D15*
X256540000Y-95885000D03*
D12*
X260350000Y-98425000D03*
D15*
X262890000Y-93345000D03*
D16*
X248920750Y-36412500D03*
X243140750Y-36412500D03*
D17*
X241710750Y-36942500D03*
X250350750Y-36942500D03*
D18*
X241710750Y-32762500D03*
X250350750Y-32762500D03*
M02*
