%TF.GenerationSoftware,KiCad,Pcbnew,(5.0.0)*%
%TF.CreationDate,2018-11-28T21:52:03-08:00*%
%TF.ProjectId,UT47.2,555434372E322E6B696361645F706362,rev?*%
%TF.SameCoordinates,Original*%
%TF.FileFunction,Soldermask,Bot*%
%TF.FilePolarity,Negative*%
%FSLAX46Y46*%
G04 Gerber Fmt 4.6, Leading zero omitted, Abs format (unit mm)*
G04 Created by KiCad (PCBNEW (5.0.0)) date 11/28/18 21:52:03*
%MOMM*%
%LPD*%
G01*
G04 APERTURE LIST*
%ADD10C,0.300000*%
%ADD11C,0.010000*%
%ADD12C,4.387800*%
%ADD13C,3.448000*%
%ADD14R,2.950000X2.900000*%
%ADD15C,2.150000*%
%ADD16C,3.400000*%
%ADD17R,1.600000X1.300000*%
%ADD18R,2.200000X1.800000*%
%ADD19R,2.200000X1.500000*%
%ADD20R,1.100000X1.400000*%
%ADD21R,1.100000X1.000000*%
%ADD22R,1.000000X1.850000*%
%ADD23R,0.700000X1.850000*%
%ADD24C,1.050000*%
%ADD25O,1.400000X2.500000*%
%ADD26O,1.400000X2.000000*%
%ADD27R,1.600000X1.800000*%
%ADD28R,1.200000X1.150000*%
%ADD29R,1.150000X1.200000*%
%ADD30R,0.900000X1.300000*%
%ADD31R,1.300000X0.900000*%
%ADD32R,1.100000X0.650000*%
%ADD33R,0.650000X1.100000*%
%ADD34R,2.125000X2.125000*%
%ADD35R,1.540000X2.430000*%
G04 APERTURE END LIST*
D10*
X260546428Y-104747321D02*
X260546428Y-105961607D01*
X260475000Y-106104464D01*
X260403571Y-106175892D01*
X260260714Y-106247321D01*
X259975000Y-106247321D01*
X259832142Y-106175892D01*
X259760714Y-106104464D01*
X259689285Y-105961607D01*
X259689285Y-104747321D01*
X259189285Y-104747321D02*
X258332142Y-104747321D01*
X258760714Y-106247321D02*
X258760714Y-104747321D01*
X257189285Y-105247321D02*
X257189285Y-106247321D01*
X257546428Y-104675892D02*
X257903571Y-105747321D01*
X256975000Y-105747321D01*
X256546428Y-104747321D02*
X255546428Y-104747321D01*
X256189285Y-106247321D01*
X254975000Y-106104464D02*
X254903571Y-106175892D01*
X254975000Y-106247321D01*
X255046428Y-106175892D01*
X254975000Y-106104464D01*
X254975000Y-106247321D01*
X254332142Y-104890178D02*
X254260714Y-104818750D01*
X254117857Y-104747321D01*
X253760714Y-104747321D01*
X253617857Y-104818750D01*
X253546428Y-104890178D01*
X253475000Y-105033035D01*
X253475000Y-105175892D01*
X253546428Y-105390178D01*
X254403571Y-106247321D01*
X253475000Y-106247321D01*
X251689285Y-106247321D02*
X251689285Y-104747321D01*
X251117857Y-104747321D01*
X250975000Y-104818750D01*
X250903571Y-104890178D01*
X250832142Y-105033035D01*
X250832142Y-105247321D01*
X250903571Y-105390178D01*
X250975000Y-105461607D01*
X251117857Y-105533035D01*
X251689285Y-105533035D01*
X249332142Y-106104464D02*
X249403571Y-106175892D01*
X249617857Y-106247321D01*
X249760714Y-106247321D01*
X249975000Y-106175892D01*
X250117857Y-106033035D01*
X250189285Y-105890178D01*
X250260714Y-105604464D01*
X250260714Y-105390178D01*
X250189285Y-105104464D01*
X250117857Y-104961607D01*
X249975000Y-104818750D01*
X249760714Y-104747321D01*
X249617857Y-104747321D01*
X249403571Y-104818750D01*
X249332142Y-104890178D01*
X248189285Y-105461607D02*
X247975000Y-105533035D01*
X247903571Y-105604464D01*
X247832142Y-105747321D01*
X247832142Y-105961607D01*
X247903571Y-106104464D01*
X247975000Y-106175892D01*
X248117857Y-106247321D01*
X248689285Y-106247321D01*
X248689285Y-104747321D01*
X248189285Y-104747321D01*
X248046428Y-104818750D01*
X247975000Y-104890178D01*
X247903571Y-105033035D01*
X247903571Y-105175892D01*
X247975000Y-105318750D01*
X248046428Y-105390178D01*
X248189285Y-105461607D01*
X248689285Y-105461607D01*
X246046428Y-106247321D02*
X246046428Y-104747321D01*
X246046428Y-105318750D02*
X245903571Y-105247321D01*
X245617857Y-105247321D01*
X245475000Y-105318750D01*
X245403571Y-105390178D01*
X245332142Y-105533035D01*
X245332142Y-105961607D01*
X245403571Y-106104464D01*
X245475000Y-106175892D01*
X245617857Y-106247321D01*
X245903571Y-106247321D01*
X246046428Y-106175892D01*
X244832142Y-105247321D02*
X244475000Y-106247321D01*
X244117857Y-105247321D02*
X244475000Y-106247321D01*
X244617857Y-106604464D01*
X244689285Y-106675892D01*
X244832142Y-106747321D01*
X241760714Y-106247321D02*
X241760714Y-105461607D01*
X241832142Y-105318750D01*
X241975000Y-105247321D01*
X242260714Y-105247321D01*
X242403571Y-105318750D01*
X241760714Y-106175892D02*
X241903571Y-106247321D01*
X242260714Y-106247321D01*
X242403571Y-106175892D01*
X242475000Y-106033035D01*
X242475000Y-105890178D01*
X242403571Y-105747321D01*
X242260714Y-105675892D01*
X241903571Y-105675892D01*
X241760714Y-105604464D01*
X241046428Y-106247321D02*
X241046428Y-105247321D01*
X241046428Y-104747321D02*
X241117857Y-104818750D01*
X241046428Y-104890178D01*
X240975000Y-104818750D01*
X241046428Y-104747321D01*
X241046428Y-104890178D01*
X240046428Y-104747321D02*
X239903571Y-104747321D01*
X239760714Y-104818750D01*
X239689285Y-104890178D01*
X239617857Y-105033035D01*
X239546428Y-105318750D01*
X239546428Y-105675892D01*
X239617857Y-105961607D01*
X239689285Y-106104464D01*
X239760714Y-106175892D01*
X239903571Y-106247321D01*
X240046428Y-106247321D01*
X240189285Y-106175892D01*
X240260714Y-106104464D01*
X240332142Y-105961607D01*
X240403571Y-105675892D01*
X240403571Y-105318750D01*
X240332142Y-105033035D01*
X240260714Y-104890178D01*
X240189285Y-104818750D01*
X240046428Y-104747321D01*
X239046428Y-104747321D02*
X238117857Y-104747321D01*
X238617857Y-105318750D01*
X238403571Y-105318750D01*
X238260714Y-105390178D01*
X238189285Y-105461607D01*
X238117857Y-105604464D01*
X238117857Y-105961607D01*
X238189285Y-106104464D01*
X238260714Y-106175892D01*
X238403571Y-106247321D01*
X238832142Y-106247321D01*
X238975000Y-106175892D01*
X239046428Y-106104464D01*
X235475000Y-106247321D02*
X235975000Y-105533035D01*
X236332142Y-106247321D02*
X236332142Y-104747321D01*
X235760714Y-104747321D01*
X235617857Y-104818750D01*
X235546428Y-104890178D01*
X235475000Y-105033035D01*
X235475000Y-105247321D01*
X235546428Y-105390178D01*
X235617857Y-105461607D01*
X235760714Y-105533035D01*
X236332142Y-105533035D01*
X234260714Y-106175892D02*
X234403571Y-106247321D01*
X234689285Y-106247321D01*
X234832142Y-106175892D01*
X234903571Y-106033035D01*
X234903571Y-105461607D01*
X234832142Y-105318750D01*
X234689285Y-105247321D01*
X234403571Y-105247321D01*
X234260714Y-105318750D01*
X234189285Y-105461607D01*
X234189285Y-105604464D01*
X234903571Y-105747321D01*
X233689285Y-105247321D02*
X233332142Y-106247321D01*
X232975000Y-105247321D01*
X230475000Y-106247321D02*
X231332142Y-106247321D01*
X230903571Y-106247321D02*
X230903571Y-104747321D01*
X231046428Y-104961607D01*
X231189285Y-105104464D01*
X231332142Y-105175892D01*
X229832142Y-106104464D02*
X229760714Y-106175892D01*
X229832142Y-106247321D01*
X229903571Y-106175892D01*
X229832142Y-106104464D01*
X229832142Y-106247321D01*
X228832142Y-104747321D02*
X228689285Y-104747321D01*
X228546428Y-104818750D01*
X228475000Y-104890178D01*
X228403571Y-105033035D01*
X228332142Y-105318750D01*
X228332142Y-105675892D01*
X228403571Y-105961607D01*
X228475000Y-106104464D01*
X228546428Y-106175892D01*
X228689285Y-106247321D01*
X228832142Y-106247321D01*
X228975000Y-106175892D01*
X229046428Y-106104464D01*
X229117857Y-105961607D01*
X229189285Y-105675892D01*
X229189285Y-105318750D01*
X229117857Y-105033035D01*
X229046428Y-104890178D01*
X228975000Y-104818750D01*
X228832142Y-104747321D01*
X115219642Y-106247321D02*
X115219642Y-104747321D01*
X114862499Y-104747321D01*
X114648214Y-104818750D01*
X114505357Y-104961607D01*
X114433928Y-105104464D01*
X114362499Y-105390178D01*
X114362499Y-105604464D01*
X114433928Y-105890178D01*
X114505357Y-106033035D01*
X114648214Y-106175892D01*
X114862499Y-106247321D01*
X115219642Y-106247321D01*
X113719642Y-106247321D02*
X113719642Y-105247321D01*
X113719642Y-104747321D02*
X113791071Y-104818750D01*
X113719642Y-104890178D01*
X113648214Y-104818750D01*
X113719642Y-104747321D01*
X113719642Y-104890178D01*
X113076785Y-106175892D02*
X112933928Y-106247321D01*
X112648214Y-106247321D01*
X112505357Y-106175892D01*
X112433928Y-106033035D01*
X112433928Y-105961607D01*
X112505357Y-105818750D01*
X112648214Y-105747321D01*
X112862499Y-105747321D01*
X113005357Y-105675892D01*
X113076785Y-105533035D01*
X113076785Y-105461607D01*
X113005357Y-105318750D01*
X112862499Y-105247321D01*
X112648214Y-105247321D01*
X112505357Y-105318750D01*
X112005357Y-105247321D02*
X111433928Y-105247321D01*
X111791071Y-104747321D02*
X111791071Y-106033035D01*
X111719642Y-106175892D01*
X111576785Y-106247321D01*
X111433928Y-106247321D01*
X110933928Y-106247321D02*
X110933928Y-105247321D01*
X110933928Y-105533035D02*
X110862499Y-105390178D01*
X110791071Y-105318750D01*
X110648214Y-105247321D01*
X110505357Y-105247321D01*
X110005357Y-106247321D02*
X110005357Y-105247321D01*
X110005357Y-104747321D02*
X110076785Y-104818750D01*
X110005357Y-104890178D01*
X109933928Y-104818750D01*
X110005357Y-104747321D01*
X110005357Y-104890178D01*
X109291071Y-106247321D02*
X109291071Y-104747321D01*
X109291071Y-105318750D02*
X109148214Y-105247321D01*
X108862499Y-105247321D01*
X108719642Y-105318750D01*
X108648214Y-105390178D01*
X108576785Y-105533035D01*
X108576785Y-105961607D01*
X108648214Y-106104464D01*
X108719642Y-106175892D01*
X108862499Y-106247321D01*
X109148214Y-106247321D01*
X109291071Y-106175892D01*
X107291071Y-105247321D02*
X107291071Y-106247321D01*
X107933928Y-105247321D02*
X107933928Y-106033035D01*
X107862499Y-106175892D01*
X107719642Y-106247321D01*
X107505357Y-106247321D01*
X107362499Y-106175892D01*
X107291071Y-106104464D01*
X106791071Y-105247321D02*
X106219642Y-105247321D01*
X106576785Y-104747321D02*
X106576785Y-106033035D01*
X106505357Y-106175892D01*
X106362500Y-106247321D01*
X106219642Y-106247321D01*
X105148214Y-106175892D02*
X105291071Y-106247321D01*
X105576785Y-106247321D01*
X105719642Y-106175892D01*
X105791071Y-106033035D01*
X105791071Y-105461607D01*
X105719642Y-105318750D01*
X105576785Y-105247321D01*
X105291071Y-105247321D01*
X105148214Y-105318750D01*
X105076785Y-105461607D01*
X105076785Y-105604464D01*
X105791071Y-105747321D01*
X103791071Y-106247321D02*
X103791071Y-104747321D01*
X103791071Y-106175892D02*
X103933928Y-106247321D01*
X104219642Y-106247321D01*
X104362500Y-106175892D01*
X104433928Y-106104464D01*
X104505357Y-105961607D01*
X104505357Y-105533035D01*
X104433928Y-105390178D01*
X104362500Y-105318750D01*
X104219642Y-105247321D01*
X103933928Y-105247321D01*
X103791071Y-105318750D01*
X101933928Y-106247321D02*
X101933928Y-104747321D01*
X101933928Y-105318750D02*
X101791071Y-105247321D01*
X101505357Y-105247321D01*
X101362500Y-105318750D01*
X101291071Y-105390178D01*
X101219642Y-105533035D01*
X101219642Y-105961607D01*
X101291071Y-106104464D01*
X101362500Y-106175892D01*
X101505357Y-106247321D01*
X101791071Y-106247321D01*
X101933928Y-106175892D01*
X100719642Y-105247321D02*
X100362500Y-106247321D01*
X100005357Y-105247321D02*
X100362500Y-106247321D01*
X100505357Y-106604464D01*
X100576785Y-106675892D01*
X100719642Y-106747321D01*
X98291071Y-106247321D02*
X98291071Y-104747321D01*
X97433928Y-106247321D02*
X98076785Y-105390178D01*
X97433928Y-104747321D02*
X98291071Y-105604464D01*
X96219642Y-106175892D02*
X96362500Y-106247321D01*
X96648214Y-106247321D01*
X96791071Y-106175892D01*
X96862500Y-106033035D01*
X96862500Y-105461607D01*
X96791071Y-105318750D01*
X96648214Y-105247321D01*
X96362500Y-105247321D01*
X96219642Y-105318750D01*
X96148214Y-105461607D01*
X96148214Y-105604464D01*
X96862500Y-105747321D01*
X95648214Y-105247321D02*
X95291071Y-106247321D01*
X94933928Y-105247321D02*
X95291071Y-106247321D01*
X95433928Y-106604464D01*
X95505357Y-106675892D01*
X95648214Y-106747321D01*
X94362500Y-106247321D02*
X94362500Y-104747321D01*
X93719642Y-106247321D02*
X93719642Y-105461607D01*
X93791071Y-105318750D01*
X93933928Y-105247321D01*
X94148214Y-105247321D01*
X94291071Y-105318750D01*
X94362500Y-105390178D01*
X93005357Y-106247321D02*
X93005357Y-105247321D01*
X93005357Y-104747321D02*
X93076785Y-104818750D01*
X93005357Y-104890178D01*
X92933928Y-104818750D01*
X93005357Y-104747321D01*
X93005357Y-104890178D01*
X92433928Y-105247321D02*
X92076785Y-106247321D01*
X91719642Y-105247321D01*
X90576785Y-106175892D02*
X90719642Y-106247321D01*
X91005357Y-106247321D01*
X91148214Y-106175892D01*
X91219642Y-106033035D01*
X91219642Y-105461607D01*
X91148214Y-105318750D01*
X91005357Y-105247321D01*
X90719642Y-105247321D01*
X90576785Y-105318750D01*
X90505357Y-105461607D01*
X90505357Y-105604464D01*
X91219642Y-105747321D01*
X88362500Y-106747321D02*
X88362500Y-104604464D01*
X86219642Y-104890178D02*
X86148214Y-104818750D01*
X86005357Y-104747321D01*
X85648214Y-104747321D01*
X85505357Y-104818750D01*
X85433928Y-104890178D01*
X85362500Y-105033035D01*
X85362500Y-105175892D01*
X85433928Y-105390178D01*
X86291071Y-106247321D01*
X85362500Y-106247321D01*
X84433928Y-104747321D02*
X84291071Y-104747321D01*
X84148214Y-104818750D01*
X84076785Y-104890178D01*
X84005357Y-105033035D01*
X83933928Y-105318750D01*
X83933928Y-105675892D01*
X84005357Y-105961607D01*
X84076785Y-106104464D01*
X84148214Y-106175892D01*
X84291071Y-106247321D01*
X84433928Y-106247321D01*
X84576785Y-106175892D01*
X84648214Y-106104464D01*
X84719642Y-105961607D01*
X84791071Y-105675892D01*
X84791071Y-105318750D01*
X84719642Y-105033035D01*
X84648214Y-104890178D01*
X84576785Y-104818750D01*
X84433928Y-104747321D01*
X82505357Y-106247321D02*
X83362500Y-106247321D01*
X82933928Y-106247321D02*
X82933928Y-104747321D01*
X83076785Y-104961607D01*
X83219642Y-105104464D01*
X83362500Y-105175892D01*
X81648214Y-105390178D02*
X81791071Y-105318750D01*
X81862500Y-105247321D01*
X81933928Y-105104464D01*
X81933928Y-105033035D01*
X81862500Y-104890178D01*
X81791071Y-104818750D01*
X81648214Y-104747321D01*
X81362500Y-104747321D01*
X81219642Y-104818750D01*
X81148214Y-104890178D01*
X81076785Y-105033035D01*
X81076785Y-105104464D01*
X81148214Y-105247321D01*
X81219642Y-105318750D01*
X81362500Y-105390178D01*
X81648214Y-105390178D01*
X81791071Y-105461607D01*
X81862500Y-105533035D01*
X81933928Y-105675892D01*
X81933928Y-105961607D01*
X81862500Y-106104464D01*
X81791071Y-106175892D01*
X81648214Y-106247321D01*
X81362500Y-106247321D01*
X81219642Y-106175892D01*
X81148214Y-106104464D01*
X81076785Y-105961607D01*
X81076785Y-105675892D01*
X81148214Y-105533035D01*
X81219642Y-105461607D01*
X81362500Y-105390178D01*
X79648214Y-106247321D02*
X80505357Y-106247321D01*
X80076785Y-106247321D02*
X80076785Y-104747321D01*
X80219642Y-104961607D01*
X80362500Y-105104464D01*
X80505357Y-105175892D01*
X78219642Y-106247321D02*
X79076785Y-106247321D01*
X78648214Y-106247321D02*
X78648214Y-104747321D01*
X78791071Y-104961607D01*
X78933928Y-105104464D01*
X79076785Y-105175892D01*
X77648214Y-104890178D02*
X77576785Y-104818750D01*
X77433928Y-104747321D01*
X77076785Y-104747321D01*
X76933928Y-104818750D01*
X76862500Y-104890178D01*
X76791071Y-105033035D01*
X76791071Y-105175892D01*
X76862500Y-105390178D01*
X77719642Y-106247321D01*
X76791071Y-106247321D01*
X75933928Y-105390178D02*
X76076785Y-105318750D01*
X76148214Y-105247321D01*
X76219642Y-105104464D01*
X76219642Y-105033035D01*
X76148214Y-104890178D01*
X76076785Y-104818750D01*
X75933928Y-104747321D01*
X75648214Y-104747321D01*
X75505357Y-104818750D01*
X75433928Y-104890178D01*
X75362500Y-105033035D01*
X75362500Y-105104464D01*
X75433928Y-105247321D01*
X75505357Y-105318750D01*
X75648214Y-105390178D01*
X75933928Y-105390178D01*
X76076785Y-105461607D01*
X76148214Y-105533035D01*
X76219642Y-105675892D01*
X76219642Y-105961607D01*
X76148214Y-106104464D01*
X76076785Y-106175892D01*
X75933928Y-106247321D01*
X75648214Y-106247321D01*
X75505357Y-106175892D01*
X75433928Y-106104464D01*
X75362500Y-105961607D01*
X75362500Y-105675892D01*
X75433928Y-105533035D01*
X75505357Y-105461607D01*
X75648214Y-105390178D01*
X73219642Y-106747321D02*
X73219642Y-104604464D01*
X70148214Y-106104464D02*
X70219642Y-106175892D01*
X70433928Y-106247321D01*
X70576785Y-106247321D01*
X70791071Y-106175892D01*
X70933928Y-106033035D01*
X71005357Y-105890178D01*
X71076785Y-105604464D01*
X71076785Y-105390178D01*
X71005357Y-105104464D01*
X70933928Y-104961607D01*
X70791071Y-104818750D01*
X70576785Y-104747321D01*
X70433928Y-104747321D01*
X70219642Y-104818750D01*
X70148214Y-104890178D01*
X69505357Y-106247321D02*
X69505357Y-105247321D01*
X69505357Y-105533035D02*
X69433928Y-105390178D01*
X69362500Y-105318750D01*
X69219642Y-105247321D01*
X69076785Y-105247321D01*
X68005357Y-106175892D02*
X68148214Y-106247321D01*
X68433928Y-106247321D01*
X68576785Y-106175892D01*
X68648214Y-106033035D01*
X68648214Y-105461607D01*
X68576785Y-105318750D01*
X68433928Y-105247321D01*
X68148214Y-105247321D01*
X68005357Y-105318750D01*
X67933928Y-105461607D01*
X67933928Y-105604464D01*
X68648214Y-105747321D01*
X66648214Y-106247321D02*
X66648214Y-104747321D01*
X66648214Y-106175892D02*
X66791071Y-106247321D01*
X67076785Y-106247321D01*
X67219642Y-106175892D01*
X67291071Y-106104464D01*
X67362500Y-105961607D01*
X67362500Y-105533035D01*
X67291071Y-105390178D01*
X67219642Y-105318750D01*
X67076785Y-105247321D01*
X66791071Y-105247321D01*
X66648214Y-105318750D01*
X65933928Y-106247321D02*
X65933928Y-105247321D01*
X65933928Y-104747321D02*
X66005357Y-104818750D01*
X65933928Y-104890178D01*
X65862500Y-104818750D01*
X65933928Y-104747321D01*
X65933928Y-104890178D01*
X65433928Y-105247321D02*
X64862500Y-105247321D01*
X65219642Y-104747321D02*
X65219642Y-106033035D01*
X65148214Y-106175892D01*
X65005357Y-106247321D01*
X64862500Y-106247321D01*
X64433928Y-106175892D02*
X64291071Y-106247321D01*
X64005357Y-106247321D01*
X63862500Y-106175892D01*
X63791071Y-106033035D01*
X63791071Y-105961607D01*
X63862500Y-105818750D01*
X64005357Y-105747321D01*
X64219642Y-105747321D01*
X64362500Y-105675892D01*
X64433928Y-105533035D01*
X64433928Y-105461607D01*
X64362500Y-105318750D01*
X64219642Y-105247321D01*
X64005357Y-105247321D01*
X63862500Y-105318750D01*
X62219642Y-105247321D02*
X61648214Y-105247321D01*
X62005357Y-104747321D02*
X62005357Y-106033035D01*
X61933928Y-106175892D01*
X61791071Y-106247321D01*
X61648214Y-106247321D01*
X60933928Y-106247321D02*
X61076785Y-106175892D01*
X61148214Y-106104464D01*
X61219642Y-105961607D01*
X61219642Y-105533035D01*
X61148214Y-105390178D01*
X61076785Y-105318750D01*
X60933928Y-105247321D01*
X60719642Y-105247321D01*
X60576785Y-105318750D01*
X60505357Y-105390178D01*
X60433928Y-105533035D01*
X60433928Y-105961607D01*
X60505357Y-106104464D01*
X60576785Y-106175892D01*
X60719642Y-106247321D01*
X60933928Y-106247321D01*
X58005357Y-105247321D02*
X58005357Y-106247321D01*
X58362500Y-104675892D02*
X58719642Y-105747321D01*
X57791071Y-105747321D01*
X56933928Y-104747321D02*
X56791071Y-104747321D01*
X56648214Y-104818750D01*
X56576785Y-104890178D01*
X56505357Y-105033035D01*
X56433928Y-105318750D01*
X56433928Y-105675892D01*
X56505357Y-105961607D01*
X56576785Y-106104464D01*
X56648214Y-106175892D01*
X56791071Y-106247321D01*
X56933928Y-106247321D01*
X57076785Y-106175892D01*
X57148214Y-106104464D01*
X57219642Y-105961607D01*
X57291071Y-105675892D01*
X57291071Y-105318750D01*
X57219642Y-105033035D01*
X57148214Y-104890178D01*
X57076785Y-104818750D01*
X56933928Y-104747321D01*
X55791071Y-105247321D02*
X55791071Y-106747321D01*
X55791071Y-105318750D02*
X55648214Y-105247321D01*
X55362500Y-105247321D01*
X55219642Y-105318750D01*
X55148214Y-105390178D01*
X55076785Y-105533035D01*
X55076785Y-105961607D01*
X55148214Y-106104464D01*
X55219642Y-106175892D01*
X55362500Y-106247321D01*
X55648214Y-106247321D01*
X55791071Y-106175892D01*
X53862500Y-106175892D02*
X54005357Y-106247321D01*
X54291071Y-106247321D01*
X54433928Y-106175892D01*
X54505357Y-106033035D01*
X54505357Y-105461607D01*
X54433928Y-105318750D01*
X54291071Y-105247321D01*
X54005357Y-105247321D01*
X53862500Y-105318750D01*
X53791071Y-105461607D01*
X53791071Y-105604464D01*
X54505357Y-105747321D01*
X53148214Y-106247321D02*
X53148214Y-105247321D01*
X53148214Y-105533035D02*
X53076785Y-105390178D01*
X53005357Y-105318750D01*
X52862500Y-105247321D01*
X52719642Y-105247321D01*
X51576785Y-106175892D02*
X51719642Y-106247321D01*
X52005357Y-106247321D01*
X52148214Y-106175892D01*
X52219642Y-106104464D01*
X52291071Y-105961607D01*
X52291071Y-105533035D01*
X52219642Y-105390178D01*
X52148214Y-105318750D01*
X52005357Y-105247321D01*
X51719642Y-105247321D01*
X51576785Y-105318750D01*
X50362500Y-106175892D02*
X50505357Y-106247321D01*
X50791071Y-106247321D01*
X50933928Y-106175892D01*
X51005357Y-106033035D01*
X51005357Y-105461607D01*
X50933928Y-105318750D01*
X50791071Y-105247321D01*
X50505357Y-105247321D01*
X50362500Y-105318750D01*
X50291071Y-105461607D01*
X50291071Y-105604464D01*
X51005357Y-105747321D01*
X49648214Y-105247321D02*
X49648214Y-106247321D01*
X49648214Y-105390178D02*
X49576785Y-105318750D01*
X49433928Y-105247321D01*
X49219642Y-105247321D01*
X49076785Y-105318750D01*
X49005357Y-105461607D01*
X49005357Y-106247321D01*
X48505357Y-105247321D02*
X47933928Y-105247321D01*
X48291071Y-104747321D02*
X48291071Y-106033035D01*
X48219642Y-106175892D01*
X48076785Y-106247321D01*
X47933928Y-106247321D01*
X47433928Y-106104464D02*
X47362500Y-106175892D01*
X47433928Y-106247321D01*
X47505357Y-106175892D01*
X47433928Y-106104464D01*
X47433928Y-106247321D01*
X46076785Y-106175892D02*
X46219642Y-106247321D01*
X46505357Y-106247321D01*
X46648214Y-106175892D01*
X46719642Y-106104464D01*
X46791071Y-105961607D01*
X46791071Y-105533035D01*
X46719642Y-105390178D01*
X46648214Y-105318750D01*
X46505357Y-105247321D01*
X46219642Y-105247321D01*
X46076785Y-105318750D01*
X45219642Y-106247321D02*
X45362500Y-106175892D01*
X45433928Y-106033035D01*
X45433928Y-104747321D01*
X44005357Y-105247321D02*
X44005357Y-106247321D01*
X44648214Y-105247321D02*
X44648214Y-106033035D01*
X44576785Y-106175892D01*
X44433928Y-106247321D01*
X44219642Y-106247321D01*
X44076785Y-106175892D01*
X44005357Y-106104464D01*
X43291071Y-106247321D02*
X43291071Y-104747321D01*
X43291071Y-105318750D02*
X43148214Y-105247321D01*
X42862500Y-105247321D01*
X42719642Y-105318750D01*
X42648214Y-105390178D01*
X42576785Y-105533035D01*
X42576785Y-105961607D01*
X42648214Y-106104464D01*
X42719642Y-106175892D01*
X42862500Y-106247321D01*
X43148214Y-106247321D01*
X43291071Y-106175892D01*
X41862500Y-104747321D02*
X42005357Y-105033035D01*
X41291071Y-106175892D02*
X41148214Y-106247321D01*
X40862500Y-106247321D01*
X40719642Y-106175892D01*
X40648214Y-106033035D01*
X40648214Y-105961607D01*
X40719642Y-105818750D01*
X40862500Y-105747321D01*
X41076785Y-105747321D01*
X41219642Y-105675892D01*
X41291071Y-105533035D01*
X41291071Y-105461607D01*
X41219642Y-105318750D01*
X41076785Y-105247321D01*
X40862500Y-105247321D01*
X40719642Y-105318750D01*
X38076785Y-104818750D02*
X38219642Y-104747321D01*
X38433928Y-104747321D01*
X38648214Y-104818750D01*
X38791071Y-104961607D01*
X38862500Y-105104464D01*
X38933928Y-105390178D01*
X38933928Y-105604464D01*
X38862500Y-105890178D01*
X38791071Y-106033035D01*
X38648214Y-106175892D01*
X38433928Y-106247321D01*
X38291071Y-106247321D01*
X38076785Y-106175892D01*
X38005357Y-106104464D01*
X38005357Y-105604464D01*
X38291071Y-105604464D01*
X37362500Y-105247321D02*
X37362500Y-106247321D01*
X37362500Y-105390178D02*
X37291071Y-105318750D01*
X37148214Y-105247321D01*
X36933928Y-105247321D01*
X36791071Y-105318750D01*
X36719642Y-105461607D01*
X36719642Y-106247321D01*
X35362500Y-106247321D02*
X35362500Y-105461607D01*
X35433928Y-105318750D01*
X35576785Y-105247321D01*
X35862500Y-105247321D01*
X36005357Y-105318750D01*
X35362500Y-106175892D02*
X35505357Y-106247321D01*
X35862500Y-106247321D01*
X36005357Y-106175892D01*
X36076785Y-106033035D01*
X36076785Y-105890178D01*
X36005357Y-105747321D01*
X35862500Y-105675892D01*
X35505357Y-105675892D01*
X35362500Y-105604464D01*
X34648214Y-105247321D02*
X34648214Y-106747321D01*
X34648214Y-105318750D02*
X34505357Y-105247321D01*
X34219642Y-105247321D01*
X34076785Y-105318750D01*
X34005357Y-105390178D01*
X33933928Y-105533035D01*
X33933928Y-105961607D01*
X34005357Y-106104464D01*
X34076785Y-106175892D01*
X34219642Y-106247321D01*
X34505357Y-106247321D01*
X34648214Y-106175892D01*
D11*
G36*
X264922000Y-102108000D02*
X265326812Y-102108000D01*
X265326812Y-101703188D01*
X264922000Y-101703188D01*
X264922000Y-102108000D01*
X264922000Y-102108000D01*
G37*
X264922000Y-102108000D02*
X265326812Y-102108000D01*
X265326812Y-101703188D01*
X264922000Y-101703188D01*
X264922000Y-102108000D01*
G36*
X264517187Y-102893813D02*
X264922000Y-102893813D01*
X264922000Y-102512813D01*
X264517187Y-102512813D01*
X264517187Y-102893813D01*
X264517187Y-102893813D01*
G37*
X264517187Y-102893813D02*
X264922000Y-102893813D01*
X264922000Y-102512813D01*
X264517187Y-102512813D01*
X264517187Y-102893813D01*
G36*
X265326812Y-102893813D02*
X265707812Y-102893813D01*
X265707812Y-102512813D01*
X265326812Y-102512813D01*
X265326812Y-102893813D01*
X265326812Y-102893813D01*
G37*
X265326812Y-102893813D02*
X265707812Y-102893813D01*
X265707812Y-102512813D01*
X265326812Y-102512813D01*
X265326812Y-102893813D01*
G36*
X264136187Y-103703438D02*
X264517187Y-103703438D01*
X264517187Y-103298625D01*
X264136187Y-103298625D01*
X264136187Y-103703438D01*
X264136187Y-103703438D01*
G37*
X264136187Y-103703438D02*
X264517187Y-103703438D01*
X264517187Y-103298625D01*
X264136187Y-103298625D01*
X264136187Y-103703438D01*
G36*
X264922000Y-103703438D02*
X265326812Y-103703438D01*
X265326812Y-103298625D01*
X264922000Y-103298625D01*
X264922000Y-103703438D01*
X264922000Y-103703438D01*
G37*
X264922000Y-103703438D02*
X265326812Y-103703438D01*
X265326812Y-103298625D01*
X264922000Y-103298625D01*
X264922000Y-103703438D01*
G36*
X265707812Y-103703438D02*
X266112625Y-103703438D01*
X266112625Y-103298625D01*
X265707812Y-103298625D01*
X265707812Y-103703438D01*
X265707812Y-103703438D01*
G37*
X265707812Y-103703438D02*
X266112625Y-103703438D01*
X266112625Y-103298625D01*
X265707812Y-103298625D01*
X265707812Y-103703438D01*
G36*
X263731375Y-104489250D02*
X264136187Y-104489250D01*
X264136187Y-104084438D01*
X263731375Y-104084438D01*
X263731375Y-104489250D01*
X263731375Y-104489250D01*
G37*
X263731375Y-104489250D02*
X264136187Y-104489250D01*
X264136187Y-104084438D01*
X263731375Y-104084438D01*
X263731375Y-104489250D01*
G36*
X266112625Y-104489250D02*
X266517437Y-104489250D01*
X266517437Y-104084438D01*
X266112625Y-104084438D01*
X266112625Y-104489250D01*
X266112625Y-104489250D01*
G37*
X266112625Y-104489250D02*
X266517437Y-104489250D01*
X266517437Y-104084438D01*
X266112625Y-104084438D01*
X266112625Y-104489250D01*
G36*
X265108531Y-100215545D02*
X264984413Y-100216915D01*
X264872701Y-100221072D01*
X264770108Y-100228419D01*
X264673344Y-100239360D01*
X264579122Y-100254298D01*
X264484153Y-100273637D01*
X264385149Y-100297781D01*
X264339870Y-100309918D01*
X264131323Y-100375156D01*
X263929235Y-100454492D01*
X263734372Y-100547528D01*
X263547501Y-100653868D01*
X263369386Y-100773116D01*
X263217240Y-100891117D01*
X263059572Y-101031842D01*
X262912235Y-101183287D01*
X262775914Y-101344385D01*
X262651292Y-101514067D01*
X262539053Y-101691266D01*
X262439880Y-101874916D01*
X262354458Y-102063947D01*
X262283470Y-102257293D01*
X262234716Y-102425303D01*
X262201645Y-102565289D01*
X262176285Y-102697225D01*
X262157893Y-102826497D01*
X262145725Y-102958493D01*
X262139039Y-103098600D01*
X262138386Y-103124000D01*
X262141105Y-103342297D01*
X262159300Y-103557080D01*
X262192965Y-103768321D01*
X262242094Y-103975989D01*
X262306681Y-104180055D01*
X262370878Y-104343987D01*
X262398961Y-104409252D01*
X262423023Y-104463410D01*
X262444892Y-104510113D01*
X262466393Y-104553013D01*
X262489354Y-104595763D01*
X262515600Y-104642015D01*
X262544725Y-104691656D01*
X262663944Y-104877927D01*
X262794048Y-105052653D01*
X262935171Y-105215965D01*
X263087445Y-105367996D01*
X263251003Y-105508880D01*
X263425976Y-105638748D01*
X263608344Y-105755275D01*
X263661173Y-105786244D01*
X263707086Y-105812221D01*
X263749735Y-105835031D01*
X263792772Y-105856501D01*
X263839849Y-105878457D01*
X263894619Y-105902725D01*
X263956013Y-105929122D01*
X264052246Y-105968669D01*
X264140964Y-106001708D01*
X264228078Y-106030195D01*
X264319502Y-106056089D01*
X264402094Y-106076822D01*
X264566610Y-106112376D01*
X264723705Y-106138053D01*
X264877933Y-106154393D01*
X265033851Y-106161936D01*
X265124406Y-106162513D01*
X265175625Y-106161998D01*
X265223746Y-106161293D01*
X265265626Y-106160460D01*
X265298122Y-106159563D01*
X265318090Y-106158665D01*
X265318875Y-106158609D01*
X265535049Y-106134657D01*
X265747806Y-106095670D01*
X265956287Y-106041967D01*
X266159632Y-105973863D01*
X266356984Y-105891676D01*
X266547482Y-105795725D01*
X266730268Y-105686326D01*
X266881224Y-105581296D01*
X267054151Y-105442949D01*
X267214835Y-105294588D01*
X267363049Y-105136539D01*
X267498571Y-104969132D01*
X267621176Y-104792694D01*
X267730639Y-104607552D01*
X267826737Y-104414035D01*
X267909244Y-104212471D01*
X267977937Y-104003188D01*
X267990082Y-103960130D01*
X268016448Y-103858335D01*
X268037833Y-103762011D01*
X268054641Y-103667867D01*
X268067275Y-103572617D01*
X268076140Y-103472970D01*
X268081638Y-103365640D01*
X268084174Y-103247336D01*
X268084455Y-103191469D01*
X268083780Y-103136108D01*
X267551706Y-103136108D01*
X267551603Y-103216246D01*
X267549937Y-103295910D01*
X267546741Y-103371037D01*
X267542044Y-103437560D01*
X267538324Y-103473250D01*
X267506450Y-103670548D01*
X267459799Y-103862163D01*
X267398549Y-104047722D01*
X267322881Y-104226849D01*
X267232973Y-104399169D01*
X267129006Y-104564309D01*
X267011159Y-104721893D01*
X266879612Y-104871547D01*
X266857276Y-104894760D01*
X266723042Y-105021834D01*
X266577340Y-105139770D01*
X266422869Y-105246590D01*
X266262331Y-105340316D01*
X266216542Y-105364004D01*
X266142134Y-105400653D01*
X266076893Y-105430872D01*
X266016396Y-105456440D01*
X265956222Y-105479134D01*
X265891949Y-105500733D01*
X265826875Y-105520727D01*
X265637662Y-105570140D01*
X265451911Y-105604591D01*
X265268173Y-105624214D01*
X265084997Y-105629142D01*
X264900936Y-105619511D01*
X264834394Y-105612531D01*
X264647062Y-105583587D01*
X264467481Y-105541778D01*
X264293143Y-105486354D01*
X264121541Y-105416564D01*
X264024584Y-105370366D01*
X263853952Y-105276947D01*
X263694536Y-105173212D01*
X263545578Y-105058474D01*
X263406321Y-104932050D01*
X263276006Y-104793254D01*
X263153876Y-104641403D01*
X263045608Y-104485759D01*
X263020482Y-104444568D01*
X262991159Y-104392440D01*
X262959459Y-104332996D01*
X262927201Y-104269856D01*
X262896207Y-104206640D01*
X262868294Y-104146967D01*
X262845285Y-104094457D01*
X262831847Y-104060625D01*
X262768980Y-103869084D01*
X262721584Y-103676345D01*
X262689700Y-103482950D01*
X262673370Y-103289440D01*
X262672632Y-103096357D01*
X262687528Y-102904242D01*
X262718098Y-102713636D01*
X262727901Y-102667594D01*
X262761550Y-102531301D01*
X262799858Y-102405118D01*
X262844796Y-102283507D01*
X262898337Y-102160932D01*
X262935996Y-102083458D01*
X263029701Y-101914610D01*
X263136526Y-101754173D01*
X263255702Y-101602868D01*
X263386463Y-101461414D01*
X263528040Y-101330531D01*
X263679666Y-101210940D01*
X263840573Y-101103360D01*
X264009993Y-101008511D01*
X264154175Y-100940980D01*
X264325803Y-100874585D01*
X264498357Y-100822587D01*
X264673844Y-100784578D01*
X264854274Y-100760151D01*
X265041655Y-100748897D01*
X265104562Y-100748007D01*
X265302657Y-100754377D01*
X265494285Y-100775022D01*
X265680219Y-100810173D01*
X265861235Y-100860067D01*
X266038106Y-100924935D01*
X266211606Y-101005013D01*
X266382509Y-101100535D01*
X266483206Y-101164744D01*
X266622639Y-101266272D01*
X266756837Y-101380778D01*
X266884159Y-101506339D01*
X267002965Y-101641031D01*
X267111614Y-101782931D01*
X267208465Y-101930115D01*
X267291878Y-102080661D01*
X267326674Y-102153580D01*
X267388077Y-102298439D01*
X267438308Y-102437678D01*
X267478565Y-102575626D01*
X267510044Y-102716614D01*
X267533944Y-102864971D01*
X267542345Y-102933500D01*
X267547108Y-102990670D01*
X267550218Y-103059561D01*
X267551706Y-103136108D01*
X268083780Y-103136108D01*
X268082710Y-103048473D01*
X268076836Y-102917606D01*
X268066262Y-102795525D01*
X268050415Y-102678885D01*
X268028723Y-102564344D01*
X268000613Y-102448559D01*
X267965514Y-102328187D01*
X267922853Y-102199884D01*
X267907159Y-102155625D01*
X267828774Y-101960906D01*
X267735934Y-101772572D01*
X267628828Y-101590885D01*
X267507648Y-101416108D01*
X267372583Y-101248503D01*
X267223826Y-101088333D01*
X267061567Y-100935860D01*
X266954729Y-100845679D01*
X266868900Y-100780186D01*
X266771361Y-100712860D01*
X266665752Y-100645912D01*
X266555714Y-100581555D01*
X266444887Y-100522000D01*
X266336911Y-100469458D01*
X266330906Y-100466715D01*
X266260946Y-100436842D01*
X266179765Y-100405456D01*
X266091733Y-100374036D01*
X266001221Y-100344062D01*
X265912599Y-100317011D01*
X265830236Y-100294364D01*
X265798350Y-100286471D01*
X265705125Y-100265703D01*
X265616151Y-100249043D01*
X265528147Y-100236152D01*
X265437831Y-100226695D01*
X265341922Y-100220332D01*
X265237140Y-100216728D01*
X265120205Y-100215544D01*
X265108531Y-100215545D01*
X265108531Y-100215545D01*
G37*
X265108531Y-100215545D02*
X264984413Y-100216915D01*
X264872701Y-100221072D01*
X264770108Y-100228419D01*
X264673344Y-100239360D01*
X264579122Y-100254298D01*
X264484153Y-100273637D01*
X264385149Y-100297781D01*
X264339870Y-100309918D01*
X264131323Y-100375156D01*
X263929235Y-100454492D01*
X263734372Y-100547528D01*
X263547501Y-100653868D01*
X263369386Y-100773116D01*
X263217240Y-100891117D01*
X263059572Y-101031842D01*
X262912235Y-101183287D01*
X262775914Y-101344385D01*
X262651292Y-101514067D01*
X262539053Y-101691266D01*
X262439880Y-101874916D01*
X262354458Y-102063947D01*
X262283470Y-102257293D01*
X262234716Y-102425303D01*
X262201645Y-102565289D01*
X262176285Y-102697225D01*
X262157893Y-102826497D01*
X262145725Y-102958493D01*
X262139039Y-103098600D01*
X262138386Y-103124000D01*
X262141105Y-103342297D01*
X262159300Y-103557080D01*
X262192965Y-103768321D01*
X262242094Y-103975989D01*
X262306681Y-104180055D01*
X262370878Y-104343987D01*
X262398961Y-104409252D01*
X262423023Y-104463410D01*
X262444892Y-104510113D01*
X262466393Y-104553013D01*
X262489354Y-104595763D01*
X262515600Y-104642015D01*
X262544725Y-104691656D01*
X262663944Y-104877927D01*
X262794048Y-105052653D01*
X262935171Y-105215965D01*
X263087445Y-105367996D01*
X263251003Y-105508880D01*
X263425976Y-105638748D01*
X263608344Y-105755275D01*
X263661173Y-105786244D01*
X263707086Y-105812221D01*
X263749735Y-105835031D01*
X263792772Y-105856501D01*
X263839849Y-105878457D01*
X263894619Y-105902725D01*
X263956013Y-105929122D01*
X264052246Y-105968669D01*
X264140964Y-106001708D01*
X264228078Y-106030195D01*
X264319502Y-106056089D01*
X264402094Y-106076822D01*
X264566610Y-106112376D01*
X264723705Y-106138053D01*
X264877933Y-106154393D01*
X265033851Y-106161936D01*
X265124406Y-106162513D01*
X265175625Y-106161998D01*
X265223746Y-106161293D01*
X265265626Y-106160460D01*
X265298122Y-106159563D01*
X265318090Y-106158665D01*
X265318875Y-106158609D01*
X265535049Y-106134657D01*
X265747806Y-106095670D01*
X265956287Y-106041967D01*
X266159632Y-105973863D01*
X266356984Y-105891676D01*
X266547482Y-105795725D01*
X266730268Y-105686326D01*
X266881224Y-105581296D01*
X267054151Y-105442949D01*
X267214835Y-105294588D01*
X267363049Y-105136539D01*
X267498571Y-104969132D01*
X267621176Y-104792694D01*
X267730639Y-104607552D01*
X267826737Y-104414035D01*
X267909244Y-104212471D01*
X267977937Y-104003188D01*
X267990082Y-103960130D01*
X268016448Y-103858335D01*
X268037833Y-103762011D01*
X268054641Y-103667867D01*
X268067275Y-103572617D01*
X268076140Y-103472970D01*
X268081638Y-103365640D01*
X268084174Y-103247336D01*
X268084455Y-103191469D01*
X268083780Y-103136108D01*
X267551706Y-103136108D01*
X267551603Y-103216246D01*
X267549937Y-103295910D01*
X267546741Y-103371037D01*
X267542044Y-103437560D01*
X267538324Y-103473250D01*
X267506450Y-103670548D01*
X267459799Y-103862163D01*
X267398549Y-104047722D01*
X267322881Y-104226849D01*
X267232973Y-104399169D01*
X267129006Y-104564309D01*
X267011159Y-104721893D01*
X266879612Y-104871547D01*
X266857276Y-104894760D01*
X266723042Y-105021834D01*
X266577340Y-105139770D01*
X266422869Y-105246590D01*
X266262331Y-105340316D01*
X266216542Y-105364004D01*
X266142134Y-105400653D01*
X266076893Y-105430872D01*
X266016396Y-105456440D01*
X265956222Y-105479134D01*
X265891949Y-105500733D01*
X265826875Y-105520727D01*
X265637662Y-105570140D01*
X265451911Y-105604591D01*
X265268173Y-105624214D01*
X265084997Y-105629142D01*
X264900936Y-105619511D01*
X264834394Y-105612531D01*
X264647062Y-105583587D01*
X264467481Y-105541778D01*
X264293143Y-105486354D01*
X264121541Y-105416564D01*
X264024584Y-105370366D01*
X263853952Y-105276947D01*
X263694536Y-105173212D01*
X263545578Y-105058474D01*
X263406321Y-104932050D01*
X263276006Y-104793254D01*
X263153876Y-104641403D01*
X263045608Y-104485759D01*
X263020482Y-104444568D01*
X262991159Y-104392440D01*
X262959459Y-104332996D01*
X262927201Y-104269856D01*
X262896207Y-104206640D01*
X262868294Y-104146967D01*
X262845285Y-104094457D01*
X262831847Y-104060625D01*
X262768980Y-103869084D01*
X262721584Y-103676345D01*
X262689700Y-103482950D01*
X262673370Y-103289440D01*
X262672632Y-103096357D01*
X262687528Y-102904242D01*
X262718098Y-102713636D01*
X262727901Y-102667594D01*
X262761550Y-102531301D01*
X262799858Y-102405118D01*
X262844796Y-102283507D01*
X262898337Y-102160932D01*
X262935996Y-102083458D01*
X263029701Y-101914610D01*
X263136526Y-101754173D01*
X263255702Y-101602868D01*
X263386463Y-101461414D01*
X263528040Y-101330531D01*
X263679666Y-101210940D01*
X263840573Y-101103360D01*
X264009993Y-101008511D01*
X264154175Y-100940980D01*
X264325803Y-100874585D01*
X264498357Y-100822587D01*
X264673844Y-100784578D01*
X264854274Y-100760151D01*
X265041655Y-100748897D01*
X265104562Y-100748007D01*
X265302657Y-100754377D01*
X265494285Y-100775022D01*
X265680219Y-100810173D01*
X265861235Y-100860067D01*
X266038106Y-100924935D01*
X266211606Y-101005013D01*
X266382509Y-101100535D01*
X266483206Y-101164744D01*
X266622639Y-101266272D01*
X266756837Y-101380778D01*
X266884159Y-101506339D01*
X267002965Y-101641031D01*
X267111614Y-101782931D01*
X267208465Y-101930115D01*
X267291878Y-102080661D01*
X267326674Y-102153580D01*
X267388077Y-102298439D01*
X267438308Y-102437678D01*
X267478565Y-102575626D01*
X267510044Y-102716614D01*
X267533944Y-102864971D01*
X267542345Y-102933500D01*
X267547108Y-102990670D01*
X267550218Y-103059561D01*
X267551706Y-103136108D01*
X268083780Y-103136108D01*
X268082710Y-103048473D01*
X268076836Y-102917606D01*
X268066262Y-102795525D01*
X268050415Y-102678885D01*
X268028723Y-102564344D01*
X268000613Y-102448559D01*
X267965514Y-102328187D01*
X267922853Y-102199884D01*
X267907159Y-102155625D01*
X267828774Y-101960906D01*
X267735934Y-101772572D01*
X267628828Y-101590885D01*
X267507648Y-101416108D01*
X267372583Y-101248503D01*
X267223826Y-101088333D01*
X267061567Y-100935860D01*
X266954729Y-100845679D01*
X266868900Y-100780186D01*
X266771361Y-100712860D01*
X266665752Y-100645912D01*
X266555714Y-100581555D01*
X266444887Y-100522000D01*
X266336911Y-100469458D01*
X266330906Y-100466715D01*
X266260946Y-100436842D01*
X266179765Y-100405456D01*
X266091733Y-100374036D01*
X266001221Y-100344062D01*
X265912599Y-100317011D01*
X265830236Y-100294364D01*
X265798350Y-100286471D01*
X265705125Y-100265703D01*
X265616151Y-100249043D01*
X265528147Y-100236152D01*
X265437831Y-100226695D01*
X265341922Y-100220332D01*
X265237140Y-100216728D01*
X265120205Y-100215544D01*
X265108531Y-100215545D01*
D12*
X162750500Y-90170000D03*
X138874500Y-90170000D03*
D13*
X162750500Y-105410000D03*
X138874500Y-105410000D03*
D14*
X156654500Y-93345000D03*
X143727500Y-95885000D03*
D15*
X155892500Y-98425000D03*
X145732500Y-98425000D03*
D16*
X147002500Y-95885000D03*
D12*
X150812500Y-98425000D03*
D16*
X153352500Y-93345000D03*
D14*
X249745500Y-46355000D03*
X262672500Y-43815000D03*
D15*
X250507500Y-41275000D03*
X260667500Y-41275000D03*
D16*
X259397500Y-43815000D03*
D12*
X255587500Y-41275000D03*
D16*
X253047500Y-46355000D03*
D14*
X51879500Y-74295000D03*
X38952500Y-76835000D03*
D15*
X51117500Y-79375000D03*
X40957500Y-79375000D03*
D16*
X42227500Y-76835000D03*
D12*
X46037500Y-79375000D03*
D16*
X48577500Y-74295000D03*
D14*
X49498250Y-55245000D03*
X36571250Y-57785000D03*
D15*
X48736250Y-60325000D03*
X38576250Y-60325000D03*
D16*
X39846250Y-57785000D03*
D12*
X43656250Y-60325000D03*
D16*
X46196250Y-55245000D03*
D14*
X263810750Y-55245000D03*
X250883750Y-57785000D03*
D15*
X263048750Y-60325000D03*
X252888750Y-60325000D03*
D16*
X254158750Y-57785000D03*
D12*
X257968750Y-60325000D03*
D16*
X260508750Y-55245000D03*
D14*
X125698250Y-93345000D03*
X112771250Y-95885000D03*
D15*
X124936250Y-98425000D03*
X114776250Y-98425000D03*
D16*
X116046250Y-95885000D03*
D12*
X119856250Y-98425000D03*
D16*
X122396250Y-93345000D03*
D14*
X187610750Y-93345000D03*
X174683750Y-95885000D03*
D15*
X186848750Y-98425000D03*
X176688750Y-98425000D03*
D16*
X177958750Y-95885000D03*
D12*
X181768750Y-98425000D03*
D16*
X184308750Y-93345000D03*
D14*
X47117000Y-36195000D03*
X34190000Y-38735000D03*
D15*
X46355000Y-41275000D03*
X36195000Y-41275000D03*
D16*
X37465000Y-38735000D03*
D12*
X41275000Y-41275000D03*
D16*
X43815000Y-36195000D03*
D14*
X66167000Y-36195000D03*
X53240000Y-38735000D03*
D15*
X65405000Y-41275000D03*
X55245000Y-41275000D03*
D16*
X56515000Y-38735000D03*
D12*
X60325000Y-41275000D03*
D16*
X62865000Y-36195000D03*
D14*
X85217000Y-36195000D03*
X72290000Y-38735000D03*
D15*
X84455000Y-41275000D03*
X74295000Y-41275000D03*
D16*
X75565000Y-38735000D03*
D12*
X79375000Y-41275000D03*
D16*
X81915000Y-36195000D03*
D14*
X104267000Y-36195000D03*
X91340000Y-38735000D03*
D15*
X103505000Y-41275000D03*
X93345000Y-41275000D03*
D16*
X94615000Y-38735000D03*
D12*
X98425000Y-41275000D03*
D16*
X100965000Y-36195000D03*
D14*
X123317000Y-36195000D03*
X110390000Y-38735000D03*
D15*
X122555000Y-41275000D03*
X112395000Y-41275000D03*
D16*
X113665000Y-38735000D03*
D12*
X117475000Y-41275000D03*
D16*
X120015000Y-36195000D03*
D14*
X142367000Y-36195000D03*
X129440000Y-38735000D03*
D15*
X141605000Y-41275000D03*
X131445000Y-41275000D03*
D16*
X132715000Y-38735000D03*
D12*
X136525000Y-41275000D03*
D16*
X139065000Y-36195000D03*
D14*
X161417000Y-36195000D03*
X148490000Y-38735000D03*
D15*
X160655000Y-41275000D03*
X150495000Y-41275000D03*
D16*
X151765000Y-38735000D03*
D12*
X155575000Y-41275000D03*
D16*
X158115000Y-36195000D03*
D14*
X180467000Y-36195000D03*
X167540000Y-38735000D03*
D15*
X179705000Y-41275000D03*
X169545000Y-41275000D03*
D16*
X170815000Y-38735000D03*
D12*
X174625000Y-41275000D03*
D16*
X177165000Y-36195000D03*
D14*
X199517000Y-36195000D03*
X186590000Y-38735000D03*
D15*
X198755000Y-41275000D03*
X188595000Y-41275000D03*
D16*
X189865000Y-38735000D03*
D12*
X193675000Y-41275000D03*
D16*
X196215000Y-36195000D03*
D14*
X218567000Y-36195000D03*
X205640000Y-38735000D03*
D15*
X217805000Y-41275000D03*
X207645000Y-41275000D03*
D16*
X208915000Y-38735000D03*
D12*
X212725000Y-41275000D03*
D16*
X215265000Y-36195000D03*
D14*
X237617000Y-36195000D03*
X224690000Y-38735000D03*
D15*
X236855000Y-41275000D03*
X226695000Y-41275000D03*
D16*
X227965000Y-38735000D03*
D12*
X231775000Y-41275000D03*
D16*
X234315000Y-36195000D03*
D14*
X70929500Y-55245000D03*
X58002500Y-57785000D03*
D15*
X70167500Y-60325000D03*
X60007500Y-60325000D03*
D16*
X61277500Y-57785000D03*
D12*
X65087500Y-60325000D03*
D16*
X67627500Y-55245000D03*
D14*
X89979500Y-55245000D03*
X77052500Y-57785000D03*
D15*
X89217500Y-60325000D03*
X79057500Y-60325000D03*
D16*
X80327500Y-57785000D03*
D12*
X84137500Y-60325000D03*
D16*
X86677500Y-55245000D03*
D14*
X109029500Y-55245000D03*
X96102500Y-57785000D03*
D15*
X108267500Y-60325000D03*
X98107500Y-60325000D03*
D16*
X99377500Y-57785000D03*
D12*
X103187500Y-60325000D03*
D16*
X105727500Y-55245000D03*
D14*
X128079500Y-55245000D03*
X115152500Y-57785000D03*
D15*
X127317500Y-60325000D03*
X117157500Y-60325000D03*
D16*
X118427500Y-57785000D03*
D12*
X122237500Y-60325000D03*
D16*
X124777500Y-55245000D03*
D14*
X147129500Y-55245000D03*
X134202500Y-57785000D03*
D15*
X146367500Y-60325000D03*
X136207500Y-60325000D03*
D16*
X137477500Y-57785000D03*
D12*
X141287500Y-60325000D03*
D16*
X143827500Y-55245000D03*
D14*
X166179500Y-55245000D03*
X153252500Y-57785000D03*
D15*
X165417500Y-60325000D03*
X155257500Y-60325000D03*
D16*
X156527500Y-57785000D03*
D12*
X160337500Y-60325000D03*
D16*
X162877500Y-55245000D03*
D14*
X185229500Y-55245000D03*
X172302500Y-57785000D03*
D15*
X184467500Y-60325000D03*
X174307500Y-60325000D03*
D16*
X175577500Y-57785000D03*
D12*
X179387500Y-60325000D03*
D16*
X181927500Y-55245000D03*
D14*
X204279500Y-55245000D03*
X191352500Y-57785000D03*
D15*
X203517500Y-60325000D03*
X193357500Y-60325000D03*
D16*
X194627500Y-57785000D03*
D12*
X198437500Y-60325000D03*
D16*
X200977500Y-55245000D03*
D14*
X223329500Y-55245000D03*
X210402500Y-57785000D03*
D15*
X222567500Y-60325000D03*
X212407500Y-60325000D03*
D16*
X213677500Y-57785000D03*
D12*
X217487500Y-60325000D03*
D16*
X220027500Y-55245000D03*
D14*
X242379500Y-55245000D03*
X229452500Y-57785000D03*
D15*
X241617500Y-60325000D03*
X231457500Y-60325000D03*
D16*
X232727500Y-57785000D03*
D12*
X236537500Y-60325000D03*
D16*
X239077500Y-55245000D03*
D14*
X75692000Y-74295000D03*
X62765000Y-76835000D03*
D15*
X74930000Y-79375000D03*
X64770000Y-79375000D03*
D16*
X66040000Y-76835000D03*
D12*
X69850000Y-79375000D03*
D16*
X72390000Y-74295000D03*
D14*
X94742000Y-74295000D03*
X81815000Y-76835000D03*
D15*
X93980000Y-79375000D03*
X83820000Y-79375000D03*
D16*
X85090000Y-76835000D03*
D12*
X88900000Y-79375000D03*
D16*
X91440000Y-74295000D03*
D14*
X113792000Y-74295000D03*
X100865000Y-76835000D03*
D15*
X113030000Y-79375000D03*
X102870000Y-79375000D03*
D16*
X104140000Y-76835000D03*
D12*
X107950000Y-79375000D03*
D16*
X110490000Y-74295000D03*
D14*
X132842000Y-74295000D03*
X119915000Y-76835000D03*
D15*
X132080000Y-79375000D03*
X121920000Y-79375000D03*
D16*
X123190000Y-76835000D03*
D12*
X127000000Y-79375000D03*
D16*
X129540000Y-74295000D03*
D14*
X151892000Y-74295000D03*
X138965000Y-76835000D03*
D15*
X151130000Y-79375000D03*
X140970000Y-79375000D03*
D16*
X142240000Y-76835000D03*
D12*
X146050000Y-79375000D03*
D16*
X148590000Y-74295000D03*
D14*
X170942000Y-74295000D03*
X158015000Y-76835000D03*
D15*
X170180000Y-79375000D03*
X160020000Y-79375000D03*
D16*
X161290000Y-76835000D03*
D12*
X165100000Y-79375000D03*
D16*
X167640000Y-74295000D03*
D14*
X189992000Y-74295000D03*
X177065000Y-76835000D03*
D15*
X189230000Y-79375000D03*
X179070000Y-79375000D03*
D16*
X180340000Y-76835000D03*
D12*
X184150000Y-79375000D03*
D16*
X186690000Y-74295000D03*
D14*
X209042000Y-74295000D03*
X196115000Y-76835000D03*
D15*
X208280000Y-79375000D03*
X198120000Y-79375000D03*
D16*
X199390000Y-76835000D03*
D12*
X203200000Y-79375000D03*
D16*
X205740000Y-74295000D03*
D14*
X228092000Y-74295000D03*
X215165000Y-76835000D03*
D15*
X227330000Y-79375000D03*
X217170000Y-79375000D03*
D16*
X218440000Y-76835000D03*
D12*
X222250000Y-79375000D03*
D16*
X224790000Y-74295000D03*
D14*
X247142000Y-74295000D03*
X234215000Y-76835000D03*
D15*
X246380000Y-79375000D03*
X236220000Y-79375000D03*
D16*
X237490000Y-76835000D03*
D12*
X241300000Y-79375000D03*
D16*
X243840000Y-74295000D03*
D14*
X266192000Y-74295000D03*
X253265000Y-76835000D03*
D15*
X265430000Y-79375000D03*
X255270000Y-79375000D03*
D16*
X256540000Y-76835000D03*
D12*
X260350000Y-79375000D03*
D16*
X262890000Y-74295000D03*
D14*
X47117000Y-93345000D03*
X34190000Y-95885000D03*
D15*
X46355000Y-98425000D03*
X36195000Y-98425000D03*
D16*
X37465000Y-95885000D03*
D12*
X41275000Y-98425000D03*
D16*
X43815000Y-93345000D03*
D14*
X66167000Y-93345000D03*
X53240000Y-95885000D03*
D15*
X65405000Y-98425000D03*
X55245000Y-98425000D03*
D16*
X56515000Y-95885000D03*
D12*
X60325000Y-98425000D03*
D16*
X62865000Y-93345000D03*
D14*
X85217000Y-93345000D03*
X72290000Y-95885000D03*
D15*
X84455000Y-98425000D03*
X74295000Y-98425000D03*
D16*
X75565000Y-95885000D03*
D12*
X79375000Y-98425000D03*
D16*
X81915000Y-93345000D03*
D14*
X104267000Y-93345000D03*
X91340000Y-95885000D03*
D15*
X103505000Y-98425000D03*
X93345000Y-98425000D03*
D16*
X94615000Y-95885000D03*
D12*
X98425000Y-98425000D03*
D16*
X100965000Y-93345000D03*
D14*
X209042000Y-93345000D03*
X196115000Y-95885000D03*
D15*
X208280000Y-98425000D03*
X198120000Y-98425000D03*
D16*
X199390000Y-95885000D03*
D12*
X203200000Y-98425000D03*
D16*
X205740000Y-93345000D03*
D14*
X228092000Y-93345000D03*
X215165000Y-95885000D03*
D15*
X227330000Y-98425000D03*
X217170000Y-98425000D03*
D16*
X218440000Y-95885000D03*
D12*
X222250000Y-98425000D03*
D16*
X224790000Y-93345000D03*
D14*
X247142000Y-93345000D03*
X234215000Y-95885000D03*
D15*
X246380000Y-98425000D03*
X236220000Y-98425000D03*
D16*
X237490000Y-95885000D03*
D12*
X241300000Y-98425000D03*
D16*
X243840000Y-93345000D03*
D14*
X266192000Y-93345000D03*
X253265000Y-95885000D03*
D15*
X265430000Y-98425000D03*
X255270000Y-98425000D03*
D16*
X256540000Y-95885000D03*
D12*
X260350000Y-98425000D03*
D16*
X262890000Y-93345000D03*
D17*
X49212500Y-42925000D03*
X49212500Y-39625000D03*
X68262500Y-42925000D03*
X68262500Y-39625000D03*
X87312500Y-42925000D03*
X87312500Y-39625000D03*
X106362500Y-42925000D03*
X106362500Y-39625000D03*
X125412500Y-42925000D03*
X125412500Y-39625000D03*
X144462500Y-42925000D03*
X144462500Y-39625000D03*
X163512500Y-42925000D03*
X163512500Y-39625000D03*
X182562500Y-42925000D03*
X182562500Y-39625000D03*
X201612500Y-42925000D03*
X201612500Y-39625000D03*
X220662500Y-42925000D03*
X220662500Y-39625000D03*
X223837500Y-45306250D03*
X223837500Y-42006250D03*
X263525000Y-40543750D03*
X263525000Y-37243750D03*
X51593750Y-61975000D03*
X51593750Y-58675000D03*
X73025000Y-61975000D03*
X73025000Y-58675000D03*
X92075000Y-61975000D03*
X92075000Y-58675000D03*
X111125000Y-61975000D03*
X111125000Y-58675000D03*
X130175000Y-61975000D03*
X130175000Y-58675000D03*
X149225000Y-61975000D03*
X149225000Y-58675000D03*
X168275000Y-61975000D03*
X168275000Y-58675000D03*
X187325000Y-61975000D03*
X187325000Y-58675000D03*
X206375000Y-61975000D03*
X206375000Y-58675000D03*
X225425000Y-61975000D03*
X225425000Y-58675000D03*
X228600000Y-64356250D03*
X228600000Y-61056250D03*
X265906250Y-61975000D03*
X265906250Y-58675000D03*
X53975000Y-81025000D03*
X53975000Y-77725000D03*
X77787500Y-81025000D03*
X77787500Y-77725000D03*
X96837500Y-81025000D03*
X96837500Y-77725000D03*
X115887500Y-81025000D03*
X115887500Y-77725000D03*
X134937500Y-81025000D03*
X134937500Y-77725000D03*
X153987500Y-81025000D03*
X153987500Y-77725000D03*
X173037500Y-81025000D03*
X173037500Y-77725000D03*
X192087500Y-81025000D03*
X192087500Y-77725000D03*
X211137500Y-81025000D03*
X211137500Y-77725000D03*
X230187500Y-81025000D03*
X230187500Y-77725000D03*
X249237500Y-81025000D03*
X249237500Y-77725000D03*
X260350000Y-86581250D03*
X260350000Y-83281250D03*
X49212500Y-100075000D03*
X49212500Y-96775000D03*
X68262500Y-100075000D03*
X68262500Y-96775000D03*
X87312500Y-100075000D03*
X87312500Y-96775000D03*
X106362500Y-100075000D03*
X106362500Y-96775000D03*
X127793750Y-100075000D03*
X127793750Y-96775000D03*
X158750000Y-100075000D03*
X158750000Y-96775000D03*
X189706250Y-100075000D03*
X189706250Y-96775000D03*
X211137500Y-100075000D03*
X211137500Y-96775000D03*
X230187500Y-100075000D03*
X230187500Y-96775000D03*
X249237500Y-100075000D03*
X249237500Y-96775000D03*
X252412500Y-102456250D03*
X252412500Y-99156250D03*
D18*
X239693750Y-47562500D03*
X239693750Y-50862500D03*
X244493750Y-50862500D03*
X244493750Y-47562500D03*
X181750000Y-47562500D03*
X181750000Y-50862500D03*
X186550000Y-50862500D03*
X186550000Y-47562500D03*
X115075000Y-47562500D03*
X115075000Y-50862500D03*
X119875000Y-50862500D03*
X119875000Y-47562500D03*
X48400000Y-47562500D03*
X48400000Y-50862500D03*
X53200000Y-50862500D03*
X53200000Y-47562500D03*
X48400000Y-85662500D03*
X48400000Y-88962500D03*
X53200000Y-88962500D03*
X53200000Y-85662500D03*
X115075000Y-85662500D03*
X115075000Y-88962500D03*
X119875000Y-88962500D03*
X119875000Y-85662500D03*
X181750000Y-85662500D03*
X181750000Y-88962500D03*
X186550000Y-88962500D03*
X186550000Y-85662500D03*
X248425000Y-85662500D03*
X248425000Y-88962500D03*
X253225000Y-88962500D03*
X253225000Y-85662500D03*
D19*
X234875000Y-89162500D03*
X228675000Y-85462500D03*
X234875000Y-85462500D03*
X228675000Y-89162500D03*
D20*
X247570500Y-41287000D03*
D21*
X245570500Y-41087000D03*
X247570500Y-42987000D03*
X245570500Y-42987000D03*
D22*
X249255750Y-37857500D03*
X242805750Y-37857500D03*
X248480750Y-37857500D03*
X243580750Y-37857500D03*
D23*
X244280750Y-37857500D03*
X247780750Y-37857500D03*
X244780750Y-37857500D03*
X247280750Y-37857500D03*
X245280750Y-37857500D03*
X246780750Y-37857500D03*
X246280750Y-37857500D03*
X245780750Y-37857500D03*
D24*
X248920750Y-36412500D03*
X243140750Y-36412500D03*
D25*
X241710750Y-36942500D03*
X250350750Y-36942500D03*
D26*
X241710750Y-32762500D03*
X250350750Y-32762500D03*
D27*
X251738500Y-63797000D03*
X251738500Y-65997000D03*
X250038500Y-65997000D03*
X250038500Y-63797000D03*
D28*
X255924750Y-63817500D03*
X254424750Y-63817500D03*
X255924750Y-65976500D03*
X254424750Y-65976500D03*
X235851000Y-63500000D03*
X237351000Y-63500000D03*
D29*
X245237000Y-59829000D03*
X245237000Y-61329000D03*
D28*
X250559000Y-69088000D03*
X249059000Y-69088000D03*
D29*
X247650000Y-59829000D03*
X247650000Y-61329000D03*
D28*
X241343750Y-45243750D03*
X242843750Y-45243750D03*
X183400000Y-45243750D03*
X184900000Y-45243750D03*
X116725000Y-45243750D03*
X118225000Y-45243750D03*
X50050000Y-45243750D03*
X51550000Y-45243750D03*
X50050000Y-83343750D03*
X51550000Y-83343750D03*
X116725000Y-83343750D03*
X118225000Y-83343750D03*
X183400000Y-83343750D03*
X184900000Y-83343750D03*
X250075000Y-83343750D03*
X251575000Y-83343750D03*
D30*
X235851000Y-65913000D03*
X237351000Y-65913000D03*
X245947500Y-56737250D03*
X247447500Y-56737250D03*
X247447500Y-54451250D03*
X245947500Y-54451250D03*
D31*
X253206250Y-37262500D03*
X253206250Y-35762500D03*
D30*
X241058000Y-70739000D03*
X242558000Y-70739000D03*
D31*
X242093750Y-42818750D03*
X242093750Y-41318750D03*
D32*
X245986000Y-64163000D03*
X245986000Y-64663000D03*
X245986000Y-65163000D03*
X245986000Y-65663000D03*
X245986000Y-66163000D03*
X245986000Y-66663000D03*
X245986000Y-67163000D03*
X245986000Y-67663000D03*
D33*
X245336000Y-68313000D03*
X244836000Y-68313000D03*
X244336000Y-68313000D03*
X243836000Y-68313000D03*
X243336000Y-68313000D03*
X242836000Y-68313000D03*
X242336000Y-68313000D03*
X241836000Y-68313000D03*
D32*
X241186000Y-67663000D03*
X241186000Y-67163000D03*
X241186000Y-66663000D03*
X241186000Y-66163000D03*
X241186000Y-65663000D03*
X241186000Y-65163000D03*
X241186000Y-64663000D03*
X241186000Y-64163000D03*
D33*
X241836000Y-63513000D03*
X242336000Y-63513000D03*
X242836000Y-63513000D03*
X243336000Y-63513000D03*
X243836000Y-63513000D03*
X244336000Y-63513000D03*
X244836000Y-63513000D03*
X245336000Y-63513000D03*
D34*
X242723500Y-66775500D03*
X242723500Y-65050500D03*
X244448500Y-66775500D03*
X244448500Y-65050500D03*
D35*
X233623000Y-46355000D03*
X236023000Y-46355000D03*
M02*
