%TF.GenerationSoftware,KiCad,Pcbnew,(5.0.0)*%
%TF.CreationDate,2018-11-28T21:24:14-08:00*%
%TF.ProjectId,UT47.2,555434372E322E6B696361645F706362,rev?*%
%TF.SameCoordinates,Original*%
%TF.FileFunction,Copper,L1,Top,Signal*%
%TF.FilePolarity,Positive*%
%FSLAX46Y46*%
G04 Gerber Fmt 4.6, Leading zero omitted, Abs format (unit mm)*
G04 Created by KiCad (PCBNEW (5.0.0)) date 11/28/18 21:24:14*
%MOMM*%
%LPD*%
G01*
G04 APERTURE LIST*
%ADD10C,0.700000*%
%ADD11O,1.000000X2.100000*%
%ADD12O,1.000000X1.600000*%
%ADD13C,0.600000*%
%ADD14C,0.381000*%
%ADD15C,0.635000*%
%ADD16C,0.250000*%
G04 APERTURE END LIST*
D10*
X252706232Y-102433642D02*
X252402660Y-104862214D01*
X252509803Y-105147928D01*
X252634803Y-105290785D01*
X252902660Y-105433642D01*
X253474089Y-105433642D01*
X253777660Y-105290785D01*
X253938375Y-105147928D01*
X254116946Y-104862214D01*
X254420517Y-102433642D01*
X255420517Y-102433642D02*
X257134803Y-102433642D01*
X255902660Y-105433642D02*
X256277660Y-102433642D01*
X259295517Y-103433642D02*
X259045517Y-105433642D01*
X258724089Y-102290785D02*
X257741946Y-104433642D01*
X259599089Y-104433642D01*
X260706232Y-102433642D02*
X262706232Y-102433642D01*
X261045517Y-105433642D01*
X263509803Y-105147928D02*
X263634803Y-105290785D01*
X263474089Y-105433642D01*
X263349089Y-105290785D01*
X263509803Y-105147928D01*
X263474089Y-105433642D01*
X265099089Y-102719357D02*
X265259803Y-102576500D01*
X265563375Y-102433642D01*
X266277660Y-102433642D01*
X266545517Y-102576500D01*
X266670517Y-102719357D01*
X266777660Y-103005071D01*
X266741946Y-103290785D01*
X266545517Y-103719357D01*
X264616946Y-105433642D01*
X266474089Y-105433642D01*
X253118982Y-102846392D02*
X252815410Y-105274964D01*
X252922553Y-105560678D01*
X253047553Y-105703535D01*
X253315410Y-105846392D01*
X253886839Y-105846392D01*
X254190410Y-105703535D01*
X254351125Y-105560678D01*
X254529696Y-105274964D01*
X254833267Y-102846392D01*
X255833267Y-102846392D02*
X257547553Y-102846392D01*
X256315410Y-105846392D02*
X256690410Y-102846392D01*
X259708267Y-103846392D02*
X259458267Y-105846392D01*
X259136839Y-102703535D02*
X258154696Y-104846392D01*
X260011839Y-104846392D01*
X261118982Y-102846392D02*
X263118982Y-102846392D01*
X261458267Y-105846392D01*
X263922553Y-105560678D02*
X264047553Y-105703535D01*
X263886839Y-105846392D01*
X263761839Y-105703535D01*
X263922553Y-105560678D01*
X263886839Y-105846392D01*
X265511839Y-103132107D02*
X265672553Y-102989250D01*
X265976125Y-102846392D01*
X266690410Y-102846392D01*
X266958267Y-102989250D01*
X267083267Y-103132107D01*
X267190410Y-103417821D01*
X267154696Y-103703535D01*
X266958267Y-104132107D01*
X265029696Y-105846392D01*
X266886839Y-105846392D01*
D11*
X241710750Y-36942500D03*
X250350750Y-36942500D03*
D12*
X241710750Y-32762500D03*
X250350750Y-32762500D03*
D13*
X242951000Y-61722000D03*
X240030000Y-71120000D03*
X234569000Y-63500000D03*
X245110000Y-58674000D03*
X240030000Y-45212000D03*
X249555000Y-42799000D03*
X115443000Y-83312000D03*
X113411000Y-88900000D03*
X182118000Y-83312000D03*
X179959000Y-88900000D03*
X248793000Y-83312000D03*
X246634000Y-88900000D03*
X115316000Y-45212000D03*
X113284000Y-50800000D03*
X48768000Y-45212000D03*
X46609000Y-50800000D03*
X182118000Y-45212000D03*
X179959000Y-50800000D03*
X237871000Y-50800000D03*
X220980000Y-50292000D03*
X226187000Y-85471000D03*
X247650000Y-58547000D03*
X246380000Y-60833000D03*
X229108000Y-82550000D03*
X220218000Y-48260000D03*
X234696000Y-65913000D03*
X247650000Y-69088000D03*
X236601000Y-48260000D03*
X248793000Y-44069000D03*
X239903000Y-43307000D03*
X259334000Y-70866000D03*
X261747000Y-39243000D03*
X245872000Y-70612000D03*
X251079000Y-81534000D03*
X244983000Y-70612000D03*
X250317000Y-102235000D03*
X248729500Y-40386000D03*
X243649500Y-40386000D03*
X138938000Y-74676000D03*
X143764000Y-93726000D03*
X134239000Y-55626000D03*
X129413000Y-36576000D03*
X38989000Y-74676000D03*
X34163000Y-93726000D03*
X36576000Y-55626000D03*
X34163000Y-36576000D03*
X62738000Y-74676000D03*
X53213000Y-93726000D03*
X58039000Y-55626000D03*
X53213000Y-36576000D03*
X81788000Y-74676000D03*
X72263000Y-93726000D03*
X77089000Y-55626000D03*
X72263000Y-36576000D03*
X100838000Y-74676000D03*
X91313000Y-93726000D03*
X96139000Y-55626000D03*
X91313000Y-36576000D03*
X119888000Y-74676000D03*
X112776000Y-93726000D03*
X115189000Y-55626000D03*
X110363000Y-36576000D03*
X157988000Y-74676000D03*
X153289000Y-55626000D03*
X148463000Y-36576000D03*
X177038000Y-74676000D03*
X174752000Y-93726000D03*
X172339000Y-55626000D03*
X167513000Y-36576000D03*
X236982000Y-85471000D03*
X232791000Y-67056000D03*
X240030000Y-65024000D03*
X235585000Y-48895000D03*
X50800000Y-50927000D03*
X46609000Y-85598000D03*
X196088000Y-74676000D03*
X196088000Y-93726000D03*
X191389000Y-55626000D03*
X186563000Y-36576000D03*
X215138000Y-74676000D03*
X215138000Y-93726000D03*
X210439000Y-55626000D03*
X205613000Y-36576000D03*
X234188000Y-74676000D03*
X234188000Y-93726000D03*
X229489000Y-55626000D03*
X224663000Y-36576000D03*
X253238000Y-93726000D03*
X253238000Y-74676000D03*
X250825000Y-55626000D03*
X262636000Y-45974000D03*
X248539000Y-56769000D03*
X246126000Y-44831000D03*
X248539000Y-54483000D03*
X247015000Y-44831000D03*
X247586500Y-39624000D03*
X253238000Y-38354000D03*
X244665500Y-39624000D03*
X240792000Y-42799000D03*
D14*
X241710750Y-39848250D02*
X241710750Y-36942500D01*
X239141000Y-42418000D02*
X241710750Y-39848250D01*
X240030000Y-45212000D02*
X239141000Y-44323000D01*
X239141000Y-44323000D02*
X239141000Y-42418000D01*
X115443000Y-83312000D02*
X115443000Y-85090000D01*
X115443000Y-85090000D02*
X115443000Y-86868000D01*
X115443000Y-86868000D02*
X113411000Y-88900000D01*
X182118000Y-83312000D02*
X182118000Y-86868000D01*
X182118000Y-86868000D02*
X181991000Y-86868000D01*
X181991000Y-86868000D02*
X179959000Y-88900000D01*
X248793000Y-83312000D02*
X248793000Y-85471000D01*
X248793000Y-85471000D02*
X248793000Y-86741000D01*
X248793000Y-86741000D02*
X246634000Y-88900000D01*
X115316000Y-45212000D02*
X115316000Y-45720000D01*
X115316000Y-45720000D02*
X115316000Y-48768000D01*
X115316000Y-48768000D02*
X113284000Y-50800000D01*
X48768000Y-45212000D02*
X48768000Y-45720000D01*
X48768000Y-45720000D02*
X48768000Y-48641000D01*
X48768000Y-48641000D02*
X46609000Y-50800000D01*
X182118000Y-45212000D02*
X182118000Y-45720000D01*
X182118000Y-45720000D02*
X182118000Y-48641000D01*
X182118000Y-48641000D02*
X179959000Y-50800000D01*
X240030000Y-48641000D02*
X240030000Y-45212000D01*
X237871000Y-50800000D02*
X240030000Y-48641000D01*
X220980000Y-51206410D02*
X220980000Y-50292000D01*
X229870000Y-82931000D02*
X229870000Y-74295000D01*
X229870000Y-74295000D02*
X225298000Y-69723000D01*
X227330000Y-85471000D02*
X229870000Y-82931000D01*
X226187000Y-85471000D02*
X227330000Y-85471000D01*
X225298000Y-69723000D02*
X225298000Y-55524410D01*
X225298000Y-55524410D02*
X220980000Y-51206410D01*
D15*
X249682000Y-42926000D02*
X249555000Y-42799000D01*
X249682000Y-57150000D02*
X249682000Y-42926000D01*
X248285000Y-58547000D02*
X249682000Y-57150000D01*
X247650000Y-58547000D02*
X248285000Y-58547000D01*
X245110000Y-59563000D02*
X242951000Y-61722000D01*
X245110000Y-58674000D02*
X245110000Y-59563000D01*
X234569000Y-63881000D02*
X234823000Y-64135000D01*
X234569000Y-63500000D02*
X234569000Y-63881000D01*
X234315000Y-64643000D02*
X234823000Y-64135000D01*
X233807000Y-65151000D02*
X234315000Y-64643000D01*
X233807000Y-70104000D02*
X233807000Y-65151000D01*
X234823000Y-71120000D02*
X233807000Y-70104000D01*
X240030000Y-71120000D02*
X234823000Y-71120000D01*
X242951000Y-64516000D02*
X242951000Y-61722000D01*
X241300000Y-66167000D02*
X242951000Y-64516000D01*
X239649000Y-66167000D02*
X241300000Y-66167000D01*
X237617000Y-64135000D02*
X239649000Y-66167000D01*
X234823000Y-64135000D02*
X237617000Y-64135000D01*
D14*
X229108000Y-82550000D02*
X229108000Y-74676000D01*
X229108000Y-74676000D02*
X224536000Y-70104000D01*
X224536000Y-70104000D02*
X224536000Y-55880000D01*
X224536000Y-55880000D02*
X220218000Y-51562000D01*
X220218000Y-51562000D02*
X220218000Y-48260000D01*
D15*
X245999000Y-60452000D02*
X246380000Y-60833000D01*
X245999000Y-59182000D02*
X245999000Y-60071000D01*
X245999000Y-59182000D02*
X245999000Y-60452000D01*
X245999000Y-60071000D02*
X244475000Y-61595000D01*
X244475000Y-66167000D02*
X247396000Y-69088000D01*
X247396000Y-69088000D02*
X247650000Y-69088000D01*
X236601000Y-51181000D02*
X236601000Y-48260000D01*
X238125000Y-52705000D02*
X236601000Y-51181000D01*
X241554000Y-52705000D02*
X238125000Y-52705000D01*
X245999000Y-57150000D02*
X245999000Y-57912000D01*
X241554000Y-52705000D02*
X245999000Y-57150000D01*
X245999000Y-59182000D02*
X245999000Y-57912000D01*
X243967000Y-62103000D02*
X244475000Y-61595000D01*
X243967000Y-65024000D02*
X243967000Y-62103000D01*
X243967000Y-65659000D02*
X243967000Y-65024000D01*
X244475000Y-66167000D02*
X243967000Y-65659000D01*
X241808000Y-67183000D02*
X243967000Y-65024000D01*
X239141000Y-67183000D02*
X241808000Y-67183000D01*
X237236000Y-65278000D02*
X239141000Y-67183000D01*
X235331000Y-65278000D02*
X237236000Y-65278000D01*
X234696000Y-65913000D02*
X235331000Y-65278000D01*
D16*
X240665000Y-44069000D02*
X239903000Y-43307000D01*
X241300000Y-44069000D02*
X240665000Y-44069000D01*
X248793000Y-44069000D02*
X241300000Y-44069000D01*
X260604000Y-69596000D02*
X259334000Y-70866000D01*
X260604000Y-59563000D02*
X260604000Y-69596000D01*
X263525000Y-56642000D02*
X260604000Y-59563000D01*
X263525000Y-41021000D02*
X263525000Y-56642000D01*
X261747000Y-39243000D02*
X263525000Y-41021000D01*
X245745000Y-70739000D02*
X245872000Y-70612000D01*
X245745000Y-72390000D02*
X245745000Y-70739000D01*
X250825000Y-77470000D02*
X245745000Y-72390000D01*
X251079000Y-81534000D02*
X250825000Y-81280000D01*
X250825000Y-81280000D02*
X250825000Y-77470000D01*
X245237000Y-72644000D02*
X249555000Y-76962000D01*
X245237000Y-70866000D02*
X245237000Y-72644000D01*
X244983000Y-70612000D02*
X245237000Y-70866000D01*
X249555000Y-76962000D02*
X249936000Y-77343000D01*
X249936000Y-77343000D02*
X250317000Y-77724000D01*
X250317000Y-77724000D02*
X250317000Y-102235000D01*
D15*
X243776500Y-40513000D02*
X243649500Y-40386000D01*
X248602500Y-40513000D02*
X243776500Y-40513000D01*
X248729500Y-40386000D02*
X248602500Y-40513000D01*
D16*
X129413000Y-50800000D02*
X134239000Y-55626000D01*
X129413000Y-36576000D02*
X129413000Y-50800000D01*
X134239000Y-69977000D02*
X138938000Y-74676000D01*
X134239000Y-55626000D02*
X134239000Y-69977000D01*
X138938000Y-83439000D02*
X138938000Y-74676000D01*
X143764000Y-88265000D02*
X138938000Y-83439000D01*
X143764000Y-93726000D02*
X143764000Y-88265000D01*
X38989000Y-88900000D02*
X34163000Y-93726000D01*
X38989000Y-74676000D02*
X38989000Y-88900000D01*
X36576000Y-72263000D02*
X38989000Y-74676000D01*
X36576000Y-55626000D02*
X36576000Y-72263000D01*
X34163000Y-53213000D02*
X36576000Y-55626000D01*
X34163000Y-36576000D02*
X34163000Y-53213000D01*
X53213000Y-50800000D02*
X58039000Y-55626000D01*
X53213000Y-36576000D02*
X53213000Y-50800000D01*
X58039000Y-69977000D02*
X62738000Y-74676000D01*
X58039000Y-55626000D02*
X58039000Y-69977000D01*
X62738000Y-84201000D02*
X53213000Y-93726000D01*
X62738000Y-74676000D02*
X62738000Y-84201000D01*
X72263000Y-50800000D02*
X77089000Y-55626000D01*
X72263000Y-36576000D02*
X72263000Y-50800000D01*
X77089000Y-69977000D02*
X81788000Y-74676000D01*
X77089000Y-55626000D02*
X77089000Y-69977000D01*
X81788000Y-84201000D02*
X72263000Y-93726000D01*
X81788000Y-74676000D02*
X81788000Y-84201000D01*
X91313000Y-50800000D02*
X96139000Y-55626000D01*
X91313000Y-36576000D02*
X91313000Y-50800000D01*
X96139000Y-69977000D02*
X100838000Y-74676000D01*
X96139000Y-55626000D02*
X96139000Y-69977000D01*
X100838000Y-84201000D02*
X91313000Y-93726000D01*
X100838000Y-74676000D02*
X100838000Y-84201000D01*
X110363000Y-50800000D02*
X115189000Y-55626000D01*
X110363000Y-36576000D02*
X110363000Y-50800000D01*
X115189000Y-69977000D02*
X119888000Y-74676000D01*
X115189000Y-55626000D02*
X115189000Y-69977000D01*
X119888000Y-86614000D02*
X112776000Y-93726000D01*
X119888000Y-74676000D02*
X119888000Y-86614000D01*
X148463000Y-50800000D02*
X153289000Y-55626000D01*
X148463000Y-36576000D02*
X148463000Y-50800000D01*
X153289000Y-69977000D02*
X157988000Y-74676000D01*
X153289000Y-55626000D02*
X153289000Y-69977000D01*
X167513000Y-50800000D02*
X172339000Y-55626000D01*
X167513000Y-36576000D02*
X167513000Y-50800000D01*
X172339000Y-69977000D02*
X177038000Y-74676000D01*
X172339000Y-55626000D02*
X172339000Y-69977000D01*
X177038000Y-91440000D02*
X174752000Y-93726000D01*
X177038000Y-74676000D02*
X177038000Y-91440000D01*
X236982000Y-85471000D02*
X234823000Y-83312000D01*
X234823000Y-83312000D02*
X234823000Y-74295000D01*
X232791000Y-72263000D02*
X233553000Y-73025000D01*
X232791000Y-67056000D02*
X232791000Y-72263000D01*
X233426000Y-72898000D02*
X233553000Y-73025000D01*
X233553000Y-73025000D02*
X234823000Y-74295000D01*
X240030000Y-65024000D02*
X240030000Y-61341000D01*
X240030000Y-61341000D02*
X240030000Y-59690000D01*
X240030000Y-59690000D02*
X235585000Y-55245000D01*
X235585000Y-55245000D02*
X235585000Y-49657000D01*
X235585000Y-49657000D02*
X235585000Y-48895000D01*
X50800000Y-50927000D02*
X50800000Y-55880000D01*
X50800000Y-55880000D02*
X50800000Y-69977000D01*
X50800000Y-69977000D02*
X53848000Y-73025000D01*
X53848000Y-73025000D02*
X53848000Y-80645000D01*
X53848000Y-80645000D02*
X48895000Y-85598000D01*
X48895000Y-85598000D02*
X46609000Y-85598000D01*
X186563000Y-50800000D02*
X191389000Y-55626000D01*
X186563000Y-36576000D02*
X186563000Y-50800000D01*
X191389000Y-69977000D02*
X196088000Y-74676000D01*
X191389000Y-55626000D02*
X191389000Y-69977000D01*
X196088000Y-74676000D02*
X196088000Y-93726000D01*
X205613000Y-50800000D02*
X210439000Y-55626000D01*
X205613000Y-36576000D02*
X205613000Y-50800000D01*
X210439000Y-69977000D02*
X215138000Y-74676000D01*
X210439000Y-55626000D02*
X210439000Y-69977000D01*
X215138000Y-74676000D02*
X215138000Y-93726000D01*
X224663000Y-50800000D02*
X229489000Y-55626000D01*
X224663000Y-36576000D02*
X224663000Y-50800000D01*
X229489000Y-69977000D02*
X234188000Y-74676000D01*
X229489000Y-55626000D02*
X229489000Y-69977000D01*
X234188000Y-74676000D02*
X234188000Y-93726000D01*
X260477000Y-45974000D02*
X250825000Y-55626000D01*
X262636000Y-45974000D02*
X260477000Y-45974000D01*
X250825000Y-55626000D02*
X250825000Y-57404000D01*
X250825000Y-57404000D02*
X245364000Y-62865000D01*
X245364000Y-62865000D02*
X245364000Y-65786000D01*
X253238000Y-73660000D02*
X253238000Y-74676000D01*
X245364000Y-65786000D02*
X253238000Y-73660000D01*
X253238000Y-74676000D02*
X253238000Y-93726000D01*
X247777000Y-56007000D02*
X248539000Y-56769000D01*
X247777000Y-46609000D02*
X247777000Y-56007000D01*
X246126000Y-44958000D02*
X247777000Y-46609000D01*
X246126000Y-44831000D02*
X246126000Y-44958000D01*
X248539000Y-54483000D02*
X248285000Y-54229000D01*
X247015000Y-45085000D02*
X248285000Y-46355000D01*
X247015000Y-44831000D02*
X247015000Y-45085000D01*
X248285000Y-54229000D02*
X248285000Y-46355000D01*
X252730000Y-38862000D02*
X253238000Y-38354000D01*
X251968000Y-39624000D02*
X252730000Y-38862000D01*
X247586500Y-39624000D02*
X251968000Y-39624000D01*
X240792000Y-42164000D02*
X240792000Y-42799000D01*
X244665500Y-39624000D02*
X243332000Y-39624000D01*
X243332000Y-39624000D02*
X240792000Y-42164000D01*
M02*
