M48
;DRILL file {KiCad (5.0.0)} date 11/28/18 22:09:26
;FORMAT={-:-/ absolute / inch / decimal}
FMAT,2
INCH,TZ
T1C0.0157
T2C0.0236
%
G90
G05
M72
T1
X1.345Y-1.44
X1.345Y-3.69
X1.44Y-2.19
X1.535Y-2.94
X1.835Y-2.
X1.835Y-3.37
X1.92Y-1.78
X2.Y-2.005
X2.095Y-1.44
X2.095Y-3.69
X2.285Y-2.19
X2.47Y-2.94
X2.845Y-1.44
X2.845Y-3.69
X3.035Y-2.19
X3.22Y-2.94
X3.595Y-1.44
X3.595Y-3.69
X3.785Y-2.19
X3.97Y-2.94
X4.345Y-1.44
X4.44Y-3.69
X4.46Y-2.
X4.465Y-3.5
X4.535Y-2.19
X4.54Y-1.78
X4.545Y-3.28
X4.72Y-2.94
X5.095Y-1.44
X5.285Y-2.19
X5.47Y-2.94
X5.66Y-3.69
X5.845Y-1.44
X6.035Y-2.19
X6.22Y-2.94
X6.595Y-1.44
X6.785Y-2.19
X6.88Y-3.69
X6.97Y-2.94
X7.085Y-2.
X7.085Y-3.5
X7.17Y-1.78
X7.17Y-3.28
X7.345Y-1.44
X7.535Y-2.19
X7.72Y-2.94
X7.72Y-3.69
X8.095Y-1.44
X8.285Y-2.19
X8.47Y-2.94
X8.47Y-3.69
X8.67Y-1.9
X8.7Y-1.98
X8.845Y-1.44
X8.905Y-3.365
X9.02Y-3.25
X9.035Y-2.19
X9.165Y-2.64
X9.22Y-2.94
X9.22Y-3.69
X9.235Y-2.5
X9.24Y-2.595
X9.275Y-1.925
X9.315Y-1.9
X9.33Y-3.365
X9.365Y-2.
X9.445Y-1.705
X9.45Y-1.78
X9.45Y-2.56
X9.45Y-2.8
X9.48Y-1.685
X9.565Y-2.43
X9.5925Y-1.59
X9.6325Y-1.56
X9.645Y-2.78
X9.65Y-2.31
X9.68Y-2.78
X9.69Y-1.765
X9.7Y-2.395
X9.71Y-3.5
X9.725Y-1.765
X9.7475Y-1.56
X9.75Y-2.305
X9.75Y-2.72
X9.785Y-2.145
X9.785Y-2.235
X9.7925Y-1.59
X9.795Y-1.735
X9.795Y-3.28
X9.825Y-1.685
X9.855Y-4.025
X9.875Y-2.19
X9.885Y-3.21
X9.97Y-1.51
X9.97Y-2.94
X9.97Y-3.69
X10.21Y-2.79
X10.305Y-1.545
X10.34Y-1.81
T2
X9.5162Y-1.2781G85X9.5162Y-1.3017
G05
X9.5162Y-1.4328G85X9.5162Y-1.4761
G05
X9.8563Y-1.2781G85X9.8563Y-1.3017
G05
X9.8563Y-1.4328G85X9.8563Y-1.4761
G05
T0
M30
