%TF.GenerationSoftware,KiCad,Pcbnew,(5.0.0)*%
%TF.CreationDate,2018-11-28T21:03:07-08:00*%
%TF.ProjectId,UT47.2,555434372E322E6B696361645F706362,rev?*%
%TF.SameCoordinates,Original*%
%TF.FileFunction,Copper,L2,Bot,Signal*%
%TF.FilePolarity,Positive*%
%FSLAX46Y46*%
G04 Gerber Fmt 4.6, Leading zero omitted, Abs format (unit mm)*
G04 Created by KiCad (PCBNEW (5.0.0)) date 11/28/18 21:03:07*
%MOMM*%
%LPD*%
G01*
G04 APERTURE LIST*
%ADD10C,0.300000*%
%ADD11C,0.010000*%
%ADD12R,1.200000X0.900000*%
%ADD13R,2.550000X2.500000*%
%ADD14R,1.800000X1.400000*%
%ADD15R,1.800000X1.100000*%
%ADD16R,0.700000X1.000000*%
%ADD17R,0.700000X0.600000*%
%ADD18R,0.600000X1.450000*%
%ADD19R,0.300000X1.450000*%
%ADD20O,1.000000X2.100000*%
%ADD21O,1.000000X1.600000*%
%ADD22R,1.200000X1.400000*%
%ADD23R,0.800000X0.750000*%
%ADD24R,0.750000X0.800000*%
%ADD25R,0.500000X0.900000*%
%ADD26R,0.900000X0.500000*%
%ADD27R,1.725000X1.725000*%
%ADD28R,0.250000X0.700000*%
%ADD29R,0.700000X0.250000*%
%ADD30R,1.140000X2.030000*%
%ADD31C,0.600000*%
%ADD32C,0.250000*%
%ADD33C,0.381000*%
%ADD34C,0.203200*%
%ADD35C,0.254000*%
%ADD36C,0.635000*%
G04 APERTURE END LIST*
D10*
X260546428Y-104747321D02*
X260546428Y-105961607D01*
X260475000Y-106104464D01*
X260403571Y-106175892D01*
X260260714Y-106247321D01*
X259975000Y-106247321D01*
X259832142Y-106175892D01*
X259760714Y-106104464D01*
X259689285Y-105961607D01*
X259689285Y-104747321D01*
X259189285Y-104747321D02*
X258332142Y-104747321D01*
X258760714Y-106247321D02*
X258760714Y-104747321D01*
X257189285Y-105247321D02*
X257189285Y-106247321D01*
X257546428Y-104675892D02*
X257903571Y-105747321D01*
X256975000Y-105747321D01*
X256546428Y-104747321D02*
X255546428Y-104747321D01*
X256189285Y-106247321D01*
X254975000Y-106104464D02*
X254903571Y-106175892D01*
X254975000Y-106247321D01*
X255046428Y-106175892D01*
X254975000Y-106104464D01*
X254975000Y-106247321D01*
X254332142Y-104890178D02*
X254260714Y-104818750D01*
X254117857Y-104747321D01*
X253760714Y-104747321D01*
X253617857Y-104818750D01*
X253546428Y-104890178D01*
X253475000Y-105033035D01*
X253475000Y-105175892D01*
X253546428Y-105390178D01*
X254403571Y-106247321D01*
X253475000Y-106247321D01*
X251689285Y-106247321D02*
X251689285Y-104747321D01*
X251117857Y-104747321D01*
X250975000Y-104818750D01*
X250903571Y-104890178D01*
X250832142Y-105033035D01*
X250832142Y-105247321D01*
X250903571Y-105390178D01*
X250975000Y-105461607D01*
X251117857Y-105533035D01*
X251689285Y-105533035D01*
X249332142Y-106104464D02*
X249403571Y-106175892D01*
X249617857Y-106247321D01*
X249760714Y-106247321D01*
X249975000Y-106175892D01*
X250117857Y-106033035D01*
X250189285Y-105890178D01*
X250260714Y-105604464D01*
X250260714Y-105390178D01*
X250189285Y-105104464D01*
X250117857Y-104961607D01*
X249975000Y-104818750D01*
X249760714Y-104747321D01*
X249617857Y-104747321D01*
X249403571Y-104818750D01*
X249332142Y-104890178D01*
X248189285Y-105461607D02*
X247975000Y-105533035D01*
X247903571Y-105604464D01*
X247832142Y-105747321D01*
X247832142Y-105961607D01*
X247903571Y-106104464D01*
X247975000Y-106175892D01*
X248117857Y-106247321D01*
X248689285Y-106247321D01*
X248689285Y-104747321D01*
X248189285Y-104747321D01*
X248046428Y-104818750D01*
X247975000Y-104890178D01*
X247903571Y-105033035D01*
X247903571Y-105175892D01*
X247975000Y-105318750D01*
X248046428Y-105390178D01*
X248189285Y-105461607D01*
X248689285Y-105461607D01*
X246046428Y-106247321D02*
X246046428Y-104747321D01*
X246046428Y-105318750D02*
X245903571Y-105247321D01*
X245617857Y-105247321D01*
X245475000Y-105318750D01*
X245403571Y-105390178D01*
X245332142Y-105533035D01*
X245332142Y-105961607D01*
X245403571Y-106104464D01*
X245475000Y-106175892D01*
X245617857Y-106247321D01*
X245903571Y-106247321D01*
X246046428Y-106175892D01*
X244832142Y-105247321D02*
X244475000Y-106247321D01*
X244117857Y-105247321D02*
X244475000Y-106247321D01*
X244617857Y-106604464D01*
X244689285Y-106675892D01*
X244832142Y-106747321D01*
X241760714Y-106247321D02*
X241760714Y-105461607D01*
X241832142Y-105318750D01*
X241975000Y-105247321D01*
X242260714Y-105247321D01*
X242403571Y-105318750D01*
X241760714Y-106175892D02*
X241903571Y-106247321D01*
X242260714Y-106247321D01*
X242403571Y-106175892D01*
X242475000Y-106033035D01*
X242475000Y-105890178D01*
X242403571Y-105747321D01*
X242260714Y-105675892D01*
X241903571Y-105675892D01*
X241760714Y-105604464D01*
X241046428Y-106247321D02*
X241046428Y-105247321D01*
X241046428Y-104747321D02*
X241117857Y-104818750D01*
X241046428Y-104890178D01*
X240975000Y-104818750D01*
X241046428Y-104747321D01*
X241046428Y-104890178D01*
X240046428Y-104747321D02*
X239903571Y-104747321D01*
X239760714Y-104818750D01*
X239689285Y-104890178D01*
X239617857Y-105033035D01*
X239546428Y-105318750D01*
X239546428Y-105675892D01*
X239617857Y-105961607D01*
X239689285Y-106104464D01*
X239760714Y-106175892D01*
X239903571Y-106247321D01*
X240046428Y-106247321D01*
X240189285Y-106175892D01*
X240260714Y-106104464D01*
X240332142Y-105961607D01*
X240403571Y-105675892D01*
X240403571Y-105318750D01*
X240332142Y-105033035D01*
X240260714Y-104890178D01*
X240189285Y-104818750D01*
X240046428Y-104747321D01*
X239046428Y-104747321D02*
X238117857Y-104747321D01*
X238617857Y-105318750D01*
X238403571Y-105318750D01*
X238260714Y-105390178D01*
X238189285Y-105461607D01*
X238117857Y-105604464D01*
X238117857Y-105961607D01*
X238189285Y-106104464D01*
X238260714Y-106175892D01*
X238403571Y-106247321D01*
X238832142Y-106247321D01*
X238975000Y-106175892D01*
X239046428Y-106104464D01*
X235475000Y-106247321D02*
X235975000Y-105533035D01*
X236332142Y-106247321D02*
X236332142Y-104747321D01*
X235760714Y-104747321D01*
X235617857Y-104818750D01*
X235546428Y-104890178D01*
X235475000Y-105033035D01*
X235475000Y-105247321D01*
X235546428Y-105390178D01*
X235617857Y-105461607D01*
X235760714Y-105533035D01*
X236332142Y-105533035D01*
X234260714Y-106175892D02*
X234403571Y-106247321D01*
X234689285Y-106247321D01*
X234832142Y-106175892D01*
X234903571Y-106033035D01*
X234903571Y-105461607D01*
X234832142Y-105318750D01*
X234689285Y-105247321D01*
X234403571Y-105247321D01*
X234260714Y-105318750D01*
X234189285Y-105461607D01*
X234189285Y-105604464D01*
X234903571Y-105747321D01*
X233689285Y-105247321D02*
X233332142Y-106247321D01*
X232975000Y-105247321D01*
X230475000Y-106247321D02*
X231332142Y-106247321D01*
X230903571Y-106247321D02*
X230903571Y-104747321D01*
X231046428Y-104961607D01*
X231189285Y-105104464D01*
X231332142Y-105175892D01*
X229832142Y-106104464D02*
X229760714Y-106175892D01*
X229832142Y-106247321D01*
X229903571Y-106175892D01*
X229832142Y-106104464D01*
X229832142Y-106247321D01*
X228832142Y-104747321D02*
X228689285Y-104747321D01*
X228546428Y-104818750D01*
X228475000Y-104890178D01*
X228403571Y-105033035D01*
X228332142Y-105318750D01*
X228332142Y-105675892D01*
X228403571Y-105961607D01*
X228475000Y-106104464D01*
X228546428Y-106175892D01*
X228689285Y-106247321D01*
X228832142Y-106247321D01*
X228975000Y-106175892D01*
X229046428Y-106104464D01*
X229117857Y-105961607D01*
X229189285Y-105675892D01*
X229189285Y-105318750D01*
X229117857Y-105033035D01*
X229046428Y-104890178D01*
X228975000Y-104818750D01*
X228832142Y-104747321D01*
X115219642Y-106247321D02*
X115219642Y-104747321D01*
X114862499Y-104747321D01*
X114648214Y-104818750D01*
X114505357Y-104961607D01*
X114433928Y-105104464D01*
X114362499Y-105390178D01*
X114362499Y-105604464D01*
X114433928Y-105890178D01*
X114505357Y-106033035D01*
X114648214Y-106175892D01*
X114862499Y-106247321D01*
X115219642Y-106247321D01*
X113719642Y-106247321D02*
X113719642Y-105247321D01*
X113719642Y-104747321D02*
X113791071Y-104818750D01*
X113719642Y-104890178D01*
X113648214Y-104818750D01*
X113719642Y-104747321D01*
X113719642Y-104890178D01*
X113076785Y-106175892D02*
X112933928Y-106247321D01*
X112648214Y-106247321D01*
X112505357Y-106175892D01*
X112433928Y-106033035D01*
X112433928Y-105961607D01*
X112505357Y-105818750D01*
X112648214Y-105747321D01*
X112862499Y-105747321D01*
X113005357Y-105675892D01*
X113076785Y-105533035D01*
X113076785Y-105461607D01*
X113005357Y-105318750D01*
X112862499Y-105247321D01*
X112648214Y-105247321D01*
X112505357Y-105318750D01*
X112005357Y-105247321D02*
X111433928Y-105247321D01*
X111791071Y-104747321D02*
X111791071Y-106033035D01*
X111719642Y-106175892D01*
X111576785Y-106247321D01*
X111433928Y-106247321D01*
X110933928Y-106247321D02*
X110933928Y-105247321D01*
X110933928Y-105533035D02*
X110862499Y-105390178D01*
X110791071Y-105318750D01*
X110648214Y-105247321D01*
X110505357Y-105247321D01*
X110005357Y-106247321D02*
X110005357Y-105247321D01*
X110005357Y-104747321D02*
X110076785Y-104818750D01*
X110005357Y-104890178D01*
X109933928Y-104818750D01*
X110005357Y-104747321D01*
X110005357Y-104890178D01*
X109291071Y-106247321D02*
X109291071Y-104747321D01*
X109291071Y-105318750D02*
X109148214Y-105247321D01*
X108862499Y-105247321D01*
X108719642Y-105318750D01*
X108648214Y-105390178D01*
X108576785Y-105533035D01*
X108576785Y-105961607D01*
X108648214Y-106104464D01*
X108719642Y-106175892D01*
X108862499Y-106247321D01*
X109148214Y-106247321D01*
X109291071Y-106175892D01*
X107291071Y-105247321D02*
X107291071Y-106247321D01*
X107933928Y-105247321D02*
X107933928Y-106033035D01*
X107862499Y-106175892D01*
X107719642Y-106247321D01*
X107505357Y-106247321D01*
X107362499Y-106175892D01*
X107291071Y-106104464D01*
X106791071Y-105247321D02*
X106219642Y-105247321D01*
X106576785Y-104747321D02*
X106576785Y-106033035D01*
X106505357Y-106175892D01*
X106362500Y-106247321D01*
X106219642Y-106247321D01*
X105148214Y-106175892D02*
X105291071Y-106247321D01*
X105576785Y-106247321D01*
X105719642Y-106175892D01*
X105791071Y-106033035D01*
X105791071Y-105461607D01*
X105719642Y-105318750D01*
X105576785Y-105247321D01*
X105291071Y-105247321D01*
X105148214Y-105318750D01*
X105076785Y-105461607D01*
X105076785Y-105604464D01*
X105791071Y-105747321D01*
X103791071Y-106247321D02*
X103791071Y-104747321D01*
X103791071Y-106175892D02*
X103933928Y-106247321D01*
X104219642Y-106247321D01*
X104362500Y-106175892D01*
X104433928Y-106104464D01*
X104505357Y-105961607D01*
X104505357Y-105533035D01*
X104433928Y-105390178D01*
X104362500Y-105318750D01*
X104219642Y-105247321D01*
X103933928Y-105247321D01*
X103791071Y-105318750D01*
X101933928Y-106247321D02*
X101933928Y-104747321D01*
X101933928Y-105318750D02*
X101791071Y-105247321D01*
X101505357Y-105247321D01*
X101362500Y-105318750D01*
X101291071Y-105390178D01*
X101219642Y-105533035D01*
X101219642Y-105961607D01*
X101291071Y-106104464D01*
X101362500Y-106175892D01*
X101505357Y-106247321D01*
X101791071Y-106247321D01*
X101933928Y-106175892D01*
X100719642Y-105247321D02*
X100362500Y-106247321D01*
X100005357Y-105247321D02*
X100362500Y-106247321D01*
X100505357Y-106604464D01*
X100576785Y-106675892D01*
X100719642Y-106747321D01*
X98291071Y-106247321D02*
X98291071Y-104747321D01*
X97433928Y-106247321D02*
X98076785Y-105390178D01*
X97433928Y-104747321D02*
X98291071Y-105604464D01*
X96219642Y-106175892D02*
X96362500Y-106247321D01*
X96648214Y-106247321D01*
X96791071Y-106175892D01*
X96862500Y-106033035D01*
X96862500Y-105461607D01*
X96791071Y-105318750D01*
X96648214Y-105247321D01*
X96362500Y-105247321D01*
X96219642Y-105318750D01*
X96148214Y-105461607D01*
X96148214Y-105604464D01*
X96862500Y-105747321D01*
X95648214Y-105247321D02*
X95291071Y-106247321D01*
X94933928Y-105247321D02*
X95291071Y-106247321D01*
X95433928Y-106604464D01*
X95505357Y-106675892D01*
X95648214Y-106747321D01*
X94362500Y-106247321D02*
X94362500Y-104747321D01*
X93719642Y-106247321D02*
X93719642Y-105461607D01*
X93791071Y-105318750D01*
X93933928Y-105247321D01*
X94148214Y-105247321D01*
X94291071Y-105318750D01*
X94362500Y-105390178D01*
X93005357Y-106247321D02*
X93005357Y-105247321D01*
X93005357Y-104747321D02*
X93076785Y-104818750D01*
X93005357Y-104890178D01*
X92933928Y-104818750D01*
X93005357Y-104747321D01*
X93005357Y-104890178D01*
X92433928Y-105247321D02*
X92076785Y-106247321D01*
X91719642Y-105247321D01*
X90576785Y-106175892D02*
X90719642Y-106247321D01*
X91005357Y-106247321D01*
X91148214Y-106175892D01*
X91219642Y-106033035D01*
X91219642Y-105461607D01*
X91148214Y-105318750D01*
X91005357Y-105247321D01*
X90719642Y-105247321D01*
X90576785Y-105318750D01*
X90505357Y-105461607D01*
X90505357Y-105604464D01*
X91219642Y-105747321D01*
X88362500Y-106747321D02*
X88362500Y-104604464D01*
X86219642Y-104890178D02*
X86148214Y-104818750D01*
X86005357Y-104747321D01*
X85648214Y-104747321D01*
X85505357Y-104818750D01*
X85433928Y-104890178D01*
X85362500Y-105033035D01*
X85362500Y-105175892D01*
X85433928Y-105390178D01*
X86291071Y-106247321D01*
X85362500Y-106247321D01*
X84433928Y-104747321D02*
X84291071Y-104747321D01*
X84148214Y-104818750D01*
X84076785Y-104890178D01*
X84005357Y-105033035D01*
X83933928Y-105318750D01*
X83933928Y-105675892D01*
X84005357Y-105961607D01*
X84076785Y-106104464D01*
X84148214Y-106175892D01*
X84291071Y-106247321D01*
X84433928Y-106247321D01*
X84576785Y-106175892D01*
X84648214Y-106104464D01*
X84719642Y-105961607D01*
X84791071Y-105675892D01*
X84791071Y-105318750D01*
X84719642Y-105033035D01*
X84648214Y-104890178D01*
X84576785Y-104818750D01*
X84433928Y-104747321D01*
X82505357Y-106247321D02*
X83362500Y-106247321D01*
X82933928Y-106247321D02*
X82933928Y-104747321D01*
X83076785Y-104961607D01*
X83219642Y-105104464D01*
X83362500Y-105175892D01*
X81648214Y-105390178D02*
X81791071Y-105318750D01*
X81862500Y-105247321D01*
X81933928Y-105104464D01*
X81933928Y-105033035D01*
X81862500Y-104890178D01*
X81791071Y-104818750D01*
X81648214Y-104747321D01*
X81362500Y-104747321D01*
X81219642Y-104818750D01*
X81148214Y-104890178D01*
X81076785Y-105033035D01*
X81076785Y-105104464D01*
X81148214Y-105247321D01*
X81219642Y-105318750D01*
X81362500Y-105390178D01*
X81648214Y-105390178D01*
X81791071Y-105461607D01*
X81862500Y-105533035D01*
X81933928Y-105675892D01*
X81933928Y-105961607D01*
X81862500Y-106104464D01*
X81791071Y-106175892D01*
X81648214Y-106247321D01*
X81362500Y-106247321D01*
X81219642Y-106175892D01*
X81148214Y-106104464D01*
X81076785Y-105961607D01*
X81076785Y-105675892D01*
X81148214Y-105533035D01*
X81219642Y-105461607D01*
X81362500Y-105390178D01*
X79648214Y-106247321D02*
X80505357Y-106247321D01*
X80076785Y-106247321D02*
X80076785Y-104747321D01*
X80219642Y-104961607D01*
X80362500Y-105104464D01*
X80505357Y-105175892D01*
X78219642Y-106247321D02*
X79076785Y-106247321D01*
X78648214Y-106247321D02*
X78648214Y-104747321D01*
X78791071Y-104961607D01*
X78933928Y-105104464D01*
X79076785Y-105175892D01*
X77648214Y-104890178D02*
X77576785Y-104818750D01*
X77433928Y-104747321D01*
X77076785Y-104747321D01*
X76933928Y-104818750D01*
X76862500Y-104890178D01*
X76791071Y-105033035D01*
X76791071Y-105175892D01*
X76862500Y-105390178D01*
X77719642Y-106247321D01*
X76791071Y-106247321D01*
X75933928Y-105390178D02*
X76076785Y-105318750D01*
X76148214Y-105247321D01*
X76219642Y-105104464D01*
X76219642Y-105033035D01*
X76148214Y-104890178D01*
X76076785Y-104818750D01*
X75933928Y-104747321D01*
X75648214Y-104747321D01*
X75505357Y-104818750D01*
X75433928Y-104890178D01*
X75362500Y-105033035D01*
X75362500Y-105104464D01*
X75433928Y-105247321D01*
X75505357Y-105318750D01*
X75648214Y-105390178D01*
X75933928Y-105390178D01*
X76076785Y-105461607D01*
X76148214Y-105533035D01*
X76219642Y-105675892D01*
X76219642Y-105961607D01*
X76148214Y-106104464D01*
X76076785Y-106175892D01*
X75933928Y-106247321D01*
X75648214Y-106247321D01*
X75505357Y-106175892D01*
X75433928Y-106104464D01*
X75362500Y-105961607D01*
X75362500Y-105675892D01*
X75433928Y-105533035D01*
X75505357Y-105461607D01*
X75648214Y-105390178D01*
X73219642Y-106747321D02*
X73219642Y-104604464D01*
X70148214Y-106104464D02*
X70219642Y-106175892D01*
X70433928Y-106247321D01*
X70576785Y-106247321D01*
X70791071Y-106175892D01*
X70933928Y-106033035D01*
X71005357Y-105890178D01*
X71076785Y-105604464D01*
X71076785Y-105390178D01*
X71005357Y-105104464D01*
X70933928Y-104961607D01*
X70791071Y-104818750D01*
X70576785Y-104747321D01*
X70433928Y-104747321D01*
X70219642Y-104818750D01*
X70148214Y-104890178D01*
X69505357Y-106247321D02*
X69505357Y-105247321D01*
X69505357Y-105533035D02*
X69433928Y-105390178D01*
X69362500Y-105318750D01*
X69219642Y-105247321D01*
X69076785Y-105247321D01*
X68005357Y-106175892D02*
X68148214Y-106247321D01*
X68433928Y-106247321D01*
X68576785Y-106175892D01*
X68648214Y-106033035D01*
X68648214Y-105461607D01*
X68576785Y-105318750D01*
X68433928Y-105247321D01*
X68148214Y-105247321D01*
X68005357Y-105318750D01*
X67933928Y-105461607D01*
X67933928Y-105604464D01*
X68648214Y-105747321D01*
X66648214Y-106247321D02*
X66648214Y-104747321D01*
X66648214Y-106175892D02*
X66791071Y-106247321D01*
X67076785Y-106247321D01*
X67219642Y-106175892D01*
X67291071Y-106104464D01*
X67362500Y-105961607D01*
X67362500Y-105533035D01*
X67291071Y-105390178D01*
X67219642Y-105318750D01*
X67076785Y-105247321D01*
X66791071Y-105247321D01*
X66648214Y-105318750D01*
X65933928Y-106247321D02*
X65933928Y-105247321D01*
X65933928Y-104747321D02*
X66005357Y-104818750D01*
X65933928Y-104890178D01*
X65862500Y-104818750D01*
X65933928Y-104747321D01*
X65933928Y-104890178D01*
X65433928Y-105247321D02*
X64862500Y-105247321D01*
X65219642Y-104747321D02*
X65219642Y-106033035D01*
X65148214Y-106175892D01*
X65005357Y-106247321D01*
X64862500Y-106247321D01*
X64433928Y-106175892D02*
X64291071Y-106247321D01*
X64005357Y-106247321D01*
X63862500Y-106175892D01*
X63791071Y-106033035D01*
X63791071Y-105961607D01*
X63862500Y-105818750D01*
X64005357Y-105747321D01*
X64219642Y-105747321D01*
X64362500Y-105675892D01*
X64433928Y-105533035D01*
X64433928Y-105461607D01*
X64362500Y-105318750D01*
X64219642Y-105247321D01*
X64005357Y-105247321D01*
X63862500Y-105318750D01*
X62219642Y-105247321D02*
X61648214Y-105247321D01*
X62005357Y-104747321D02*
X62005357Y-106033035D01*
X61933928Y-106175892D01*
X61791071Y-106247321D01*
X61648214Y-106247321D01*
X60933928Y-106247321D02*
X61076785Y-106175892D01*
X61148214Y-106104464D01*
X61219642Y-105961607D01*
X61219642Y-105533035D01*
X61148214Y-105390178D01*
X61076785Y-105318750D01*
X60933928Y-105247321D01*
X60719642Y-105247321D01*
X60576785Y-105318750D01*
X60505357Y-105390178D01*
X60433928Y-105533035D01*
X60433928Y-105961607D01*
X60505357Y-106104464D01*
X60576785Y-106175892D01*
X60719642Y-106247321D01*
X60933928Y-106247321D01*
X58005357Y-105247321D02*
X58005357Y-106247321D01*
X58362500Y-104675892D02*
X58719642Y-105747321D01*
X57791071Y-105747321D01*
X56933928Y-104747321D02*
X56791071Y-104747321D01*
X56648214Y-104818750D01*
X56576785Y-104890178D01*
X56505357Y-105033035D01*
X56433928Y-105318750D01*
X56433928Y-105675892D01*
X56505357Y-105961607D01*
X56576785Y-106104464D01*
X56648214Y-106175892D01*
X56791071Y-106247321D01*
X56933928Y-106247321D01*
X57076785Y-106175892D01*
X57148214Y-106104464D01*
X57219642Y-105961607D01*
X57291071Y-105675892D01*
X57291071Y-105318750D01*
X57219642Y-105033035D01*
X57148214Y-104890178D01*
X57076785Y-104818750D01*
X56933928Y-104747321D01*
X55791071Y-105247321D02*
X55791071Y-106747321D01*
X55791071Y-105318750D02*
X55648214Y-105247321D01*
X55362500Y-105247321D01*
X55219642Y-105318750D01*
X55148214Y-105390178D01*
X55076785Y-105533035D01*
X55076785Y-105961607D01*
X55148214Y-106104464D01*
X55219642Y-106175892D01*
X55362500Y-106247321D01*
X55648214Y-106247321D01*
X55791071Y-106175892D01*
X53862500Y-106175892D02*
X54005357Y-106247321D01*
X54291071Y-106247321D01*
X54433928Y-106175892D01*
X54505357Y-106033035D01*
X54505357Y-105461607D01*
X54433928Y-105318750D01*
X54291071Y-105247321D01*
X54005357Y-105247321D01*
X53862500Y-105318750D01*
X53791071Y-105461607D01*
X53791071Y-105604464D01*
X54505357Y-105747321D01*
X53148214Y-106247321D02*
X53148214Y-105247321D01*
X53148214Y-105533035D02*
X53076785Y-105390178D01*
X53005357Y-105318750D01*
X52862500Y-105247321D01*
X52719642Y-105247321D01*
X51576785Y-106175892D02*
X51719642Y-106247321D01*
X52005357Y-106247321D01*
X52148214Y-106175892D01*
X52219642Y-106104464D01*
X52291071Y-105961607D01*
X52291071Y-105533035D01*
X52219642Y-105390178D01*
X52148214Y-105318750D01*
X52005357Y-105247321D01*
X51719642Y-105247321D01*
X51576785Y-105318750D01*
X50362500Y-106175892D02*
X50505357Y-106247321D01*
X50791071Y-106247321D01*
X50933928Y-106175892D01*
X51005357Y-106033035D01*
X51005357Y-105461607D01*
X50933928Y-105318750D01*
X50791071Y-105247321D01*
X50505357Y-105247321D01*
X50362500Y-105318750D01*
X50291071Y-105461607D01*
X50291071Y-105604464D01*
X51005357Y-105747321D01*
X49648214Y-105247321D02*
X49648214Y-106247321D01*
X49648214Y-105390178D02*
X49576785Y-105318750D01*
X49433928Y-105247321D01*
X49219642Y-105247321D01*
X49076785Y-105318750D01*
X49005357Y-105461607D01*
X49005357Y-106247321D01*
X48505357Y-105247321D02*
X47933928Y-105247321D01*
X48291071Y-104747321D02*
X48291071Y-106033035D01*
X48219642Y-106175892D01*
X48076785Y-106247321D01*
X47933928Y-106247321D01*
X47433928Y-106104464D02*
X47362500Y-106175892D01*
X47433928Y-106247321D01*
X47505357Y-106175892D01*
X47433928Y-106104464D01*
X47433928Y-106247321D01*
X46076785Y-106175892D02*
X46219642Y-106247321D01*
X46505357Y-106247321D01*
X46648214Y-106175892D01*
X46719642Y-106104464D01*
X46791071Y-105961607D01*
X46791071Y-105533035D01*
X46719642Y-105390178D01*
X46648214Y-105318750D01*
X46505357Y-105247321D01*
X46219642Y-105247321D01*
X46076785Y-105318750D01*
X45219642Y-106247321D02*
X45362500Y-106175892D01*
X45433928Y-106033035D01*
X45433928Y-104747321D01*
X44005357Y-105247321D02*
X44005357Y-106247321D01*
X44648214Y-105247321D02*
X44648214Y-106033035D01*
X44576785Y-106175892D01*
X44433928Y-106247321D01*
X44219642Y-106247321D01*
X44076785Y-106175892D01*
X44005357Y-106104464D01*
X43291071Y-106247321D02*
X43291071Y-104747321D01*
X43291071Y-105318750D02*
X43148214Y-105247321D01*
X42862500Y-105247321D01*
X42719642Y-105318750D01*
X42648214Y-105390178D01*
X42576785Y-105533035D01*
X42576785Y-105961607D01*
X42648214Y-106104464D01*
X42719642Y-106175892D01*
X42862500Y-106247321D01*
X43148214Y-106247321D01*
X43291071Y-106175892D01*
X41862500Y-104747321D02*
X42005357Y-105033035D01*
X41291071Y-106175892D02*
X41148214Y-106247321D01*
X40862500Y-106247321D01*
X40719642Y-106175892D01*
X40648214Y-106033035D01*
X40648214Y-105961607D01*
X40719642Y-105818750D01*
X40862500Y-105747321D01*
X41076785Y-105747321D01*
X41219642Y-105675892D01*
X41291071Y-105533035D01*
X41291071Y-105461607D01*
X41219642Y-105318750D01*
X41076785Y-105247321D01*
X40862500Y-105247321D01*
X40719642Y-105318750D01*
X38076785Y-104818750D02*
X38219642Y-104747321D01*
X38433928Y-104747321D01*
X38648214Y-104818750D01*
X38791071Y-104961607D01*
X38862500Y-105104464D01*
X38933928Y-105390178D01*
X38933928Y-105604464D01*
X38862500Y-105890178D01*
X38791071Y-106033035D01*
X38648214Y-106175892D01*
X38433928Y-106247321D01*
X38291071Y-106247321D01*
X38076785Y-106175892D01*
X38005357Y-106104464D01*
X38005357Y-105604464D01*
X38291071Y-105604464D01*
X37362500Y-105247321D02*
X37362500Y-106247321D01*
X37362500Y-105390178D02*
X37291071Y-105318750D01*
X37148214Y-105247321D01*
X36933928Y-105247321D01*
X36791071Y-105318750D01*
X36719642Y-105461607D01*
X36719642Y-106247321D01*
X35362500Y-106247321D02*
X35362500Y-105461607D01*
X35433928Y-105318750D01*
X35576785Y-105247321D01*
X35862500Y-105247321D01*
X36005357Y-105318750D01*
X35362500Y-106175892D02*
X35505357Y-106247321D01*
X35862500Y-106247321D01*
X36005357Y-106175892D01*
X36076785Y-106033035D01*
X36076785Y-105890178D01*
X36005357Y-105747321D01*
X35862500Y-105675892D01*
X35505357Y-105675892D01*
X35362500Y-105604464D01*
X34648214Y-105247321D02*
X34648214Y-106747321D01*
X34648214Y-105318750D02*
X34505357Y-105247321D01*
X34219642Y-105247321D01*
X34076785Y-105318750D01*
X34005357Y-105390178D01*
X33933928Y-105533035D01*
X33933928Y-105961607D01*
X34005357Y-106104464D01*
X34076785Y-106175892D01*
X34219642Y-106247321D01*
X34505357Y-106247321D01*
X34648214Y-106175892D01*
D11*
G36*
X264922000Y-102108000D02*
X265326812Y-102108000D01*
X265326812Y-101703188D01*
X264922000Y-101703188D01*
X264922000Y-102108000D01*
X264922000Y-102108000D01*
G37*
X264922000Y-102108000D02*
X265326812Y-102108000D01*
X265326812Y-101703188D01*
X264922000Y-101703188D01*
X264922000Y-102108000D01*
G36*
X264517187Y-102893813D02*
X264922000Y-102893813D01*
X264922000Y-102512813D01*
X264517187Y-102512813D01*
X264517187Y-102893813D01*
X264517187Y-102893813D01*
G37*
X264517187Y-102893813D02*
X264922000Y-102893813D01*
X264922000Y-102512813D01*
X264517187Y-102512813D01*
X264517187Y-102893813D01*
G36*
X265326812Y-102893813D02*
X265707812Y-102893813D01*
X265707812Y-102512813D01*
X265326812Y-102512813D01*
X265326812Y-102893813D01*
X265326812Y-102893813D01*
G37*
X265326812Y-102893813D02*
X265707812Y-102893813D01*
X265707812Y-102512813D01*
X265326812Y-102512813D01*
X265326812Y-102893813D01*
G36*
X264136187Y-103703438D02*
X264517187Y-103703438D01*
X264517187Y-103298625D01*
X264136187Y-103298625D01*
X264136187Y-103703438D01*
X264136187Y-103703438D01*
G37*
X264136187Y-103703438D02*
X264517187Y-103703438D01*
X264517187Y-103298625D01*
X264136187Y-103298625D01*
X264136187Y-103703438D01*
G36*
X264922000Y-103703438D02*
X265326812Y-103703438D01*
X265326812Y-103298625D01*
X264922000Y-103298625D01*
X264922000Y-103703438D01*
X264922000Y-103703438D01*
G37*
X264922000Y-103703438D02*
X265326812Y-103703438D01*
X265326812Y-103298625D01*
X264922000Y-103298625D01*
X264922000Y-103703438D01*
G36*
X265707812Y-103703438D02*
X266112625Y-103703438D01*
X266112625Y-103298625D01*
X265707812Y-103298625D01*
X265707812Y-103703438D01*
X265707812Y-103703438D01*
G37*
X265707812Y-103703438D02*
X266112625Y-103703438D01*
X266112625Y-103298625D01*
X265707812Y-103298625D01*
X265707812Y-103703438D01*
G36*
X263731375Y-104489250D02*
X264136187Y-104489250D01*
X264136187Y-104084438D01*
X263731375Y-104084438D01*
X263731375Y-104489250D01*
X263731375Y-104489250D01*
G37*
X263731375Y-104489250D02*
X264136187Y-104489250D01*
X264136187Y-104084438D01*
X263731375Y-104084438D01*
X263731375Y-104489250D01*
G36*
X266112625Y-104489250D02*
X266517437Y-104489250D01*
X266517437Y-104084438D01*
X266112625Y-104084438D01*
X266112625Y-104489250D01*
X266112625Y-104489250D01*
G37*
X266112625Y-104489250D02*
X266517437Y-104489250D01*
X266517437Y-104084438D01*
X266112625Y-104084438D01*
X266112625Y-104489250D01*
G36*
X265108531Y-100215545D02*
X264984413Y-100216915D01*
X264872701Y-100221072D01*
X264770108Y-100228419D01*
X264673344Y-100239360D01*
X264579122Y-100254298D01*
X264484153Y-100273637D01*
X264385149Y-100297781D01*
X264339870Y-100309918D01*
X264131323Y-100375156D01*
X263929235Y-100454492D01*
X263734372Y-100547528D01*
X263547501Y-100653868D01*
X263369386Y-100773116D01*
X263217240Y-100891117D01*
X263059572Y-101031842D01*
X262912235Y-101183287D01*
X262775914Y-101344385D01*
X262651292Y-101514067D01*
X262539053Y-101691266D01*
X262439880Y-101874916D01*
X262354458Y-102063947D01*
X262283470Y-102257293D01*
X262234716Y-102425303D01*
X262201645Y-102565289D01*
X262176285Y-102697225D01*
X262157893Y-102826497D01*
X262145725Y-102958493D01*
X262139039Y-103098600D01*
X262138386Y-103124000D01*
X262141105Y-103342297D01*
X262159300Y-103557080D01*
X262192965Y-103768321D01*
X262242094Y-103975989D01*
X262306681Y-104180055D01*
X262370878Y-104343987D01*
X262398961Y-104409252D01*
X262423023Y-104463410D01*
X262444892Y-104510113D01*
X262466393Y-104553013D01*
X262489354Y-104595763D01*
X262515600Y-104642015D01*
X262544725Y-104691656D01*
X262663944Y-104877927D01*
X262794048Y-105052653D01*
X262935171Y-105215965D01*
X263087445Y-105367996D01*
X263251003Y-105508880D01*
X263425976Y-105638748D01*
X263608344Y-105755275D01*
X263661173Y-105786244D01*
X263707086Y-105812221D01*
X263749735Y-105835031D01*
X263792772Y-105856501D01*
X263839849Y-105878457D01*
X263894619Y-105902725D01*
X263956013Y-105929122D01*
X264052246Y-105968669D01*
X264140964Y-106001708D01*
X264228078Y-106030195D01*
X264319502Y-106056089D01*
X264402094Y-106076822D01*
X264566610Y-106112376D01*
X264723705Y-106138053D01*
X264877933Y-106154393D01*
X265033851Y-106161936D01*
X265124406Y-106162513D01*
X265175625Y-106161998D01*
X265223746Y-106161293D01*
X265265626Y-106160460D01*
X265298122Y-106159563D01*
X265318090Y-106158665D01*
X265318875Y-106158609D01*
X265535049Y-106134657D01*
X265747806Y-106095670D01*
X265956287Y-106041967D01*
X266159632Y-105973863D01*
X266356984Y-105891676D01*
X266547482Y-105795725D01*
X266730268Y-105686326D01*
X266881224Y-105581296D01*
X267054151Y-105442949D01*
X267214835Y-105294588D01*
X267363049Y-105136539D01*
X267498571Y-104969132D01*
X267621176Y-104792694D01*
X267730639Y-104607552D01*
X267826737Y-104414035D01*
X267909244Y-104212471D01*
X267977937Y-104003188D01*
X267990082Y-103960130D01*
X268016448Y-103858335D01*
X268037833Y-103762011D01*
X268054641Y-103667867D01*
X268067275Y-103572617D01*
X268076140Y-103472970D01*
X268081638Y-103365640D01*
X268084174Y-103247336D01*
X268084455Y-103191469D01*
X268083780Y-103136108D01*
X267551706Y-103136108D01*
X267551603Y-103216246D01*
X267549937Y-103295910D01*
X267546741Y-103371037D01*
X267542044Y-103437560D01*
X267538324Y-103473250D01*
X267506450Y-103670548D01*
X267459799Y-103862163D01*
X267398549Y-104047722D01*
X267322881Y-104226849D01*
X267232973Y-104399169D01*
X267129006Y-104564309D01*
X267011159Y-104721893D01*
X266879612Y-104871547D01*
X266857276Y-104894760D01*
X266723042Y-105021834D01*
X266577340Y-105139770D01*
X266422869Y-105246590D01*
X266262331Y-105340316D01*
X266216542Y-105364004D01*
X266142134Y-105400653D01*
X266076893Y-105430872D01*
X266016396Y-105456440D01*
X265956222Y-105479134D01*
X265891949Y-105500733D01*
X265826875Y-105520727D01*
X265637662Y-105570140D01*
X265451911Y-105604591D01*
X265268173Y-105624214D01*
X265084997Y-105629142D01*
X264900936Y-105619511D01*
X264834394Y-105612531D01*
X264647062Y-105583587D01*
X264467481Y-105541778D01*
X264293143Y-105486354D01*
X264121541Y-105416564D01*
X264024584Y-105370366D01*
X263853952Y-105276947D01*
X263694536Y-105173212D01*
X263545578Y-105058474D01*
X263406321Y-104932050D01*
X263276006Y-104793254D01*
X263153876Y-104641403D01*
X263045608Y-104485759D01*
X263020482Y-104444568D01*
X262991159Y-104392440D01*
X262959459Y-104332996D01*
X262927201Y-104269856D01*
X262896207Y-104206640D01*
X262868294Y-104146967D01*
X262845285Y-104094457D01*
X262831847Y-104060625D01*
X262768980Y-103869084D01*
X262721584Y-103676345D01*
X262689700Y-103482950D01*
X262673370Y-103289440D01*
X262672632Y-103096357D01*
X262687528Y-102904242D01*
X262718098Y-102713636D01*
X262727901Y-102667594D01*
X262761550Y-102531301D01*
X262799858Y-102405118D01*
X262844796Y-102283507D01*
X262898337Y-102160932D01*
X262935996Y-102083458D01*
X263029701Y-101914610D01*
X263136526Y-101754173D01*
X263255702Y-101602868D01*
X263386463Y-101461414D01*
X263528040Y-101330531D01*
X263679666Y-101210940D01*
X263840573Y-101103360D01*
X264009993Y-101008511D01*
X264154175Y-100940980D01*
X264325803Y-100874585D01*
X264498357Y-100822587D01*
X264673844Y-100784578D01*
X264854274Y-100760151D01*
X265041655Y-100748897D01*
X265104562Y-100748007D01*
X265302657Y-100754377D01*
X265494285Y-100775022D01*
X265680219Y-100810173D01*
X265861235Y-100860067D01*
X266038106Y-100924935D01*
X266211606Y-101005013D01*
X266382509Y-101100535D01*
X266483206Y-101164744D01*
X266622639Y-101266272D01*
X266756837Y-101380778D01*
X266884159Y-101506339D01*
X267002965Y-101641031D01*
X267111614Y-101782931D01*
X267208465Y-101930115D01*
X267291878Y-102080661D01*
X267326674Y-102153580D01*
X267388077Y-102298439D01*
X267438308Y-102437678D01*
X267478565Y-102575626D01*
X267510044Y-102716614D01*
X267533944Y-102864971D01*
X267542345Y-102933500D01*
X267547108Y-102990670D01*
X267550218Y-103059561D01*
X267551706Y-103136108D01*
X268083780Y-103136108D01*
X268082710Y-103048473D01*
X268076836Y-102917606D01*
X268066262Y-102795525D01*
X268050415Y-102678885D01*
X268028723Y-102564344D01*
X268000613Y-102448559D01*
X267965514Y-102328187D01*
X267922853Y-102199884D01*
X267907159Y-102155625D01*
X267828774Y-101960906D01*
X267735934Y-101772572D01*
X267628828Y-101590885D01*
X267507648Y-101416108D01*
X267372583Y-101248503D01*
X267223826Y-101088333D01*
X267061567Y-100935860D01*
X266954729Y-100845679D01*
X266868900Y-100780186D01*
X266771361Y-100712860D01*
X266665752Y-100645912D01*
X266555714Y-100581555D01*
X266444887Y-100522000D01*
X266336911Y-100469458D01*
X266330906Y-100466715D01*
X266260946Y-100436842D01*
X266179765Y-100405456D01*
X266091733Y-100374036D01*
X266001221Y-100344062D01*
X265912599Y-100317011D01*
X265830236Y-100294364D01*
X265798350Y-100286471D01*
X265705125Y-100265703D01*
X265616151Y-100249043D01*
X265528147Y-100236152D01*
X265437831Y-100226695D01*
X265341922Y-100220332D01*
X265237140Y-100216728D01*
X265120205Y-100215544D01*
X265108531Y-100215545D01*
X265108531Y-100215545D01*
G37*
X265108531Y-100215545D02*
X264984413Y-100216915D01*
X264872701Y-100221072D01*
X264770108Y-100228419D01*
X264673344Y-100239360D01*
X264579122Y-100254298D01*
X264484153Y-100273637D01*
X264385149Y-100297781D01*
X264339870Y-100309918D01*
X264131323Y-100375156D01*
X263929235Y-100454492D01*
X263734372Y-100547528D01*
X263547501Y-100653868D01*
X263369386Y-100773116D01*
X263217240Y-100891117D01*
X263059572Y-101031842D01*
X262912235Y-101183287D01*
X262775914Y-101344385D01*
X262651292Y-101514067D01*
X262539053Y-101691266D01*
X262439880Y-101874916D01*
X262354458Y-102063947D01*
X262283470Y-102257293D01*
X262234716Y-102425303D01*
X262201645Y-102565289D01*
X262176285Y-102697225D01*
X262157893Y-102826497D01*
X262145725Y-102958493D01*
X262139039Y-103098600D01*
X262138386Y-103124000D01*
X262141105Y-103342297D01*
X262159300Y-103557080D01*
X262192965Y-103768321D01*
X262242094Y-103975989D01*
X262306681Y-104180055D01*
X262370878Y-104343987D01*
X262398961Y-104409252D01*
X262423023Y-104463410D01*
X262444892Y-104510113D01*
X262466393Y-104553013D01*
X262489354Y-104595763D01*
X262515600Y-104642015D01*
X262544725Y-104691656D01*
X262663944Y-104877927D01*
X262794048Y-105052653D01*
X262935171Y-105215965D01*
X263087445Y-105367996D01*
X263251003Y-105508880D01*
X263425976Y-105638748D01*
X263608344Y-105755275D01*
X263661173Y-105786244D01*
X263707086Y-105812221D01*
X263749735Y-105835031D01*
X263792772Y-105856501D01*
X263839849Y-105878457D01*
X263894619Y-105902725D01*
X263956013Y-105929122D01*
X264052246Y-105968669D01*
X264140964Y-106001708D01*
X264228078Y-106030195D01*
X264319502Y-106056089D01*
X264402094Y-106076822D01*
X264566610Y-106112376D01*
X264723705Y-106138053D01*
X264877933Y-106154393D01*
X265033851Y-106161936D01*
X265124406Y-106162513D01*
X265175625Y-106161998D01*
X265223746Y-106161293D01*
X265265626Y-106160460D01*
X265298122Y-106159563D01*
X265318090Y-106158665D01*
X265318875Y-106158609D01*
X265535049Y-106134657D01*
X265747806Y-106095670D01*
X265956287Y-106041967D01*
X266159632Y-105973863D01*
X266356984Y-105891676D01*
X266547482Y-105795725D01*
X266730268Y-105686326D01*
X266881224Y-105581296D01*
X267054151Y-105442949D01*
X267214835Y-105294588D01*
X267363049Y-105136539D01*
X267498571Y-104969132D01*
X267621176Y-104792694D01*
X267730639Y-104607552D01*
X267826737Y-104414035D01*
X267909244Y-104212471D01*
X267977937Y-104003188D01*
X267990082Y-103960130D01*
X268016448Y-103858335D01*
X268037833Y-103762011D01*
X268054641Y-103667867D01*
X268067275Y-103572617D01*
X268076140Y-103472970D01*
X268081638Y-103365640D01*
X268084174Y-103247336D01*
X268084455Y-103191469D01*
X268083780Y-103136108D01*
X267551706Y-103136108D01*
X267551603Y-103216246D01*
X267549937Y-103295910D01*
X267546741Y-103371037D01*
X267542044Y-103437560D01*
X267538324Y-103473250D01*
X267506450Y-103670548D01*
X267459799Y-103862163D01*
X267398549Y-104047722D01*
X267322881Y-104226849D01*
X267232973Y-104399169D01*
X267129006Y-104564309D01*
X267011159Y-104721893D01*
X266879612Y-104871547D01*
X266857276Y-104894760D01*
X266723042Y-105021834D01*
X266577340Y-105139770D01*
X266422869Y-105246590D01*
X266262331Y-105340316D01*
X266216542Y-105364004D01*
X266142134Y-105400653D01*
X266076893Y-105430872D01*
X266016396Y-105456440D01*
X265956222Y-105479134D01*
X265891949Y-105500733D01*
X265826875Y-105520727D01*
X265637662Y-105570140D01*
X265451911Y-105604591D01*
X265268173Y-105624214D01*
X265084997Y-105629142D01*
X264900936Y-105619511D01*
X264834394Y-105612531D01*
X264647062Y-105583587D01*
X264467481Y-105541778D01*
X264293143Y-105486354D01*
X264121541Y-105416564D01*
X264024584Y-105370366D01*
X263853952Y-105276947D01*
X263694536Y-105173212D01*
X263545578Y-105058474D01*
X263406321Y-104932050D01*
X263276006Y-104793254D01*
X263153876Y-104641403D01*
X263045608Y-104485759D01*
X263020482Y-104444568D01*
X262991159Y-104392440D01*
X262959459Y-104332996D01*
X262927201Y-104269856D01*
X262896207Y-104206640D01*
X262868294Y-104146967D01*
X262845285Y-104094457D01*
X262831847Y-104060625D01*
X262768980Y-103869084D01*
X262721584Y-103676345D01*
X262689700Y-103482950D01*
X262673370Y-103289440D01*
X262672632Y-103096357D01*
X262687528Y-102904242D01*
X262718098Y-102713636D01*
X262727901Y-102667594D01*
X262761550Y-102531301D01*
X262799858Y-102405118D01*
X262844796Y-102283507D01*
X262898337Y-102160932D01*
X262935996Y-102083458D01*
X263029701Y-101914610D01*
X263136526Y-101754173D01*
X263255702Y-101602868D01*
X263386463Y-101461414D01*
X263528040Y-101330531D01*
X263679666Y-101210940D01*
X263840573Y-101103360D01*
X264009993Y-101008511D01*
X264154175Y-100940980D01*
X264325803Y-100874585D01*
X264498357Y-100822587D01*
X264673844Y-100784578D01*
X264854274Y-100760151D01*
X265041655Y-100748897D01*
X265104562Y-100748007D01*
X265302657Y-100754377D01*
X265494285Y-100775022D01*
X265680219Y-100810173D01*
X265861235Y-100860067D01*
X266038106Y-100924935D01*
X266211606Y-101005013D01*
X266382509Y-101100535D01*
X266483206Y-101164744D01*
X266622639Y-101266272D01*
X266756837Y-101380778D01*
X266884159Y-101506339D01*
X267002965Y-101641031D01*
X267111614Y-101782931D01*
X267208465Y-101930115D01*
X267291878Y-102080661D01*
X267326674Y-102153580D01*
X267388077Y-102298439D01*
X267438308Y-102437678D01*
X267478565Y-102575626D01*
X267510044Y-102716614D01*
X267533944Y-102864971D01*
X267542345Y-102933500D01*
X267547108Y-102990670D01*
X267550218Y-103059561D01*
X267551706Y-103136108D01*
X268083780Y-103136108D01*
X268082710Y-103048473D01*
X268076836Y-102917606D01*
X268066262Y-102795525D01*
X268050415Y-102678885D01*
X268028723Y-102564344D01*
X268000613Y-102448559D01*
X267965514Y-102328187D01*
X267922853Y-102199884D01*
X267907159Y-102155625D01*
X267828774Y-101960906D01*
X267735934Y-101772572D01*
X267628828Y-101590885D01*
X267507648Y-101416108D01*
X267372583Y-101248503D01*
X267223826Y-101088333D01*
X267061567Y-100935860D01*
X266954729Y-100845679D01*
X266868900Y-100780186D01*
X266771361Y-100712860D01*
X266665752Y-100645912D01*
X266555714Y-100581555D01*
X266444887Y-100522000D01*
X266336911Y-100469458D01*
X266330906Y-100466715D01*
X266260946Y-100436842D01*
X266179765Y-100405456D01*
X266091733Y-100374036D01*
X266001221Y-100344062D01*
X265912599Y-100317011D01*
X265830236Y-100294364D01*
X265798350Y-100286471D01*
X265705125Y-100265703D01*
X265616151Y-100249043D01*
X265528147Y-100236152D01*
X265437831Y-100226695D01*
X265341922Y-100220332D01*
X265237140Y-100216728D01*
X265120205Y-100215544D01*
X265108531Y-100215545D01*
D12*
X49212500Y-42925000D03*
X49212500Y-39625000D03*
X68262500Y-42925000D03*
X68262500Y-39625000D03*
X87312500Y-42925000D03*
X87312500Y-39625000D03*
X106362500Y-42925000D03*
X106362500Y-39625000D03*
X125412500Y-42925000D03*
X125412500Y-39625000D03*
X144462500Y-42925000D03*
X144462500Y-39625000D03*
X163512500Y-42925000D03*
X163512500Y-39625000D03*
X182562500Y-42925000D03*
X182562500Y-39625000D03*
X201612500Y-42925000D03*
X201612500Y-39625000D03*
X220662500Y-42925000D03*
X220662500Y-39625000D03*
X223837500Y-42006250D03*
X223837500Y-45306250D03*
X263525000Y-40543750D03*
X263525000Y-37243750D03*
X51593750Y-61975000D03*
X51593750Y-58675000D03*
X73025000Y-61975000D03*
X73025000Y-58675000D03*
X92075000Y-61975000D03*
X92075000Y-58675000D03*
X111125000Y-61975000D03*
X111125000Y-58675000D03*
X130175000Y-61975000D03*
X130175000Y-58675000D03*
X149225000Y-61975000D03*
X149225000Y-58675000D03*
X168275000Y-61975000D03*
X168275000Y-58675000D03*
X187325000Y-61975000D03*
X187325000Y-58675000D03*
X206375000Y-61975000D03*
X206375000Y-58675000D03*
X225425000Y-61975000D03*
X225425000Y-58675000D03*
X228600000Y-64356250D03*
X228600000Y-61056250D03*
X265906250Y-61975000D03*
X265906250Y-58675000D03*
X53975000Y-81025000D03*
X53975000Y-77725000D03*
X77787500Y-81025000D03*
X77787500Y-77725000D03*
X96837500Y-81025000D03*
X96837500Y-77725000D03*
X115887500Y-81025000D03*
X115887500Y-77725000D03*
X134937500Y-81025000D03*
X134937500Y-77725000D03*
X153987500Y-81025000D03*
X153987500Y-77725000D03*
X173037500Y-81025000D03*
X173037500Y-77725000D03*
X192087500Y-81025000D03*
X192087500Y-77725000D03*
X211137500Y-81025000D03*
X211137500Y-77725000D03*
X230187500Y-81025000D03*
X230187500Y-77725000D03*
X249237500Y-81025000D03*
X249237500Y-77725000D03*
X260350000Y-86581250D03*
X260350000Y-83281250D03*
X49212500Y-100075000D03*
X49212500Y-96775000D03*
X68262500Y-100075000D03*
X68262500Y-96775000D03*
X87312500Y-100075000D03*
X87312500Y-96775000D03*
X106362500Y-100075000D03*
X106362500Y-96775000D03*
X127793750Y-100075000D03*
X127793750Y-96775000D03*
X158750000Y-100075000D03*
X158750000Y-96775000D03*
X189706250Y-100075000D03*
X189706250Y-96775000D03*
X211137500Y-100075000D03*
X211137500Y-96775000D03*
X230187500Y-100075000D03*
X230187500Y-96775000D03*
X249237500Y-100075000D03*
X249237500Y-96775000D03*
X252412500Y-102456250D03*
X252412500Y-99156250D03*
D13*
X47117000Y-36195000D03*
X34190000Y-38735000D03*
X66167000Y-36195000D03*
X53240000Y-38735000D03*
X85217000Y-36195000D03*
X72290000Y-38735000D03*
X104267000Y-36195000D03*
X91340000Y-38735000D03*
X123317000Y-36195000D03*
X110390000Y-38735000D03*
X142367000Y-36195000D03*
X129440000Y-38735000D03*
X161417000Y-36195000D03*
X148490000Y-38735000D03*
X180467000Y-36195000D03*
X167540000Y-38735000D03*
X199517000Y-36195000D03*
X186590000Y-38735000D03*
X218567000Y-36195000D03*
X205640000Y-38735000D03*
X237617000Y-36195000D03*
X224690000Y-38735000D03*
X70929500Y-55245000D03*
X58002500Y-57785000D03*
X89979500Y-55245000D03*
X77052500Y-57785000D03*
X109029500Y-55245000D03*
X96102500Y-57785000D03*
X128079500Y-55245000D03*
X115152500Y-57785000D03*
X147129500Y-55245000D03*
X134202500Y-57785000D03*
X166179500Y-55245000D03*
X153252500Y-57785000D03*
X185229500Y-55245000D03*
X172302500Y-57785000D03*
X204279500Y-55245000D03*
X191352500Y-57785000D03*
X223329500Y-55245000D03*
X210402500Y-57785000D03*
X242379500Y-55245000D03*
X229452500Y-57785000D03*
X75692000Y-74295000D03*
X62765000Y-76835000D03*
X94742000Y-74295000D03*
X81815000Y-76835000D03*
X113792000Y-74295000D03*
X100865000Y-76835000D03*
X132842000Y-74295000D03*
X119915000Y-76835000D03*
X151892000Y-74295000D03*
X138965000Y-76835000D03*
X170942000Y-74295000D03*
X158015000Y-76835000D03*
X189992000Y-74295000D03*
X177065000Y-76835000D03*
X209042000Y-74295000D03*
X196115000Y-76835000D03*
X228092000Y-74295000D03*
X215165000Y-76835000D03*
X247142000Y-74295000D03*
X234215000Y-76835000D03*
X266192000Y-74295000D03*
X253265000Y-76835000D03*
X47117000Y-93345000D03*
X34190000Y-95885000D03*
X66167000Y-93345000D03*
X53240000Y-95885000D03*
X85217000Y-93345000D03*
X72290000Y-95885000D03*
X104267000Y-93345000D03*
X91340000Y-95885000D03*
X209042000Y-93345000D03*
X196115000Y-95885000D03*
X228092000Y-93345000D03*
X215165000Y-95885000D03*
X247142000Y-93345000D03*
X234215000Y-95885000D03*
X266192000Y-93345000D03*
X253265000Y-95885000D03*
D14*
X239693750Y-47562500D03*
X239693750Y-50862500D03*
X244493750Y-50862500D03*
X244493750Y-47562500D03*
X181750000Y-47562500D03*
X181750000Y-50862500D03*
X186550000Y-50862500D03*
X186550000Y-47562500D03*
X115075000Y-47562500D03*
X115075000Y-50862500D03*
X119875000Y-50862500D03*
X119875000Y-47562500D03*
X48400000Y-47562500D03*
X48400000Y-50862500D03*
X53200000Y-50862500D03*
X53200000Y-47562500D03*
X48400000Y-85662500D03*
X48400000Y-88962500D03*
X53200000Y-88962500D03*
X53200000Y-85662500D03*
X115075000Y-85662500D03*
X115075000Y-88962500D03*
X119875000Y-88962500D03*
X119875000Y-85662500D03*
X181750000Y-85662500D03*
X181750000Y-88962500D03*
X186550000Y-88962500D03*
X186550000Y-85662500D03*
X248425000Y-85662500D03*
X248425000Y-88962500D03*
X253225000Y-88962500D03*
X253225000Y-85662500D03*
D15*
X234875000Y-89162500D03*
X228675000Y-85462500D03*
X234875000Y-85462500D03*
X228675000Y-89162500D03*
D16*
X247570500Y-41287000D03*
D17*
X245570500Y-41087000D03*
X247570500Y-42987000D03*
X245570500Y-42987000D03*
D18*
X249255750Y-37857500D03*
X242805750Y-37857500D03*
X248480750Y-37857500D03*
X243580750Y-37857500D03*
D19*
X244280750Y-37857500D03*
X247780750Y-37857500D03*
X244780750Y-37857500D03*
X247280750Y-37857500D03*
X245280750Y-37857500D03*
X246780750Y-37857500D03*
X246280750Y-37857500D03*
X245780750Y-37857500D03*
D20*
X241710750Y-36942500D03*
X250350750Y-36942500D03*
D21*
X241710750Y-32762500D03*
X250350750Y-32762500D03*
D22*
X251738500Y-63797000D03*
X251738500Y-65997000D03*
X250038500Y-65997000D03*
X250038500Y-63797000D03*
D13*
X249745500Y-46355000D03*
X262672500Y-43815000D03*
X49498250Y-55245000D03*
X36571250Y-57785000D03*
X263810750Y-55245000D03*
X250883750Y-57785000D03*
X51879500Y-74295000D03*
X38952500Y-76835000D03*
X125698250Y-93345000D03*
X112771250Y-95885000D03*
X187610750Y-93345000D03*
X174683750Y-95885000D03*
X156654500Y-93345000D03*
X143727500Y-95885000D03*
D23*
X254424750Y-63817500D03*
X255924750Y-63817500D03*
X255924750Y-65976500D03*
X254424750Y-65976500D03*
X237351000Y-63500000D03*
X235851000Y-63500000D03*
D24*
X245237000Y-59829000D03*
X245237000Y-61329000D03*
D23*
X249059000Y-69088000D03*
X250559000Y-69088000D03*
D24*
X247650000Y-59829000D03*
X247650000Y-61329000D03*
D23*
X241343750Y-45243750D03*
X242843750Y-45243750D03*
X184900000Y-45243750D03*
X183400000Y-45243750D03*
X116725000Y-45243750D03*
X118225000Y-45243750D03*
X51550000Y-45243750D03*
X50050000Y-45243750D03*
X50050000Y-83343750D03*
X51550000Y-83343750D03*
X118225000Y-83343750D03*
X116725000Y-83343750D03*
X183400000Y-83343750D03*
X184900000Y-83343750D03*
X251575000Y-83343750D03*
X250075000Y-83343750D03*
D25*
X237351000Y-65913000D03*
X235851000Y-65913000D03*
X245947500Y-56737250D03*
X247447500Y-56737250D03*
X245947500Y-54451250D03*
X247447500Y-54451250D03*
D26*
X253206250Y-37262500D03*
X253206250Y-35762500D03*
D25*
X241058000Y-70739000D03*
X242558000Y-70739000D03*
D26*
X242093750Y-41318750D03*
X242093750Y-42818750D03*
D27*
X244448500Y-65050500D03*
X244448500Y-66775500D03*
X242723500Y-65050500D03*
X242723500Y-66775500D03*
D28*
X245336000Y-63513000D03*
X244836000Y-63513000D03*
X244336000Y-63513000D03*
X243836000Y-63513000D03*
X243336000Y-63513000D03*
X242836000Y-63513000D03*
X242336000Y-63513000D03*
X241836000Y-63513000D03*
D29*
X241186000Y-64163000D03*
X241186000Y-64663000D03*
X241186000Y-65163000D03*
X241186000Y-65663000D03*
X241186000Y-66163000D03*
X241186000Y-66663000D03*
X241186000Y-67163000D03*
X241186000Y-67663000D03*
D28*
X241836000Y-68313000D03*
X242336000Y-68313000D03*
X242836000Y-68313000D03*
X243336000Y-68313000D03*
X243836000Y-68313000D03*
X244336000Y-68313000D03*
X244836000Y-68313000D03*
X245336000Y-68313000D03*
D29*
X245986000Y-67663000D03*
X245986000Y-67163000D03*
X245986000Y-66663000D03*
X245986000Y-66163000D03*
X245986000Y-65663000D03*
X245986000Y-65163000D03*
X245986000Y-64663000D03*
X245986000Y-64163000D03*
D30*
X236023000Y-46355000D03*
X233623000Y-46355000D03*
D31*
X242951000Y-61722000D03*
X240030000Y-71120000D03*
X234569000Y-63500000D03*
X245110000Y-58674000D03*
X240030000Y-45212000D03*
X249555000Y-42799000D03*
X115443000Y-83312000D03*
X113411000Y-88900000D03*
X182118000Y-83312000D03*
X179959000Y-88900000D03*
X248793000Y-83312000D03*
X246634000Y-88900000D03*
X115316000Y-45212000D03*
X113284000Y-50800000D03*
X48768000Y-45212000D03*
X46609000Y-50800000D03*
X182118000Y-45212000D03*
X179959000Y-50800000D03*
X237871000Y-50800000D03*
X220980000Y-50292000D03*
X226187000Y-85471000D03*
X247650000Y-58547000D03*
X246380000Y-60833000D03*
X229108000Y-82550000D03*
X220218000Y-48260000D03*
X234696000Y-65913000D03*
X247650000Y-69088000D03*
X236601000Y-48260000D03*
X248793000Y-44069000D03*
X239903000Y-43307000D03*
X259334000Y-70866000D03*
X261747000Y-39243000D03*
X245872000Y-70612000D03*
X251079000Y-81534000D03*
X244983000Y-70612000D03*
X250317000Y-102235000D03*
X248729500Y-40386000D03*
X243649500Y-40386000D03*
X138938000Y-74676000D03*
X143764000Y-93726000D03*
X134239000Y-55626000D03*
X129413000Y-36576000D03*
X38989000Y-74676000D03*
X34163000Y-93726000D03*
X36576000Y-55626000D03*
X34163000Y-36576000D03*
X62738000Y-74676000D03*
X53213000Y-93726000D03*
X58039000Y-55626000D03*
X53213000Y-36576000D03*
X81788000Y-74676000D03*
X72263000Y-93726000D03*
X77089000Y-55626000D03*
X72263000Y-36576000D03*
X100838000Y-74676000D03*
X91313000Y-93726000D03*
X96139000Y-55626000D03*
X91313000Y-36576000D03*
X119888000Y-74676000D03*
X112776000Y-93726000D03*
X115189000Y-55626000D03*
X110363000Y-36576000D03*
X157988000Y-74676000D03*
X153289000Y-55626000D03*
X148463000Y-36576000D03*
X177038000Y-74676000D03*
X174752000Y-93726000D03*
X172339000Y-55626000D03*
X167513000Y-36576000D03*
X236982000Y-85471000D03*
X232791000Y-67056000D03*
X240030000Y-65024000D03*
X235585000Y-48895000D03*
X50800000Y-50927000D03*
X46609000Y-85598000D03*
X196088000Y-74676000D03*
X196088000Y-93726000D03*
X191389000Y-55626000D03*
X186563000Y-36576000D03*
X215138000Y-74676000D03*
X215138000Y-93726000D03*
X210439000Y-55626000D03*
X205613000Y-36576000D03*
X234188000Y-74676000D03*
X234188000Y-93726000D03*
X229489000Y-55626000D03*
X224663000Y-36576000D03*
X253238000Y-93726000D03*
X253238000Y-74676000D03*
X250825000Y-55626000D03*
X262636000Y-45974000D03*
X248539000Y-56769000D03*
X246126000Y-44831000D03*
X248539000Y-54483000D03*
X247015000Y-44831000D03*
X247586500Y-39624000D03*
X253238000Y-38354000D03*
X244665500Y-39624000D03*
X240792000Y-42799000D03*
D32*
X251759000Y-63817500D02*
X251738500Y-63797000D01*
X254424750Y-63817500D02*
X251759000Y-63817500D01*
X247269000Y-64163000D02*
X245986000Y-64163000D01*
X248948000Y-62484000D02*
X247269000Y-64163000D01*
X250952000Y-62484000D02*
X248948000Y-62484000D01*
X251738500Y-63270500D02*
X250952000Y-62484000D01*
X251738500Y-63797000D02*
X251738500Y-63270500D01*
X249435750Y-37857500D02*
X250350750Y-36942500D01*
X249255750Y-37857500D02*
X249435750Y-37857500D01*
D33*
X250350750Y-36942500D02*
X250350750Y-32762500D01*
X250350750Y-32762500D02*
X241710750Y-32762500D01*
X241710750Y-32762500D02*
X241710750Y-36942500D01*
X242625750Y-37857500D02*
X241710750Y-36942500D01*
X242805750Y-37857500D02*
X242625750Y-37857500D01*
X250038500Y-63797000D02*
X250038500Y-64047000D01*
X251738500Y-65747000D02*
X251738500Y-65997000D01*
D34*
X250038500Y-64047000D02*
X251738500Y-65747000D01*
D33*
X251738500Y-65997000D02*
X252646000Y-65997000D01*
X253746000Y-64897000D02*
X255924750Y-64897000D01*
X252646000Y-65997000D02*
X253746000Y-64897000D01*
X255924750Y-65976500D02*
X255924750Y-64897000D01*
X255924750Y-64897000D02*
X255924750Y-63817500D01*
X255924750Y-65976500D02*
X255924750Y-66655250D01*
X255924750Y-66655250D02*
X254762000Y-67818000D01*
X254762000Y-67818000D02*
X250063000Y-67818000D01*
D35*
X249682000Y-67818000D02*
X250063000Y-67818000D01*
X247027000Y-65163000D02*
X249682000Y-67818000D01*
X245986000Y-65163000D02*
X247027000Y-65163000D01*
X250559000Y-68695000D02*
X249682000Y-67818000D01*
X250559000Y-69088000D02*
X250559000Y-68695000D01*
D33*
X246380000Y-59829000D02*
X245237000Y-59829000D01*
X247650000Y-59829000D02*
X246380000Y-59829000D01*
D35*
X243336000Y-64438000D02*
X242723500Y-65050500D01*
X243336000Y-63513000D02*
X243336000Y-64438000D01*
X242723500Y-65050500D02*
X244448500Y-65050500D01*
X244561000Y-65163000D02*
X244448500Y-65050500D01*
X245986000Y-65163000D02*
X244561000Y-65163000D01*
X244448500Y-65050500D02*
X244448500Y-66775500D01*
X244448500Y-66775500D02*
X242723500Y-66775500D01*
X242723500Y-65050500D02*
X242723500Y-66775500D01*
X243336000Y-62107000D02*
X242951000Y-61722000D01*
X243336000Y-63513000D02*
X243336000Y-62107000D01*
X251530750Y-35762500D02*
X250350750Y-36942500D01*
X253206250Y-35762500D02*
X251530750Y-35762500D01*
X242093750Y-40844000D02*
X242805750Y-40132000D01*
X242093750Y-41318750D02*
X242093750Y-40844000D01*
X242805750Y-37857500D02*
X242805750Y-40132000D01*
D33*
X235851000Y-63500000D02*
X234569000Y-63500000D01*
X245237000Y-59829000D02*
X245237000Y-58801000D01*
X245237000Y-58801000D02*
X245110000Y-58674000D01*
X240061750Y-45243750D02*
X241343750Y-45243750D01*
X240030000Y-45212000D02*
X240061750Y-45243750D01*
X50050000Y-87312500D02*
X48400000Y-88962500D01*
X50050000Y-83343750D02*
X50050000Y-87312500D01*
X116725000Y-83343750D02*
X115474750Y-83343750D01*
X115474750Y-83343750D02*
X115443000Y-83312000D01*
X113473500Y-88962500D02*
X115075000Y-88962500D01*
X113411000Y-88900000D02*
X113473500Y-88962500D01*
X183400000Y-83343750D02*
X182149750Y-83343750D01*
X182149750Y-83343750D02*
X182118000Y-83312000D01*
X180021500Y-88962500D02*
X181750000Y-88962500D01*
X179959000Y-88900000D02*
X180021500Y-88962500D01*
X250075000Y-83343750D02*
X248824750Y-83343750D01*
X248824750Y-83343750D02*
X248793000Y-83312000D01*
X246696500Y-88962500D02*
X248425000Y-88962500D01*
X246634000Y-88900000D02*
X246696500Y-88962500D01*
X116725000Y-45243750D02*
X115347750Y-45243750D01*
X115347750Y-45243750D02*
X115316000Y-45212000D01*
X113346500Y-50862500D02*
X115075000Y-50862500D01*
X113284000Y-50800000D02*
X113346500Y-50862500D01*
X50050000Y-45243750D02*
X48799750Y-45243750D01*
X48799750Y-45243750D02*
X48768000Y-45212000D01*
X46671500Y-50862500D02*
X48400000Y-50862500D01*
X46609000Y-50800000D02*
X46671500Y-50862500D01*
X183400000Y-45243750D02*
X182149750Y-45243750D01*
X182149750Y-45243750D02*
X182118000Y-45212000D01*
X180021500Y-50862500D02*
X181750000Y-50862500D01*
X179959000Y-50800000D02*
X180021500Y-50862500D01*
X239693750Y-50862500D02*
X237933500Y-50862500D01*
X237933500Y-50862500D02*
X237871000Y-50800000D01*
X183084500Y-90297000D02*
X181750000Y-88962500D01*
X190119000Y-88011000D02*
X187833000Y-90297000D01*
X187833000Y-90297000D02*
X183084500Y-90297000D01*
X223012000Y-88011000D02*
X190119000Y-88011000D01*
X245745000Y-88011000D02*
X246634000Y-88900000D01*
X240665000Y-88011000D02*
X245745000Y-88011000D01*
X236855000Y-84201000D02*
X240665000Y-88011000D01*
X226822000Y-84201000D02*
X236855000Y-84201000D01*
X227523500Y-88011000D02*
X228675000Y-89162500D01*
X223012000Y-88011000D02*
X227523500Y-88011000D01*
X49734500Y-90297000D02*
X48400000Y-88962500D01*
X54483000Y-90297000D02*
X49734500Y-90297000D01*
X56769000Y-88011000D02*
X54483000Y-90297000D01*
X113411000Y-88900000D02*
X112522000Y-88011000D01*
X112522000Y-88011000D02*
X56769000Y-88011000D01*
X48400000Y-50862500D02*
X48449500Y-50862500D01*
X48449500Y-50862500D02*
X49784000Y-52197000D01*
X49784000Y-52197000D02*
X54610000Y-52197000D01*
X54610000Y-52197000D02*
X56896000Y-49911000D01*
X112395000Y-49911000D02*
X113284000Y-50800000D01*
X56896000Y-49911000D02*
X112395000Y-49911000D01*
X115075000Y-50862500D02*
X115124500Y-50862500D01*
X115124500Y-50862500D02*
X116459000Y-52197000D01*
X116459000Y-52197000D02*
X121158000Y-52197000D01*
X121158000Y-52197000D02*
X123444000Y-49911000D01*
X179070000Y-49911000D02*
X179959000Y-50800000D01*
X123444000Y-49911000D02*
X179070000Y-49911000D01*
X181750000Y-50862500D02*
X181799500Y-50862500D01*
X181799500Y-50862500D02*
X183134000Y-52197000D01*
X183134000Y-52197000D02*
X187833000Y-52197000D01*
X187833000Y-52197000D02*
X190119000Y-49911000D01*
X220980000Y-49911000D02*
X220980000Y-50292000D01*
X190119000Y-49911000D02*
X220980000Y-49911000D01*
X226187000Y-85471000D02*
X225552000Y-85471000D01*
X223012000Y-88011000D02*
X225552000Y-85471000D01*
X225552000Y-85471000D02*
X226822000Y-84201000D01*
X165227000Y-88011000D02*
X179070000Y-88011000D01*
X164211000Y-86995000D02*
X165227000Y-88011000D01*
X115075000Y-88962500D02*
X116409500Y-90297000D01*
X116409500Y-90297000D02*
X121285000Y-90297000D01*
X121285000Y-90297000D02*
X123571000Y-88011000D01*
X123571000Y-88011000D02*
X136398000Y-88011000D01*
X136398000Y-88011000D02*
X137414000Y-86995000D01*
X179070000Y-88011000D02*
X179959000Y-88900000D01*
X137414000Y-86995000D02*
X164211000Y-86995000D01*
X247650000Y-59829000D02*
X247650000Y-58547000D01*
X240411000Y-70739000D02*
X240030000Y-71120000D01*
X241058000Y-70739000D02*
X240411000Y-70739000D01*
D36*
X249682000Y-42926000D02*
X249555000Y-42799000D01*
X249255750Y-38689750D02*
X250190000Y-39624000D01*
X249255750Y-37857500D02*
X249255750Y-38689750D01*
X250190000Y-39624000D02*
X251333000Y-39624000D01*
X251333000Y-42926000D02*
X249682000Y-42926000D01*
X251333000Y-39624000D02*
X252222000Y-40513000D01*
X252222000Y-40513000D02*
X252222000Y-42037000D01*
X252222000Y-42037000D02*
X251333000Y-42926000D01*
X248043000Y-41287000D02*
X249555000Y-42799000D01*
X247570500Y-41287000D02*
X248043000Y-41287000D01*
D33*
X220980000Y-49911000D02*
X232664000Y-49911000D01*
X237363000Y-50292000D02*
X237871000Y-50800000D01*
X233045000Y-50292000D02*
X237363000Y-50292000D01*
X233045000Y-50292000D02*
X232664000Y-49911000D01*
D32*
X254424750Y-65976500D02*
X253936500Y-65976500D01*
X253936500Y-65976500D02*
X252730000Y-67183000D01*
X252730000Y-67183000D02*
X250698000Y-67183000D01*
X250038500Y-66523500D02*
X250038500Y-65997000D01*
X250698000Y-67183000D02*
X250038500Y-66523500D01*
X247269000Y-64663000D02*
X245986000Y-64663000D01*
X248603000Y-65997000D02*
X247269000Y-64663000D01*
X250038500Y-65997000D02*
X248603000Y-65997000D01*
X242316000Y-62103000D02*
X239649000Y-62103000D01*
X242316000Y-62103000D02*
X242836000Y-62623000D01*
X242836000Y-62623000D02*
X242836000Y-63513000D01*
X239649000Y-62103000D02*
X238252000Y-63500000D01*
X238252000Y-63500000D02*
X237351000Y-63500000D01*
D33*
X245237000Y-61329000D02*
X245237000Y-62083000D01*
D35*
X244836000Y-63513000D02*
X244836000Y-62484000D01*
X245336000Y-63513000D02*
X244836000Y-63513000D01*
X245336000Y-63513000D02*
X245732000Y-63513000D01*
D33*
X247650000Y-61595000D02*
X246126000Y-63119000D01*
X247650000Y-61329000D02*
X247650000Y-61595000D01*
D35*
X245732000Y-63513000D02*
X246126000Y-63119000D01*
X249059000Y-67957000D02*
X249059000Y-69088000D01*
X245986000Y-65663000D02*
X246765000Y-65663000D01*
X246765000Y-65663000D02*
X249059000Y-67957000D01*
X246380000Y-60833000D02*
X246380000Y-61329000D01*
D33*
X245237000Y-61329000D02*
X246380000Y-61329000D01*
X246380000Y-61329000D02*
X247650000Y-61329000D01*
X51550000Y-45912500D02*
X53200000Y-47562500D01*
X51550000Y-45243750D02*
X51550000Y-45912500D01*
X51550000Y-45243750D02*
X53625750Y-45243750D01*
X53625750Y-45243750D02*
X57023000Y-48641000D01*
X57023000Y-48641000D02*
X111379000Y-48641000D01*
X111379000Y-48641000D02*
X113792000Y-46228000D01*
X113792000Y-46228000D02*
X116840000Y-46228000D01*
X118225000Y-45243750D02*
X118225000Y-45859000D01*
X117856000Y-46228000D02*
X116840000Y-46228000D01*
X118225000Y-45859000D02*
X117856000Y-46228000D01*
X118225000Y-45243750D02*
X120300750Y-45243750D01*
X120300750Y-45243750D02*
X123698000Y-48641000D01*
X123698000Y-48641000D02*
X178054000Y-48641000D01*
X178054000Y-48641000D02*
X180467000Y-46228000D01*
X180467000Y-46228000D02*
X184658000Y-46228000D01*
X184900000Y-45986000D02*
X184900000Y-45243750D01*
X184658000Y-46228000D02*
X184900000Y-45986000D01*
X184900000Y-45243750D02*
X186848750Y-45243750D01*
X186848750Y-45243750D02*
X190246000Y-48641000D01*
X233623000Y-46355000D02*
X233623000Y-47682000D01*
X232664000Y-48641000D02*
X229870000Y-48641000D01*
X233623000Y-47682000D02*
X232664000Y-48641000D01*
X185992500Y-47562500D02*
X184658000Y-46228000D01*
X186550000Y-47562500D02*
X185992500Y-47562500D01*
X119190500Y-47562500D02*
X117856000Y-46228000D01*
X119875000Y-47562500D02*
X119190500Y-47562500D01*
X242843750Y-45954250D02*
X242843750Y-45243750D01*
X242570000Y-46228000D02*
X242843750Y-45954250D01*
X237744000Y-46863000D02*
X238379000Y-46228000D01*
X238379000Y-46228000D02*
X242570000Y-46228000D01*
X242843750Y-45243750D02*
X243490750Y-45243750D01*
X244493750Y-46246750D02*
X244493750Y-47562500D01*
X243490750Y-45243750D02*
X244493750Y-46246750D01*
X51550000Y-83343750D02*
X53625750Y-83343750D01*
X53625750Y-83343750D02*
X57023000Y-86741000D01*
X57023000Y-86741000D02*
X111252000Y-86741000D01*
X111252000Y-86741000D02*
X113665000Y-84328000D01*
X113665000Y-84328000D02*
X117856000Y-84328000D01*
X118225000Y-83959000D02*
X118225000Y-83343750D01*
X117856000Y-84328000D02*
X118225000Y-83959000D01*
X253225000Y-85662500D02*
X253225000Y-84188000D01*
X252380750Y-83343750D02*
X251575000Y-83343750D01*
X253225000Y-84188000D02*
X252380750Y-83343750D01*
X184900000Y-84012500D02*
X186550000Y-85662500D01*
X184900000Y-83343750D02*
X184900000Y-84012500D01*
X118225000Y-84012500D02*
X119875000Y-85662500D01*
X118225000Y-83343750D02*
X118225000Y-84012500D01*
X51550000Y-84012500D02*
X53200000Y-85662500D01*
X51550000Y-83343750D02*
X51550000Y-84012500D01*
X251575000Y-84086000D02*
X251575000Y-83343750D01*
X247142000Y-84328000D02*
X251333000Y-84328000D01*
X244729000Y-86741000D02*
X247142000Y-84328000D01*
X241173000Y-86741000D02*
X244729000Y-86741000D01*
X184900000Y-83343750D02*
X186975750Y-83343750D01*
X186975750Y-83343750D02*
X190373000Y-86741000D01*
X251333000Y-84328000D02*
X251575000Y-84086000D01*
X190373000Y-86741000D02*
X222504000Y-86741000D01*
X222504000Y-86741000D02*
X226314000Y-82931000D01*
X237363000Y-82931000D02*
X241173000Y-86741000D01*
X229108000Y-82931000D02*
X229108000Y-82550000D01*
X229108000Y-82931000D02*
X237363000Y-82931000D01*
X226314000Y-82931000D02*
X229108000Y-82931000D01*
X220218000Y-48260000D02*
X220218000Y-48641000D01*
X190246000Y-48641000D02*
X220218000Y-48641000D01*
X220218000Y-48641000D02*
X229870000Y-48641000D01*
X178054000Y-86741000D02*
X180467000Y-84328000D01*
X184658000Y-84328000D02*
X184900000Y-84086000D01*
X118225000Y-83343750D02*
X120300750Y-83343750D01*
X120300750Y-83343750D02*
X123698000Y-86741000D01*
X123698000Y-86741000D02*
X135890000Y-86741000D01*
X165735000Y-86741000D02*
X178054000Y-86741000D01*
X135890000Y-86741000D02*
X136906000Y-85725000D01*
X180467000Y-84328000D02*
X184658000Y-84328000D01*
X136906000Y-85725000D02*
X164719000Y-85725000D01*
X184900000Y-84086000D02*
X184900000Y-83343750D01*
X164719000Y-85725000D02*
X165735000Y-86741000D01*
X234696000Y-65913000D02*
X235851000Y-65913000D01*
X247650000Y-69088000D02*
X249059000Y-69088000D01*
X245237000Y-62083000D02*
X244983000Y-62337000D01*
D35*
X244983000Y-62337000D02*
X244836000Y-62484000D01*
D33*
X237122000Y-47993000D02*
X237744000Y-47371000D01*
X237744000Y-47371000D02*
X237744000Y-46863000D01*
X233623000Y-47682000D02*
X233934000Y-47993000D01*
X236601000Y-48260000D02*
X236601000Y-47993000D01*
X233934000Y-47993000D02*
X236601000Y-47993000D01*
X236601000Y-47993000D02*
X237122000Y-47993000D01*
D32*
X223837500Y-45306250D02*
X222344250Y-45306250D01*
X220662500Y-43624500D02*
X220662500Y-42925000D01*
X222344250Y-45306250D02*
X220662500Y-43624500D01*
X201612500Y-42925000D02*
X200788000Y-42925000D01*
X200788000Y-42925000D02*
X199898000Y-43815000D01*
X199898000Y-43815000D02*
X184277000Y-43815000D01*
X183387000Y-42925000D02*
X182562500Y-42925000D01*
X184277000Y-43815000D02*
X183387000Y-42925000D01*
X182562500Y-42925000D02*
X181738000Y-42925000D01*
X181738000Y-42925000D02*
X180848000Y-43815000D01*
X180848000Y-43815000D02*
X165227000Y-43815000D01*
X164337000Y-42925000D02*
X163512500Y-42925000D01*
X165227000Y-43815000D02*
X164337000Y-42925000D01*
X144462500Y-42925000D02*
X143638000Y-42925000D01*
X143638000Y-42925000D02*
X142748000Y-43815000D01*
X142748000Y-43815000D02*
X127127000Y-43815000D01*
X126237000Y-42925000D02*
X125412500Y-42925000D01*
X127127000Y-43815000D02*
X126237000Y-42925000D01*
X125412500Y-42925000D02*
X124588000Y-42925000D01*
X124588000Y-42925000D02*
X123698000Y-43815000D01*
X123698000Y-43815000D02*
X108077000Y-43815000D01*
X107187000Y-42925000D02*
X106362500Y-42925000D01*
X108077000Y-43815000D02*
X107187000Y-42925000D01*
X106362500Y-42925000D02*
X105538000Y-42925000D01*
X105538000Y-42925000D02*
X104648000Y-43815000D01*
X104648000Y-43815000D02*
X89027000Y-43815000D01*
X88137000Y-42925000D02*
X87312500Y-42925000D01*
X89027000Y-43815000D02*
X88137000Y-42925000D01*
X50038000Y-42925000D02*
X49212500Y-42925000D01*
X50928000Y-43815000D02*
X50038000Y-42925000D01*
X66548000Y-43815000D02*
X50928000Y-43815000D01*
X67438000Y-42925000D02*
X66548000Y-43815000D01*
X68262500Y-42925000D02*
X67438000Y-42925000D01*
X69088000Y-42925000D02*
X68262500Y-42925000D01*
X69978000Y-43815000D02*
X69088000Y-42925000D01*
X85598000Y-43815000D02*
X69978000Y-43815000D01*
X86488000Y-42925000D02*
X85598000Y-43815000D01*
X87312500Y-42925000D02*
X86488000Y-42925000D01*
X162687000Y-42925000D02*
X163512500Y-42925000D01*
X161797000Y-43815000D02*
X162687000Y-42925000D01*
X146177000Y-43815000D02*
X161797000Y-43815000D01*
X145287000Y-42925000D02*
X146177000Y-43815000D01*
X144462500Y-42925000D02*
X145287000Y-42925000D01*
X202438000Y-42925000D02*
X201612500Y-42925000D01*
X203328000Y-43815000D02*
X202438000Y-42925000D01*
X218948000Y-43815000D02*
X203328000Y-43815000D01*
X219838000Y-42925000D02*
X218948000Y-43815000D01*
X220662500Y-42925000D02*
X219838000Y-42925000D01*
X263525000Y-40543750D02*
X262539750Y-40543750D01*
X224695750Y-45306250D02*
X223837500Y-45306250D01*
X225552000Y-44450000D02*
X224695750Y-45306250D01*
X236601000Y-44069000D02*
X236220000Y-44450000D01*
X236220000Y-44450000D02*
X225552000Y-44450000D01*
X237236000Y-43434000D02*
X236601000Y-44069000D01*
X237363000Y-43307000D02*
X237236000Y-43434000D01*
X239903000Y-43307000D02*
X237363000Y-43307000D01*
X246888000Y-69723000D02*
X247777000Y-70612000D01*
X246888000Y-67437000D02*
X246888000Y-69723000D01*
X245986000Y-67163000D02*
X246614000Y-67163000D01*
X246614000Y-67163000D02*
X246888000Y-67437000D01*
X247777000Y-70612000D02*
X248158000Y-70993000D01*
X248158000Y-70993000D02*
X248285000Y-71120000D01*
X248285000Y-71120000D02*
X257683000Y-71120000D01*
X257683000Y-71120000D02*
X259080000Y-71120000D01*
X259080000Y-71120000D02*
X259334000Y-70866000D01*
X261747000Y-39243000D02*
X261493000Y-39497000D01*
X262539750Y-40543750D02*
X261493000Y-39497000D01*
X249174000Y-43688000D02*
X248793000Y-44069000D01*
X261493000Y-39497000D02*
X260731000Y-38735000D01*
X254381000Y-38735000D02*
X252984000Y-40132000D01*
X252984000Y-40132000D02*
X252984000Y-42418000D01*
X252984000Y-42418000D02*
X251714000Y-43688000D01*
X260731000Y-38735000D02*
X254381000Y-38735000D01*
X251714000Y-43688000D02*
X249174000Y-43688000D01*
X228600000Y-64356250D02*
X227043250Y-64356250D01*
X225425000Y-62738000D02*
X225425000Y-61975000D01*
X227043250Y-64356250D02*
X225425000Y-62738000D01*
X225425000Y-61975000D02*
X224537000Y-61975000D01*
X224537000Y-61975000D02*
X223647000Y-62865000D01*
X223647000Y-62865000D02*
X208153000Y-62865000D01*
X207263000Y-61975000D02*
X206375000Y-61975000D01*
X208153000Y-62865000D02*
X207263000Y-61975000D01*
X206375000Y-61975000D02*
X205487000Y-61975000D01*
X205487000Y-61975000D02*
X204597000Y-62865000D01*
X204597000Y-62865000D02*
X189103000Y-62865000D01*
X188213000Y-61975000D02*
X187325000Y-61975000D01*
X189103000Y-62865000D02*
X188213000Y-61975000D01*
X187325000Y-61975000D02*
X186437000Y-61975000D01*
X186437000Y-61975000D02*
X185547000Y-62865000D01*
X185547000Y-62865000D02*
X170053000Y-62865000D01*
X169163000Y-61975000D02*
X168275000Y-61975000D01*
X170053000Y-62865000D02*
X169163000Y-61975000D01*
X168275000Y-61975000D02*
X167387000Y-61975000D01*
X167387000Y-61975000D02*
X166497000Y-62865000D01*
X166497000Y-62865000D02*
X151003000Y-62865000D01*
X150113000Y-61975000D02*
X149225000Y-61975000D01*
X151003000Y-62865000D02*
X150113000Y-61975000D01*
X149225000Y-61975000D02*
X148337000Y-61975000D01*
X148337000Y-61975000D02*
X147447000Y-62865000D01*
X147447000Y-62865000D02*
X131953000Y-62865000D01*
X131063000Y-61975000D02*
X130175000Y-61975000D01*
X131953000Y-62865000D02*
X131063000Y-61975000D01*
X130175000Y-61975000D02*
X129287000Y-61975000D01*
X129287000Y-61975000D02*
X128397000Y-62865000D01*
X128397000Y-62865000D02*
X112903000Y-62865000D01*
X112013000Y-61975000D02*
X111125000Y-61975000D01*
X112903000Y-62865000D02*
X112013000Y-61975000D01*
X111125000Y-61975000D02*
X110237000Y-61975000D01*
X110237000Y-61975000D02*
X109347000Y-62865000D01*
X109347000Y-62865000D02*
X93853000Y-62865000D01*
X92963000Y-61975000D02*
X92075000Y-61975000D01*
X93853000Y-62865000D02*
X92963000Y-61975000D01*
X92075000Y-61975000D02*
X91187000Y-61975000D01*
X91187000Y-61975000D02*
X90297000Y-62865000D01*
X90297000Y-62865000D02*
X74803000Y-62865000D01*
X73913000Y-61975000D02*
X73025000Y-61975000D01*
X74803000Y-62865000D02*
X73913000Y-61975000D01*
X73025000Y-61975000D02*
X72137000Y-61975000D01*
X72137000Y-61975000D02*
X71247000Y-62865000D01*
X71247000Y-62865000D02*
X53340000Y-62865000D01*
X52450000Y-61975000D02*
X51593750Y-61975000D01*
X53340000Y-62865000D02*
X52450000Y-61975000D01*
X226949000Y-61341000D02*
X226315000Y-61975000D01*
X226315000Y-61975000D02*
X225425000Y-61975000D01*
X226949000Y-55880000D02*
X226949000Y-61341000D01*
X259715000Y-57531000D02*
X254889000Y-52705000D01*
X254889000Y-52705000D02*
X230124000Y-52705000D01*
X230124000Y-52705000D02*
X226949000Y-55880000D01*
X265906250Y-61975000D02*
X262508000Y-61975000D01*
X262508000Y-61975000D02*
X261493000Y-60960000D01*
X261493000Y-59309000D02*
X259715000Y-57531000D01*
X261493000Y-60960000D02*
X261493000Y-59309000D01*
X246380000Y-68057000D02*
X245986000Y-67663000D01*
X261493000Y-62990000D02*
X261493000Y-69723000D01*
X262508000Y-61975000D02*
X261493000Y-62990000D01*
X261493000Y-69723000D02*
X259588000Y-71628000D01*
X259588000Y-71628000D02*
X248031000Y-71628000D01*
X248031000Y-71628000D02*
X246380000Y-69977000D01*
X246380000Y-69977000D02*
X246380000Y-68057000D01*
X231013000Y-81025000D02*
X230187500Y-81025000D01*
X231903000Y-81915000D02*
X231013000Y-81025000D01*
X247523000Y-81915000D02*
X231903000Y-81915000D01*
X248413000Y-81025000D02*
X247523000Y-81915000D01*
X249237500Y-81025000D02*
X248413000Y-81025000D01*
X229363000Y-81025000D02*
X230187500Y-81025000D01*
X228473000Y-81915000D02*
X229363000Y-81025000D01*
X212852000Y-81915000D02*
X228473000Y-81915000D01*
X211137500Y-81025000D02*
X211962000Y-81025000D01*
X211962000Y-81025000D02*
X212852000Y-81915000D01*
X192913000Y-81025000D02*
X192087500Y-81025000D01*
X193803000Y-81915000D02*
X192913000Y-81025000D01*
X209423000Y-81915000D02*
X193803000Y-81915000D01*
X210313000Y-81025000D02*
X209423000Y-81915000D01*
X211137500Y-81025000D02*
X210313000Y-81025000D01*
X192087500Y-81025000D02*
X191263000Y-81025000D01*
X191263000Y-81025000D02*
X190373000Y-81915000D01*
X190373000Y-81915000D02*
X174752000Y-81915000D01*
X173862000Y-81025000D02*
X173037500Y-81025000D01*
X174752000Y-81915000D02*
X173862000Y-81025000D01*
X173037500Y-81025000D02*
X172213000Y-81025000D01*
X172213000Y-81025000D02*
X171323000Y-81915000D01*
X171323000Y-81915000D02*
X155702000Y-81915000D01*
X154812000Y-81025000D02*
X153987500Y-81025000D01*
X155702000Y-81915000D02*
X154812000Y-81025000D01*
X153987500Y-81025000D02*
X153163000Y-81025000D01*
X153163000Y-81025000D02*
X152273000Y-81915000D01*
X152273000Y-81915000D02*
X136652000Y-81915000D01*
X135762000Y-81025000D02*
X134937500Y-81025000D01*
X136652000Y-81915000D02*
X135762000Y-81025000D01*
X134937500Y-81025000D02*
X134113000Y-81025000D01*
X134113000Y-81025000D02*
X133223000Y-81915000D01*
X133223000Y-81915000D02*
X117602000Y-81915000D01*
X116712000Y-81025000D02*
X115887500Y-81025000D01*
X117602000Y-81915000D02*
X116712000Y-81025000D01*
X115887500Y-81025000D02*
X115063000Y-81025000D01*
X115063000Y-81025000D02*
X114173000Y-81915000D01*
X114173000Y-81915000D02*
X98552000Y-81915000D01*
X97662000Y-81025000D02*
X96837500Y-81025000D01*
X98552000Y-81915000D02*
X97662000Y-81025000D01*
X96837500Y-81025000D02*
X96013000Y-81025000D01*
X96013000Y-81025000D02*
X95123000Y-81915000D01*
X95123000Y-81915000D02*
X79502000Y-81915000D01*
X78612000Y-81025000D02*
X77787500Y-81025000D01*
X79502000Y-81915000D02*
X78612000Y-81025000D01*
X77787500Y-81025000D02*
X76963000Y-81025000D01*
X76963000Y-81025000D02*
X76073000Y-81915000D01*
X76073000Y-81915000D02*
X55753000Y-81915000D01*
X54863000Y-81025000D02*
X53975000Y-81025000D01*
X55753000Y-81915000D02*
X54863000Y-81025000D01*
X259428250Y-86581250D02*
X260350000Y-86581250D01*
X254762000Y-81915000D02*
X259428250Y-86581250D01*
X250952000Y-81915000D02*
X254762000Y-81915000D01*
X249237500Y-81025000D02*
X250062000Y-81025000D01*
X250062000Y-81025000D02*
X250952000Y-81915000D01*
X245872000Y-70259000D02*
X245336000Y-69723000D01*
X245872000Y-70612000D02*
X245872000Y-70259000D01*
X245336000Y-68313000D02*
X245336000Y-69723000D01*
X250952000Y-81661000D02*
X250952000Y-81915000D01*
X251079000Y-81534000D02*
X250952000Y-81661000D01*
X252412500Y-102456250D02*
X250919250Y-102456250D01*
X249237500Y-100774500D02*
X249237500Y-100075000D01*
X249237500Y-100075000D02*
X248413000Y-100075000D01*
X248413000Y-100075000D02*
X247523000Y-100965000D01*
X247523000Y-100965000D02*
X231902000Y-100965000D01*
X231012000Y-100075000D02*
X230187500Y-100075000D01*
X231902000Y-100965000D02*
X231012000Y-100075000D01*
X229363000Y-100075000D02*
X230187500Y-100075000D01*
X228473000Y-100965000D02*
X229363000Y-100075000D01*
X212852000Y-100965000D02*
X228473000Y-100965000D01*
X211137500Y-100075000D02*
X211962000Y-100075000D01*
X211962000Y-100075000D02*
X212852000Y-100965000D01*
X211137500Y-100075000D02*
X210313000Y-100075000D01*
X210313000Y-100075000D02*
X209423000Y-100965000D01*
X209423000Y-100965000D02*
X191516000Y-100965000D01*
X190626000Y-100075000D02*
X189706250Y-100075000D01*
X191516000Y-100965000D02*
X190626000Y-100075000D01*
X189706250Y-100075000D02*
X188850000Y-100075000D01*
X188850000Y-100075000D02*
X187960000Y-100965000D01*
X159638000Y-100075000D02*
X160528000Y-100965000D01*
X158750000Y-100075000D02*
X159638000Y-100075000D01*
X187960000Y-100965000D02*
X160528000Y-100965000D01*
X158750000Y-100075000D02*
X157862000Y-100075000D01*
X157862000Y-100075000D02*
X156972000Y-100965000D01*
X156972000Y-100965000D02*
X129540000Y-100965000D01*
X128650000Y-100075000D02*
X127793750Y-100075000D01*
X129540000Y-100965000D02*
X128650000Y-100075000D01*
X126874000Y-100075000D02*
X127793750Y-100075000D01*
X125984000Y-100965000D02*
X126874000Y-100075000D01*
X108077000Y-100965000D02*
X125984000Y-100965000D01*
X106362500Y-100075000D02*
X107187000Y-100075000D01*
X107187000Y-100075000D02*
X108077000Y-100965000D01*
X105538000Y-100075000D02*
X106362500Y-100075000D01*
X104648000Y-100965000D02*
X105538000Y-100075000D01*
X89027000Y-100965000D02*
X104648000Y-100965000D01*
X87312500Y-100075000D02*
X88137000Y-100075000D01*
X88137000Y-100075000D02*
X89027000Y-100965000D01*
X86488000Y-100075000D02*
X87312500Y-100075000D01*
X85598000Y-100965000D02*
X86488000Y-100075000D01*
X69977000Y-100965000D02*
X85598000Y-100965000D01*
X68262500Y-100075000D02*
X69087000Y-100075000D01*
X69087000Y-100075000D02*
X69977000Y-100965000D01*
X67438000Y-100075000D02*
X68262500Y-100075000D01*
X66548000Y-100965000D02*
X67438000Y-100075000D01*
X50927000Y-100965000D02*
X66548000Y-100965000D01*
X49212500Y-100075000D02*
X50037000Y-100075000D01*
X50037000Y-100075000D02*
X50927000Y-100965000D01*
X244836000Y-68313000D02*
X244836000Y-70465000D01*
X244836000Y-70465000D02*
X244983000Y-70612000D01*
X249555000Y-101092000D02*
X249237500Y-100774500D01*
X250317000Y-102235000D02*
X250317000Y-101854000D01*
X250919250Y-102456250D02*
X250317000Y-101854000D01*
X250317000Y-101854000D02*
X249555000Y-101092000D01*
D33*
X243580750Y-37857500D02*
X243580750Y-39682250D01*
X244985500Y-41087000D02*
X245570500Y-41087000D01*
X248480750Y-37857500D02*
X248480750Y-40137250D01*
X248480750Y-40137250D02*
X248729500Y-40386000D01*
X243649500Y-40386000D02*
X244284500Y-40386000D01*
X243580750Y-39682250D02*
X244284500Y-40386000D01*
X244284500Y-40386000D02*
X244985500Y-41087000D01*
X245570500Y-41087000D02*
X245570500Y-41449500D01*
D36*
X238245500Y-44132500D02*
X236023000Y-46355000D01*
X242697000Y-44132500D02*
X238245500Y-44132500D01*
X245570500Y-41259000D02*
X242697000Y-44132500D01*
D33*
X245570500Y-41087000D02*
X245570500Y-41259000D01*
D32*
X138965000Y-76835000D02*
X138965000Y-74703000D01*
X138965000Y-74703000D02*
X138938000Y-74676000D01*
X143727500Y-95885000D02*
X143727500Y-93762500D01*
X143727500Y-93762500D02*
X143764000Y-93726000D01*
X134202500Y-57785000D02*
X134202500Y-55662500D01*
X134202500Y-55662500D02*
X134239000Y-55626000D01*
X129440000Y-38735000D02*
X129440000Y-36603000D01*
X129440000Y-36603000D02*
X129413000Y-36576000D01*
X143129000Y-70485000D02*
X138938000Y-74676000D01*
X144399000Y-69215000D02*
X143129000Y-70485000D01*
X237871000Y-69215000D02*
X144399000Y-69215000D01*
X239923000Y-67163000D02*
X237871000Y-69215000D01*
X241186000Y-67163000D02*
X239923000Y-67163000D01*
X38952500Y-76835000D02*
X38952500Y-74712500D01*
X38952500Y-74712500D02*
X38989000Y-74676000D01*
X34190000Y-95885000D02*
X34190000Y-93753000D01*
X34190000Y-93753000D02*
X34163000Y-93726000D01*
X36571250Y-57785000D02*
X36571250Y-55630750D01*
X36571250Y-55630750D02*
X36576000Y-55626000D01*
X34190000Y-38735000D02*
X34190000Y-36603000D01*
X34190000Y-36603000D02*
X34163000Y-36576000D01*
X40386000Y-73279000D02*
X38989000Y-74676000D01*
X46990000Y-66675000D02*
X40386000Y-73279000D01*
X231267000Y-66675000D02*
X46990000Y-66675000D01*
X242336000Y-63513000D02*
X242336000Y-62885000D01*
X242336000Y-62885000D02*
X242062000Y-62611000D01*
X242062000Y-62611000D02*
X239903000Y-62611000D01*
X239903000Y-62611000D02*
X238125000Y-64389000D01*
X238125000Y-64389000D02*
X233553000Y-64389000D01*
X233553000Y-64389000D02*
X231267000Y-66675000D01*
X62765000Y-76835000D02*
X62765000Y-74703000D01*
X62765000Y-74703000D02*
X62738000Y-74676000D01*
X53240000Y-95885000D02*
X53240000Y-93753000D01*
X53240000Y-93753000D02*
X53213000Y-93726000D01*
X58002500Y-57785000D02*
X58002500Y-55662500D01*
X58002500Y-55662500D02*
X58039000Y-55626000D01*
X53240000Y-38735000D02*
X53240000Y-36603000D01*
X53240000Y-36603000D02*
X53213000Y-36576000D01*
X239763000Y-63513000D02*
X238379000Y-64897000D01*
X241836000Y-63513000D02*
X239763000Y-63513000D01*
X236093000Y-64897000D02*
X235966000Y-64897000D01*
X238379000Y-64897000D02*
X236093000Y-64897000D01*
X69342000Y-68072000D02*
X62738000Y-74676000D01*
X70231000Y-67183000D02*
X69342000Y-68072000D01*
X231521000Y-67183000D02*
X70231000Y-67183000D01*
X233807000Y-64897000D02*
X231521000Y-67183000D01*
X236093000Y-64897000D02*
X233807000Y-64897000D01*
X81815000Y-76835000D02*
X81815000Y-74703000D01*
X81815000Y-74703000D02*
X81788000Y-74676000D01*
X72290000Y-95885000D02*
X72290000Y-93753000D01*
X72290000Y-93753000D02*
X72263000Y-93726000D01*
X77052500Y-57785000D02*
X77052500Y-55662500D01*
X77052500Y-55662500D02*
X77089000Y-55626000D01*
X72290000Y-38735000D02*
X72290000Y-36603000D01*
X72290000Y-36603000D02*
X72263000Y-36576000D01*
X84201000Y-72263000D02*
X81788000Y-74676000D01*
X88773000Y-67691000D02*
X84201000Y-72263000D01*
X237109000Y-67691000D02*
X88773000Y-67691000D01*
X239137000Y-65663000D02*
X237109000Y-67691000D01*
X241186000Y-65663000D02*
X239137000Y-65663000D01*
X100865000Y-76835000D02*
X100865000Y-74703000D01*
X100865000Y-74703000D02*
X100838000Y-74676000D01*
X91340000Y-95885000D02*
X91340000Y-93753000D01*
X91340000Y-93753000D02*
X91313000Y-93726000D01*
X96102500Y-57785000D02*
X96102500Y-55662500D01*
X96102500Y-55662500D02*
X96139000Y-55626000D01*
X91340000Y-38735000D02*
X91340000Y-36603000D01*
X91340000Y-36603000D02*
X91313000Y-36576000D01*
X106553000Y-68961000D02*
X100838000Y-74676000D01*
X107315000Y-68199000D02*
X106553000Y-68961000D01*
X237363000Y-68199000D02*
X107315000Y-68199000D01*
X239399000Y-66163000D02*
X237363000Y-68199000D01*
X241186000Y-66163000D02*
X239399000Y-66163000D01*
X119915000Y-76835000D02*
X119915000Y-74703000D01*
X119915000Y-74703000D02*
X119888000Y-74676000D01*
X112771250Y-95885000D02*
X112771250Y-93730750D01*
X112771250Y-93730750D02*
X112776000Y-93726000D01*
X115152500Y-57785000D02*
X115152500Y-55662500D01*
X115152500Y-55662500D02*
X115189000Y-55626000D01*
X110390000Y-38735000D02*
X110390000Y-36603000D01*
X110390000Y-36603000D02*
X110363000Y-36576000D01*
X124460000Y-70104000D02*
X119888000Y-74676000D01*
X125857000Y-68707000D02*
X124460000Y-70104000D01*
X237617000Y-68707000D02*
X125857000Y-68707000D01*
X239661000Y-66663000D02*
X237617000Y-68707000D01*
X241186000Y-66663000D02*
X239661000Y-66663000D01*
X158015000Y-76835000D02*
X158015000Y-74703000D01*
X158015000Y-74703000D02*
X157988000Y-74676000D01*
X153252500Y-57785000D02*
X153252500Y-55662500D01*
X153252500Y-55662500D02*
X153289000Y-55626000D01*
X148490000Y-38735000D02*
X148490000Y-36603000D01*
X148490000Y-36603000D02*
X148463000Y-36576000D01*
X241186000Y-67663000D02*
X240185000Y-67663000D01*
X238125000Y-69723000D02*
X162941000Y-69723000D01*
X240185000Y-67663000D02*
X238125000Y-69723000D01*
X162941000Y-69723000D02*
X162560000Y-70104000D01*
X162560000Y-70104000D02*
X157988000Y-74676000D01*
X177065000Y-76835000D02*
X177065000Y-74703000D01*
X177065000Y-74703000D02*
X177038000Y-74676000D01*
X174683750Y-95885000D02*
X174683750Y-93794250D01*
X174683750Y-93794250D02*
X174752000Y-93726000D01*
X172302500Y-57785000D02*
X172302500Y-55662500D01*
X172302500Y-55662500D02*
X172339000Y-55626000D01*
X167540000Y-38735000D02*
X167540000Y-36603000D01*
X167540000Y-36603000D02*
X167513000Y-36576000D01*
X181102000Y-70612000D02*
X177038000Y-74676000D01*
X181483000Y-70231000D02*
X181102000Y-70612000D01*
X238379000Y-70231000D02*
X181483000Y-70231000D01*
X240297000Y-68313000D02*
X238379000Y-70231000D01*
X241836000Y-68313000D02*
X240297000Y-68313000D01*
X238125000Y-65913000D02*
X237351000Y-65913000D01*
X239875000Y-64163000D02*
X238125000Y-65913000D01*
X241186000Y-64163000D02*
X239875000Y-64163000D01*
X237351000Y-65913000D02*
X237351000Y-66687000D01*
X237351000Y-66687000D02*
X236855000Y-67183000D01*
X234883500Y-85471000D02*
X234875000Y-85462500D01*
X236982000Y-85471000D02*
X234883500Y-85471000D01*
X236855000Y-67183000D02*
X235204000Y-67183000D01*
X232918000Y-67183000D02*
X232791000Y-67056000D01*
X234061000Y-67183000D02*
X232918000Y-67183000D01*
X235204000Y-67183000D02*
X234061000Y-67183000D01*
X242558000Y-70247000D02*
X243336000Y-69469000D01*
X242558000Y-70739000D02*
X242558000Y-70247000D01*
X243336000Y-68313000D02*
X243336000Y-69469000D01*
X244493750Y-50862500D02*
X242251500Y-50862500D01*
X183960500Y-47562500D02*
X185674000Y-49276000D01*
X181750000Y-47562500D02*
X183960500Y-47562500D01*
X233299000Y-49657000D02*
X232918000Y-49276000D01*
X241046000Y-49657000D02*
X233299000Y-49657000D01*
X232918000Y-49276000D02*
X185674000Y-49276000D01*
X242251500Y-50862500D02*
X241046000Y-49657000D01*
X241186000Y-64663000D02*
X240391000Y-64663000D01*
X240391000Y-64663000D02*
X240030000Y-65024000D01*
X238361250Y-48895000D02*
X239693750Y-47562500D01*
X238361250Y-48895000D02*
X238361250Y-48912750D01*
X238361250Y-48912750D02*
X238125000Y-49149000D01*
X235839000Y-49149000D02*
X235585000Y-48895000D01*
X238125000Y-49149000D02*
X235839000Y-49149000D01*
X186550000Y-50862500D02*
X184212500Y-50862500D01*
X184212500Y-50862500D02*
X182626000Y-49276000D01*
X117285500Y-47562500D02*
X118999000Y-49276000D01*
X115075000Y-47562500D02*
X117285500Y-47562500D01*
X182626000Y-49276000D02*
X118999000Y-49276000D01*
X119875000Y-50862500D02*
X117664500Y-50862500D01*
X117664500Y-50862500D02*
X116078000Y-49276000D01*
X50610500Y-47562500D02*
X52324000Y-49276000D01*
X48400000Y-47562500D02*
X50610500Y-47562500D01*
X116078000Y-49276000D02*
X52324000Y-49276000D01*
X53200000Y-50862500D02*
X50864500Y-50862500D01*
X50864500Y-50862500D02*
X50800000Y-50927000D01*
X48335500Y-85598000D02*
X48400000Y-85662500D01*
X46609000Y-85598000D02*
X48335500Y-85598000D01*
X113219500Y-85662500D02*
X111506000Y-87376000D01*
X115075000Y-85662500D02*
X113219500Y-85662500D01*
X54928500Y-88962500D02*
X56515000Y-87376000D01*
X53200000Y-88962500D02*
X54928500Y-88962500D01*
X56515000Y-87376000D02*
X111506000Y-87376000D01*
X121730500Y-88962500D02*
X119875000Y-88962500D01*
X123317000Y-87376000D02*
X121730500Y-88962500D01*
X136144000Y-87376000D02*
X123317000Y-87376000D01*
X181750000Y-85662500D02*
X180021500Y-85662500D01*
X180021500Y-85662500D02*
X178308000Y-87376000D01*
X178308000Y-87376000D02*
X165481000Y-87376000D01*
X165481000Y-87376000D02*
X164465000Y-86360000D01*
X164465000Y-86360000D02*
X137160000Y-86360000D01*
X137160000Y-86360000D02*
X136144000Y-87376000D01*
X222758000Y-87376000D02*
X226568000Y-83566000D01*
X226568000Y-83566000D02*
X237109000Y-83566000D01*
X237109000Y-83566000D02*
X240919000Y-87376000D01*
X246696500Y-85662500D02*
X244983000Y-87376000D01*
X248425000Y-85662500D02*
X246696500Y-85662500D01*
X240919000Y-87376000D02*
X244983000Y-87376000D01*
X188278500Y-88962500D02*
X189865000Y-87376000D01*
X186550000Y-88962500D02*
X188278500Y-88962500D01*
X189865000Y-87376000D02*
X222758000Y-87376000D01*
X49212500Y-38290500D02*
X47117000Y-36195000D01*
X49212500Y-39625000D02*
X49212500Y-38290500D01*
X68262500Y-38290500D02*
X66167000Y-36195000D01*
X68262500Y-39625000D02*
X68262500Y-38290500D01*
X87312500Y-38290500D02*
X85217000Y-36195000D01*
X87312500Y-39625000D02*
X87312500Y-38290500D01*
X106362500Y-38290500D02*
X104267000Y-36195000D01*
X106362500Y-39625000D02*
X106362500Y-38290500D01*
X125412500Y-38290500D02*
X123317000Y-36195000D01*
X125412500Y-39625000D02*
X125412500Y-38290500D01*
X144462500Y-38290500D02*
X142367000Y-36195000D01*
X144462500Y-39625000D02*
X144462500Y-38290500D01*
X163512500Y-38290500D02*
X161417000Y-36195000D01*
X163512500Y-39625000D02*
X163512500Y-38290500D01*
X182562500Y-38290500D02*
X180467000Y-36195000D01*
X182562500Y-39625000D02*
X182562500Y-38290500D01*
X201612500Y-38290500D02*
X199517000Y-36195000D01*
X201612500Y-39625000D02*
X201612500Y-38290500D01*
X220662500Y-38290500D02*
X218567000Y-36195000D01*
X220662500Y-39625000D02*
X220662500Y-38290500D01*
X234442000Y-42418000D02*
X232918000Y-43942000D01*
X237617000Y-36195000D02*
X234442000Y-39370000D01*
X234442000Y-39370000D02*
X234442000Y-42418000D01*
X224759250Y-42006250D02*
X226695000Y-43942000D01*
X223837500Y-42006250D02*
X224759250Y-42006250D01*
X232918000Y-43942000D02*
X226695000Y-43942000D01*
X249745500Y-46355000D02*
X249809000Y-46355000D01*
X249809000Y-46355000D02*
X251968000Y-48514000D01*
X251968000Y-48514000D02*
X261747000Y-48514000D01*
X261747000Y-48514000D02*
X264922000Y-45339000D01*
X264922000Y-38640750D02*
X263525000Y-37243750D01*
X264922000Y-45339000D02*
X264922000Y-38640750D01*
X51593750Y-57340500D02*
X49498250Y-55245000D01*
X51593750Y-58675000D02*
X51593750Y-57340500D01*
X73025000Y-57340500D02*
X70929500Y-55245000D01*
X73025000Y-58675000D02*
X73025000Y-57340500D01*
X92075000Y-57340500D02*
X89979500Y-55245000D01*
X92075000Y-58675000D02*
X92075000Y-57340500D01*
X111125000Y-57340500D02*
X109029500Y-55245000D01*
X111125000Y-58675000D02*
X111125000Y-57340500D01*
X130175000Y-57340500D02*
X128079500Y-55245000D01*
X130175000Y-58675000D02*
X130175000Y-57340500D01*
X149225000Y-57340500D02*
X147129500Y-55245000D01*
X149225000Y-58675000D02*
X149225000Y-57340500D01*
X168275000Y-57340500D02*
X166179500Y-55245000D01*
X168275000Y-58675000D02*
X168275000Y-57340500D01*
X187325000Y-57340500D02*
X185229500Y-55245000D01*
X187325000Y-58675000D02*
X187325000Y-57340500D01*
X206375000Y-57340500D02*
X204279500Y-55245000D01*
X206375000Y-58675000D02*
X206375000Y-57340500D01*
X225425000Y-57340500D02*
X223329500Y-55245000D01*
X225425000Y-58675000D02*
X225425000Y-57340500D01*
X242379500Y-55245000D02*
X242316000Y-55245000D01*
X242316000Y-55245000D02*
X240284000Y-53213000D01*
X240284000Y-53213000D02*
X230378000Y-53213000D01*
X230378000Y-53213000D02*
X227457000Y-56134000D01*
X227457000Y-59913250D02*
X228600000Y-61056250D01*
X227457000Y-56134000D02*
X227457000Y-59913250D01*
X265906250Y-57340500D02*
X263810750Y-55245000D01*
X265906250Y-58675000D02*
X265906250Y-57340500D01*
X53975000Y-76390500D02*
X51879500Y-74295000D01*
X53975000Y-77725000D02*
X53975000Y-76390500D01*
X77787500Y-76390500D02*
X75692000Y-74295000D01*
X77787500Y-77725000D02*
X77787500Y-76390500D01*
X96837500Y-76390500D02*
X94742000Y-74295000D01*
X96837500Y-77725000D02*
X96837500Y-76390500D01*
X115887500Y-76390500D02*
X113792000Y-74295000D01*
X115887500Y-77725000D02*
X115887500Y-76390500D01*
X134937500Y-76390500D02*
X132842000Y-74295000D01*
X134937500Y-77725000D02*
X134937500Y-76390500D01*
X153987500Y-76390500D02*
X151892000Y-74295000D01*
X153987500Y-77725000D02*
X153987500Y-76390500D01*
X173037500Y-76390500D02*
X170942000Y-74295000D01*
X173037500Y-77725000D02*
X173037500Y-76390500D01*
X192087500Y-76390500D02*
X189992000Y-74295000D01*
X192087500Y-77725000D02*
X192087500Y-76390500D01*
X211137500Y-76390500D02*
X209042000Y-74295000D01*
X211137500Y-77725000D02*
X211137500Y-76390500D01*
X230187500Y-76390500D02*
X228092000Y-74295000D01*
X230187500Y-77725000D02*
X230187500Y-76390500D01*
X249237500Y-76390500D02*
X247142000Y-74295000D01*
X249237500Y-77725000D02*
X249237500Y-76390500D01*
X261142750Y-83281250D02*
X260350000Y-83281250D01*
X263017000Y-81407000D02*
X261142750Y-83281250D01*
X266192000Y-74295000D02*
X263017000Y-77470000D01*
X263017000Y-77470000D02*
X263017000Y-81407000D01*
X49212500Y-95440500D02*
X47117000Y-93345000D01*
X49212500Y-96775000D02*
X49212500Y-95440500D01*
X68262500Y-95440500D02*
X66167000Y-93345000D01*
X68262500Y-96775000D02*
X68262500Y-95440500D01*
X87312500Y-95440500D02*
X85217000Y-93345000D01*
X87312500Y-96775000D02*
X87312500Y-95440500D01*
X106362500Y-95440500D02*
X104267000Y-93345000D01*
X106362500Y-96775000D02*
X106362500Y-95440500D01*
X127793750Y-95440500D02*
X125698250Y-93345000D01*
X127793750Y-96775000D02*
X127793750Y-95440500D01*
X158750000Y-95440500D02*
X156654500Y-93345000D01*
X158750000Y-96775000D02*
X158750000Y-95440500D01*
X189706250Y-95440500D02*
X187610750Y-93345000D01*
X189706250Y-96775000D02*
X189706250Y-95440500D01*
X211137500Y-95440500D02*
X209042000Y-93345000D01*
X211137500Y-96775000D02*
X211137500Y-95440500D01*
X230187500Y-95440500D02*
X228092000Y-93345000D01*
X230187500Y-96775000D02*
X230187500Y-95440500D01*
X249237500Y-95440500D02*
X247142000Y-93345000D01*
X249237500Y-96775000D02*
X249237500Y-95440500D01*
X255270000Y-101092000D02*
X261493000Y-101092000D01*
X252412500Y-99156250D02*
X253334250Y-99156250D01*
X253334250Y-99156250D02*
X255270000Y-101092000D01*
X263017000Y-96520000D02*
X264033000Y-95504000D01*
X263017000Y-99568000D02*
X263017000Y-96520000D01*
X264033000Y-95504000D02*
X266192000Y-93345000D01*
X261493000Y-101092000D02*
X263017000Y-99568000D01*
X196115000Y-76835000D02*
X196115000Y-74703000D01*
X196115000Y-74703000D02*
X196088000Y-74676000D01*
X196115000Y-95885000D02*
X196115000Y-93753000D01*
X196115000Y-93753000D02*
X196088000Y-93726000D01*
X191352500Y-57785000D02*
X191352500Y-55662500D01*
X191352500Y-55662500D02*
X191389000Y-55626000D01*
X186590000Y-38735000D02*
X186590000Y-36603000D01*
X186590000Y-36603000D02*
X186563000Y-36576000D01*
X199390000Y-71374000D02*
X196088000Y-74676000D01*
X242336000Y-68941000D02*
X242062000Y-69215000D01*
X242062000Y-69215000D02*
X240157000Y-69215000D01*
X240157000Y-69215000D02*
X238633000Y-70739000D01*
X238633000Y-70739000D02*
X200025000Y-70739000D01*
X200025000Y-70739000D02*
X199390000Y-71374000D01*
X242336000Y-68313000D02*
X242336000Y-68941000D01*
X215165000Y-76835000D02*
X215165000Y-74703000D01*
X215165000Y-74703000D02*
X215138000Y-74676000D01*
X215165000Y-95885000D02*
X215165000Y-93753000D01*
X215165000Y-93753000D02*
X215138000Y-93726000D01*
X210402500Y-57785000D02*
X210402500Y-55662500D01*
X210402500Y-55662500D02*
X210439000Y-55626000D01*
X205640000Y-38735000D02*
X205640000Y-36603000D01*
X205640000Y-36603000D02*
X205613000Y-36576000D01*
X218186000Y-71628000D02*
X215138000Y-74676000D01*
X242836000Y-69203000D02*
X242316000Y-69723000D01*
X242316000Y-69723000D02*
X240411000Y-69723000D01*
X240411000Y-69723000D02*
X238887000Y-71247000D01*
X238887000Y-71247000D02*
X218567000Y-71247000D01*
X242836000Y-68313000D02*
X242836000Y-69203000D01*
X218567000Y-71247000D02*
X218186000Y-71628000D01*
X234215000Y-76835000D02*
X234215000Y-74703000D01*
X234215000Y-74703000D02*
X234188000Y-74676000D01*
X234215000Y-95885000D02*
X234215000Y-93753000D01*
X234215000Y-93753000D02*
X234188000Y-93726000D01*
X229452500Y-57785000D02*
X229452500Y-55662500D01*
X229452500Y-55662500D02*
X229489000Y-55626000D01*
X224690000Y-38735000D02*
X224690000Y-36603000D01*
X224690000Y-36603000D02*
X224663000Y-36576000D01*
X236601000Y-72263000D02*
X234188000Y-74676000D01*
X242570000Y-72263000D02*
X236601000Y-72263000D01*
X243836000Y-70997000D02*
X242570000Y-72263000D01*
X243836000Y-68313000D02*
X243836000Y-70997000D01*
X253265000Y-95885000D02*
X253265000Y-93753000D01*
X253265000Y-93753000D02*
X253238000Y-93726000D01*
X253265000Y-76835000D02*
X253265000Y-74703000D01*
X253265000Y-74703000D02*
X253238000Y-74676000D01*
X250883750Y-57785000D02*
X250883750Y-55684750D01*
X250883750Y-55684750D02*
X250825000Y-55626000D01*
X262672500Y-43815000D02*
X262672500Y-45937500D01*
X262672500Y-45937500D02*
X262636000Y-45974000D01*
X244336000Y-70981000D02*
X244336000Y-68313000D01*
X245745000Y-72390000D02*
X244336000Y-70981000D01*
X250952000Y-72390000D02*
X245745000Y-72390000D01*
X253238000Y-74676000D02*
X250952000Y-72390000D01*
X244336000Y-57797000D02*
X244336000Y-63513000D01*
X244336000Y-57543000D02*
X244336000Y-57797000D01*
X245947500Y-56737250D02*
X245141750Y-56737250D01*
X245141750Y-56737250D02*
X244336000Y-57543000D01*
X245280750Y-39116000D02*
X245280750Y-37857500D01*
X246316500Y-40151750D02*
X245280750Y-39116000D01*
X246316500Y-42241000D02*
X246316500Y-40151750D01*
X245570500Y-42987000D02*
X246316500Y-42241000D01*
X245280750Y-36849750D02*
X245280750Y-37857500D01*
X245491000Y-36639500D02*
X245280750Y-36849750D01*
X246062500Y-36639500D02*
X245491000Y-36639500D01*
X246280750Y-36857750D02*
X246062500Y-36639500D01*
X246280750Y-37857500D02*
X246280750Y-36857750D01*
X246316500Y-43733000D02*
X245570500Y-42987000D01*
X246316500Y-44462000D02*
X246316500Y-43733000D01*
X247447500Y-56737250D02*
X248507250Y-56737250D01*
X248507250Y-56737250D02*
X248539000Y-56769000D01*
X246126000Y-44652500D02*
X246316500Y-44462000D01*
X246126000Y-44831000D02*
X246126000Y-44652500D01*
X245947500Y-54451250D02*
X245947500Y-55169500D01*
X243836000Y-57281000D02*
X243836000Y-63513000D01*
X245947500Y-55169500D02*
X243836000Y-57281000D01*
X245780750Y-37857500D02*
X245780750Y-38834250D01*
X245780750Y-38834250D02*
X246824500Y-39878000D01*
X246824500Y-42241000D02*
X247570500Y-42987000D01*
X246824500Y-39878000D02*
X246824500Y-42241000D01*
X246780750Y-39834250D02*
X246824500Y-39878000D01*
X246780750Y-37857500D02*
X246780750Y-39834250D01*
X246824500Y-43733000D02*
X247570500Y-42987000D01*
X246824500Y-44462000D02*
X246824500Y-43733000D01*
X247447500Y-54451250D02*
X248507250Y-54451250D01*
X248507250Y-54451250D02*
X248539000Y-54483000D01*
X247015000Y-44652500D02*
X246824500Y-44462000D01*
X247015000Y-44831000D02*
X247015000Y-44652500D01*
X247780750Y-37857500D02*
X247780750Y-39429750D01*
X247780750Y-39429750D02*
X247586500Y-39624000D01*
X253206250Y-37262500D02*
X253206250Y-38322250D01*
X253206250Y-38322250D02*
X253238000Y-38354000D01*
X244780750Y-37857500D02*
X244780750Y-39508750D01*
X244780750Y-39508750D02*
X244665500Y-39624000D01*
X242093750Y-42818750D02*
X240811750Y-42818750D01*
X240811750Y-42818750D02*
X240792000Y-42799000D01*
D35*
G36*
X251505750Y-60461214D02*
X251558898Y-60728406D01*
X251663151Y-60980096D01*
X251814504Y-61206611D01*
X252007139Y-61399246D01*
X252233654Y-61550599D01*
X252485344Y-61654852D01*
X252752536Y-61708000D01*
X253024964Y-61708000D01*
X253292156Y-61654852D01*
X253543846Y-61550599D01*
X253770361Y-61399246D01*
X253962996Y-61206611D01*
X254114349Y-60980096D01*
X254218602Y-60728406D01*
X254271750Y-60461214D01*
X254271750Y-60452000D01*
X255466850Y-60452000D01*
X255466850Y-60571416D01*
X255562996Y-61054777D01*
X255751595Y-61510094D01*
X256025397Y-61919869D01*
X256373881Y-62268353D01*
X256783656Y-62542155D01*
X257238973Y-62730754D01*
X257722334Y-62826900D01*
X258215166Y-62826900D01*
X258635500Y-62743291D01*
X258635500Y-68929250D01*
X251467000Y-68929250D01*
X251594000Y-68802250D01*
X251594000Y-68650458D01*
X251569597Y-68527777D01*
X251521730Y-68412215D01*
X251452237Y-68308211D01*
X251363789Y-68219763D01*
X251259785Y-68150270D01*
X251144223Y-68102403D01*
X251021542Y-68078000D01*
X250844750Y-68078000D01*
X250686000Y-68236750D01*
X250686000Y-68929250D01*
X250432000Y-68929250D01*
X250432000Y-68236750D01*
X250273250Y-68078000D01*
X250096458Y-68078000D01*
X249973777Y-68102403D01*
X249858215Y-68150270D01*
X249754211Y-68219763D01*
X249705325Y-68268649D01*
X249694000Y-68262596D01*
X249694000Y-67988189D01*
X249697072Y-67957000D01*
X249692106Y-67906581D01*
X249684812Y-67832518D01*
X249648502Y-67712820D01*
X249630641Y-67679405D01*
X249589538Y-67602506D01*
X249536598Y-67538000D01*
X249510185Y-67505815D01*
X249485956Y-67485931D01*
X248630389Y-66630364D01*
X248634088Y-66630000D01*
X248928043Y-66630000D01*
X248928043Y-66697000D01*
X248937851Y-66796585D01*
X248966899Y-66892343D01*
X249014071Y-66980595D01*
X249077552Y-67057948D01*
X249154905Y-67121429D01*
X249243157Y-67168601D01*
X249338915Y-67197649D01*
X249438500Y-67207457D01*
X249827260Y-67207457D01*
X250228416Y-67608613D01*
X250248236Y-67632764D01*
X250344623Y-67711866D01*
X250454590Y-67770645D01*
X250546275Y-67798457D01*
X250573910Y-67806840D01*
X250698000Y-67819062D01*
X250729088Y-67816000D01*
X252698912Y-67816000D01*
X252730000Y-67819062D01*
X252761088Y-67816000D01*
X252854090Y-67806840D01*
X252973410Y-67770645D01*
X253083377Y-67711866D01*
X253179764Y-67632764D01*
X253199584Y-67608613D01*
X253953279Y-66854918D01*
X254024750Y-66861957D01*
X254824750Y-66861957D01*
X254924335Y-66852149D01*
X255020093Y-66823101D01*
X255071075Y-66795851D01*
X255119961Y-66844737D01*
X255223965Y-66914230D01*
X255339527Y-66962097D01*
X255462208Y-66986500D01*
X255639000Y-66986500D01*
X255797750Y-66827750D01*
X255797750Y-66103500D01*
X256051750Y-66103500D01*
X256051750Y-66827750D01*
X256210500Y-66986500D01*
X256387292Y-66986500D01*
X256509973Y-66962097D01*
X256625535Y-66914230D01*
X256729539Y-66844737D01*
X256817987Y-66756289D01*
X256887480Y-66652285D01*
X256935347Y-66536723D01*
X256959750Y-66414042D01*
X256959750Y-66262250D01*
X256801000Y-66103500D01*
X256051750Y-66103500D01*
X255797750Y-66103500D01*
X255777750Y-66103500D01*
X255777750Y-65849500D01*
X255797750Y-65849500D01*
X255797750Y-65125250D01*
X256051750Y-65125250D01*
X256051750Y-65849500D01*
X256801000Y-65849500D01*
X256959750Y-65690750D01*
X256959750Y-65538958D01*
X256935347Y-65416277D01*
X256887480Y-65300715D01*
X256817987Y-65196711D01*
X256729539Y-65108263D01*
X256625535Y-65038770D01*
X256509973Y-64990903D01*
X256387292Y-64966500D01*
X256210500Y-64966500D01*
X256051750Y-65125250D01*
X255797750Y-65125250D01*
X255639000Y-64966500D01*
X255462208Y-64966500D01*
X255339527Y-64990903D01*
X255223965Y-65038770D01*
X255119961Y-65108263D01*
X255071075Y-65157149D01*
X255020093Y-65129899D01*
X254924335Y-65100851D01*
X254824750Y-65091043D01*
X254024750Y-65091043D01*
X253925165Y-65100851D01*
X253829407Y-65129899D01*
X253741155Y-65177071D01*
X253663802Y-65240552D01*
X253600321Y-65317905D01*
X253553149Y-65406157D01*
X253526461Y-65494135D01*
X253486736Y-65526736D01*
X253466916Y-65550887D01*
X252854277Y-66163527D01*
X252814750Y-66124000D01*
X251865500Y-66124000D01*
X251865500Y-66144000D01*
X251611500Y-66144000D01*
X251611500Y-66124000D01*
X251591500Y-66124000D01*
X251591500Y-65870000D01*
X251611500Y-65870000D01*
X251611500Y-65850000D01*
X251865500Y-65850000D01*
X251865500Y-65870000D01*
X252814750Y-65870000D01*
X252973500Y-65711250D01*
X252973500Y-65234458D01*
X252949097Y-65111777D01*
X252901230Y-64996215D01*
X252831737Y-64892211D01*
X252743633Y-64804107D01*
X252762929Y-64780595D01*
X252810101Y-64692343D01*
X252839149Y-64596585D01*
X252848957Y-64497000D01*
X252848957Y-64450500D01*
X253586640Y-64450500D01*
X253600321Y-64476095D01*
X253663802Y-64553448D01*
X253741155Y-64616929D01*
X253829407Y-64664101D01*
X253925165Y-64693149D01*
X254024750Y-64702957D01*
X254824750Y-64702957D01*
X254924335Y-64693149D01*
X255020093Y-64664101D01*
X255071075Y-64636851D01*
X255119961Y-64685737D01*
X255223965Y-64755230D01*
X255339527Y-64803097D01*
X255462208Y-64827500D01*
X255639000Y-64827500D01*
X255797750Y-64668750D01*
X255797750Y-63944500D01*
X256051750Y-63944500D01*
X256051750Y-64668750D01*
X256210500Y-64827500D01*
X256387292Y-64827500D01*
X256509973Y-64803097D01*
X256625535Y-64755230D01*
X256729539Y-64685737D01*
X256817987Y-64597289D01*
X256887480Y-64493285D01*
X256935347Y-64377723D01*
X256959750Y-64255042D01*
X256959750Y-64103250D01*
X256801000Y-63944500D01*
X256051750Y-63944500D01*
X255797750Y-63944500D01*
X255777750Y-63944500D01*
X255777750Y-63690500D01*
X255797750Y-63690500D01*
X255797750Y-62966250D01*
X256051750Y-62966250D01*
X256051750Y-63690500D01*
X256801000Y-63690500D01*
X256959750Y-63531750D01*
X256959750Y-63379958D01*
X256935347Y-63257277D01*
X256887480Y-63141715D01*
X256817987Y-63037711D01*
X256729539Y-62949263D01*
X256625535Y-62879770D01*
X256509973Y-62831903D01*
X256387292Y-62807500D01*
X256210500Y-62807500D01*
X256051750Y-62966250D01*
X255797750Y-62966250D01*
X255639000Y-62807500D01*
X255462208Y-62807500D01*
X255339527Y-62831903D01*
X255223965Y-62879770D01*
X255119961Y-62949263D01*
X255071075Y-62998149D01*
X255020093Y-62970899D01*
X254924335Y-62941851D01*
X254824750Y-62932043D01*
X254024750Y-62932043D01*
X253925165Y-62941851D01*
X253829407Y-62970899D01*
X253741155Y-63018071D01*
X253663802Y-63081552D01*
X253600321Y-63158905D01*
X253586640Y-63184500D01*
X252848957Y-63184500D01*
X252848957Y-63097000D01*
X252839149Y-62997415D01*
X252810101Y-62901657D01*
X252762929Y-62813405D01*
X252699448Y-62736052D01*
X252622095Y-62672571D01*
X252533843Y-62625399D01*
X252438085Y-62596351D01*
X252338500Y-62586543D01*
X251949741Y-62586543D01*
X251421584Y-62058387D01*
X251401764Y-62034236D01*
X251305377Y-61955134D01*
X251195410Y-61896355D01*
X251076090Y-61860160D01*
X250983088Y-61851000D01*
X250952000Y-61847938D01*
X250920912Y-61851000D01*
X248979088Y-61851000D01*
X248948000Y-61847938D01*
X248916912Y-61851000D01*
X248823910Y-61860160D01*
X248704590Y-61896355D01*
X248594623Y-61955134D01*
X248498236Y-62034236D01*
X248478416Y-62058387D01*
X247006803Y-63530000D01*
X246702827Y-63530000D01*
X247993371Y-62239457D01*
X248025000Y-62239457D01*
X248124585Y-62229649D01*
X248220343Y-62200601D01*
X248308595Y-62153429D01*
X248385948Y-62089948D01*
X248449429Y-62012595D01*
X248496601Y-61924343D01*
X248525649Y-61828585D01*
X248535457Y-61729000D01*
X248535457Y-60929000D01*
X248525649Y-60829415D01*
X248496601Y-60733657D01*
X248469351Y-60682675D01*
X248518237Y-60633789D01*
X248587730Y-60529785D01*
X248619949Y-60452000D01*
X251505750Y-60452000D01*
X251505750Y-60461214D01*
X251505750Y-60461214D01*
G37*
X251505750Y-60461214D02*
X251558898Y-60728406D01*
X251663151Y-60980096D01*
X251814504Y-61206611D01*
X252007139Y-61399246D01*
X252233654Y-61550599D01*
X252485344Y-61654852D01*
X252752536Y-61708000D01*
X253024964Y-61708000D01*
X253292156Y-61654852D01*
X253543846Y-61550599D01*
X253770361Y-61399246D01*
X253962996Y-61206611D01*
X254114349Y-60980096D01*
X254218602Y-60728406D01*
X254271750Y-60461214D01*
X254271750Y-60452000D01*
X255466850Y-60452000D01*
X255466850Y-60571416D01*
X255562996Y-61054777D01*
X255751595Y-61510094D01*
X256025397Y-61919869D01*
X256373881Y-62268353D01*
X256783656Y-62542155D01*
X257238973Y-62730754D01*
X257722334Y-62826900D01*
X258215166Y-62826900D01*
X258635500Y-62743291D01*
X258635500Y-68929250D01*
X251467000Y-68929250D01*
X251594000Y-68802250D01*
X251594000Y-68650458D01*
X251569597Y-68527777D01*
X251521730Y-68412215D01*
X251452237Y-68308211D01*
X251363789Y-68219763D01*
X251259785Y-68150270D01*
X251144223Y-68102403D01*
X251021542Y-68078000D01*
X250844750Y-68078000D01*
X250686000Y-68236750D01*
X250686000Y-68929250D01*
X250432000Y-68929250D01*
X250432000Y-68236750D01*
X250273250Y-68078000D01*
X250096458Y-68078000D01*
X249973777Y-68102403D01*
X249858215Y-68150270D01*
X249754211Y-68219763D01*
X249705325Y-68268649D01*
X249694000Y-68262596D01*
X249694000Y-67988189D01*
X249697072Y-67957000D01*
X249692106Y-67906581D01*
X249684812Y-67832518D01*
X249648502Y-67712820D01*
X249630641Y-67679405D01*
X249589538Y-67602506D01*
X249536598Y-67538000D01*
X249510185Y-67505815D01*
X249485956Y-67485931D01*
X248630389Y-66630364D01*
X248634088Y-66630000D01*
X248928043Y-66630000D01*
X248928043Y-66697000D01*
X248937851Y-66796585D01*
X248966899Y-66892343D01*
X249014071Y-66980595D01*
X249077552Y-67057948D01*
X249154905Y-67121429D01*
X249243157Y-67168601D01*
X249338915Y-67197649D01*
X249438500Y-67207457D01*
X249827260Y-67207457D01*
X250228416Y-67608613D01*
X250248236Y-67632764D01*
X250344623Y-67711866D01*
X250454590Y-67770645D01*
X250546275Y-67798457D01*
X250573910Y-67806840D01*
X250698000Y-67819062D01*
X250729088Y-67816000D01*
X252698912Y-67816000D01*
X252730000Y-67819062D01*
X252761088Y-67816000D01*
X252854090Y-67806840D01*
X252973410Y-67770645D01*
X253083377Y-67711866D01*
X253179764Y-67632764D01*
X253199584Y-67608613D01*
X253953279Y-66854918D01*
X254024750Y-66861957D01*
X254824750Y-66861957D01*
X254924335Y-66852149D01*
X255020093Y-66823101D01*
X255071075Y-66795851D01*
X255119961Y-66844737D01*
X255223965Y-66914230D01*
X255339527Y-66962097D01*
X255462208Y-66986500D01*
X255639000Y-66986500D01*
X255797750Y-66827750D01*
X255797750Y-66103500D01*
X256051750Y-66103500D01*
X256051750Y-66827750D01*
X256210500Y-66986500D01*
X256387292Y-66986500D01*
X256509973Y-66962097D01*
X256625535Y-66914230D01*
X256729539Y-66844737D01*
X256817987Y-66756289D01*
X256887480Y-66652285D01*
X256935347Y-66536723D01*
X256959750Y-66414042D01*
X256959750Y-66262250D01*
X256801000Y-66103500D01*
X256051750Y-66103500D01*
X255797750Y-66103500D01*
X255777750Y-66103500D01*
X255777750Y-65849500D01*
X255797750Y-65849500D01*
X255797750Y-65125250D01*
X256051750Y-65125250D01*
X256051750Y-65849500D01*
X256801000Y-65849500D01*
X256959750Y-65690750D01*
X256959750Y-65538958D01*
X256935347Y-65416277D01*
X256887480Y-65300715D01*
X256817987Y-65196711D01*
X256729539Y-65108263D01*
X256625535Y-65038770D01*
X256509973Y-64990903D01*
X256387292Y-64966500D01*
X256210500Y-64966500D01*
X256051750Y-65125250D01*
X255797750Y-65125250D01*
X255639000Y-64966500D01*
X255462208Y-64966500D01*
X255339527Y-64990903D01*
X255223965Y-65038770D01*
X255119961Y-65108263D01*
X255071075Y-65157149D01*
X255020093Y-65129899D01*
X254924335Y-65100851D01*
X254824750Y-65091043D01*
X254024750Y-65091043D01*
X253925165Y-65100851D01*
X253829407Y-65129899D01*
X253741155Y-65177071D01*
X253663802Y-65240552D01*
X253600321Y-65317905D01*
X253553149Y-65406157D01*
X253526461Y-65494135D01*
X253486736Y-65526736D01*
X253466916Y-65550887D01*
X252854277Y-66163527D01*
X252814750Y-66124000D01*
X251865500Y-66124000D01*
X251865500Y-66144000D01*
X251611500Y-66144000D01*
X251611500Y-66124000D01*
X251591500Y-66124000D01*
X251591500Y-65870000D01*
X251611500Y-65870000D01*
X251611500Y-65850000D01*
X251865500Y-65850000D01*
X251865500Y-65870000D01*
X252814750Y-65870000D01*
X252973500Y-65711250D01*
X252973500Y-65234458D01*
X252949097Y-65111777D01*
X252901230Y-64996215D01*
X252831737Y-64892211D01*
X252743633Y-64804107D01*
X252762929Y-64780595D01*
X252810101Y-64692343D01*
X252839149Y-64596585D01*
X252848957Y-64497000D01*
X252848957Y-64450500D01*
X253586640Y-64450500D01*
X253600321Y-64476095D01*
X253663802Y-64553448D01*
X253741155Y-64616929D01*
X253829407Y-64664101D01*
X253925165Y-64693149D01*
X254024750Y-64702957D01*
X254824750Y-64702957D01*
X254924335Y-64693149D01*
X255020093Y-64664101D01*
X255071075Y-64636851D01*
X255119961Y-64685737D01*
X255223965Y-64755230D01*
X255339527Y-64803097D01*
X255462208Y-64827500D01*
X255639000Y-64827500D01*
X255797750Y-64668750D01*
X255797750Y-63944500D01*
X256051750Y-63944500D01*
X256051750Y-64668750D01*
X256210500Y-64827500D01*
X256387292Y-64827500D01*
X256509973Y-64803097D01*
X256625535Y-64755230D01*
X256729539Y-64685737D01*
X256817987Y-64597289D01*
X256887480Y-64493285D01*
X256935347Y-64377723D01*
X256959750Y-64255042D01*
X256959750Y-64103250D01*
X256801000Y-63944500D01*
X256051750Y-63944500D01*
X255797750Y-63944500D01*
X255777750Y-63944500D01*
X255777750Y-63690500D01*
X255797750Y-63690500D01*
X255797750Y-62966250D01*
X256051750Y-62966250D01*
X256051750Y-63690500D01*
X256801000Y-63690500D01*
X256959750Y-63531750D01*
X256959750Y-63379958D01*
X256935347Y-63257277D01*
X256887480Y-63141715D01*
X256817987Y-63037711D01*
X256729539Y-62949263D01*
X256625535Y-62879770D01*
X256509973Y-62831903D01*
X256387292Y-62807500D01*
X256210500Y-62807500D01*
X256051750Y-62966250D01*
X255797750Y-62966250D01*
X255639000Y-62807500D01*
X255462208Y-62807500D01*
X255339527Y-62831903D01*
X255223965Y-62879770D01*
X255119961Y-62949263D01*
X255071075Y-62998149D01*
X255020093Y-62970899D01*
X254924335Y-62941851D01*
X254824750Y-62932043D01*
X254024750Y-62932043D01*
X253925165Y-62941851D01*
X253829407Y-62970899D01*
X253741155Y-63018071D01*
X253663802Y-63081552D01*
X253600321Y-63158905D01*
X253586640Y-63184500D01*
X252848957Y-63184500D01*
X252848957Y-63097000D01*
X252839149Y-62997415D01*
X252810101Y-62901657D01*
X252762929Y-62813405D01*
X252699448Y-62736052D01*
X252622095Y-62672571D01*
X252533843Y-62625399D01*
X252438085Y-62596351D01*
X252338500Y-62586543D01*
X251949741Y-62586543D01*
X251421584Y-62058387D01*
X251401764Y-62034236D01*
X251305377Y-61955134D01*
X251195410Y-61896355D01*
X251076090Y-61860160D01*
X250983088Y-61851000D01*
X250952000Y-61847938D01*
X250920912Y-61851000D01*
X248979088Y-61851000D01*
X248948000Y-61847938D01*
X248916912Y-61851000D01*
X248823910Y-61860160D01*
X248704590Y-61896355D01*
X248594623Y-61955134D01*
X248498236Y-62034236D01*
X248478416Y-62058387D01*
X247006803Y-63530000D01*
X246702827Y-63530000D01*
X247993371Y-62239457D01*
X248025000Y-62239457D01*
X248124585Y-62229649D01*
X248220343Y-62200601D01*
X248308595Y-62153429D01*
X248385948Y-62089948D01*
X248449429Y-62012595D01*
X248496601Y-61924343D01*
X248525649Y-61828585D01*
X248535457Y-61729000D01*
X248535457Y-60929000D01*
X248525649Y-60829415D01*
X248496601Y-60733657D01*
X248469351Y-60682675D01*
X248518237Y-60633789D01*
X248587730Y-60529785D01*
X248619949Y-60452000D01*
X251505750Y-60452000D01*
X251505750Y-60461214D01*
G36*
X248962250Y-63670000D02*
X249911500Y-63670000D01*
X249911500Y-63650000D01*
X250165500Y-63650000D01*
X250165500Y-63670000D01*
X250185500Y-63670000D01*
X250185500Y-63924000D01*
X250165500Y-63924000D01*
X250165500Y-63944000D01*
X249911500Y-63944000D01*
X249911500Y-63924000D01*
X248962250Y-63924000D01*
X248803500Y-64082750D01*
X248803500Y-64559542D01*
X248827903Y-64682223D01*
X248875770Y-64797785D01*
X248945263Y-64901789D01*
X249033367Y-64989893D01*
X249014071Y-65013405D01*
X248966899Y-65101657D01*
X248937851Y-65197415D01*
X248928043Y-65297000D01*
X248928043Y-65364000D01*
X248865197Y-65364000D01*
X247914197Y-64413000D01*
X248809724Y-63517474D01*
X248962250Y-63670000D01*
X248962250Y-63670000D01*
G37*
X248962250Y-63670000D02*
X249911500Y-63670000D01*
X249911500Y-63650000D01*
X250165500Y-63650000D01*
X250165500Y-63670000D01*
X250185500Y-63670000D01*
X250185500Y-63924000D01*
X250165500Y-63924000D01*
X250165500Y-63944000D01*
X249911500Y-63944000D01*
X249911500Y-63924000D01*
X248962250Y-63924000D01*
X248803500Y-64082750D01*
X248803500Y-64559542D01*
X248827903Y-64682223D01*
X248875770Y-64797785D01*
X248945263Y-64901789D01*
X249033367Y-64989893D01*
X249014071Y-65013405D01*
X248966899Y-65101657D01*
X248937851Y-65197415D01*
X248928043Y-65297000D01*
X248928043Y-65364000D01*
X248865197Y-65364000D01*
X247914197Y-64413000D01*
X248809724Y-63517474D01*
X248962250Y-63670000D01*
G36*
X242770293Y-37973000D02*
X242741347Y-37973000D01*
X242770293Y-37905658D01*
X242770293Y-37973000D01*
X242770293Y-37973000D01*
G37*
X242770293Y-37973000D02*
X242741347Y-37973000D01*
X242770293Y-37905658D01*
X242770293Y-37973000D01*
G36*
X249320153Y-37973000D02*
X249291207Y-37973000D01*
X249291207Y-37905658D01*
X249320153Y-37973000D01*
X249320153Y-37973000D01*
G37*
X249320153Y-37973000D02*
X249291207Y-37973000D01*
X249291207Y-37905658D01*
X249320153Y-37973000D01*
G36*
X249215750Y-32335500D02*
X249215750Y-32635500D01*
X250223750Y-32635500D01*
X250223750Y-32615500D01*
X250477750Y-32615500D01*
X250477750Y-32635500D01*
X250497750Y-32635500D01*
X250497750Y-32889500D01*
X250477750Y-32889500D01*
X250477750Y-34030454D01*
X250652624Y-34156619D01*
X250698000Y-34140380D01*
X250698000Y-35314620D01*
X250652624Y-35298381D01*
X250477750Y-35424546D01*
X250477750Y-36815500D01*
X250497750Y-36815500D01*
X250497750Y-37069500D01*
X250477750Y-37069500D01*
X250477750Y-37089500D01*
X250223750Y-37089500D01*
X250223750Y-37069500D01*
X250203750Y-37069500D01*
X250203750Y-36815500D01*
X250223750Y-36815500D01*
X250223750Y-35424546D01*
X250048876Y-35298381D01*
X249825774Y-35378224D01*
X249637986Y-35500131D01*
X249477589Y-35656331D01*
X249418044Y-35742940D01*
X249315324Y-35674305D01*
X249163727Y-35611511D01*
X249002793Y-35579500D01*
X248838707Y-35579500D01*
X248677773Y-35611511D01*
X248526176Y-35674305D01*
X248389743Y-35765466D01*
X248273716Y-35881493D01*
X248182555Y-36017926D01*
X248119761Y-36169523D01*
X248087750Y-36330457D01*
X248087750Y-36494543D01*
X248114410Y-36628577D01*
X248081165Y-36631851D01*
X248055750Y-36639561D01*
X248030335Y-36631851D01*
X247930750Y-36622043D01*
X247630750Y-36622043D01*
X247531165Y-36631851D01*
X247530750Y-36631977D01*
X247530335Y-36631851D01*
X247430750Y-36622043D01*
X247130750Y-36622043D01*
X247031165Y-36631851D01*
X247030750Y-36631977D01*
X247030335Y-36631851D01*
X246930750Y-36622043D01*
X246870732Y-36622043D01*
X246868395Y-36614340D01*
X246809616Y-36504373D01*
X246730514Y-36407986D01*
X246706363Y-36388166D01*
X246532084Y-36213887D01*
X246512264Y-36189736D01*
X246415877Y-36110634D01*
X246305910Y-36051855D01*
X246186590Y-36015660D01*
X246093588Y-36006500D01*
X246062500Y-36003438D01*
X246031412Y-36006500D01*
X245522085Y-36006500D01*
X245490999Y-36003438D01*
X245459913Y-36006500D01*
X245459912Y-36006500D01*
X245366910Y-36015660D01*
X245247590Y-36051855D01*
X245137623Y-36110634D01*
X245041236Y-36189736D01*
X245021412Y-36213892D01*
X244855138Y-36380165D01*
X244830986Y-36399986D01*
X244751884Y-36496374D01*
X244693105Y-36606341D01*
X244688342Y-36622043D01*
X244630750Y-36622043D01*
X244531165Y-36631851D01*
X244530750Y-36631977D01*
X244530335Y-36631851D01*
X244430750Y-36622043D01*
X244130750Y-36622043D01*
X244031165Y-36631851D01*
X244005750Y-36639561D01*
X243980335Y-36631851D01*
X243947090Y-36628577D01*
X243973750Y-36494543D01*
X243973750Y-36330457D01*
X243941739Y-36169523D01*
X243878945Y-36017926D01*
X243787784Y-35881493D01*
X243671757Y-35765466D01*
X243535324Y-35674305D01*
X243383727Y-35611511D01*
X243222793Y-35579500D01*
X243058707Y-35579500D01*
X242897773Y-35611511D01*
X242746176Y-35674305D01*
X242643456Y-35742940D01*
X242583911Y-35656331D01*
X242423514Y-35500131D01*
X242235726Y-35378224D01*
X242012624Y-35298381D01*
X241837750Y-35424546D01*
X241837750Y-36815500D01*
X241857750Y-36815500D01*
X241857750Y-37069500D01*
X241837750Y-37069500D01*
X241837750Y-37089500D01*
X241583750Y-37089500D01*
X241583750Y-37069500D01*
X241563750Y-37069500D01*
X241563750Y-36815500D01*
X241583750Y-36815500D01*
X241583750Y-35424546D01*
X241427000Y-35311457D01*
X241427000Y-34143543D01*
X241583750Y-34030454D01*
X241583750Y-32889500D01*
X241837750Y-32889500D01*
X241837750Y-34030454D01*
X242012624Y-34156619D01*
X242235726Y-34076776D01*
X242423514Y-33954869D01*
X242583911Y-33798669D01*
X242710753Y-33614178D01*
X242799165Y-33408487D01*
X242845750Y-33189500D01*
X242845750Y-32889500D01*
X249215750Y-32889500D01*
X249215750Y-33189500D01*
X249262335Y-33408487D01*
X249350747Y-33614178D01*
X249477589Y-33798669D01*
X249637986Y-33954869D01*
X249825774Y-34076776D01*
X250048876Y-34156619D01*
X250223750Y-34030454D01*
X250223750Y-32889500D01*
X249215750Y-32889500D01*
X242845750Y-32889500D01*
X241837750Y-32889500D01*
X241583750Y-32889500D01*
X241563750Y-32889500D01*
X241563750Y-32635500D01*
X241583750Y-32635500D01*
X241583750Y-32615500D01*
X241837750Y-32615500D01*
X241837750Y-32635500D01*
X242845750Y-32635500D01*
X242845750Y-32335500D01*
X242845218Y-32333000D01*
X249216282Y-32333000D01*
X249215750Y-32335500D01*
X249215750Y-32335500D01*
G37*
X249215750Y-32335500D02*
X249215750Y-32635500D01*
X250223750Y-32635500D01*
X250223750Y-32615500D01*
X250477750Y-32615500D01*
X250477750Y-32635500D01*
X250497750Y-32635500D01*
X250497750Y-32889500D01*
X250477750Y-32889500D01*
X250477750Y-34030454D01*
X250652624Y-34156619D01*
X250698000Y-34140380D01*
X250698000Y-35314620D01*
X250652624Y-35298381D01*
X250477750Y-35424546D01*
X250477750Y-36815500D01*
X250497750Y-36815500D01*
X250497750Y-37069500D01*
X250477750Y-37069500D01*
X250477750Y-37089500D01*
X250223750Y-37089500D01*
X250223750Y-37069500D01*
X250203750Y-37069500D01*
X250203750Y-36815500D01*
X250223750Y-36815500D01*
X250223750Y-35424546D01*
X250048876Y-35298381D01*
X249825774Y-35378224D01*
X249637986Y-35500131D01*
X249477589Y-35656331D01*
X249418044Y-35742940D01*
X249315324Y-35674305D01*
X249163727Y-35611511D01*
X249002793Y-35579500D01*
X248838707Y-35579500D01*
X248677773Y-35611511D01*
X248526176Y-35674305D01*
X248389743Y-35765466D01*
X248273716Y-35881493D01*
X248182555Y-36017926D01*
X248119761Y-36169523D01*
X248087750Y-36330457D01*
X248087750Y-36494543D01*
X248114410Y-36628577D01*
X248081165Y-36631851D01*
X248055750Y-36639561D01*
X248030335Y-36631851D01*
X247930750Y-36622043D01*
X247630750Y-36622043D01*
X247531165Y-36631851D01*
X247530750Y-36631977D01*
X247530335Y-36631851D01*
X247430750Y-36622043D01*
X247130750Y-36622043D01*
X247031165Y-36631851D01*
X247030750Y-36631977D01*
X247030335Y-36631851D01*
X246930750Y-36622043D01*
X246870732Y-36622043D01*
X246868395Y-36614340D01*
X246809616Y-36504373D01*
X246730514Y-36407986D01*
X246706363Y-36388166D01*
X246532084Y-36213887D01*
X246512264Y-36189736D01*
X246415877Y-36110634D01*
X246305910Y-36051855D01*
X246186590Y-36015660D01*
X246093588Y-36006500D01*
X246062500Y-36003438D01*
X246031412Y-36006500D01*
X245522085Y-36006500D01*
X245490999Y-36003438D01*
X245459913Y-36006500D01*
X245459912Y-36006500D01*
X245366910Y-36015660D01*
X245247590Y-36051855D01*
X245137623Y-36110634D01*
X245041236Y-36189736D01*
X245021412Y-36213892D01*
X244855138Y-36380165D01*
X244830986Y-36399986D01*
X244751884Y-36496374D01*
X244693105Y-36606341D01*
X244688342Y-36622043D01*
X244630750Y-36622043D01*
X244531165Y-36631851D01*
X244530750Y-36631977D01*
X244530335Y-36631851D01*
X244430750Y-36622043D01*
X244130750Y-36622043D01*
X244031165Y-36631851D01*
X244005750Y-36639561D01*
X243980335Y-36631851D01*
X243947090Y-36628577D01*
X243973750Y-36494543D01*
X243973750Y-36330457D01*
X243941739Y-36169523D01*
X243878945Y-36017926D01*
X243787784Y-35881493D01*
X243671757Y-35765466D01*
X243535324Y-35674305D01*
X243383727Y-35611511D01*
X243222793Y-35579500D01*
X243058707Y-35579500D01*
X242897773Y-35611511D01*
X242746176Y-35674305D01*
X242643456Y-35742940D01*
X242583911Y-35656331D01*
X242423514Y-35500131D01*
X242235726Y-35378224D01*
X242012624Y-35298381D01*
X241837750Y-35424546D01*
X241837750Y-36815500D01*
X241857750Y-36815500D01*
X241857750Y-37069500D01*
X241837750Y-37069500D01*
X241837750Y-37089500D01*
X241583750Y-37089500D01*
X241583750Y-37069500D01*
X241563750Y-37069500D01*
X241563750Y-36815500D01*
X241583750Y-36815500D01*
X241583750Y-35424546D01*
X241427000Y-35311457D01*
X241427000Y-34143543D01*
X241583750Y-34030454D01*
X241583750Y-32889500D01*
X241837750Y-32889500D01*
X241837750Y-34030454D01*
X242012624Y-34156619D01*
X242235726Y-34076776D01*
X242423514Y-33954869D01*
X242583911Y-33798669D01*
X242710753Y-33614178D01*
X242799165Y-33408487D01*
X242845750Y-33189500D01*
X242845750Y-32889500D01*
X249215750Y-32889500D01*
X249215750Y-33189500D01*
X249262335Y-33408487D01*
X249350747Y-33614178D01*
X249477589Y-33798669D01*
X249637986Y-33954869D01*
X249825774Y-34076776D01*
X250048876Y-34156619D01*
X250223750Y-34030454D01*
X250223750Y-32889500D01*
X249215750Y-32889500D01*
X242845750Y-32889500D01*
X241837750Y-32889500D01*
X241583750Y-32889500D01*
X241563750Y-32889500D01*
X241563750Y-32635500D01*
X241583750Y-32635500D01*
X241583750Y-32615500D01*
X241837750Y-32615500D01*
X241837750Y-32635500D01*
X242845750Y-32635500D01*
X242845750Y-32335500D01*
X242845218Y-32333000D01*
X249216282Y-32333000D01*
X249215750Y-32335500D01*
M02*
