G04 #@! TF.GenerationSoftware,KiCad,Pcbnew,(5.0.0)*
G04 #@! TF.CreationDate,2019-01-29T14:29:27-08:00*
G04 #@! TF.ProjectId,UT47.2-Bottom,555434372E322D426F74746F6D2E6B69,rev?*
G04 #@! TF.SameCoordinates,Original*
G04 #@! TF.FileFunction,Copper,L2,Bot,Signal*
G04 #@! TF.FilePolarity,Positive*
%FSLAX46Y46*%
G04 Gerber Fmt 4.6, Leading zero omitted, Abs format (unit mm)*
G04 Created by KiCad (PCBNEW (5.0.0)) date 01/29/19 14:29:27*
%MOMM*%
%LPD*%
G01*
G04 APERTURE LIST*
G04 #@! TA.AperFunction,EtchedComponent*
%ADD10C,0.010000*%
G04 #@! TD*
G04 #@! TA.AperFunction,Conductor*
%ADD11C,1.524000*%
G04 #@! TD*
G04 #@! TA.AperFunction,Conductor*
%ADD12C,0.254000*%
G04 #@! TD*
G04 APERTURE END LIST*
D10*
G04 #@! TO.C,G\002A\002A\002A*
G36*
X33333531Y-97486045D02*
X33209413Y-97487415D01*
X33097701Y-97491572D01*
X32995108Y-97498919D01*
X32898344Y-97509860D01*
X32804122Y-97524798D01*
X32709153Y-97544137D01*
X32610149Y-97568281D01*
X32564870Y-97580418D01*
X32356323Y-97645656D01*
X32154235Y-97724992D01*
X31959372Y-97818028D01*
X31772501Y-97924368D01*
X31594386Y-98043616D01*
X31442240Y-98161617D01*
X31284572Y-98302342D01*
X31137235Y-98453787D01*
X31000914Y-98614885D01*
X30876292Y-98784567D01*
X30764053Y-98961766D01*
X30664880Y-99145416D01*
X30579458Y-99334447D01*
X30508470Y-99527793D01*
X30459716Y-99695803D01*
X30426645Y-99835789D01*
X30401285Y-99967725D01*
X30382893Y-100096997D01*
X30370725Y-100228993D01*
X30364039Y-100369100D01*
X30363386Y-100394500D01*
X30366105Y-100612797D01*
X30384300Y-100827580D01*
X30417965Y-101038821D01*
X30467094Y-101246489D01*
X30531681Y-101450555D01*
X30595878Y-101614487D01*
X30623961Y-101679752D01*
X30648023Y-101733910D01*
X30669892Y-101780613D01*
X30691393Y-101823513D01*
X30714354Y-101866263D01*
X30740600Y-101912515D01*
X30769725Y-101962156D01*
X30888944Y-102148427D01*
X31019048Y-102323153D01*
X31160171Y-102486465D01*
X31312445Y-102638496D01*
X31476003Y-102779380D01*
X31650976Y-102909248D01*
X31833344Y-103025775D01*
X31886173Y-103056744D01*
X31932086Y-103082721D01*
X31974735Y-103105531D01*
X32017772Y-103127001D01*
X32064849Y-103148957D01*
X32119619Y-103173225D01*
X32181013Y-103199622D01*
X32277246Y-103239169D01*
X32365964Y-103272208D01*
X32453078Y-103300695D01*
X32544502Y-103326589D01*
X32627094Y-103347322D01*
X32791610Y-103382876D01*
X32948705Y-103408553D01*
X33102933Y-103424893D01*
X33258851Y-103432436D01*
X33349406Y-103433013D01*
X33400625Y-103432498D01*
X33448746Y-103431793D01*
X33490626Y-103430960D01*
X33523122Y-103430063D01*
X33543090Y-103429165D01*
X33543875Y-103429109D01*
X33760049Y-103405157D01*
X33972806Y-103366170D01*
X34181287Y-103312467D01*
X34384632Y-103244363D01*
X34581984Y-103162176D01*
X34772482Y-103066225D01*
X34955268Y-102956826D01*
X35106224Y-102851796D01*
X35279151Y-102713449D01*
X35439835Y-102565088D01*
X35588049Y-102407039D01*
X35723571Y-102239632D01*
X35846176Y-102063194D01*
X35955639Y-101878052D01*
X36051737Y-101684535D01*
X36134244Y-101482971D01*
X36202937Y-101273688D01*
X36215082Y-101230630D01*
X36241448Y-101128835D01*
X36262833Y-101032511D01*
X36279641Y-100938367D01*
X36292275Y-100843117D01*
X36301140Y-100743470D01*
X36306638Y-100636140D01*
X36309174Y-100517836D01*
X36309455Y-100461969D01*
X36308780Y-100406608D01*
X35776706Y-100406608D01*
X35776603Y-100486746D01*
X35774937Y-100566410D01*
X35771741Y-100641537D01*
X35767044Y-100708060D01*
X35763324Y-100743750D01*
X35731450Y-100941048D01*
X35684799Y-101132663D01*
X35623549Y-101318222D01*
X35547881Y-101497349D01*
X35457973Y-101669669D01*
X35354006Y-101834809D01*
X35236159Y-101992393D01*
X35104612Y-102142047D01*
X35082276Y-102165260D01*
X34948042Y-102292334D01*
X34802340Y-102410270D01*
X34647869Y-102517090D01*
X34487331Y-102610816D01*
X34441542Y-102634504D01*
X34367134Y-102671153D01*
X34301893Y-102701372D01*
X34241396Y-102726940D01*
X34181222Y-102749634D01*
X34116949Y-102771233D01*
X34051875Y-102791227D01*
X33862662Y-102840640D01*
X33676911Y-102875091D01*
X33493173Y-102894714D01*
X33309997Y-102899642D01*
X33125936Y-102890011D01*
X33059394Y-102883031D01*
X32872062Y-102854087D01*
X32692481Y-102812278D01*
X32518143Y-102756854D01*
X32346541Y-102687064D01*
X32249584Y-102640866D01*
X32078952Y-102547447D01*
X31919536Y-102443712D01*
X31770578Y-102328974D01*
X31631321Y-102202550D01*
X31501006Y-102063754D01*
X31378876Y-101911903D01*
X31270608Y-101756259D01*
X31245482Y-101715068D01*
X31216159Y-101662940D01*
X31184459Y-101603496D01*
X31152201Y-101540356D01*
X31121207Y-101477140D01*
X31093294Y-101417467D01*
X31070285Y-101364957D01*
X31056847Y-101331125D01*
X30993980Y-101139584D01*
X30946584Y-100946845D01*
X30914700Y-100753450D01*
X30898370Y-100559940D01*
X30897632Y-100366857D01*
X30912528Y-100174742D01*
X30943098Y-99984136D01*
X30952901Y-99938094D01*
X30986550Y-99801801D01*
X31024858Y-99675618D01*
X31069796Y-99554007D01*
X31123337Y-99431432D01*
X31160996Y-99353958D01*
X31254701Y-99185110D01*
X31361526Y-99024673D01*
X31480702Y-98873368D01*
X31611463Y-98731914D01*
X31753040Y-98601031D01*
X31904666Y-98481440D01*
X32065573Y-98373860D01*
X32234993Y-98279011D01*
X32379175Y-98211480D01*
X32550803Y-98145085D01*
X32723357Y-98093087D01*
X32898844Y-98055078D01*
X33079274Y-98030651D01*
X33266655Y-98019397D01*
X33329562Y-98018507D01*
X33527657Y-98024877D01*
X33719285Y-98045522D01*
X33905219Y-98080673D01*
X34086235Y-98130567D01*
X34263106Y-98195435D01*
X34436606Y-98275513D01*
X34607509Y-98371035D01*
X34708206Y-98435244D01*
X34847639Y-98536772D01*
X34981837Y-98651278D01*
X35109159Y-98776839D01*
X35227965Y-98911531D01*
X35336614Y-99053431D01*
X35433465Y-99200615D01*
X35516878Y-99351161D01*
X35551674Y-99424080D01*
X35613077Y-99568939D01*
X35663308Y-99708178D01*
X35703565Y-99846126D01*
X35735044Y-99987114D01*
X35758944Y-100135471D01*
X35767345Y-100204000D01*
X35772108Y-100261170D01*
X35775218Y-100330061D01*
X35776706Y-100406608D01*
X36308780Y-100406608D01*
X36307710Y-100318973D01*
X36301836Y-100188106D01*
X36291262Y-100066025D01*
X36275415Y-99949385D01*
X36253723Y-99834844D01*
X36225613Y-99719059D01*
X36190514Y-99598687D01*
X36147853Y-99470384D01*
X36132159Y-99426125D01*
X36053774Y-99231406D01*
X35960934Y-99043072D01*
X35853828Y-98861385D01*
X35732648Y-98686608D01*
X35597583Y-98519003D01*
X35448826Y-98358833D01*
X35286567Y-98206360D01*
X35179729Y-98116179D01*
X35093900Y-98050686D01*
X34996361Y-97983360D01*
X34890752Y-97916412D01*
X34780714Y-97852055D01*
X34669887Y-97792500D01*
X34561911Y-97739958D01*
X34555906Y-97737215D01*
X34485946Y-97707342D01*
X34404765Y-97675956D01*
X34316733Y-97644536D01*
X34226221Y-97614562D01*
X34137599Y-97587511D01*
X34055236Y-97564864D01*
X34023350Y-97556971D01*
X33930125Y-97536203D01*
X33841151Y-97519543D01*
X33753147Y-97506652D01*
X33662831Y-97497195D01*
X33566922Y-97490832D01*
X33462140Y-97487228D01*
X33345205Y-97486044D01*
X33333531Y-97486045D01*
X33333531Y-97486045D01*
G37*
X33333531Y-97486045D02*
X33209413Y-97487415D01*
X33097701Y-97491572D01*
X32995108Y-97498919D01*
X32898344Y-97509860D01*
X32804122Y-97524798D01*
X32709153Y-97544137D01*
X32610149Y-97568281D01*
X32564870Y-97580418D01*
X32356323Y-97645656D01*
X32154235Y-97724992D01*
X31959372Y-97818028D01*
X31772501Y-97924368D01*
X31594386Y-98043616D01*
X31442240Y-98161617D01*
X31284572Y-98302342D01*
X31137235Y-98453787D01*
X31000914Y-98614885D01*
X30876292Y-98784567D01*
X30764053Y-98961766D01*
X30664880Y-99145416D01*
X30579458Y-99334447D01*
X30508470Y-99527793D01*
X30459716Y-99695803D01*
X30426645Y-99835789D01*
X30401285Y-99967725D01*
X30382893Y-100096997D01*
X30370725Y-100228993D01*
X30364039Y-100369100D01*
X30363386Y-100394500D01*
X30366105Y-100612797D01*
X30384300Y-100827580D01*
X30417965Y-101038821D01*
X30467094Y-101246489D01*
X30531681Y-101450555D01*
X30595878Y-101614487D01*
X30623961Y-101679752D01*
X30648023Y-101733910D01*
X30669892Y-101780613D01*
X30691393Y-101823513D01*
X30714354Y-101866263D01*
X30740600Y-101912515D01*
X30769725Y-101962156D01*
X30888944Y-102148427D01*
X31019048Y-102323153D01*
X31160171Y-102486465D01*
X31312445Y-102638496D01*
X31476003Y-102779380D01*
X31650976Y-102909248D01*
X31833344Y-103025775D01*
X31886173Y-103056744D01*
X31932086Y-103082721D01*
X31974735Y-103105531D01*
X32017772Y-103127001D01*
X32064849Y-103148957D01*
X32119619Y-103173225D01*
X32181013Y-103199622D01*
X32277246Y-103239169D01*
X32365964Y-103272208D01*
X32453078Y-103300695D01*
X32544502Y-103326589D01*
X32627094Y-103347322D01*
X32791610Y-103382876D01*
X32948705Y-103408553D01*
X33102933Y-103424893D01*
X33258851Y-103432436D01*
X33349406Y-103433013D01*
X33400625Y-103432498D01*
X33448746Y-103431793D01*
X33490626Y-103430960D01*
X33523122Y-103430063D01*
X33543090Y-103429165D01*
X33543875Y-103429109D01*
X33760049Y-103405157D01*
X33972806Y-103366170D01*
X34181287Y-103312467D01*
X34384632Y-103244363D01*
X34581984Y-103162176D01*
X34772482Y-103066225D01*
X34955268Y-102956826D01*
X35106224Y-102851796D01*
X35279151Y-102713449D01*
X35439835Y-102565088D01*
X35588049Y-102407039D01*
X35723571Y-102239632D01*
X35846176Y-102063194D01*
X35955639Y-101878052D01*
X36051737Y-101684535D01*
X36134244Y-101482971D01*
X36202937Y-101273688D01*
X36215082Y-101230630D01*
X36241448Y-101128835D01*
X36262833Y-101032511D01*
X36279641Y-100938367D01*
X36292275Y-100843117D01*
X36301140Y-100743470D01*
X36306638Y-100636140D01*
X36309174Y-100517836D01*
X36309455Y-100461969D01*
X36308780Y-100406608D01*
X35776706Y-100406608D01*
X35776603Y-100486746D01*
X35774937Y-100566410D01*
X35771741Y-100641537D01*
X35767044Y-100708060D01*
X35763324Y-100743750D01*
X35731450Y-100941048D01*
X35684799Y-101132663D01*
X35623549Y-101318222D01*
X35547881Y-101497349D01*
X35457973Y-101669669D01*
X35354006Y-101834809D01*
X35236159Y-101992393D01*
X35104612Y-102142047D01*
X35082276Y-102165260D01*
X34948042Y-102292334D01*
X34802340Y-102410270D01*
X34647869Y-102517090D01*
X34487331Y-102610816D01*
X34441542Y-102634504D01*
X34367134Y-102671153D01*
X34301893Y-102701372D01*
X34241396Y-102726940D01*
X34181222Y-102749634D01*
X34116949Y-102771233D01*
X34051875Y-102791227D01*
X33862662Y-102840640D01*
X33676911Y-102875091D01*
X33493173Y-102894714D01*
X33309997Y-102899642D01*
X33125936Y-102890011D01*
X33059394Y-102883031D01*
X32872062Y-102854087D01*
X32692481Y-102812278D01*
X32518143Y-102756854D01*
X32346541Y-102687064D01*
X32249584Y-102640866D01*
X32078952Y-102547447D01*
X31919536Y-102443712D01*
X31770578Y-102328974D01*
X31631321Y-102202550D01*
X31501006Y-102063754D01*
X31378876Y-101911903D01*
X31270608Y-101756259D01*
X31245482Y-101715068D01*
X31216159Y-101662940D01*
X31184459Y-101603496D01*
X31152201Y-101540356D01*
X31121207Y-101477140D01*
X31093294Y-101417467D01*
X31070285Y-101364957D01*
X31056847Y-101331125D01*
X30993980Y-101139584D01*
X30946584Y-100946845D01*
X30914700Y-100753450D01*
X30898370Y-100559940D01*
X30897632Y-100366857D01*
X30912528Y-100174742D01*
X30943098Y-99984136D01*
X30952901Y-99938094D01*
X30986550Y-99801801D01*
X31024858Y-99675618D01*
X31069796Y-99554007D01*
X31123337Y-99431432D01*
X31160996Y-99353958D01*
X31254701Y-99185110D01*
X31361526Y-99024673D01*
X31480702Y-98873368D01*
X31611463Y-98731914D01*
X31753040Y-98601031D01*
X31904666Y-98481440D01*
X32065573Y-98373860D01*
X32234993Y-98279011D01*
X32379175Y-98211480D01*
X32550803Y-98145085D01*
X32723357Y-98093087D01*
X32898844Y-98055078D01*
X33079274Y-98030651D01*
X33266655Y-98019397D01*
X33329562Y-98018507D01*
X33527657Y-98024877D01*
X33719285Y-98045522D01*
X33905219Y-98080673D01*
X34086235Y-98130567D01*
X34263106Y-98195435D01*
X34436606Y-98275513D01*
X34607509Y-98371035D01*
X34708206Y-98435244D01*
X34847639Y-98536772D01*
X34981837Y-98651278D01*
X35109159Y-98776839D01*
X35227965Y-98911531D01*
X35336614Y-99053431D01*
X35433465Y-99200615D01*
X35516878Y-99351161D01*
X35551674Y-99424080D01*
X35613077Y-99568939D01*
X35663308Y-99708178D01*
X35703565Y-99846126D01*
X35735044Y-99987114D01*
X35758944Y-100135471D01*
X35767345Y-100204000D01*
X35772108Y-100261170D01*
X35775218Y-100330061D01*
X35776706Y-100406608D01*
X36308780Y-100406608D01*
X36307710Y-100318973D01*
X36301836Y-100188106D01*
X36291262Y-100066025D01*
X36275415Y-99949385D01*
X36253723Y-99834844D01*
X36225613Y-99719059D01*
X36190514Y-99598687D01*
X36147853Y-99470384D01*
X36132159Y-99426125D01*
X36053774Y-99231406D01*
X35960934Y-99043072D01*
X35853828Y-98861385D01*
X35732648Y-98686608D01*
X35597583Y-98519003D01*
X35448826Y-98358833D01*
X35286567Y-98206360D01*
X35179729Y-98116179D01*
X35093900Y-98050686D01*
X34996361Y-97983360D01*
X34890752Y-97916412D01*
X34780714Y-97852055D01*
X34669887Y-97792500D01*
X34561911Y-97739958D01*
X34555906Y-97737215D01*
X34485946Y-97707342D01*
X34404765Y-97675956D01*
X34316733Y-97644536D01*
X34226221Y-97614562D01*
X34137599Y-97587511D01*
X34055236Y-97564864D01*
X34023350Y-97556971D01*
X33930125Y-97536203D01*
X33841151Y-97519543D01*
X33753147Y-97506652D01*
X33662831Y-97497195D01*
X33566922Y-97490832D01*
X33462140Y-97487228D01*
X33345205Y-97486044D01*
X33333531Y-97486045D01*
G36*
X34337625Y-101759750D02*
X34742437Y-101759750D01*
X34742437Y-101354938D01*
X34337625Y-101354938D01*
X34337625Y-101759750D01*
X34337625Y-101759750D01*
G37*
X34337625Y-101759750D02*
X34742437Y-101759750D01*
X34742437Y-101354938D01*
X34337625Y-101354938D01*
X34337625Y-101759750D01*
G36*
X31956375Y-101759750D02*
X32361187Y-101759750D01*
X32361187Y-101354938D01*
X31956375Y-101354938D01*
X31956375Y-101759750D01*
X31956375Y-101759750D01*
G37*
X31956375Y-101759750D02*
X32361187Y-101759750D01*
X32361187Y-101354938D01*
X31956375Y-101354938D01*
X31956375Y-101759750D01*
G36*
X33932812Y-100973938D02*
X34337625Y-100973938D01*
X34337625Y-100569125D01*
X33932812Y-100569125D01*
X33932812Y-100973938D01*
X33932812Y-100973938D01*
G37*
X33932812Y-100973938D02*
X34337625Y-100973938D01*
X34337625Y-100569125D01*
X33932812Y-100569125D01*
X33932812Y-100973938D01*
G36*
X33147000Y-100973938D02*
X33551812Y-100973938D01*
X33551812Y-100569125D01*
X33147000Y-100569125D01*
X33147000Y-100973938D01*
X33147000Y-100973938D01*
G37*
X33147000Y-100973938D02*
X33551812Y-100973938D01*
X33551812Y-100569125D01*
X33147000Y-100569125D01*
X33147000Y-100973938D01*
G36*
X32361187Y-100973938D02*
X32742187Y-100973938D01*
X32742187Y-100569125D01*
X32361187Y-100569125D01*
X32361187Y-100973938D01*
X32361187Y-100973938D01*
G37*
X32361187Y-100973938D02*
X32742187Y-100973938D01*
X32742187Y-100569125D01*
X32361187Y-100569125D01*
X32361187Y-100973938D01*
G36*
X33551812Y-100164313D02*
X33932812Y-100164313D01*
X33932812Y-99783313D01*
X33551812Y-99783313D01*
X33551812Y-100164313D01*
X33551812Y-100164313D01*
G37*
X33551812Y-100164313D02*
X33932812Y-100164313D01*
X33932812Y-99783313D01*
X33551812Y-99783313D01*
X33551812Y-100164313D01*
G36*
X32742187Y-100164313D02*
X33147000Y-100164313D01*
X33147000Y-99783313D01*
X32742187Y-99783313D01*
X32742187Y-100164313D01*
X32742187Y-100164313D01*
G37*
X32742187Y-100164313D02*
X33147000Y-100164313D01*
X33147000Y-99783313D01*
X32742187Y-99783313D01*
X32742187Y-100164313D01*
G36*
X33147000Y-99378500D02*
X33551812Y-99378500D01*
X33551812Y-98973688D01*
X33147000Y-98973688D01*
X33147000Y-99378500D01*
X33147000Y-99378500D01*
G37*
X33147000Y-99378500D02*
X33551812Y-99378500D01*
X33551812Y-98973688D01*
X33147000Y-98973688D01*
X33147000Y-99378500D01*
G04 #@! TD*
D11*
G04 #@! TO.N,GND*
G04 #@! TO.C,J1*
X149383750Y-111760000D03*
G04 #@! TD*
D12*
G04 #@! TO.N,GND*
G36*
X270691025Y-22711459D02*
X271324230Y-22902635D01*
X271908239Y-23213158D01*
X272420814Y-23631204D01*
X272842428Y-24140848D01*
X273157023Y-24722679D01*
X273352613Y-25354529D01*
X273424750Y-26040860D01*
X273424751Y-110206257D01*
X273357290Y-110894276D01*
X273166115Y-111527480D01*
X272855590Y-112111490D01*
X272437544Y-112624067D01*
X271927902Y-113045678D01*
X271346072Y-113360273D01*
X270714220Y-113555864D01*
X270027890Y-113628000D01*
X23937483Y-113628000D01*
X23249474Y-113560540D01*
X22616270Y-113369365D01*
X22032260Y-113058840D01*
X21519683Y-112640794D01*
X21098072Y-112131152D01*
X20783477Y-111549322D01*
X20587886Y-110917470D01*
X20518944Y-110261523D01*
X22079928Y-110261523D01*
X22119696Y-110616063D01*
X22227571Y-110956126D01*
X22399443Y-111268760D01*
X22628765Y-111542056D01*
X22906804Y-111765605D01*
X23222969Y-111930892D01*
X23565217Y-112031621D01*
X23920512Y-112063955D01*
X24275320Y-112026664D01*
X24616128Y-111921166D01*
X24929955Y-111751481D01*
X25204845Y-111524071D01*
X25430330Y-111247600D01*
X25597820Y-110932597D01*
X25700936Y-110591060D01*
X25733247Y-110261523D01*
X104121595Y-110261523D01*
X104161363Y-110616063D01*
X104269238Y-110956126D01*
X104441110Y-111268760D01*
X104670432Y-111542056D01*
X104948471Y-111765605D01*
X105264636Y-111930892D01*
X105606884Y-112031621D01*
X105962179Y-112063955D01*
X106316987Y-112026664D01*
X106657795Y-111921166D01*
X106971622Y-111751481D01*
X107246512Y-111524071D01*
X107471997Y-111247600D01*
X107639487Y-110932597D01*
X107742603Y-110591060D01*
X107774914Y-110261523D01*
X186163261Y-110261523D01*
X186203029Y-110616063D01*
X186310904Y-110956126D01*
X186482776Y-111268760D01*
X186712098Y-111542056D01*
X186990137Y-111765605D01*
X187306302Y-111930892D01*
X187648550Y-112031621D01*
X188003845Y-112063955D01*
X188358653Y-112026664D01*
X188699461Y-111921166D01*
X189013288Y-111751481D01*
X189288178Y-111524071D01*
X189513663Y-111247600D01*
X189681153Y-110932597D01*
X189784269Y-110591060D01*
X189816580Y-110261523D01*
X268204928Y-110261523D01*
X268244696Y-110616063D01*
X268352571Y-110956126D01*
X268524443Y-111268760D01*
X268753765Y-111542056D01*
X269031804Y-111765605D01*
X269347969Y-111930892D01*
X269690217Y-112031621D01*
X270045512Y-112063955D01*
X270400320Y-112026664D01*
X270741128Y-111921166D01*
X271054955Y-111751481D01*
X271329845Y-111524071D01*
X271555330Y-111247600D01*
X271722820Y-110932597D01*
X271825936Y-110591060D01*
X271860750Y-110236000D01*
X271860037Y-110184959D01*
X271815323Y-109831009D01*
X271702711Y-109492485D01*
X271526491Y-109182282D01*
X271293375Y-108912214D01*
X271012241Y-108692569D01*
X270693800Y-108531712D01*
X270350179Y-108435771D01*
X269994467Y-108408401D01*
X269640214Y-108450643D01*
X269300912Y-108560889D01*
X268989486Y-108734939D01*
X268717797Y-108966164D01*
X268496194Y-109245757D01*
X268333119Y-109563068D01*
X268234781Y-109906011D01*
X268204928Y-110261523D01*
X189816580Y-110261523D01*
X189819083Y-110236000D01*
X189818370Y-110184959D01*
X189773656Y-109831009D01*
X189661044Y-109492485D01*
X189484824Y-109182282D01*
X189251708Y-108912214D01*
X188970574Y-108692569D01*
X188652133Y-108531712D01*
X188308512Y-108435771D01*
X187952800Y-108408401D01*
X187598547Y-108450643D01*
X187259245Y-108560889D01*
X186947819Y-108734939D01*
X186676130Y-108966164D01*
X186454527Y-109245757D01*
X186291452Y-109563068D01*
X186193114Y-109906011D01*
X186163261Y-110261523D01*
X107774914Y-110261523D01*
X107777417Y-110236000D01*
X107776704Y-110184959D01*
X107731990Y-109831009D01*
X107619378Y-109492485D01*
X107443158Y-109182282D01*
X107210042Y-108912214D01*
X106928908Y-108692569D01*
X106610467Y-108531712D01*
X106266846Y-108435771D01*
X105911134Y-108408401D01*
X105556881Y-108450643D01*
X105217579Y-108560889D01*
X104906153Y-108734939D01*
X104634464Y-108966164D01*
X104412861Y-109245757D01*
X104249786Y-109563068D01*
X104151448Y-109906011D01*
X104121595Y-110261523D01*
X25733247Y-110261523D01*
X25735750Y-110236000D01*
X25735037Y-110184959D01*
X25690323Y-109831009D01*
X25577711Y-109492485D01*
X25401491Y-109182282D01*
X25168375Y-108912214D01*
X24887241Y-108692569D01*
X24568800Y-108531712D01*
X24225179Y-108435771D01*
X23869467Y-108408401D01*
X23515214Y-108450643D01*
X23175912Y-108560889D01*
X22864486Y-108734939D01*
X22592797Y-108966164D01*
X22371194Y-109245757D01*
X22208119Y-109563068D01*
X22109781Y-109906011D01*
X22079928Y-110261523D01*
X20518944Y-110261523D01*
X20515750Y-110231140D01*
X20515750Y-100393726D01*
X29850387Y-100393726D01*
X29850426Y-100400889D01*
X29853145Y-100619186D01*
X29854787Y-100634028D01*
X29854381Y-100648958D01*
X29854936Y-100656100D01*
X29873131Y-100870883D01*
X29875906Y-100885938D01*
X29876615Y-100901235D01*
X29877693Y-100908317D01*
X29911358Y-101119558D01*
X29915279Y-101134552D01*
X29917144Y-101149942D01*
X29918745Y-101156924D01*
X29967874Y-101364592D01*
X29972893Y-101379242D01*
X29975892Y-101394441D01*
X29978006Y-101401286D01*
X30042593Y-101605352D01*
X30047929Y-101617825D01*
X30051437Y-101630929D01*
X30054003Y-101637617D01*
X30118200Y-101801550D01*
X30120434Y-101805936D01*
X30121865Y-101810653D01*
X30124651Y-101817252D01*
X30152734Y-101882518D01*
X30152770Y-101882583D01*
X30155149Y-101888042D01*
X30179211Y-101942200D01*
X30179958Y-101943517D01*
X30180442Y-101944948D01*
X30183435Y-101951457D01*
X30205304Y-101998160D01*
X30206972Y-102000970D01*
X30208104Y-102004044D01*
X30211269Y-102010470D01*
X30232770Y-102053369D01*
X30234735Y-102056488D01*
X30236109Y-102059915D01*
X30239455Y-102066249D01*
X30262416Y-102108999D01*
X30263748Y-102110986D01*
X30264692Y-102113191D01*
X30268184Y-102119445D01*
X30294430Y-102165697D01*
X30294501Y-102165798D01*
X30294552Y-102165912D01*
X30298134Y-102172116D01*
X30327258Y-102221756D01*
X30331007Y-102226916D01*
X30333826Y-102232640D01*
X30337646Y-102238700D01*
X30456865Y-102424971D01*
X30465888Y-102436428D01*
X30473245Y-102449033D01*
X30477483Y-102454808D01*
X30607587Y-102629533D01*
X30617722Y-102640682D01*
X30626247Y-102653118D01*
X30630893Y-102658570D01*
X30772016Y-102821882D01*
X30783114Y-102832439D01*
X30792681Y-102844404D01*
X30797715Y-102849500D01*
X30949989Y-103001531D01*
X30961827Y-103011239D01*
X30972248Y-103022469D01*
X30977643Y-103027182D01*
X31141201Y-103168065D01*
X31153518Y-103176735D01*
X31164537Y-103187004D01*
X31170259Y-103191314D01*
X31345232Y-103321182D01*
X31357563Y-103328586D01*
X31368749Y-103337637D01*
X31374759Y-103341536D01*
X31557127Y-103458063D01*
X31562724Y-103460912D01*
X31567754Y-103464672D01*
X31573908Y-103468338D01*
X31626737Y-103499307D01*
X31627058Y-103499455D01*
X31627345Y-103499663D01*
X31633555Y-103503234D01*
X31679467Y-103529210D01*
X31681774Y-103530232D01*
X31683854Y-103531664D01*
X31690147Y-103535086D01*
X31732796Y-103557897D01*
X31736225Y-103559320D01*
X31739341Y-103561337D01*
X31745728Y-103564579D01*
X31788765Y-103586049D01*
X31791748Y-103587189D01*
X31794469Y-103588850D01*
X31800939Y-103591923D01*
X31848016Y-103613879D01*
X31849315Y-103614337D01*
X31850502Y-103615030D01*
X31857031Y-103617978D01*
X31911801Y-103642246D01*
X31911884Y-103642274D01*
X31916985Y-103644509D01*
X31978379Y-103670906D01*
X31978916Y-103671077D01*
X31979412Y-103671349D01*
X31986019Y-103674118D01*
X32082252Y-103713665D01*
X32087050Y-103715108D01*
X32091519Y-103717368D01*
X32098214Y-103719915D01*
X32186932Y-103752954D01*
X32193523Y-103754699D01*
X32199725Y-103757526D01*
X32206517Y-103759800D01*
X32293631Y-103788287D01*
X32300189Y-103789742D01*
X32306402Y-103792279D01*
X32313280Y-103794279D01*
X32404704Y-103820173D01*
X32408780Y-103820907D01*
X32412664Y-103822359D01*
X32419599Y-103824151D01*
X32502192Y-103844884D01*
X32507065Y-103845612D01*
X32511739Y-103847184D01*
X32518730Y-103848746D01*
X32683246Y-103884300D01*
X32692666Y-103885389D01*
X32701798Y-103887953D01*
X32708859Y-103889158D01*
X32865954Y-103914835D01*
X32876867Y-103915537D01*
X32887539Y-103917893D01*
X32894657Y-103918698D01*
X33048884Y-103935038D01*
X33060008Y-103935125D01*
X33070992Y-103936898D01*
X33078144Y-103937294D01*
X33234062Y-103944837D01*
X33241263Y-103944481D01*
X33248420Y-103945330D01*
X33255582Y-103945426D01*
X33346137Y-103946003D01*
X33346772Y-103945945D01*
X33347401Y-103946009D01*
X33354564Y-103945987D01*
X33405783Y-103945472D01*
X33405891Y-103945460D01*
X33408140Y-103945443D01*
X33456261Y-103944738D01*
X33456376Y-103944725D01*
X33458948Y-103944692D01*
X33500827Y-103943859D01*
X33500959Y-103943843D01*
X33504781Y-103943765D01*
X33537277Y-103942868D01*
X33538143Y-103942759D01*
X33539011Y-103942817D01*
X33546169Y-103942545D01*
X33566137Y-103941647D01*
X33569278Y-103941196D01*
X33572445Y-103941324D01*
X33579593Y-103940865D01*
X33580378Y-103940809D01*
X33586766Y-103939719D01*
X33593245Y-103939728D01*
X33600369Y-103938989D01*
X33816544Y-103915037D01*
X33830863Y-103912014D01*
X33845460Y-103910997D01*
X33852515Y-103909755D01*
X34065272Y-103870768D01*
X34079340Y-103866738D01*
X34093824Y-103864691D01*
X34100773Y-103862953D01*
X34309255Y-103809250D01*
X34323046Y-103804218D01*
X34337398Y-103801137D01*
X34344206Y-103798910D01*
X34547551Y-103730806D01*
X34561035Y-103724770D01*
X34575220Y-103720646D01*
X34581852Y-103717938D01*
X34779203Y-103635751D01*
X34792348Y-103628700D01*
X34806334Y-103623517D01*
X34812754Y-103620340D01*
X35003252Y-103524389D01*
X35016015Y-103516310D01*
X35029764Y-103510044D01*
X35035935Y-103506408D01*
X35218721Y-103397009D01*
X35230000Y-103388663D01*
X35242348Y-103381978D01*
X35248256Y-103377928D01*
X35399212Y-103272898D01*
X35409569Y-103264075D01*
X35421076Y-103256811D01*
X35426700Y-103252376D01*
X35599627Y-103114029D01*
X35610090Y-103103833D01*
X35621859Y-103095182D01*
X35627156Y-103090360D01*
X35787840Y-102941999D01*
X35797756Y-102930863D01*
X35809100Y-102921195D01*
X35814037Y-102916004D01*
X35962251Y-102757955D01*
X35971466Y-102745972D01*
X35982227Y-102735357D01*
X35986773Y-102729821D01*
X36122295Y-102562414D01*
X36130682Y-102549690D01*
X36140717Y-102538225D01*
X36144846Y-102532372D01*
X36267451Y-102355934D01*
X36274898Y-102342607D01*
X36284079Y-102330420D01*
X36287768Y-102324280D01*
X36397231Y-102139138D01*
X36403649Y-102125371D01*
X36411875Y-102112610D01*
X36415106Y-102106217D01*
X36511204Y-101912700D01*
X36516540Y-101898659D01*
X36523742Y-101885483D01*
X36526502Y-101878873D01*
X36609009Y-101677308D01*
X36613240Y-101663170D01*
X36619378Y-101649746D01*
X36621660Y-101642956D01*
X36690353Y-101433673D01*
X36691937Y-101426570D01*
X36694680Y-101419832D01*
X36696672Y-101412952D01*
X36708817Y-101369894D01*
X36709158Y-101367991D01*
X36709850Y-101366180D01*
X36711694Y-101359258D01*
X36738060Y-101257463D01*
X36738899Y-101252120D01*
X36740653Y-101247001D01*
X36742254Y-101240020D01*
X36763639Y-101143696D01*
X36764502Y-101136583D01*
X36766539Y-101129716D01*
X36767848Y-101122674D01*
X36784656Y-101028529D01*
X36785282Y-101020618D01*
X36787196Y-101012915D01*
X36788187Y-101005821D01*
X36800821Y-100910571D01*
X36801077Y-100903063D01*
X36802572Y-100895706D01*
X36803257Y-100888576D01*
X36812122Y-100788929D01*
X36812067Y-100782857D01*
X36813052Y-100776865D01*
X36813468Y-100769714D01*
X36818966Y-100662384D01*
X36818777Y-100658327D01*
X36819317Y-100654295D01*
X36819520Y-100647134D01*
X36822056Y-100528830D01*
X36822008Y-100528202D01*
X36822081Y-100527579D01*
X36822168Y-100520416D01*
X36822449Y-100464549D01*
X36822371Y-100463710D01*
X36822454Y-100462878D01*
X36822417Y-100455714D01*
X36821742Y-100400354D01*
X36821742Y-100400345D01*
X36820672Y-100312710D01*
X36820144Y-100307926D01*
X36820465Y-100303128D01*
X36820194Y-100295970D01*
X36814320Y-100165103D01*
X36813311Y-100158077D01*
X36813491Y-100150979D01*
X36812922Y-100143838D01*
X36802348Y-100021757D01*
X36800715Y-100012990D01*
X36800507Y-100004067D01*
X36799592Y-99996962D01*
X36783745Y-99880322D01*
X36781480Y-99870770D01*
X36780740Y-99860976D01*
X36779456Y-99853929D01*
X36757764Y-99739388D01*
X36755085Y-99730241D01*
X36753883Y-99720787D01*
X36752242Y-99713814D01*
X36724132Y-99598030D01*
X36721453Y-99590356D01*
X36720061Y-99582346D01*
X36718103Y-99575455D01*
X36683004Y-99455083D01*
X36680771Y-99449516D01*
X36679523Y-99443640D01*
X36677310Y-99436827D01*
X36634649Y-99308523D01*
X36634040Y-99307156D01*
X36633702Y-99305704D01*
X36631356Y-99298936D01*
X36615662Y-99254678D01*
X36612604Y-99248157D01*
X36610676Y-99241218D01*
X36608047Y-99234554D01*
X36529662Y-99039835D01*
X36522377Y-99025858D01*
X36517027Y-99011030D01*
X36513905Y-99004583D01*
X36421065Y-98816249D01*
X36412832Y-98802992D01*
X36406455Y-98788749D01*
X36402860Y-98782553D01*
X36295754Y-98600866D01*
X36286723Y-98588490D01*
X36279449Y-98575001D01*
X36275409Y-98569086D01*
X36154229Y-98394309D01*
X36144562Y-98382924D01*
X36136546Y-98370324D01*
X36132090Y-98364716D01*
X35997026Y-98197111D01*
X35986902Y-98186796D01*
X35978311Y-98175179D01*
X35973473Y-98169896D01*
X35824717Y-98009727D01*
X35814312Y-98000516D01*
X35805309Y-97989931D01*
X35800123Y-97984989D01*
X35637864Y-97832516D01*
X35629855Y-97826344D01*
X35622905Y-97819003D01*
X35617464Y-97814344D01*
X35510626Y-97724163D01*
X35503150Y-97719012D01*
X35496593Y-97712736D01*
X35490928Y-97708351D01*
X35405099Y-97642857D01*
X35397724Y-97638294D01*
X35391183Y-97632605D01*
X35385317Y-97628495D01*
X35287777Y-97561169D01*
X35282106Y-97558023D01*
X35277048Y-97553961D01*
X35271025Y-97550083D01*
X35165416Y-97483135D01*
X35160398Y-97480603D01*
X35155900Y-97477248D01*
X35149742Y-97473588D01*
X35039705Y-97409231D01*
X35034521Y-97406844D01*
X35029830Y-97403602D01*
X35023544Y-97400167D01*
X34912717Y-97340612D01*
X34906478Y-97338008D01*
X34900771Y-97334394D01*
X34894352Y-97331214D01*
X34786376Y-97278672D01*
X34783858Y-97277738D01*
X34781553Y-97276356D01*
X34775058Y-97273335D01*
X34769053Y-97270592D01*
X34766383Y-97269675D01*
X34763928Y-97268285D01*
X34757361Y-97265426D01*
X34687401Y-97235553D01*
X34682324Y-97233950D01*
X34677600Y-97231487D01*
X34670937Y-97228857D01*
X34589756Y-97197471D01*
X34586739Y-97196632D01*
X34583937Y-97195263D01*
X34577208Y-97192808D01*
X34489176Y-97161388D01*
X34486913Y-97160822D01*
X34484789Y-97159844D01*
X34478005Y-97157545D01*
X34387493Y-97127571D01*
X34385086Y-97127027D01*
X34382824Y-97126050D01*
X34375988Y-97123911D01*
X34287366Y-97096859D01*
X34283837Y-97096149D01*
X34280502Y-97094817D01*
X34273609Y-97092869D01*
X34191246Y-97070222D01*
X34188272Y-97069710D01*
X34185443Y-97068663D01*
X34178502Y-97066894D01*
X34146617Y-97059001D01*
X34144195Y-97058647D01*
X34141879Y-97057852D01*
X34134898Y-97056245D01*
X34041673Y-97035477D01*
X34036524Y-97034849D01*
X34031572Y-97033334D01*
X34024541Y-97031966D01*
X33935567Y-97015306D01*
X33928979Y-97014729D01*
X33922583Y-97013047D01*
X33915503Y-97011960D01*
X33827499Y-96999069D01*
X33820519Y-96998736D01*
X33813690Y-96997237D01*
X33806571Y-96996441D01*
X33716255Y-96986984D01*
X33710046Y-96986943D01*
X33703935Y-96985844D01*
X33696791Y-96985320D01*
X33600882Y-96978957D01*
X33596275Y-96979102D01*
X33591713Y-96978431D01*
X33584556Y-96978135D01*
X33479774Y-96974531D01*
X33477126Y-96974699D01*
X33474496Y-96974377D01*
X33467334Y-96974254D01*
X33350399Y-96973070D01*
X33350295Y-96973079D01*
X33345161Y-96973044D01*
X33333487Y-96973045D01*
X33333399Y-96973054D01*
X33327869Y-96973076D01*
X33203751Y-96974446D01*
X33200629Y-96974787D01*
X33197496Y-96974553D01*
X33190336Y-96974770D01*
X33078625Y-96978927D01*
X33073436Y-96979631D01*
X33068206Y-96979421D01*
X33061058Y-96979882D01*
X32958464Y-96987229D01*
X32951577Y-96988406D01*
X32944595Y-96988412D01*
X32937471Y-96989167D01*
X32840707Y-97000108D01*
X32832984Y-97001757D01*
X32825099Y-97002116D01*
X32818016Y-97003188D01*
X32723794Y-97018126D01*
X32716400Y-97020053D01*
X32708787Y-97020734D01*
X32701758Y-97022115D01*
X32606789Y-97041454D01*
X32600799Y-97043298D01*
X32594581Y-97044095D01*
X32587610Y-97045743D01*
X32488606Y-97069887D01*
X32486484Y-97070631D01*
X32484260Y-97070967D01*
X32477328Y-97072774D01*
X32432050Y-97084910D01*
X32425464Y-97087386D01*
X32418563Y-97088724D01*
X32411712Y-97090815D01*
X32203165Y-97156053D01*
X32189687Y-97161766D01*
X32175543Y-97165565D01*
X32168857Y-97168136D01*
X31966769Y-97247472D01*
X31953630Y-97254176D01*
X31939692Y-97259009D01*
X31933207Y-97262050D01*
X31738343Y-97355086D01*
X31725589Y-97362786D01*
X31711901Y-97368665D01*
X31705651Y-97372164D01*
X31518780Y-97478504D01*
X31506469Y-97487202D01*
X31493084Y-97494141D01*
X31487104Y-97498084D01*
X31308989Y-97617332D01*
X31297911Y-97626432D01*
X31285682Y-97633896D01*
X31279991Y-97638246D01*
X31127845Y-97756247D01*
X31117562Y-97765970D01*
X31106019Y-97774158D01*
X31100642Y-97778890D01*
X30942973Y-97919616D01*
X30933133Y-97930298D01*
X30921904Y-97939518D01*
X30916874Y-97944617D01*
X30769537Y-98096062D01*
X30760649Y-98107191D01*
X30750291Y-98116973D01*
X30745626Y-98122409D01*
X30609306Y-98283506D01*
X30601291Y-98295108D01*
X30591728Y-98305473D01*
X30587447Y-98311217D01*
X30462825Y-98480899D01*
X30455622Y-98493032D01*
X30446789Y-98504038D01*
X30442914Y-98510062D01*
X30330675Y-98687262D01*
X30324253Y-98700003D01*
X30316111Y-98711731D01*
X30312664Y-98718010D01*
X30213491Y-98901661D01*
X30207845Y-98915113D01*
X30200392Y-98927656D01*
X30197396Y-98934163D01*
X30111974Y-99123194D01*
X30107141Y-99137457D01*
X30100406Y-99150930D01*
X30097891Y-99157637D01*
X30026903Y-99350983D01*
X30023317Y-99364788D01*
X30017839Y-99377960D01*
X30015794Y-99384826D01*
X29967040Y-99552836D01*
X29965316Y-99562065D01*
X29962155Y-99570897D01*
X29960459Y-99577856D01*
X29927388Y-99717842D01*
X29926419Y-99725017D01*
X29924268Y-99731931D01*
X29922867Y-99738956D01*
X29897507Y-99870892D01*
X29896687Y-99879759D01*
X29894458Y-99888382D01*
X29893400Y-99895466D01*
X29875008Y-100024738D01*
X29874611Y-100033842D01*
X29872766Y-100042777D01*
X29872059Y-100049906D01*
X29859891Y-100181902D01*
X29859936Y-100189691D01*
X29858699Y-100197388D01*
X29858308Y-100204541D01*
X29851622Y-100344647D01*
X29851726Y-100346714D01*
X29851443Y-100348757D01*
X29851208Y-100355916D01*
X29850555Y-100381316D01*
X29851004Y-100387533D01*
X29850387Y-100393726D01*
X20515750Y-100393726D01*
X20515750Y-26065733D01*
X20516162Y-26061523D01*
X22079928Y-26061523D01*
X22119696Y-26416063D01*
X22227571Y-26756126D01*
X22399443Y-27068760D01*
X22628765Y-27342056D01*
X22906804Y-27565605D01*
X23222969Y-27730892D01*
X23565217Y-27831621D01*
X23920512Y-27863955D01*
X24275320Y-27826664D01*
X24616128Y-27721166D01*
X24929955Y-27551481D01*
X25204845Y-27324071D01*
X25430330Y-27047600D01*
X25597820Y-26732597D01*
X25700936Y-26391060D01*
X25733247Y-26061523D01*
X104121595Y-26061523D01*
X104161363Y-26416063D01*
X104269238Y-26756126D01*
X104441110Y-27068760D01*
X104670432Y-27342056D01*
X104948471Y-27565605D01*
X105264636Y-27730892D01*
X105606884Y-27831621D01*
X105962179Y-27863955D01*
X106316987Y-27826664D01*
X106657795Y-27721166D01*
X106971622Y-27551481D01*
X107246512Y-27324071D01*
X107471997Y-27047600D01*
X107639487Y-26732597D01*
X107742603Y-26391060D01*
X107774914Y-26061523D01*
X186163261Y-26061523D01*
X186203029Y-26416063D01*
X186310904Y-26756126D01*
X186482776Y-27068760D01*
X186712098Y-27342056D01*
X186990137Y-27565605D01*
X187306302Y-27730892D01*
X187648550Y-27831621D01*
X188003845Y-27863955D01*
X188358653Y-27826664D01*
X188699461Y-27721166D01*
X189013288Y-27551481D01*
X189288178Y-27324071D01*
X189513663Y-27047600D01*
X189681153Y-26732597D01*
X189784269Y-26391060D01*
X189816580Y-26061523D01*
X268204928Y-26061523D01*
X268244696Y-26416063D01*
X268352571Y-26756126D01*
X268524443Y-27068760D01*
X268753765Y-27342056D01*
X269031804Y-27565605D01*
X269347969Y-27730892D01*
X269690217Y-27831621D01*
X270045512Y-27863955D01*
X270400320Y-27826664D01*
X270741128Y-27721166D01*
X271054955Y-27551481D01*
X271329845Y-27324071D01*
X271555330Y-27047600D01*
X271722820Y-26732597D01*
X271825936Y-26391060D01*
X271860750Y-26036000D01*
X271860037Y-25984959D01*
X271815323Y-25631009D01*
X271702711Y-25292485D01*
X271526491Y-24982282D01*
X271293375Y-24712214D01*
X271012241Y-24492569D01*
X270693800Y-24331712D01*
X270350179Y-24235771D01*
X269994467Y-24208401D01*
X269640214Y-24250643D01*
X269300912Y-24360889D01*
X268989486Y-24534939D01*
X268717797Y-24766164D01*
X268496194Y-25045757D01*
X268333119Y-25363068D01*
X268234781Y-25706011D01*
X268204928Y-26061523D01*
X189816580Y-26061523D01*
X189819083Y-26036000D01*
X189818370Y-25984959D01*
X189773656Y-25631009D01*
X189661044Y-25292485D01*
X189484824Y-24982282D01*
X189251708Y-24712214D01*
X188970574Y-24492569D01*
X188652133Y-24331712D01*
X188308512Y-24235771D01*
X187952800Y-24208401D01*
X187598547Y-24250643D01*
X187259245Y-24360889D01*
X186947819Y-24534939D01*
X186676130Y-24766164D01*
X186454527Y-25045757D01*
X186291452Y-25363068D01*
X186193114Y-25706011D01*
X186163261Y-26061523D01*
X107774914Y-26061523D01*
X107777417Y-26036000D01*
X107776704Y-25984959D01*
X107731990Y-25631009D01*
X107619378Y-25292485D01*
X107443158Y-24982282D01*
X107210042Y-24712214D01*
X106928908Y-24492569D01*
X106610467Y-24331712D01*
X106266846Y-24235771D01*
X105911134Y-24208401D01*
X105556881Y-24250643D01*
X105217579Y-24360889D01*
X104906153Y-24534939D01*
X104634464Y-24766164D01*
X104412861Y-25045757D01*
X104249786Y-25363068D01*
X104151448Y-25706011D01*
X104121595Y-26061523D01*
X25733247Y-26061523D01*
X25735750Y-26036000D01*
X25735037Y-25984959D01*
X25690323Y-25631009D01*
X25577711Y-25292485D01*
X25401491Y-24982282D01*
X25168375Y-24712214D01*
X24887241Y-24492569D01*
X24568800Y-24331712D01*
X24225179Y-24235771D01*
X23869467Y-24208401D01*
X23515214Y-24250643D01*
X23175912Y-24360889D01*
X22864486Y-24534939D01*
X22592797Y-24766164D01*
X22371194Y-25045757D01*
X22208119Y-25363068D01*
X22109781Y-25706011D01*
X22079928Y-26061523D01*
X20516162Y-26061523D01*
X20583209Y-25377725D01*
X20774385Y-24744520D01*
X21084908Y-24160511D01*
X21502954Y-23647936D01*
X22012598Y-23226322D01*
X22594429Y-22911727D01*
X23226279Y-22716137D01*
X23912610Y-22644000D01*
X270003017Y-22644000D01*
X270691025Y-22711459D01*
X270691025Y-22711459D01*
G37*
X270691025Y-22711459D02*
X271324230Y-22902635D01*
X271908239Y-23213158D01*
X272420814Y-23631204D01*
X272842428Y-24140848D01*
X273157023Y-24722679D01*
X273352613Y-25354529D01*
X273424750Y-26040860D01*
X273424751Y-110206257D01*
X273357290Y-110894276D01*
X273166115Y-111527480D01*
X272855590Y-112111490D01*
X272437544Y-112624067D01*
X271927902Y-113045678D01*
X271346072Y-113360273D01*
X270714220Y-113555864D01*
X270027890Y-113628000D01*
X23937483Y-113628000D01*
X23249474Y-113560540D01*
X22616270Y-113369365D01*
X22032260Y-113058840D01*
X21519683Y-112640794D01*
X21098072Y-112131152D01*
X20783477Y-111549322D01*
X20587886Y-110917470D01*
X20518944Y-110261523D01*
X22079928Y-110261523D01*
X22119696Y-110616063D01*
X22227571Y-110956126D01*
X22399443Y-111268760D01*
X22628765Y-111542056D01*
X22906804Y-111765605D01*
X23222969Y-111930892D01*
X23565217Y-112031621D01*
X23920512Y-112063955D01*
X24275320Y-112026664D01*
X24616128Y-111921166D01*
X24929955Y-111751481D01*
X25204845Y-111524071D01*
X25430330Y-111247600D01*
X25597820Y-110932597D01*
X25700936Y-110591060D01*
X25733247Y-110261523D01*
X104121595Y-110261523D01*
X104161363Y-110616063D01*
X104269238Y-110956126D01*
X104441110Y-111268760D01*
X104670432Y-111542056D01*
X104948471Y-111765605D01*
X105264636Y-111930892D01*
X105606884Y-112031621D01*
X105962179Y-112063955D01*
X106316987Y-112026664D01*
X106657795Y-111921166D01*
X106971622Y-111751481D01*
X107246512Y-111524071D01*
X107471997Y-111247600D01*
X107639487Y-110932597D01*
X107742603Y-110591060D01*
X107774914Y-110261523D01*
X186163261Y-110261523D01*
X186203029Y-110616063D01*
X186310904Y-110956126D01*
X186482776Y-111268760D01*
X186712098Y-111542056D01*
X186990137Y-111765605D01*
X187306302Y-111930892D01*
X187648550Y-112031621D01*
X188003845Y-112063955D01*
X188358653Y-112026664D01*
X188699461Y-111921166D01*
X189013288Y-111751481D01*
X189288178Y-111524071D01*
X189513663Y-111247600D01*
X189681153Y-110932597D01*
X189784269Y-110591060D01*
X189816580Y-110261523D01*
X268204928Y-110261523D01*
X268244696Y-110616063D01*
X268352571Y-110956126D01*
X268524443Y-111268760D01*
X268753765Y-111542056D01*
X269031804Y-111765605D01*
X269347969Y-111930892D01*
X269690217Y-112031621D01*
X270045512Y-112063955D01*
X270400320Y-112026664D01*
X270741128Y-111921166D01*
X271054955Y-111751481D01*
X271329845Y-111524071D01*
X271555330Y-111247600D01*
X271722820Y-110932597D01*
X271825936Y-110591060D01*
X271860750Y-110236000D01*
X271860037Y-110184959D01*
X271815323Y-109831009D01*
X271702711Y-109492485D01*
X271526491Y-109182282D01*
X271293375Y-108912214D01*
X271012241Y-108692569D01*
X270693800Y-108531712D01*
X270350179Y-108435771D01*
X269994467Y-108408401D01*
X269640214Y-108450643D01*
X269300912Y-108560889D01*
X268989486Y-108734939D01*
X268717797Y-108966164D01*
X268496194Y-109245757D01*
X268333119Y-109563068D01*
X268234781Y-109906011D01*
X268204928Y-110261523D01*
X189816580Y-110261523D01*
X189819083Y-110236000D01*
X189818370Y-110184959D01*
X189773656Y-109831009D01*
X189661044Y-109492485D01*
X189484824Y-109182282D01*
X189251708Y-108912214D01*
X188970574Y-108692569D01*
X188652133Y-108531712D01*
X188308512Y-108435771D01*
X187952800Y-108408401D01*
X187598547Y-108450643D01*
X187259245Y-108560889D01*
X186947819Y-108734939D01*
X186676130Y-108966164D01*
X186454527Y-109245757D01*
X186291452Y-109563068D01*
X186193114Y-109906011D01*
X186163261Y-110261523D01*
X107774914Y-110261523D01*
X107777417Y-110236000D01*
X107776704Y-110184959D01*
X107731990Y-109831009D01*
X107619378Y-109492485D01*
X107443158Y-109182282D01*
X107210042Y-108912214D01*
X106928908Y-108692569D01*
X106610467Y-108531712D01*
X106266846Y-108435771D01*
X105911134Y-108408401D01*
X105556881Y-108450643D01*
X105217579Y-108560889D01*
X104906153Y-108734939D01*
X104634464Y-108966164D01*
X104412861Y-109245757D01*
X104249786Y-109563068D01*
X104151448Y-109906011D01*
X104121595Y-110261523D01*
X25733247Y-110261523D01*
X25735750Y-110236000D01*
X25735037Y-110184959D01*
X25690323Y-109831009D01*
X25577711Y-109492485D01*
X25401491Y-109182282D01*
X25168375Y-108912214D01*
X24887241Y-108692569D01*
X24568800Y-108531712D01*
X24225179Y-108435771D01*
X23869467Y-108408401D01*
X23515214Y-108450643D01*
X23175912Y-108560889D01*
X22864486Y-108734939D01*
X22592797Y-108966164D01*
X22371194Y-109245757D01*
X22208119Y-109563068D01*
X22109781Y-109906011D01*
X22079928Y-110261523D01*
X20518944Y-110261523D01*
X20515750Y-110231140D01*
X20515750Y-100393726D01*
X29850387Y-100393726D01*
X29850426Y-100400889D01*
X29853145Y-100619186D01*
X29854787Y-100634028D01*
X29854381Y-100648958D01*
X29854936Y-100656100D01*
X29873131Y-100870883D01*
X29875906Y-100885938D01*
X29876615Y-100901235D01*
X29877693Y-100908317D01*
X29911358Y-101119558D01*
X29915279Y-101134552D01*
X29917144Y-101149942D01*
X29918745Y-101156924D01*
X29967874Y-101364592D01*
X29972893Y-101379242D01*
X29975892Y-101394441D01*
X29978006Y-101401286D01*
X30042593Y-101605352D01*
X30047929Y-101617825D01*
X30051437Y-101630929D01*
X30054003Y-101637617D01*
X30118200Y-101801550D01*
X30120434Y-101805936D01*
X30121865Y-101810653D01*
X30124651Y-101817252D01*
X30152734Y-101882518D01*
X30152770Y-101882583D01*
X30155149Y-101888042D01*
X30179211Y-101942200D01*
X30179958Y-101943517D01*
X30180442Y-101944948D01*
X30183435Y-101951457D01*
X30205304Y-101998160D01*
X30206972Y-102000970D01*
X30208104Y-102004044D01*
X30211269Y-102010470D01*
X30232770Y-102053369D01*
X30234735Y-102056488D01*
X30236109Y-102059915D01*
X30239455Y-102066249D01*
X30262416Y-102108999D01*
X30263748Y-102110986D01*
X30264692Y-102113191D01*
X30268184Y-102119445D01*
X30294430Y-102165697D01*
X30294501Y-102165798D01*
X30294552Y-102165912D01*
X30298134Y-102172116D01*
X30327258Y-102221756D01*
X30331007Y-102226916D01*
X30333826Y-102232640D01*
X30337646Y-102238700D01*
X30456865Y-102424971D01*
X30465888Y-102436428D01*
X30473245Y-102449033D01*
X30477483Y-102454808D01*
X30607587Y-102629533D01*
X30617722Y-102640682D01*
X30626247Y-102653118D01*
X30630893Y-102658570D01*
X30772016Y-102821882D01*
X30783114Y-102832439D01*
X30792681Y-102844404D01*
X30797715Y-102849500D01*
X30949989Y-103001531D01*
X30961827Y-103011239D01*
X30972248Y-103022469D01*
X30977643Y-103027182D01*
X31141201Y-103168065D01*
X31153518Y-103176735D01*
X31164537Y-103187004D01*
X31170259Y-103191314D01*
X31345232Y-103321182D01*
X31357563Y-103328586D01*
X31368749Y-103337637D01*
X31374759Y-103341536D01*
X31557127Y-103458063D01*
X31562724Y-103460912D01*
X31567754Y-103464672D01*
X31573908Y-103468338D01*
X31626737Y-103499307D01*
X31627058Y-103499455D01*
X31627345Y-103499663D01*
X31633555Y-103503234D01*
X31679467Y-103529210D01*
X31681774Y-103530232D01*
X31683854Y-103531664D01*
X31690147Y-103535086D01*
X31732796Y-103557897D01*
X31736225Y-103559320D01*
X31739341Y-103561337D01*
X31745728Y-103564579D01*
X31788765Y-103586049D01*
X31791748Y-103587189D01*
X31794469Y-103588850D01*
X31800939Y-103591923D01*
X31848016Y-103613879D01*
X31849315Y-103614337D01*
X31850502Y-103615030D01*
X31857031Y-103617978D01*
X31911801Y-103642246D01*
X31911884Y-103642274D01*
X31916985Y-103644509D01*
X31978379Y-103670906D01*
X31978916Y-103671077D01*
X31979412Y-103671349D01*
X31986019Y-103674118D01*
X32082252Y-103713665D01*
X32087050Y-103715108D01*
X32091519Y-103717368D01*
X32098214Y-103719915D01*
X32186932Y-103752954D01*
X32193523Y-103754699D01*
X32199725Y-103757526D01*
X32206517Y-103759800D01*
X32293631Y-103788287D01*
X32300189Y-103789742D01*
X32306402Y-103792279D01*
X32313280Y-103794279D01*
X32404704Y-103820173D01*
X32408780Y-103820907D01*
X32412664Y-103822359D01*
X32419599Y-103824151D01*
X32502192Y-103844884D01*
X32507065Y-103845612D01*
X32511739Y-103847184D01*
X32518730Y-103848746D01*
X32683246Y-103884300D01*
X32692666Y-103885389D01*
X32701798Y-103887953D01*
X32708859Y-103889158D01*
X32865954Y-103914835D01*
X32876867Y-103915537D01*
X32887539Y-103917893D01*
X32894657Y-103918698D01*
X33048884Y-103935038D01*
X33060008Y-103935125D01*
X33070992Y-103936898D01*
X33078144Y-103937294D01*
X33234062Y-103944837D01*
X33241263Y-103944481D01*
X33248420Y-103945330D01*
X33255582Y-103945426D01*
X33346137Y-103946003D01*
X33346772Y-103945945D01*
X33347401Y-103946009D01*
X33354564Y-103945987D01*
X33405783Y-103945472D01*
X33405891Y-103945460D01*
X33408140Y-103945443D01*
X33456261Y-103944738D01*
X33456376Y-103944725D01*
X33458948Y-103944692D01*
X33500827Y-103943859D01*
X33500959Y-103943843D01*
X33504781Y-103943765D01*
X33537277Y-103942868D01*
X33538143Y-103942759D01*
X33539011Y-103942817D01*
X33546169Y-103942545D01*
X33566137Y-103941647D01*
X33569278Y-103941196D01*
X33572445Y-103941324D01*
X33579593Y-103940865D01*
X33580378Y-103940809D01*
X33586766Y-103939719D01*
X33593245Y-103939728D01*
X33600369Y-103938989D01*
X33816544Y-103915037D01*
X33830863Y-103912014D01*
X33845460Y-103910997D01*
X33852515Y-103909755D01*
X34065272Y-103870768D01*
X34079340Y-103866738D01*
X34093824Y-103864691D01*
X34100773Y-103862953D01*
X34309255Y-103809250D01*
X34323046Y-103804218D01*
X34337398Y-103801137D01*
X34344206Y-103798910D01*
X34547551Y-103730806D01*
X34561035Y-103724770D01*
X34575220Y-103720646D01*
X34581852Y-103717938D01*
X34779203Y-103635751D01*
X34792348Y-103628700D01*
X34806334Y-103623517D01*
X34812754Y-103620340D01*
X35003252Y-103524389D01*
X35016015Y-103516310D01*
X35029764Y-103510044D01*
X35035935Y-103506408D01*
X35218721Y-103397009D01*
X35230000Y-103388663D01*
X35242348Y-103381978D01*
X35248256Y-103377928D01*
X35399212Y-103272898D01*
X35409569Y-103264075D01*
X35421076Y-103256811D01*
X35426700Y-103252376D01*
X35599627Y-103114029D01*
X35610090Y-103103833D01*
X35621859Y-103095182D01*
X35627156Y-103090360D01*
X35787840Y-102941999D01*
X35797756Y-102930863D01*
X35809100Y-102921195D01*
X35814037Y-102916004D01*
X35962251Y-102757955D01*
X35971466Y-102745972D01*
X35982227Y-102735357D01*
X35986773Y-102729821D01*
X36122295Y-102562414D01*
X36130682Y-102549690D01*
X36140717Y-102538225D01*
X36144846Y-102532372D01*
X36267451Y-102355934D01*
X36274898Y-102342607D01*
X36284079Y-102330420D01*
X36287768Y-102324280D01*
X36397231Y-102139138D01*
X36403649Y-102125371D01*
X36411875Y-102112610D01*
X36415106Y-102106217D01*
X36511204Y-101912700D01*
X36516540Y-101898659D01*
X36523742Y-101885483D01*
X36526502Y-101878873D01*
X36609009Y-101677308D01*
X36613240Y-101663170D01*
X36619378Y-101649746D01*
X36621660Y-101642956D01*
X36690353Y-101433673D01*
X36691937Y-101426570D01*
X36694680Y-101419832D01*
X36696672Y-101412952D01*
X36708817Y-101369894D01*
X36709158Y-101367991D01*
X36709850Y-101366180D01*
X36711694Y-101359258D01*
X36738060Y-101257463D01*
X36738899Y-101252120D01*
X36740653Y-101247001D01*
X36742254Y-101240020D01*
X36763639Y-101143696D01*
X36764502Y-101136583D01*
X36766539Y-101129716D01*
X36767848Y-101122674D01*
X36784656Y-101028529D01*
X36785282Y-101020618D01*
X36787196Y-101012915D01*
X36788187Y-101005821D01*
X36800821Y-100910571D01*
X36801077Y-100903063D01*
X36802572Y-100895706D01*
X36803257Y-100888576D01*
X36812122Y-100788929D01*
X36812067Y-100782857D01*
X36813052Y-100776865D01*
X36813468Y-100769714D01*
X36818966Y-100662384D01*
X36818777Y-100658327D01*
X36819317Y-100654295D01*
X36819520Y-100647134D01*
X36822056Y-100528830D01*
X36822008Y-100528202D01*
X36822081Y-100527579D01*
X36822168Y-100520416D01*
X36822449Y-100464549D01*
X36822371Y-100463710D01*
X36822454Y-100462878D01*
X36822417Y-100455714D01*
X36821742Y-100400354D01*
X36821742Y-100400345D01*
X36820672Y-100312710D01*
X36820144Y-100307926D01*
X36820465Y-100303128D01*
X36820194Y-100295970D01*
X36814320Y-100165103D01*
X36813311Y-100158077D01*
X36813491Y-100150979D01*
X36812922Y-100143838D01*
X36802348Y-100021757D01*
X36800715Y-100012990D01*
X36800507Y-100004067D01*
X36799592Y-99996962D01*
X36783745Y-99880322D01*
X36781480Y-99870770D01*
X36780740Y-99860976D01*
X36779456Y-99853929D01*
X36757764Y-99739388D01*
X36755085Y-99730241D01*
X36753883Y-99720787D01*
X36752242Y-99713814D01*
X36724132Y-99598030D01*
X36721453Y-99590356D01*
X36720061Y-99582346D01*
X36718103Y-99575455D01*
X36683004Y-99455083D01*
X36680771Y-99449516D01*
X36679523Y-99443640D01*
X36677310Y-99436827D01*
X36634649Y-99308523D01*
X36634040Y-99307156D01*
X36633702Y-99305704D01*
X36631356Y-99298936D01*
X36615662Y-99254678D01*
X36612604Y-99248157D01*
X36610676Y-99241218D01*
X36608047Y-99234554D01*
X36529662Y-99039835D01*
X36522377Y-99025858D01*
X36517027Y-99011030D01*
X36513905Y-99004583D01*
X36421065Y-98816249D01*
X36412832Y-98802992D01*
X36406455Y-98788749D01*
X36402860Y-98782553D01*
X36295754Y-98600866D01*
X36286723Y-98588490D01*
X36279449Y-98575001D01*
X36275409Y-98569086D01*
X36154229Y-98394309D01*
X36144562Y-98382924D01*
X36136546Y-98370324D01*
X36132090Y-98364716D01*
X35997026Y-98197111D01*
X35986902Y-98186796D01*
X35978311Y-98175179D01*
X35973473Y-98169896D01*
X35824717Y-98009727D01*
X35814312Y-98000516D01*
X35805309Y-97989931D01*
X35800123Y-97984989D01*
X35637864Y-97832516D01*
X35629855Y-97826344D01*
X35622905Y-97819003D01*
X35617464Y-97814344D01*
X35510626Y-97724163D01*
X35503150Y-97719012D01*
X35496593Y-97712736D01*
X35490928Y-97708351D01*
X35405099Y-97642857D01*
X35397724Y-97638294D01*
X35391183Y-97632605D01*
X35385317Y-97628495D01*
X35287777Y-97561169D01*
X35282106Y-97558023D01*
X35277048Y-97553961D01*
X35271025Y-97550083D01*
X35165416Y-97483135D01*
X35160398Y-97480603D01*
X35155900Y-97477248D01*
X35149742Y-97473588D01*
X35039705Y-97409231D01*
X35034521Y-97406844D01*
X35029830Y-97403602D01*
X35023544Y-97400167D01*
X34912717Y-97340612D01*
X34906478Y-97338008D01*
X34900771Y-97334394D01*
X34894352Y-97331214D01*
X34786376Y-97278672D01*
X34783858Y-97277738D01*
X34781553Y-97276356D01*
X34775058Y-97273335D01*
X34769053Y-97270592D01*
X34766383Y-97269675D01*
X34763928Y-97268285D01*
X34757361Y-97265426D01*
X34687401Y-97235553D01*
X34682324Y-97233950D01*
X34677600Y-97231487D01*
X34670937Y-97228857D01*
X34589756Y-97197471D01*
X34586739Y-97196632D01*
X34583937Y-97195263D01*
X34577208Y-97192808D01*
X34489176Y-97161388D01*
X34486913Y-97160822D01*
X34484789Y-97159844D01*
X34478005Y-97157545D01*
X34387493Y-97127571D01*
X34385086Y-97127027D01*
X34382824Y-97126050D01*
X34375988Y-97123911D01*
X34287366Y-97096859D01*
X34283837Y-97096149D01*
X34280502Y-97094817D01*
X34273609Y-97092869D01*
X34191246Y-97070222D01*
X34188272Y-97069710D01*
X34185443Y-97068663D01*
X34178502Y-97066894D01*
X34146617Y-97059001D01*
X34144195Y-97058647D01*
X34141879Y-97057852D01*
X34134898Y-97056245D01*
X34041673Y-97035477D01*
X34036524Y-97034849D01*
X34031572Y-97033334D01*
X34024541Y-97031966D01*
X33935567Y-97015306D01*
X33928979Y-97014729D01*
X33922583Y-97013047D01*
X33915503Y-97011960D01*
X33827499Y-96999069D01*
X33820519Y-96998736D01*
X33813690Y-96997237D01*
X33806571Y-96996441D01*
X33716255Y-96986984D01*
X33710046Y-96986943D01*
X33703935Y-96985844D01*
X33696791Y-96985320D01*
X33600882Y-96978957D01*
X33596275Y-96979102D01*
X33591713Y-96978431D01*
X33584556Y-96978135D01*
X33479774Y-96974531D01*
X33477126Y-96974699D01*
X33474496Y-96974377D01*
X33467334Y-96974254D01*
X33350399Y-96973070D01*
X33350295Y-96973079D01*
X33345161Y-96973044D01*
X33333487Y-96973045D01*
X33333399Y-96973054D01*
X33327869Y-96973076D01*
X33203751Y-96974446D01*
X33200629Y-96974787D01*
X33197496Y-96974553D01*
X33190336Y-96974770D01*
X33078625Y-96978927D01*
X33073436Y-96979631D01*
X33068206Y-96979421D01*
X33061058Y-96979882D01*
X32958464Y-96987229D01*
X32951577Y-96988406D01*
X32944595Y-96988412D01*
X32937471Y-96989167D01*
X32840707Y-97000108D01*
X32832984Y-97001757D01*
X32825099Y-97002116D01*
X32818016Y-97003188D01*
X32723794Y-97018126D01*
X32716400Y-97020053D01*
X32708787Y-97020734D01*
X32701758Y-97022115D01*
X32606789Y-97041454D01*
X32600799Y-97043298D01*
X32594581Y-97044095D01*
X32587610Y-97045743D01*
X32488606Y-97069887D01*
X32486484Y-97070631D01*
X32484260Y-97070967D01*
X32477328Y-97072774D01*
X32432050Y-97084910D01*
X32425464Y-97087386D01*
X32418563Y-97088724D01*
X32411712Y-97090815D01*
X32203165Y-97156053D01*
X32189687Y-97161766D01*
X32175543Y-97165565D01*
X32168857Y-97168136D01*
X31966769Y-97247472D01*
X31953630Y-97254176D01*
X31939692Y-97259009D01*
X31933207Y-97262050D01*
X31738343Y-97355086D01*
X31725589Y-97362786D01*
X31711901Y-97368665D01*
X31705651Y-97372164D01*
X31518780Y-97478504D01*
X31506469Y-97487202D01*
X31493084Y-97494141D01*
X31487104Y-97498084D01*
X31308989Y-97617332D01*
X31297911Y-97626432D01*
X31285682Y-97633896D01*
X31279991Y-97638246D01*
X31127845Y-97756247D01*
X31117562Y-97765970D01*
X31106019Y-97774158D01*
X31100642Y-97778890D01*
X30942973Y-97919616D01*
X30933133Y-97930298D01*
X30921904Y-97939518D01*
X30916874Y-97944617D01*
X30769537Y-98096062D01*
X30760649Y-98107191D01*
X30750291Y-98116973D01*
X30745626Y-98122409D01*
X30609306Y-98283506D01*
X30601291Y-98295108D01*
X30591728Y-98305473D01*
X30587447Y-98311217D01*
X30462825Y-98480899D01*
X30455622Y-98493032D01*
X30446789Y-98504038D01*
X30442914Y-98510062D01*
X30330675Y-98687262D01*
X30324253Y-98700003D01*
X30316111Y-98711731D01*
X30312664Y-98718010D01*
X30213491Y-98901661D01*
X30207845Y-98915113D01*
X30200392Y-98927656D01*
X30197396Y-98934163D01*
X30111974Y-99123194D01*
X30107141Y-99137457D01*
X30100406Y-99150930D01*
X30097891Y-99157637D01*
X30026903Y-99350983D01*
X30023317Y-99364788D01*
X30017839Y-99377960D01*
X30015794Y-99384826D01*
X29967040Y-99552836D01*
X29965316Y-99562065D01*
X29962155Y-99570897D01*
X29960459Y-99577856D01*
X29927388Y-99717842D01*
X29926419Y-99725017D01*
X29924268Y-99731931D01*
X29922867Y-99738956D01*
X29897507Y-99870892D01*
X29896687Y-99879759D01*
X29894458Y-99888382D01*
X29893400Y-99895466D01*
X29875008Y-100024738D01*
X29874611Y-100033842D01*
X29872766Y-100042777D01*
X29872059Y-100049906D01*
X29859891Y-100181902D01*
X29859936Y-100189691D01*
X29858699Y-100197388D01*
X29858308Y-100204541D01*
X29851622Y-100344647D01*
X29851726Y-100346714D01*
X29851443Y-100348757D01*
X29851208Y-100355916D01*
X29850555Y-100381316D01*
X29851004Y-100387533D01*
X29850387Y-100393726D01*
X20515750Y-100393726D01*
X20515750Y-26065733D01*
X20516162Y-26061523D01*
X22079928Y-26061523D01*
X22119696Y-26416063D01*
X22227571Y-26756126D01*
X22399443Y-27068760D01*
X22628765Y-27342056D01*
X22906804Y-27565605D01*
X23222969Y-27730892D01*
X23565217Y-27831621D01*
X23920512Y-27863955D01*
X24275320Y-27826664D01*
X24616128Y-27721166D01*
X24929955Y-27551481D01*
X25204845Y-27324071D01*
X25430330Y-27047600D01*
X25597820Y-26732597D01*
X25700936Y-26391060D01*
X25733247Y-26061523D01*
X104121595Y-26061523D01*
X104161363Y-26416063D01*
X104269238Y-26756126D01*
X104441110Y-27068760D01*
X104670432Y-27342056D01*
X104948471Y-27565605D01*
X105264636Y-27730892D01*
X105606884Y-27831621D01*
X105962179Y-27863955D01*
X106316987Y-27826664D01*
X106657795Y-27721166D01*
X106971622Y-27551481D01*
X107246512Y-27324071D01*
X107471997Y-27047600D01*
X107639487Y-26732597D01*
X107742603Y-26391060D01*
X107774914Y-26061523D01*
X186163261Y-26061523D01*
X186203029Y-26416063D01*
X186310904Y-26756126D01*
X186482776Y-27068760D01*
X186712098Y-27342056D01*
X186990137Y-27565605D01*
X187306302Y-27730892D01*
X187648550Y-27831621D01*
X188003845Y-27863955D01*
X188358653Y-27826664D01*
X188699461Y-27721166D01*
X189013288Y-27551481D01*
X189288178Y-27324071D01*
X189513663Y-27047600D01*
X189681153Y-26732597D01*
X189784269Y-26391060D01*
X189816580Y-26061523D01*
X268204928Y-26061523D01*
X268244696Y-26416063D01*
X268352571Y-26756126D01*
X268524443Y-27068760D01*
X268753765Y-27342056D01*
X269031804Y-27565605D01*
X269347969Y-27730892D01*
X269690217Y-27831621D01*
X270045512Y-27863955D01*
X270400320Y-27826664D01*
X270741128Y-27721166D01*
X271054955Y-27551481D01*
X271329845Y-27324071D01*
X271555330Y-27047600D01*
X271722820Y-26732597D01*
X271825936Y-26391060D01*
X271860750Y-26036000D01*
X271860037Y-25984959D01*
X271815323Y-25631009D01*
X271702711Y-25292485D01*
X271526491Y-24982282D01*
X271293375Y-24712214D01*
X271012241Y-24492569D01*
X270693800Y-24331712D01*
X270350179Y-24235771D01*
X269994467Y-24208401D01*
X269640214Y-24250643D01*
X269300912Y-24360889D01*
X268989486Y-24534939D01*
X268717797Y-24766164D01*
X268496194Y-25045757D01*
X268333119Y-25363068D01*
X268234781Y-25706011D01*
X268204928Y-26061523D01*
X189816580Y-26061523D01*
X189819083Y-26036000D01*
X189818370Y-25984959D01*
X189773656Y-25631009D01*
X189661044Y-25292485D01*
X189484824Y-24982282D01*
X189251708Y-24712214D01*
X188970574Y-24492569D01*
X188652133Y-24331712D01*
X188308512Y-24235771D01*
X187952800Y-24208401D01*
X187598547Y-24250643D01*
X187259245Y-24360889D01*
X186947819Y-24534939D01*
X186676130Y-24766164D01*
X186454527Y-25045757D01*
X186291452Y-25363068D01*
X186193114Y-25706011D01*
X186163261Y-26061523D01*
X107774914Y-26061523D01*
X107777417Y-26036000D01*
X107776704Y-25984959D01*
X107731990Y-25631009D01*
X107619378Y-25292485D01*
X107443158Y-24982282D01*
X107210042Y-24712214D01*
X106928908Y-24492569D01*
X106610467Y-24331712D01*
X106266846Y-24235771D01*
X105911134Y-24208401D01*
X105556881Y-24250643D01*
X105217579Y-24360889D01*
X104906153Y-24534939D01*
X104634464Y-24766164D01*
X104412861Y-25045757D01*
X104249786Y-25363068D01*
X104151448Y-25706011D01*
X104121595Y-26061523D01*
X25733247Y-26061523D01*
X25735750Y-26036000D01*
X25735037Y-25984959D01*
X25690323Y-25631009D01*
X25577711Y-25292485D01*
X25401491Y-24982282D01*
X25168375Y-24712214D01*
X24887241Y-24492569D01*
X24568800Y-24331712D01*
X24225179Y-24235771D01*
X23869467Y-24208401D01*
X23515214Y-24250643D01*
X23175912Y-24360889D01*
X22864486Y-24534939D01*
X22592797Y-24766164D01*
X22371194Y-25045757D01*
X22208119Y-25363068D01*
X22109781Y-25706011D01*
X22079928Y-26061523D01*
X20516162Y-26061523D01*
X20583209Y-25377725D01*
X20774385Y-24744520D01*
X21084908Y-24160511D01*
X21502954Y-23647936D01*
X22012598Y-23226322D01*
X22594429Y-22911727D01*
X23226279Y-22716137D01*
X23912610Y-22644000D01*
X270003017Y-22644000D01*
X270691025Y-22711459D01*
G04 #@! TD*
M02*
