G04 #@! TF.GenerationSoftware,KiCad,Pcbnew,(5.0.0)*
G04 #@! TF.CreationDate,2019-01-29T14:29:27-08:00*
G04 #@! TF.ProjectId,UT47.2-Bottom,555434372E322D426F74746F6D2E6B69,rev?*
G04 #@! TF.SameCoordinates,Original*
G04 #@! TF.FileFunction,Soldermask,Bot*
G04 #@! TF.FilePolarity,Negative*
%FSLAX46Y46*%
G04 Gerber Fmt 4.6, Leading zero omitted, Abs format (unit mm)*
G04 Created by KiCad (PCBNEW (5.0.0)) date 01/29/19 14:29:27*
%MOMM*%
%LPD*%
G01*
G04 APERTURE LIST*
%ADD10C,0.010000*%
G04 APERTURE END LIST*
D10*
G04 #@! TO.C,G\002A\002A\002A*
G36*
X33333531Y-97486045D02*
X33209413Y-97487415D01*
X33097701Y-97491572D01*
X32995108Y-97498919D01*
X32898344Y-97509860D01*
X32804122Y-97524798D01*
X32709153Y-97544137D01*
X32610149Y-97568281D01*
X32564870Y-97580418D01*
X32356323Y-97645656D01*
X32154235Y-97724992D01*
X31959372Y-97818028D01*
X31772501Y-97924368D01*
X31594386Y-98043616D01*
X31442240Y-98161617D01*
X31284572Y-98302342D01*
X31137235Y-98453787D01*
X31000914Y-98614885D01*
X30876292Y-98784567D01*
X30764053Y-98961766D01*
X30664880Y-99145416D01*
X30579458Y-99334447D01*
X30508470Y-99527793D01*
X30459716Y-99695803D01*
X30426645Y-99835789D01*
X30401285Y-99967725D01*
X30382893Y-100096997D01*
X30370725Y-100228993D01*
X30364039Y-100369100D01*
X30363386Y-100394500D01*
X30366105Y-100612797D01*
X30384300Y-100827580D01*
X30417965Y-101038821D01*
X30467094Y-101246489D01*
X30531681Y-101450555D01*
X30595878Y-101614487D01*
X30623961Y-101679752D01*
X30648023Y-101733910D01*
X30669892Y-101780613D01*
X30691393Y-101823513D01*
X30714354Y-101866263D01*
X30740600Y-101912515D01*
X30769725Y-101962156D01*
X30888944Y-102148427D01*
X31019048Y-102323153D01*
X31160171Y-102486465D01*
X31312445Y-102638496D01*
X31476003Y-102779380D01*
X31650976Y-102909248D01*
X31833344Y-103025775D01*
X31886173Y-103056744D01*
X31932086Y-103082721D01*
X31974735Y-103105531D01*
X32017772Y-103127001D01*
X32064849Y-103148957D01*
X32119619Y-103173225D01*
X32181013Y-103199622D01*
X32277246Y-103239169D01*
X32365964Y-103272208D01*
X32453078Y-103300695D01*
X32544502Y-103326589D01*
X32627094Y-103347322D01*
X32791610Y-103382876D01*
X32948705Y-103408553D01*
X33102933Y-103424893D01*
X33258851Y-103432436D01*
X33349406Y-103433013D01*
X33400625Y-103432498D01*
X33448746Y-103431793D01*
X33490626Y-103430960D01*
X33523122Y-103430063D01*
X33543090Y-103429165D01*
X33543875Y-103429109D01*
X33760049Y-103405157D01*
X33972806Y-103366170D01*
X34181287Y-103312467D01*
X34384632Y-103244363D01*
X34581984Y-103162176D01*
X34772482Y-103066225D01*
X34955268Y-102956826D01*
X35106224Y-102851796D01*
X35279151Y-102713449D01*
X35439835Y-102565088D01*
X35588049Y-102407039D01*
X35723571Y-102239632D01*
X35846176Y-102063194D01*
X35955639Y-101878052D01*
X36051737Y-101684535D01*
X36134244Y-101482971D01*
X36202937Y-101273688D01*
X36215082Y-101230630D01*
X36241448Y-101128835D01*
X36262833Y-101032511D01*
X36279641Y-100938367D01*
X36292275Y-100843117D01*
X36301140Y-100743470D01*
X36306638Y-100636140D01*
X36309174Y-100517836D01*
X36309455Y-100461969D01*
X36308780Y-100406608D01*
X35776706Y-100406608D01*
X35776603Y-100486746D01*
X35774937Y-100566410D01*
X35771741Y-100641537D01*
X35767044Y-100708060D01*
X35763324Y-100743750D01*
X35731450Y-100941048D01*
X35684799Y-101132663D01*
X35623549Y-101318222D01*
X35547881Y-101497349D01*
X35457973Y-101669669D01*
X35354006Y-101834809D01*
X35236159Y-101992393D01*
X35104612Y-102142047D01*
X35082276Y-102165260D01*
X34948042Y-102292334D01*
X34802340Y-102410270D01*
X34647869Y-102517090D01*
X34487331Y-102610816D01*
X34441542Y-102634504D01*
X34367134Y-102671153D01*
X34301893Y-102701372D01*
X34241396Y-102726940D01*
X34181222Y-102749634D01*
X34116949Y-102771233D01*
X34051875Y-102791227D01*
X33862662Y-102840640D01*
X33676911Y-102875091D01*
X33493173Y-102894714D01*
X33309997Y-102899642D01*
X33125936Y-102890011D01*
X33059394Y-102883031D01*
X32872062Y-102854087D01*
X32692481Y-102812278D01*
X32518143Y-102756854D01*
X32346541Y-102687064D01*
X32249584Y-102640866D01*
X32078952Y-102547447D01*
X31919536Y-102443712D01*
X31770578Y-102328974D01*
X31631321Y-102202550D01*
X31501006Y-102063754D01*
X31378876Y-101911903D01*
X31270608Y-101756259D01*
X31245482Y-101715068D01*
X31216159Y-101662940D01*
X31184459Y-101603496D01*
X31152201Y-101540356D01*
X31121207Y-101477140D01*
X31093294Y-101417467D01*
X31070285Y-101364957D01*
X31056847Y-101331125D01*
X30993980Y-101139584D01*
X30946584Y-100946845D01*
X30914700Y-100753450D01*
X30898370Y-100559940D01*
X30897632Y-100366857D01*
X30912528Y-100174742D01*
X30943098Y-99984136D01*
X30952901Y-99938094D01*
X30986550Y-99801801D01*
X31024858Y-99675618D01*
X31069796Y-99554007D01*
X31123337Y-99431432D01*
X31160996Y-99353958D01*
X31254701Y-99185110D01*
X31361526Y-99024673D01*
X31480702Y-98873368D01*
X31611463Y-98731914D01*
X31753040Y-98601031D01*
X31904666Y-98481440D01*
X32065573Y-98373860D01*
X32234993Y-98279011D01*
X32379175Y-98211480D01*
X32550803Y-98145085D01*
X32723357Y-98093087D01*
X32898844Y-98055078D01*
X33079274Y-98030651D01*
X33266655Y-98019397D01*
X33329562Y-98018507D01*
X33527657Y-98024877D01*
X33719285Y-98045522D01*
X33905219Y-98080673D01*
X34086235Y-98130567D01*
X34263106Y-98195435D01*
X34436606Y-98275513D01*
X34607509Y-98371035D01*
X34708206Y-98435244D01*
X34847639Y-98536772D01*
X34981837Y-98651278D01*
X35109159Y-98776839D01*
X35227965Y-98911531D01*
X35336614Y-99053431D01*
X35433465Y-99200615D01*
X35516878Y-99351161D01*
X35551674Y-99424080D01*
X35613077Y-99568939D01*
X35663308Y-99708178D01*
X35703565Y-99846126D01*
X35735044Y-99987114D01*
X35758944Y-100135471D01*
X35767345Y-100204000D01*
X35772108Y-100261170D01*
X35775218Y-100330061D01*
X35776706Y-100406608D01*
X36308780Y-100406608D01*
X36307710Y-100318973D01*
X36301836Y-100188106D01*
X36291262Y-100066025D01*
X36275415Y-99949385D01*
X36253723Y-99834844D01*
X36225613Y-99719059D01*
X36190514Y-99598687D01*
X36147853Y-99470384D01*
X36132159Y-99426125D01*
X36053774Y-99231406D01*
X35960934Y-99043072D01*
X35853828Y-98861385D01*
X35732648Y-98686608D01*
X35597583Y-98519003D01*
X35448826Y-98358833D01*
X35286567Y-98206360D01*
X35179729Y-98116179D01*
X35093900Y-98050686D01*
X34996361Y-97983360D01*
X34890752Y-97916412D01*
X34780714Y-97852055D01*
X34669887Y-97792500D01*
X34561911Y-97739958D01*
X34555906Y-97737215D01*
X34485946Y-97707342D01*
X34404765Y-97675956D01*
X34316733Y-97644536D01*
X34226221Y-97614562D01*
X34137599Y-97587511D01*
X34055236Y-97564864D01*
X34023350Y-97556971D01*
X33930125Y-97536203D01*
X33841151Y-97519543D01*
X33753147Y-97506652D01*
X33662831Y-97497195D01*
X33566922Y-97490832D01*
X33462140Y-97487228D01*
X33345205Y-97486044D01*
X33333531Y-97486045D01*
X33333531Y-97486045D01*
G37*
X33333531Y-97486045D02*
X33209413Y-97487415D01*
X33097701Y-97491572D01*
X32995108Y-97498919D01*
X32898344Y-97509860D01*
X32804122Y-97524798D01*
X32709153Y-97544137D01*
X32610149Y-97568281D01*
X32564870Y-97580418D01*
X32356323Y-97645656D01*
X32154235Y-97724992D01*
X31959372Y-97818028D01*
X31772501Y-97924368D01*
X31594386Y-98043616D01*
X31442240Y-98161617D01*
X31284572Y-98302342D01*
X31137235Y-98453787D01*
X31000914Y-98614885D01*
X30876292Y-98784567D01*
X30764053Y-98961766D01*
X30664880Y-99145416D01*
X30579458Y-99334447D01*
X30508470Y-99527793D01*
X30459716Y-99695803D01*
X30426645Y-99835789D01*
X30401285Y-99967725D01*
X30382893Y-100096997D01*
X30370725Y-100228993D01*
X30364039Y-100369100D01*
X30363386Y-100394500D01*
X30366105Y-100612797D01*
X30384300Y-100827580D01*
X30417965Y-101038821D01*
X30467094Y-101246489D01*
X30531681Y-101450555D01*
X30595878Y-101614487D01*
X30623961Y-101679752D01*
X30648023Y-101733910D01*
X30669892Y-101780613D01*
X30691393Y-101823513D01*
X30714354Y-101866263D01*
X30740600Y-101912515D01*
X30769725Y-101962156D01*
X30888944Y-102148427D01*
X31019048Y-102323153D01*
X31160171Y-102486465D01*
X31312445Y-102638496D01*
X31476003Y-102779380D01*
X31650976Y-102909248D01*
X31833344Y-103025775D01*
X31886173Y-103056744D01*
X31932086Y-103082721D01*
X31974735Y-103105531D01*
X32017772Y-103127001D01*
X32064849Y-103148957D01*
X32119619Y-103173225D01*
X32181013Y-103199622D01*
X32277246Y-103239169D01*
X32365964Y-103272208D01*
X32453078Y-103300695D01*
X32544502Y-103326589D01*
X32627094Y-103347322D01*
X32791610Y-103382876D01*
X32948705Y-103408553D01*
X33102933Y-103424893D01*
X33258851Y-103432436D01*
X33349406Y-103433013D01*
X33400625Y-103432498D01*
X33448746Y-103431793D01*
X33490626Y-103430960D01*
X33523122Y-103430063D01*
X33543090Y-103429165D01*
X33543875Y-103429109D01*
X33760049Y-103405157D01*
X33972806Y-103366170D01*
X34181287Y-103312467D01*
X34384632Y-103244363D01*
X34581984Y-103162176D01*
X34772482Y-103066225D01*
X34955268Y-102956826D01*
X35106224Y-102851796D01*
X35279151Y-102713449D01*
X35439835Y-102565088D01*
X35588049Y-102407039D01*
X35723571Y-102239632D01*
X35846176Y-102063194D01*
X35955639Y-101878052D01*
X36051737Y-101684535D01*
X36134244Y-101482971D01*
X36202937Y-101273688D01*
X36215082Y-101230630D01*
X36241448Y-101128835D01*
X36262833Y-101032511D01*
X36279641Y-100938367D01*
X36292275Y-100843117D01*
X36301140Y-100743470D01*
X36306638Y-100636140D01*
X36309174Y-100517836D01*
X36309455Y-100461969D01*
X36308780Y-100406608D01*
X35776706Y-100406608D01*
X35776603Y-100486746D01*
X35774937Y-100566410D01*
X35771741Y-100641537D01*
X35767044Y-100708060D01*
X35763324Y-100743750D01*
X35731450Y-100941048D01*
X35684799Y-101132663D01*
X35623549Y-101318222D01*
X35547881Y-101497349D01*
X35457973Y-101669669D01*
X35354006Y-101834809D01*
X35236159Y-101992393D01*
X35104612Y-102142047D01*
X35082276Y-102165260D01*
X34948042Y-102292334D01*
X34802340Y-102410270D01*
X34647869Y-102517090D01*
X34487331Y-102610816D01*
X34441542Y-102634504D01*
X34367134Y-102671153D01*
X34301893Y-102701372D01*
X34241396Y-102726940D01*
X34181222Y-102749634D01*
X34116949Y-102771233D01*
X34051875Y-102791227D01*
X33862662Y-102840640D01*
X33676911Y-102875091D01*
X33493173Y-102894714D01*
X33309997Y-102899642D01*
X33125936Y-102890011D01*
X33059394Y-102883031D01*
X32872062Y-102854087D01*
X32692481Y-102812278D01*
X32518143Y-102756854D01*
X32346541Y-102687064D01*
X32249584Y-102640866D01*
X32078952Y-102547447D01*
X31919536Y-102443712D01*
X31770578Y-102328974D01*
X31631321Y-102202550D01*
X31501006Y-102063754D01*
X31378876Y-101911903D01*
X31270608Y-101756259D01*
X31245482Y-101715068D01*
X31216159Y-101662940D01*
X31184459Y-101603496D01*
X31152201Y-101540356D01*
X31121207Y-101477140D01*
X31093294Y-101417467D01*
X31070285Y-101364957D01*
X31056847Y-101331125D01*
X30993980Y-101139584D01*
X30946584Y-100946845D01*
X30914700Y-100753450D01*
X30898370Y-100559940D01*
X30897632Y-100366857D01*
X30912528Y-100174742D01*
X30943098Y-99984136D01*
X30952901Y-99938094D01*
X30986550Y-99801801D01*
X31024858Y-99675618D01*
X31069796Y-99554007D01*
X31123337Y-99431432D01*
X31160996Y-99353958D01*
X31254701Y-99185110D01*
X31361526Y-99024673D01*
X31480702Y-98873368D01*
X31611463Y-98731914D01*
X31753040Y-98601031D01*
X31904666Y-98481440D01*
X32065573Y-98373860D01*
X32234993Y-98279011D01*
X32379175Y-98211480D01*
X32550803Y-98145085D01*
X32723357Y-98093087D01*
X32898844Y-98055078D01*
X33079274Y-98030651D01*
X33266655Y-98019397D01*
X33329562Y-98018507D01*
X33527657Y-98024877D01*
X33719285Y-98045522D01*
X33905219Y-98080673D01*
X34086235Y-98130567D01*
X34263106Y-98195435D01*
X34436606Y-98275513D01*
X34607509Y-98371035D01*
X34708206Y-98435244D01*
X34847639Y-98536772D01*
X34981837Y-98651278D01*
X35109159Y-98776839D01*
X35227965Y-98911531D01*
X35336614Y-99053431D01*
X35433465Y-99200615D01*
X35516878Y-99351161D01*
X35551674Y-99424080D01*
X35613077Y-99568939D01*
X35663308Y-99708178D01*
X35703565Y-99846126D01*
X35735044Y-99987114D01*
X35758944Y-100135471D01*
X35767345Y-100204000D01*
X35772108Y-100261170D01*
X35775218Y-100330061D01*
X35776706Y-100406608D01*
X36308780Y-100406608D01*
X36307710Y-100318973D01*
X36301836Y-100188106D01*
X36291262Y-100066025D01*
X36275415Y-99949385D01*
X36253723Y-99834844D01*
X36225613Y-99719059D01*
X36190514Y-99598687D01*
X36147853Y-99470384D01*
X36132159Y-99426125D01*
X36053774Y-99231406D01*
X35960934Y-99043072D01*
X35853828Y-98861385D01*
X35732648Y-98686608D01*
X35597583Y-98519003D01*
X35448826Y-98358833D01*
X35286567Y-98206360D01*
X35179729Y-98116179D01*
X35093900Y-98050686D01*
X34996361Y-97983360D01*
X34890752Y-97916412D01*
X34780714Y-97852055D01*
X34669887Y-97792500D01*
X34561911Y-97739958D01*
X34555906Y-97737215D01*
X34485946Y-97707342D01*
X34404765Y-97675956D01*
X34316733Y-97644536D01*
X34226221Y-97614562D01*
X34137599Y-97587511D01*
X34055236Y-97564864D01*
X34023350Y-97556971D01*
X33930125Y-97536203D01*
X33841151Y-97519543D01*
X33753147Y-97506652D01*
X33662831Y-97497195D01*
X33566922Y-97490832D01*
X33462140Y-97487228D01*
X33345205Y-97486044D01*
X33333531Y-97486045D01*
G36*
X34337625Y-101759750D02*
X34742437Y-101759750D01*
X34742437Y-101354938D01*
X34337625Y-101354938D01*
X34337625Y-101759750D01*
X34337625Y-101759750D01*
G37*
X34337625Y-101759750D02*
X34742437Y-101759750D01*
X34742437Y-101354938D01*
X34337625Y-101354938D01*
X34337625Y-101759750D01*
G36*
X31956375Y-101759750D02*
X32361187Y-101759750D01*
X32361187Y-101354938D01*
X31956375Y-101354938D01*
X31956375Y-101759750D01*
X31956375Y-101759750D01*
G37*
X31956375Y-101759750D02*
X32361187Y-101759750D01*
X32361187Y-101354938D01*
X31956375Y-101354938D01*
X31956375Y-101759750D01*
G36*
X33932812Y-100973938D02*
X34337625Y-100973938D01*
X34337625Y-100569125D01*
X33932812Y-100569125D01*
X33932812Y-100973938D01*
X33932812Y-100973938D01*
G37*
X33932812Y-100973938D02*
X34337625Y-100973938D01*
X34337625Y-100569125D01*
X33932812Y-100569125D01*
X33932812Y-100973938D01*
G36*
X33147000Y-100973938D02*
X33551812Y-100973938D01*
X33551812Y-100569125D01*
X33147000Y-100569125D01*
X33147000Y-100973938D01*
X33147000Y-100973938D01*
G37*
X33147000Y-100973938D02*
X33551812Y-100973938D01*
X33551812Y-100569125D01*
X33147000Y-100569125D01*
X33147000Y-100973938D01*
G36*
X32361187Y-100973938D02*
X32742187Y-100973938D01*
X32742187Y-100569125D01*
X32361187Y-100569125D01*
X32361187Y-100973938D01*
X32361187Y-100973938D01*
G37*
X32361187Y-100973938D02*
X32742187Y-100973938D01*
X32742187Y-100569125D01*
X32361187Y-100569125D01*
X32361187Y-100973938D01*
G36*
X33551812Y-100164313D02*
X33932812Y-100164313D01*
X33932812Y-99783313D01*
X33551812Y-99783313D01*
X33551812Y-100164313D01*
X33551812Y-100164313D01*
G37*
X33551812Y-100164313D02*
X33932812Y-100164313D01*
X33932812Y-99783313D01*
X33551812Y-99783313D01*
X33551812Y-100164313D01*
G36*
X32742187Y-100164313D02*
X33147000Y-100164313D01*
X33147000Y-99783313D01*
X32742187Y-99783313D01*
X32742187Y-100164313D01*
X32742187Y-100164313D01*
G37*
X32742187Y-100164313D02*
X33147000Y-100164313D01*
X33147000Y-99783313D01*
X32742187Y-99783313D01*
X32742187Y-100164313D01*
G36*
X33147000Y-99378500D02*
X33551812Y-99378500D01*
X33551812Y-98973688D01*
X33147000Y-98973688D01*
X33147000Y-99378500D01*
X33147000Y-99378500D01*
G37*
X33147000Y-99378500D02*
X33551812Y-99378500D01*
X33551812Y-98973688D01*
X33147000Y-98973688D01*
X33147000Y-99378500D01*
G04 #@! TD*
M02*
