G04 #@! TF.GenerationSoftware,KiCad,Pcbnew,(5.0.0)*
G04 #@! TF.CreationDate,2019-01-29T14:29:27-08:00*
G04 #@! TF.ProjectId,UT47.2-Bottom,555434372E322D426F74746F6D2E6B69,rev?*
G04 #@! TF.SameCoordinates,Original*
G04 #@! TF.FileFunction,Legend,Top*
G04 #@! TF.FilePolarity,Positive*
%FSLAX46Y46*%
G04 Gerber Fmt 4.6, Leading zero omitted, Abs format (unit mm)*
G04 Created by KiCad (PCBNEW (5.0.0)) date 01/29/19 14:29:27*
%MOMM*%
%LPD*%
G01*
G04 APERTURE LIST*
%ADD10C,0.010000*%
G04 APERTURE END LIST*
%LPC*%
D10*
G04 #@! TO.C,G\002A\002A\002A*
G36*
X39943750Y-33930683D02*
X45713070Y-37263258D01*
X46698415Y-37831473D01*
X47633999Y-38369141D01*
X48505272Y-38868017D01*
X49297682Y-39319857D01*
X49996675Y-39716416D01*
X50587701Y-40049450D01*
X51056206Y-40310715D01*
X51387640Y-40491966D01*
X51567449Y-40584959D01*
X51595412Y-40595833D01*
X51699193Y-40547042D01*
X51961430Y-40406164D01*
X52367568Y-40181442D01*
X52903049Y-39881120D01*
X53553318Y-39513440D01*
X54303816Y-39086646D01*
X55139987Y-38608981D01*
X56047275Y-38088688D01*
X57011121Y-37534010D01*
X57476091Y-37265761D01*
X63243750Y-33935690D01*
X63243750Y-22262500D01*
X63743750Y-22262500D01*
X63743750Y-33919901D01*
X69577833Y-37290936D01*
X75411917Y-40661971D01*
X81252833Y-37287114D01*
X87093750Y-33912257D01*
X87119555Y-28087378D01*
X87125117Y-26862807D01*
X87130477Y-25823109D01*
X87136220Y-24953160D01*
X87142931Y-24237837D01*
X87151193Y-23662014D01*
X87161590Y-23210567D01*
X87174707Y-22868371D01*
X87191128Y-22620302D01*
X87211437Y-22451235D01*
X87236219Y-22346046D01*
X87266057Y-22289610D01*
X87301537Y-22266803D01*
X87343241Y-22262501D01*
X87344555Y-22262500D01*
X87386429Y-22266333D01*
X87421981Y-22287917D01*
X87451729Y-22342376D01*
X87476190Y-22444834D01*
X87495881Y-22610417D01*
X87511319Y-22854248D01*
X87523021Y-23191454D01*
X87531505Y-23637157D01*
X87537288Y-24206484D01*
X87540887Y-24914558D01*
X87542819Y-25776505D01*
X87543600Y-26807448D01*
X87543749Y-28022514D01*
X87543750Y-28088142D01*
X87543750Y-33913784D01*
X99231006Y-40660378D01*
X110937472Y-33912500D01*
X110940611Y-28087500D01*
X110941398Y-26862957D01*
X110942687Y-25823288D01*
X110945004Y-24953366D01*
X110948878Y-24238066D01*
X110954837Y-23662261D01*
X110963406Y-23210825D01*
X110975115Y-22868632D01*
X110990490Y-22620556D01*
X111010059Y-22451470D01*
X111034350Y-22346248D01*
X111063889Y-22289764D01*
X111099205Y-22266892D01*
X111140826Y-22262505D01*
X111143750Y-22262500D01*
X111185795Y-22266202D01*
X111221498Y-22287393D01*
X111251382Y-22341199D01*
X111275970Y-22442747D01*
X111295787Y-22607162D01*
X111311357Y-22849571D01*
X111323202Y-23185100D01*
X111331846Y-23628875D01*
X111337814Y-24196023D01*
X111341628Y-24901670D01*
X111343814Y-25760941D01*
X111344893Y-26788964D01*
X111345390Y-28000865D01*
X111345415Y-28087500D01*
X111347081Y-33912500D01*
X117197141Y-37287180D01*
X123047202Y-40661861D01*
X128893707Y-37287180D01*
X134740212Y-33912500D01*
X134741981Y-28087500D01*
X134742480Y-26862958D01*
X134743523Y-25823290D01*
X134745635Y-24953370D01*
X134749339Y-24238070D01*
X134755159Y-23662266D01*
X134763619Y-23210831D01*
X134775244Y-22868638D01*
X134790556Y-22620562D01*
X134810081Y-22451475D01*
X134834341Y-22346253D01*
X134863862Y-22289768D01*
X134899166Y-22266894D01*
X134940778Y-22262505D01*
X134943750Y-22262500D01*
X134985796Y-22266211D01*
X135021504Y-22287429D01*
X135051402Y-22341279D01*
X135076017Y-22442889D01*
X135095876Y-22607384D01*
X135111507Y-22849890D01*
X135123438Y-23185534D01*
X135132195Y-23629442D01*
X135138308Y-24196739D01*
X135142303Y-24902553D01*
X135144707Y-25762009D01*
X135146049Y-26790234D01*
X135146855Y-28002354D01*
X135146902Y-28087500D01*
X135150054Y-33912500D01*
X141005226Y-37286755D01*
X146860399Y-40661010D01*
X152702074Y-37288510D01*
X158543750Y-33916010D01*
X158543750Y-28089255D01*
X158543881Y-26864494D01*
X158544618Y-25824609D01*
X158546480Y-24954479D01*
X158549982Y-24238978D01*
X158555642Y-23662985D01*
X158563977Y-23211375D01*
X158575504Y-22869026D01*
X158590739Y-22620814D01*
X158610200Y-22451617D01*
X158634404Y-22346310D01*
X158663868Y-22289771D01*
X158699108Y-22266877D01*
X158740643Y-22262503D01*
X158742944Y-22262500D01*
X158784841Y-22266490D01*
X158820495Y-22288546D01*
X158850490Y-22343792D01*
X158875411Y-22447354D01*
X158895843Y-22614357D01*
X158912369Y-22859926D01*
X158925573Y-23199188D01*
X158936041Y-23647268D01*
X158944356Y-24219291D01*
X158951103Y-24930382D01*
X158956866Y-25795667D01*
X158962230Y-26830271D01*
X158967778Y-28049321D01*
X158967944Y-28086663D01*
X158993750Y-33910827D01*
X170675230Y-40661495D01*
X182343750Y-33924011D01*
X182343750Y-22262500D01*
X182843750Y-22262500D01*
X182843750Y-33932017D01*
X188611223Y-37263925D01*
X189596450Y-37832124D01*
X190531971Y-38369769D01*
X191403225Y-38868613D01*
X192195653Y-39320410D01*
X192894694Y-39716912D01*
X193485788Y-40049872D01*
X193954374Y-40311044D01*
X194285893Y-40492180D01*
X194465784Y-40585034D01*
X194493750Y-40595833D01*
X194597868Y-40547017D01*
X194860412Y-40406069D01*
X195266821Y-40181236D01*
X195802535Y-39880763D01*
X196452993Y-39512899D01*
X197203636Y-39085890D01*
X198039902Y-38607983D01*
X198947232Y-38087426D01*
X199911067Y-37532464D01*
X200376276Y-37263925D01*
X206143749Y-33932017D01*
X206143750Y-28097258D01*
X206143750Y-22262500D01*
X206643750Y-22262500D01*
X206643750Y-33922937D01*
X212478283Y-37292058D01*
X218312817Y-40661178D01*
X224153283Y-37286002D01*
X229993750Y-33910827D01*
X230019555Y-28086663D01*
X230025117Y-26862172D01*
X230030478Y-25822555D01*
X230036222Y-24952684D01*
X230042933Y-24237436D01*
X230051196Y-23661685D01*
X230061594Y-23210305D01*
X230074713Y-22868170D01*
X230091137Y-22620156D01*
X230111450Y-22451137D01*
X230136236Y-22345988D01*
X230166080Y-22289582D01*
X230201566Y-22266795D01*
X230243278Y-22262501D01*
X230244555Y-22262500D01*
X230286426Y-22266333D01*
X230321976Y-22287915D01*
X230351723Y-22342369D01*
X230376183Y-22444819D01*
X230395874Y-22610388D01*
X230411313Y-22854201D01*
X230423016Y-23191379D01*
X230431501Y-23637048D01*
X230437285Y-24206330D01*
X230440885Y-24914350D01*
X230442817Y-25776230D01*
X230443600Y-26807093D01*
X230443749Y-28022065D01*
X230443750Y-28089022D01*
X230443750Y-33915544D01*
X236285960Y-37287968D01*
X242128171Y-40660391D01*
X247982808Y-37286445D01*
X253837445Y-33912500D01*
X253840597Y-28087500D01*
X253841387Y-26862957D01*
X253842679Y-25823288D01*
X253844998Y-24953366D01*
X253848874Y-24238066D01*
X253854834Y-23662261D01*
X253863404Y-23210825D01*
X253875114Y-22868632D01*
X253890489Y-22620556D01*
X253910059Y-22451470D01*
X253934350Y-22346248D01*
X253963890Y-22289764D01*
X253999206Y-22266892D01*
X254040826Y-22262505D01*
X254043750Y-22262500D01*
X254085795Y-22266202D01*
X254121498Y-22287395D01*
X254151383Y-22341205D01*
X254175973Y-22442757D01*
X254195793Y-22607177D01*
X254211367Y-22849593D01*
X254223218Y-23185130D01*
X254231870Y-23628914D01*
X254237848Y-24196072D01*
X254241675Y-24901731D01*
X254243875Y-25761015D01*
X254244973Y-26789052D01*
X254245492Y-28000968D01*
X254245518Y-28087500D01*
X254247287Y-33912500D01*
X265940983Y-40662258D01*
X269837350Y-38412379D01*
X270642498Y-37948232D01*
X271394189Y-37516390D01*
X272074791Y-37126873D01*
X272666675Y-36789700D01*
X273152212Y-36514893D01*
X273513772Y-36312472D01*
X273733725Y-36192458D01*
X273795688Y-36162500D01*
X273831936Y-36246049D01*
X273825705Y-36387139D01*
X273786942Y-36460632D01*
X273679036Y-36565190D01*
X273488629Y-36709218D01*
X273202363Y-36901117D01*
X272806880Y-37149293D01*
X272288822Y-37462149D01*
X271634830Y-37848088D01*
X270831549Y-38315515D01*
X269971087Y-38812139D01*
X266148425Y-41012500D01*
X266146087Y-47771952D01*
X266143749Y-54531405D01*
X269993749Y-56754741D01*
X270918053Y-57289419D01*
X271683241Y-57734652D01*
X272304034Y-58099897D01*
X272795151Y-58394612D01*
X273171312Y-58628255D01*
X273447235Y-58810283D01*
X273637640Y-58950154D01*
X273757248Y-59057324D01*
X273820776Y-59141252D01*
X273842944Y-59211395D01*
X273843749Y-59228444D01*
X273843749Y-59478811D01*
X273518749Y-59280944D01*
X273135247Y-59050908D01*
X272642062Y-58760410D01*
X272060533Y-58421572D01*
X271411999Y-58046515D01*
X270717799Y-57647360D01*
X269999272Y-57236226D01*
X269277756Y-56825236D01*
X268574590Y-56426511D01*
X267911113Y-56052170D01*
X267308664Y-55714336D01*
X266788581Y-55425128D01*
X266372203Y-55196668D01*
X266080870Y-55041077D01*
X265935918Y-54970475D01*
X265925002Y-54967527D01*
X265818076Y-55017285D01*
X265552875Y-55159280D01*
X265144027Y-55385224D01*
X264606159Y-55686830D01*
X263953896Y-56055811D01*
X263201866Y-56483879D01*
X262364697Y-56962747D01*
X261457014Y-57484128D01*
X260493445Y-58039734D01*
X260043750Y-58299729D01*
X254293750Y-61626904D01*
X254293750Y-75198095D01*
X260043750Y-78525270D01*
X261027769Y-79093620D01*
X261962509Y-79631488D01*
X262833344Y-80130587D01*
X263625647Y-80582630D01*
X264324790Y-80979330D01*
X264916148Y-81312398D01*
X265385092Y-81573549D01*
X265716996Y-81754494D01*
X265897233Y-81846946D01*
X265925002Y-81857472D01*
X266029636Y-81810236D01*
X266286038Y-81674952D01*
X266672869Y-81463739D01*
X267168792Y-81188720D01*
X267752466Y-80862015D01*
X268402554Y-80495744D01*
X269097716Y-80102029D01*
X269816614Y-79692991D01*
X270537909Y-79280750D01*
X271240262Y-78877428D01*
X271902334Y-78495146D01*
X272502787Y-78146023D01*
X273020282Y-77842181D01*
X273433480Y-77595742D01*
X273518750Y-77544055D01*
X273843749Y-77346188D01*
X273843750Y-77595860D01*
X273829717Y-77663918D01*
X273777812Y-77743528D01*
X273673324Y-77844139D01*
X273501544Y-77975201D01*
X273247761Y-78146162D01*
X272897266Y-78366474D01*
X272435348Y-78645583D01*
X271847297Y-78992940D01*
X271118404Y-79417994D01*
X270233957Y-79930195D01*
X269993750Y-80068965D01*
X266143750Y-82292396D01*
X266146087Y-89052448D01*
X266148425Y-95812500D01*
X269971087Y-98012860D01*
X270919961Y-98560704D01*
X271707536Y-99019507D01*
X272347172Y-99397673D01*
X272852227Y-99703605D01*
X273236057Y-99945708D01*
X273512021Y-100132384D01*
X273693477Y-100272037D01*
X273793782Y-100373072D01*
X273825705Y-100437860D01*
X273827475Y-100612337D01*
X273795688Y-100662499D01*
X273698966Y-100614032D01*
X273446828Y-100475308D01*
X273056904Y-100256350D01*
X272546824Y-99967177D01*
X271934216Y-99617810D01*
X271236712Y-99218269D01*
X270471940Y-98778576D01*
X269837350Y-98412620D01*
X265940983Y-96162741D01*
X260094135Y-99537620D01*
X254247287Y-102912500D01*
X254245518Y-108587500D01*
X254245009Y-109794946D01*
X254243932Y-110817718D01*
X254241742Y-111671139D01*
X254237894Y-112370533D01*
X254231843Y-112931227D01*
X254223045Y-113368544D01*
X254210955Y-113697809D01*
X254195027Y-113934346D01*
X254174718Y-114093481D01*
X254149481Y-114190538D01*
X254118773Y-114240842D01*
X254082048Y-114259717D01*
X254043750Y-114262500D01*
X254001194Y-114258723D01*
X253965137Y-114237177D01*
X253935030Y-114182537D01*
X253910325Y-114079478D01*
X253890472Y-113912676D01*
X253874923Y-113666805D01*
X253863130Y-113326543D01*
X253854544Y-112876563D01*
X253848617Y-112301541D01*
X253844799Y-111586152D01*
X253842542Y-110715073D01*
X253841298Y-109672977D01*
X253840597Y-108587500D01*
X253837445Y-102912500D01*
X242128171Y-96164608D01*
X236285960Y-99537031D01*
X230443750Y-102909455D01*
X230443750Y-108585977D01*
X230443613Y-109793620D01*
X230442844Y-110816585D01*
X230440905Y-111670193D01*
X230437258Y-112369767D01*
X230431367Y-112930628D01*
X230422693Y-113368099D01*
X230410699Y-113697500D01*
X230394847Y-113934155D01*
X230374600Y-114093384D01*
X230349419Y-114190509D01*
X230318768Y-114240853D01*
X230282109Y-114259738D01*
X230244575Y-114262500D01*
X230202175Y-114258436D01*
X230166173Y-114236029D01*
X230135963Y-114179955D01*
X230110936Y-114074891D01*
X230090486Y-113905512D01*
X230074004Y-113656494D01*
X230060882Y-113312515D01*
X230050514Y-112858250D01*
X230042291Y-112278375D01*
X230035606Y-111557566D01*
X230029852Y-110680500D01*
X230024419Y-109631854D01*
X230019575Y-108588335D01*
X229993750Y-102914171D01*
X224153283Y-99538996D01*
X218312817Y-96163821D01*
X212478283Y-99532941D01*
X206643749Y-102902062D01*
X206643750Y-108582281D01*
X206643750Y-114262500D01*
X206143750Y-114262500D01*
X206143750Y-102892982D01*
X200376276Y-99561074D01*
X199391049Y-98992875D01*
X198455528Y-98455230D01*
X197584274Y-97956386D01*
X196791846Y-97504589D01*
X196092805Y-97108087D01*
X195501711Y-96775127D01*
X195033125Y-96513955D01*
X194701606Y-96332819D01*
X194521715Y-96239965D01*
X194493750Y-96229166D01*
X194389631Y-96277982D01*
X194127087Y-96418930D01*
X193720678Y-96643763D01*
X193184964Y-96944236D01*
X192534506Y-97312100D01*
X191783863Y-97739109D01*
X190947597Y-98217016D01*
X190040267Y-98737573D01*
X189076432Y-99292535D01*
X188611223Y-99561074D01*
X182843750Y-102892982D01*
X182843750Y-114262500D01*
X182343750Y-114262500D01*
X182343750Y-108581744D01*
X182343749Y-102900988D01*
X176509490Y-99532246D01*
X170675230Y-96163504D01*
X164834490Y-99538838D01*
X158993750Y-102914171D01*
X158967924Y-108588335D01*
X158962286Y-109795732D01*
X158956844Y-110818454D01*
X158950992Y-111671825D01*
X158944121Y-112371169D01*
X158935624Y-112931810D01*
X158924892Y-113369072D01*
X158911320Y-113698277D01*
X158894298Y-113934751D01*
X158873219Y-114093817D01*
X158847476Y-114190799D01*
X158816461Y-114241020D01*
X158779566Y-114259804D01*
X158742924Y-114262500D01*
X158700552Y-114258598D01*
X158664659Y-114236679D01*
X158634708Y-114181421D01*
X158610162Y-114077503D01*
X158590483Y-113909602D01*
X158575133Y-113662398D01*
X158563575Y-113320569D01*
X158555271Y-112868794D01*
X158549684Y-112291750D01*
X158546276Y-111574117D01*
X158544509Y-110700573D01*
X158543846Y-109655796D01*
X158543750Y-108585744D01*
X158543750Y-102908989D01*
X152702074Y-99536489D01*
X146860399Y-96163989D01*
X141005226Y-99538244D01*
X135150054Y-102912500D01*
X135146902Y-108587500D01*
X135146098Y-109794948D01*
X135144770Y-110817720D01*
X135142371Y-111671142D01*
X135138350Y-112370538D01*
X135132160Y-112931232D01*
X135123252Y-113368550D01*
X135111078Y-113697815D01*
X135095088Y-113934353D01*
X135074735Y-114093487D01*
X135049469Y-114190544D01*
X135018742Y-114240846D01*
X134982006Y-114259719D01*
X134943750Y-114262500D01*
X134901195Y-114258731D01*
X134865144Y-114237211D01*
X134835050Y-114182613D01*
X134810370Y-114079614D01*
X134790558Y-113912888D01*
X134775069Y-113667111D01*
X134763359Y-113326958D01*
X134754883Y-112877104D01*
X134749095Y-112302226D01*
X134745452Y-111586997D01*
X134743408Y-110716094D01*
X134742418Y-109674192D01*
X134741981Y-108587500D01*
X134740212Y-102912500D01*
X123047202Y-96163138D01*
X117197141Y-99537819D01*
X111347081Y-102912500D01*
X111345415Y-108587500D01*
X111344928Y-109794946D01*
X111343869Y-110817718D01*
X111341695Y-111671138D01*
X111337860Y-112370533D01*
X111331820Y-112931227D01*
X111323030Y-113368543D01*
X111310946Y-113697808D01*
X111295023Y-113934346D01*
X111274716Y-114093481D01*
X111249482Y-114190538D01*
X111218775Y-114240842D01*
X111182051Y-114259717D01*
X111143750Y-114262500D01*
X111101194Y-114258723D01*
X111065137Y-114237177D01*
X111035031Y-114182538D01*
X111010325Y-114079479D01*
X110990473Y-113912678D01*
X110974925Y-113666808D01*
X110963133Y-113326547D01*
X110954548Y-112876568D01*
X110948621Y-112301547D01*
X110944805Y-111586160D01*
X110942550Y-110715082D01*
X110941309Y-109672989D01*
X110940611Y-108587500D01*
X110937472Y-102912500D01*
X105084239Y-99538560D01*
X99231006Y-96164621D01*
X87543750Y-102911215D01*
X87543750Y-108586857D01*
X87543613Y-109794399D01*
X87542843Y-110817264D01*
X87540904Y-111670775D01*
X87537257Y-112370255D01*
X87531364Y-112931027D01*
X87522688Y-113368415D01*
X87510691Y-113697740D01*
X87494835Y-113934327D01*
X87474583Y-114093498D01*
X87449397Y-114190576D01*
X87418739Y-114240884D01*
X87382071Y-114259746D01*
X87344575Y-114262500D01*
X87302177Y-114258436D01*
X87266177Y-114236031D01*
X87235968Y-114179961D01*
X87210942Y-114074904D01*
X87190492Y-113905536D01*
X87174009Y-113656536D01*
X87160888Y-113312579D01*
X87150519Y-112858343D01*
X87142296Y-112278506D01*
X87135610Y-111557745D01*
X87129856Y-110680736D01*
X87124424Y-109632157D01*
X87119575Y-108587620D01*
X87093750Y-102912740D01*
X81252833Y-99537884D01*
X75411917Y-96163028D01*
X69577833Y-99534063D01*
X63743750Y-102905098D01*
X63743750Y-114262500D01*
X63243750Y-114262500D01*
X63243750Y-102889309D01*
X57476091Y-99559238D01*
X56490836Y-98991337D01*
X55555347Y-98453975D01*
X54684183Y-97955394D01*
X53891900Y-97503839D01*
X53193054Y-97107552D01*
X52602204Y-96774776D01*
X52133905Y-96513754D01*
X51802715Y-96332731D01*
X51623190Y-96239947D01*
X51595412Y-96229166D01*
X51491645Y-96277974D01*
X51229437Y-96418903D01*
X50823338Y-96643708D01*
X50287902Y-96944144D01*
X49637680Y-97311968D01*
X48887224Y-97738935D01*
X48051087Y-98216801D01*
X47143821Y-98737321D01*
X46179978Y-99292251D01*
X45713070Y-99561741D01*
X39943750Y-102894316D01*
X39943750Y-114262500D01*
X39443750Y-114262500D01*
X39443750Y-102900075D01*
X33918750Y-99711041D01*
X32947509Y-99150412D01*
X32021129Y-98615625D01*
X31155219Y-98115693D01*
X30365390Y-97659633D01*
X29667254Y-97256460D01*
X29076421Y-96915189D01*
X28608501Y-96644836D01*
X28279107Y-96454416D01*
X28103848Y-96352944D01*
X28087382Y-96343369D01*
X27781015Y-96164731D01*
X23837382Y-98443636D01*
X22898321Y-98985285D01*
X22117448Y-99432989D01*
X21480549Y-99794178D01*
X20973408Y-100076282D01*
X20581811Y-100286733D01*
X20291542Y-100432960D01*
X20088387Y-100522395D01*
X19958131Y-100562468D01*
X19886559Y-100560609D01*
X19859456Y-100524249D01*
X19859253Y-100523123D01*
X19903718Y-100303637D01*
X19988320Y-100204104D01*
X20107583Y-100129902D01*
X20381340Y-99966894D01*
X20790763Y-99726071D01*
X21317025Y-99418426D01*
X21941298Y-99054952D01*
X22644756Y-98646640D01*
X23408571Y-98204484D01*
X23848504Y-97950317D01*
X27545123Y-95816133D01*
X27519436Y-89031601D01*
X27494243Y-82377117D01*
X27942347Y-82377117D01*
X27968048Y-89089760D01*
X27993750Y-95802403D01*
X39687426Y-102556485D01*
X39990588Y-102379745D01*
X40128846Y-102299663D01*
X40424748Y-102128657D01*
X40862694Y-101875733D01*
X41427082Y-101549896D01*
X42102311Y-101160150D01*
X42872779Y-100715500D01*
X43722884Y-100224952D01*
X44637026Y-99697511D01*
X45599603Y-99142182D01*
X45819438Y-99015363D01*
X51345127Y-95827721D01*
X51345110Y-95823028D01*
X51842374Y-95823028D01*
X57663409Y-99184416D01*
X63484445Y-102545803D01*
X63839097Y-102359163D01*
X63986602Y-102277046D01*
X64291336Y-102103724D01*
X64737495Y-101848296D01*
X65309279Y-101519859D01*
X65990884Y-101127510D01*
X66766508Y-100680348D01*
X67620350Y-100187470D01*
X68536608Y-99657974D01*
X69499478Y-99100957D01*
X69693750Y-98988502D01*
X75175358Y-95815128D01*
X75642376Y-95815128D01*
X81468063Y-99184139D01*
X82456417Y-99754930D01*
X83393669Y-100294701D01*
X84265522Y-100795313D01*
X85057681Y-101248632D01*
X85755850Y-101646519D01*
X86345732Y-101980838D01*
X86813033Y-102243453D01*
X87143456Y-102426226D01*
X87322704Y-102521020D01*
X87351480Y-102532825D01*
X87445733Y-102480710D01*
X87698891Y-102336907D01*
X88096610Y-102109653D01*
X88624544Y-101807180D01*
X89268350Y-101437725D01*
X90013680Y-101009522D01*
X90846192Y-100530806D01*
X91751539Y-100009810D01*
X92715377Y-99454770D01*
X93222657Y-99162500D01*
X99036104Y-95812500D01*
X99043750Y-82300988D01*
X99016295Y-82285135D01*
X99443750Y-82285135D01*
X99445521Y-89048817D01*
X99447292Y-95812500D01*
X105270521Y-99181249D01*
X106258818Y-99752171D01*
X107196181Y-100292099D01*
X108068293Y-100792885D01*
X108860836Y-101246384D01*
X109559493Y-101644448D01*
X110149946Y-101978930D01*
X110617877Y-102241684D01*
X110948968Y-102424564D01*
X111128904Y-102519422D01*
X111158010Y-102531249D01*
X111253371Y-102479361D01*
X111507563Y-102335699D01*
X111906219Y-102108506D01*
X112434975Y-101806022D01*
X113079463Y-101436487D01*
X113825317Y-101008144D01*
X114658172Y-100529232D01*
X115563662Y-100007993D01*
X116527419Y-99452667D01*
X117030643Y-99162500D01*
X122839015Y-95812500D01*
X122841382Y-89052741D01*
X122843749Y-82294316D01*
X123243750Y-82294316D01*
X123246870Y-89053408D01*
X123249991Y-95812500D01*
X129071870Y-99178734D01*
X130060313Y-99749429D01*
X130997975Y-100289201D01*
X131870512Y-100789895D01*
X132663583Y-101243358D01*
X133362845Y-101641436D01*
X133953956Y-101975975D01*
X134422573Y-102238821D01*
X134754355Y-102421821D01*
X134934959Y-102516819D01*
X134964365Y-102528734D01*
X135060804Y-102477235D01*
X135315999Y-102333873D01*
X135715564Y-102106891D01*
X136245113Y-101804535D01*
X136890259Y-101435049D01*
X137636617Y-101006677D01*
X138469799Y-100527663D01*
X139375420Y-100006251D01*
X140339092Y-99450686D01*
X140838503Y-99162500D01*
X146642024Y-95812500D01*
X146642887Y-89047523D01*
X146643747Y-82305838D01*
X147042365Y-82305838D01*
X147068057Y-89059147D01*
X147093750Y-95812456D01*
X152893750Y-99177147D01*
X153879096Y-99748621D01*
X154812744Y-100289832D01*
X155680439Y-100792536D01*
X156467931Y-101248488D01*
X157160965Y-101649445D01*
X157745291Y-101987163D01*
X158206656Y-102253399D01*
X158530807Y-102439907D01*
X158703492Y-102538445D01*
X158728640Y-102552168D01*
X158818855Y-102505221D01*
X159067953Y-102366230D01*
X159461715Y-102143333D01*
X159985923Y-101844670D01*
X160626360Y-101478379D01*
X161368807Y-101052597D01*
X162199047Y-100575463D01*
X163102861Y-100055116D01*
X164066033Y-99499693D01*
X164604327Y-99188909D01*
X170445123Y-95815318D01*
X170419436Y-89031753D01*
X170405820Y-85435801D01*
X170858135Y-85435801D01*
X170859222Y-86360240D01*
X170862158Y-87452136D01*
X170866630Y-88725835D01*
X170868051Y-89100233D01*
X170893750Y-95805705D01*
X182585874Y-102557401D01*
X182889812Y-102380197D01*
X183028193Y-102300013D01*
X183324195Y-102128868D01*
X183762217Y-101875771D01*
X184326659Y-101549731D01*
X185001918Y-101159758D01*
X185772394Y-100714863D01*
X186622486Y-100224053D01*
X187536594Y-99696340D01*
X188499116Y-99140732D01*
X188719438Y-99013561D01*
X194244788Y-95824324D01*
X194742373Y-95824324D01*
X200562428Y-99185564D01*
X206382484Y-102546804D01*
X206738117Y-102359663D01*
X206885798Y-102277456D01*
X207190704Y-102104045D01*
X207637029Y-101848532D01*
X208208967Y-101520014D01*
X208890712Y-101127593D01*
X209666458Y-100680367D01*
X210520401Y-100187436D01*
X211436733Y-99657900D01*
X212399649Y-99100857D01*
X212593750Y-98988502D01*
X218078006Y-95813595D01*
X218542377Y-95813595D01*
X224368063Y-99184336D01*
X225355180Y-99755457D01*
X226289939Y-100296238D01*
X227158184Y-100798491D01*
X227945762Y-101254032D01*
X228638517Y-101654675D01*
X229222295Y-101992234D01*
X229682941Y-102258523D01*
X230006300Y-102445357D01*
X230178218Y-102544549D01*
X230203094Y-102558788D01*
X230288930Y-102510800D01*
X230533549Y-102371056D01*
X230922559Y-102147843D01*
X231441563Y-101849448D01*
X232076166Y-101484159D01*
X232811974Y-101060264D01*
X233634591Y-100586049D01*
X234529622Y-100069803D01*
X235482673Y-99519812D01*
X235853094Y-99305976D01*
X236831741Y-98740735D01*
X237763368Y-98202187D01*
X238632829Y-97699120D01*
X239424977Y-97240319D01*
X240124665Y-96834569D01*
X240716747Y-96490657D01*
X241186076Y-96217368D01*
X241517505Y-96023488D01*
X241695887Y-95917802D01*
X241718750Y-95903671D01*
X241943750Y-95757889D01*
X241943750Y-82302062D01*
X241910830Y-82283052D01*
X242343750Y-82283052D01*
X242345233Y-89047776D01*
X242346717Y-95812500D01*
X248170233Y-99181652D01*
X249158490Y-99752600D01*
X250095766Y-100292545D01*
X250967751Y-100793339D01*
X251760133Y-101246839D01*
X252458602Y-101644898D01*
X253048847Y-101979372D01*
X253516556Y-102242116D01*
X253847419Y-102424984D01*
X254027125Y-102519831D01*
X254056121Y-102531652D01*
X254151163Y-102479709D01*
X254405059Y-102336021D01*
X254803451Y-102108828D01*
X255331978Y-101806368D01*
X255976281Y-101436878D01*
X256721999Y-101008597D01*
X257554774Y-100529764D01*
X258460245Y-100008617D01*
X259424051Y-99453395D01*
X259928686Y-99162500D01*
X265738879Y-95812500D01*
X265741314Y-89052368D01*
X265743750Y-82292236D01*
X259900505Y-78920234D01*
X258746228Y-78254595D01*
X257752328Y-77682793D01*
X256906286Y-77198130D01*
X256195584Y-76793906D01*
X255607703Y-76463424D01*
X255130125Y-76199986D01*
X254750332Y-75996892D01*
X254455804Y-75847446D01*
X254234024Y-75744949D01*
X254072473Y-75682702D01*
X253958633Y-75654007D01*
X253879984Y-75652166D01*
X253825505Y-75669689D01*
X253700417Y-75739745D01*
X253417325Y-75901097D01*
X252991413Y-76145012D01*
X252437867Y-76462760D01*
X251771872Y-76845610D01*
X251008613Y-77284830D01*
X250163276Y-77771691D01*
X249251045Y-78297460D01*
X248287108Y-78853407D01*
X247968750Y-79037098D01*
X242343750Y-82283052D01*
X241910830Y-82283052D01*
X236084847Y-78918870D01*
X230225945Y-75535678D01*
X229859847Y-75742308D01*
X229709904Y-75828080D01*
X229402751Y-76004733D01*
X228954333Y-76263068D01*
X228380598Y-76593885D01*
X227697491Y-76987983D01*
X226920961Y-77436161D01*
X226066954Y-77929220D01*
X225151415Y-78457960D01*
X224190293Y-79013179D01*
X224043750Y-79097848D01*
X218593750Y-82246757D01*
X218568063Y-89030176D01*
X218542377Y-95813595D01*
X218078006Y-95813595D01*
X218093750Y-95804481D01*
X218119409Y-89058490D01*
X218145069Y-82312500D01*
X212287233Y-78929554D01*
X211294463Y-78357904D01*
X210351222Y-77818031D01*
X209471943Y-77317991D01*
X208671062Y-76865839D01*
X207963014Y-76469627D01*
X207362234Y-76137412D01*
X206883156Y-75877247D01*
X206540215Y-75697188D01*
X206347846Y-75605288D01*
X206311573Y-75595187D01*
X206206817Y-75652414D01*
X205943657Y-75801429D01*
X205536765Y-76033799D01*
X205000812Y-76341087D01*
X204350470Y-76714858D01*
X203600410Y-77146678D01*
X202765304Y-77628109D01*
X201859823Y-78150718D01*
X200898638Y-78706068D01*
X200493750Y-78940173D01*
X194793750Y-82236580D01*
X194768061Y-89030452D01*
X194742373Y-95824324D01*
X194244788Y-95824324D01*
X194245126Y-95824129D01*
X194219438Y-89030354D01*
X194193750Y-82236580D01*
X188493750Y-78940173D01*
X187514076Y-78373898D01*
X186584141Y-77836931D01*
X185718614Y-77337706D01*
X184932163Y-76884656D01*
X184239456Y-76486216D01*
X183655162Y-76150820D01*
X183193950Y-75886903D01*
X182870488Y-75702898D01*
X182699445Y-75607239D01*
X182676815Y-75595529D01*
X182576498Y-75637148D01*
X182320630Y-75769169D01*
X181926662Y-75981640D01*
X181412043Y-76264606D01*
X180794222Y-76608117D01*
X180090649Y-77002218D01*
X179318774Y-77436957D01*
X178496046Y-77902380D01*
X177639914Y-78388536D01*
X176767828Y-78885470D01*
X175897238Y-79383230D01*
X175045592Y-79871864D01*
X174230342Y-80341418D01*
X173468935Y-80781939D01*
X172778822Y-81183475D01*
X172177451Y-81536072D01*
X171682274Y-81829778D01*
X171310738Y-82054640D01*
X171080294Y-82200704D01*
X171018051Y-82245488D01*
X170983377Y-82284373D01*
X170953692Y-82347257D01*
X170928681Y-82448486D01*
X170908032Y-82602406D01*
X170891429Y-82823363D01*
X170878560Y-83125703D01*
X170869110Y-83523770D01*
X170862765Y-84031912D01*
X170859211Y-84664473D01*
X170858135Y-85435801D01*
X170405820Y-85435801D01*
X170393750Y-82248188D01*
X164943750Y-79097750D01*
X163977257Y-78539149D01*
X163053965Y-78005691D01*
X162189814Y-77506576D01*
X161400748Y-77051005D01*
X160702710Y-76648176D01*
X160111642Y-76307291D01*
X159643487Y-76037549D01*
X159314188Y-75848149D01*
X159139686Y-75748292D01*
X159127842Y-75741603D01*
X158761935Y-75535892D01*
X147042365Y-82305838D01*
X146643747Y-82305838D01*
X146643750Y-82282547D01*
X140873998Y-78951095D01*
X139887363Y-78382736D01*
X138949395Y-77844976D01*
X138074776Y-77346068D01*
X137278194Y-76894269D01*
X136574331Y-76497834D01*
X135977875Y-76165019D01*
X135503508Y-75904077D01*
X135165917Y-75723266D01*
X134979786Y-75630840D01*
X134948998Y-75620277D01*
X134837930Y-75669263D01*
X134568624Y-75810493D01*
X134155753Y-76035710D01*
X133613992Y-76336654D01*
X132958015Y-76705068D01*
X132202498Y-77132693D01*
X131362115Y-77611271D01*
X130451540Y-78132544D01*
X129485448Y-78688253D01*
X129018750Y-78957614D01*
X123243750Y-82294316D01*
X122843749Y-82294316D01*
X122843750Y-82292982D01*
X117068750Y-78956489D01*
X116081749Y-78387557D01*
X115143423Y-77849209D01*
X114268444Y-77349702D01*
X113471484Y-76897292D01*
X112767217Y-76500237D01*
X112170313Y-76166792D01*
X111695447Y-75905214D01*
X111357289Y-75723760D01*
X111170513Y-75630685D01*
X111139257Y-75619820D01*
X111028303Y-75668650D01*
X110759099Y-75809697D01*
X110346325Y-76034705D01*
X109804661Y-76335417D01*
X109148789Y-76703574D01*
X108393387Y-77130921D01*
X107553138Y-77609200D01*
X106642720Y-78130154D01*
X105676814Y-78685526D01*
X105214257Y-78952389D01*
X99443750Y-82285135D01*
X99016295Y-82285135D01*
X93185124Y-78918177D01*
X87326499Y-75535367D01*
X86960124Y-75742153D01*
X86810131Y-75827952D01*
X86502929Y-76004633D01*
X86054464Y-76262995D01*
X85480684Y-76593836D01*
X84797539Y-76987956D01*
X84020974Y-77436155D01*
X83166938Y-77929230D01*
X82251378Y-78457981D01*
X81290243Y-79013208D01*
X81143750Y-79097848D01*
X75693750Y-82246757D01*
X75668063Y-89030942D01*
X75642376Y-95815128D01*
X75175358Y-95815128D01*
X75193750Y-95804481D01*
X75219448Y-89099621D01*
X75224279Y-87774786D01*
X75227658Y-86635601D01*
X75229272Y-85667721D01*
X75228807Y-84856800D01*
X75225948Y-84188491D01*
X75220382Y-83648448D01*
X75211794Y-83222326D01*
X75199872Y-82895778D01*
X75184299Y-82654458D01*
X75164764Y-82484020D01*
X75140952Y-82370118D01*
X75112548Y-82298407D01*
X75079239Y-82254539D01*
X75069448Y-82245679D01*
X74928433Y-82149504D01*
X74636254Y-81968787D01*
X74210359Y-81713482D01*
X73668199Y-81393544D01*
X73027224Y-81018927D01*
X72304882Y-80599586D01*
X71518625Y-80145476D01*
X70685901Y-79666552D01*
X69824161Y-79172767D01*
X68950855Y-78674078D01*
X68083431Y-78180438D01*
X67239340Y-77701802D01*
X66436031Y-77248125D01*
X65690955Y-76829362D01*
X65021561Y-76455467D01*
X64445299Y-76136396D01*
X63979618Y-75882101D01*
X63641968Y-75702540D01*
X63449800Y-75607665D01*
X63411940Y-75595337D01*
X63307125Y-75652647D01*
X63043917Y-75801762D01*
X62636986Y-76034243D01*
X62101006Y-76341654D01*
X61450646Y-76715555D01*
X60700578Y-77147508D01*
X59865474Y-77629077D01*
X58960004Y-78151821D01*
X57998841Y-78707305D01*
X57593750Y-78941587D01*
X51893750Y-82238828D01*
X51842374Y-95823028D01*
X51345110Y-95823028D01*
X51319438Y-89032167D01*
X51293750Y-82236613D01*
X45693750Y-78992880D01*
X44719797Y-78429022D01*
X43793148Y-77893115D01*
X42928932Y-77393873D01*
X42142276Y-76940007D01*
X41448307Y-76540230D01*
X40862154Y-76203254D01*
X40398945Y-75937791D01*
X40073807Y-75752555D01*
X39901869Y-75656257D01*
X39882069Y-75645840D01*
X39820267Y-75635574D01*
X39719302Y-75654441D01*
X39566819Y-75709090D01*
X39350461Y-75806170D01*
X39057872Y-75952331D01*
X38676696Y-76154222D01*
X38194575Y-76418492D01*
X37599153Y-76751791D01*
X36878075Y-77160769D01*
X36018983Y-77652075D01*
X35009521Y-78232358D01*
X34082069Y-78767028D01*
X33106039Y-79330717D01*
X32175724Y-79868997D01*
X31306538Y-80372886D01*
X30513896Y-80833399D01*
X29813215Y-81241553D01*
X29219908Y-81588366D01*
X28749392Y-81864853D01*
X28417081Y-82062033D01*
X28238391Y-82170920D01*
X28218048Y-82184320D01*
X27942347Y-82377117D01*
X27494243Y-82377117D01*
X27493750Y-82247069D01*
X23700593Y-80053295D01*
X22907057Y-79593981D01*
X22168040Y-79165505D01*
X21501307Y-78778220D01*
X20924623Y-78442479D01*
X20455756Y-78168636D01*
X20112470Y-77967042D01*
X19912531Y-77848050D01*
X19867513Y-77819597D01*
X19848925Y-77701031D01*
X19860669Y-77573558D01*
X19884691Y-77533705D01*
X19949172Y-77526406D01*
X20068549Y-77559190D01*
X20257262Y-77639584D01*
X20529749Y-77775115D01*
X20900451Y-77973312D01*
X21383804Y-78241702D01*
X21994249Y-78587813D01*
X22746223Y-79019172D01*
X23654166Y-79543306D01*
X23793750Y-79624056D01*
X24739572Y-80170044D01*
X25528101Y-80621933D01*
X26174144Y-80987508D01*
X26692509Y-81274555D01*
X27098006Y-81490860D01*
X27405442Y-81644209D01*
X27629625Y-81742387D01*
X27785366Y-81793181D01*
X27887471Y-81804376D01*
X27925833Y-81796584D01*
X28050896Y-81733093D01*
X28333935Y-81578086D01*
X28759791Y-81340171D01*
X29313306Y-81027954D01*
X29979322Y-80650043D01*
X30742682Y-80215048D01*
X31588227Y-79731574D01*
X32500800Y-79208231D01*
X33465242Y-78653625D01*
X33797014Y-78462500D01*
X39436111Y-75212500D01*
X39949854Y-75212500D01*
X45721802Y-78540987D01*
X46863443Y-79197149D01*
X47907149Y-79792624D01*
X48843436Y-80322175D01*
X49662820Y-80780568D01*
X50355814Y-81162566D01*
X50912936Y-81462934D01*
X51324700Y-81676435D01*
X51581621Y-81797833D01*
X51670542Y-81824880D01*
X51785665Y-81768361D01*
X52059008Y-81620091D01*
X52475690Y-81388505D01*
X53020830Y-81082035D01*
X53679548Y-80709116D01*
X54436965Y-80278179D01*
X55278199Y-79797660D01*
X56188371Y-79275990D01*
X57152601Y-78721603D01*
X57543477Y-78496393D01*
X63239621Y-75212500D01*
X63239621Y-61612500D01*
X63752522Y-61612500D01*
X63752578Y-75212500D01*
X69523164Y-78536089D01*
X70509012Y-79102950D01*
X71445086Y-79639365D01*
X72316815Y-80137101D01*
X73109629Y-80587927D01*
X73808958Y-80983609D01*
X74400232Y-81315915D01*
X74868880Y-81576611D01*
X75200332Y-81757467D01*
X75380018Y-81850248D01*
X75407817Y-81861089D01*
X75511738Y-81812519D01*
X75774115Y-81671804D01*
X76180415Y-81447173D01*
X76716104Y-81146855D01*
X77366651Y-80779079D01*
X78117522Y-80352073D01*
X78954184Y-79874068D01*
X79862104Y-79353292D01*
X80826750Y-78797973D01*
X81307817Y-78520322D01*
X87093750Y-75178145D01*
X87093750Y-61646854D01*
X87047130Y-61619914D01*
X87593750Y-61619914D01*
X87593750Y-75205085D01*
X93343750Y-78534416D01*
X94574376Y-79244643D01*
X95675869Y-79875552D01*
X96642544Y-80423996D01*
X97468714Y-80886832D01*
X98148695Y-81260912D01*
X98676801Y-81543093D01*
X99047347Y-81730227D01*
X99254646Y-81819171D01*
X99293750Y-81826223D01*
X99412788Y-81770723D01*
X99689741Y-81623027D01*
X100109689Y-81391578D01*
X100657712Y-81084820D01*
X101318891Y-80711196D01*
X102078306Y-80279151D01*
X102921038Y-79797126D01*
X103832166Y-79273568D01*
X104796772Y-78716918D01*
X105193750Y-78487171D01*
X110893750Y-75185643D01*
X110893750Y-61639356D01*
X110878342Y-61630431D01*
X111393750Y-61630431D01*
X111393750Y-75194568D01*
X117143750Y-78523521D01*
X118128200Y-79092190D01*
X119063874Y-79630210D01*
X119936090Y-80129297D01*
X120730169Y-80581170D01*
X121431428Y-80977544D01*
X122025188Y-81310135D01*
X122496768Y-81570662D01*
X122831488Y-81750840D01*
X123014666Y-81842387D01*
X123043750Y-81852459D01*
X123153921Y-81803535D01*
X123422265Y-81662288D01*
X123834096Y-81436997D01*
X124374731Y-81135945D01*
X125029486Y-80767411D01*
X125783679Y-80339676D01*
X126622624Y-79861021D01*
X127531638Y-79339726D01*
X128496039Y-78784071D01*
X128943750Y-78525270D01*
X134693750Y-75198095D01*
X134693750Y-61638848D01*
X135193750Y-61638848D01*
X135193750Y-75185898D01*
X140943750Y-78517329D01*
X141928145Y-79086453D01*
X142863770Y-79625032D01*
X143735947Y-80124764D01*
X144529997Y-80577353D01*
X145231242Y-80974499D01*
X145825004Y-81307902D01*
X146296606Y-81569265D01*
X146631368Y-81750288D01*
X146814613Y-81842673D01*
X146843750Y-81853118D01*
X146953935Y-81804976D01*
X147222315Y-81664538D01*
X147634200Y-81440067D01*
X148174905Y-81139830D01*
X148829743Y-80772088D01*
X149584027Y-80345108D01*
X150423070Y-79867153D01*
X151332185Y-79346487D01*
X152296685Y-78791376D01*
X152743750Y-78533185D01*
X158493750Y-75208894D01*
X158493750Y-61650752D01*
X158993750Y-61650752D01*
X158993750Y-75174382D01*
X164743750Y-78509580D01*
X165727876Y-79079309D01*
X166663090Y-79618595D01*
X167534738Y-80119123D01*
X168328164Y-80572578D01*
X169028713Y-80970646D01*
X169621730Y-81305012D01*
X170092559Y-81567362D01*
X170426546Y-81749381D01*
X170609034Y-81842753D01*
X170637888Y-81853639D01*
X170747104Y-81806437D01*
X171014739Y-81667215D01*
X171426136Y-81444181D01*
X171966641Y-81145541D01*
X172621599Y-80779504D01*
X173376354Y-80354277D01*
X174216251Y-79878068D01*
X175126636Y-79359084D01*
X176092852Y-78805533D01*
X176559065Y-78537500D01*
X182336104Y-75212500D01*
X182848610Y-75212500D01*
X188621180Y-78541346D01*
X189752270Y-79191437D01*
X190788978Y-79782924D01*
X191721411Y-80310344D01*
X192539680Y-80768236D01*
X193233893Y-81151138D01*
X193794159Y-81453591D01*
X194210588Y-81670131D01*
X194473288Y-81795298D01*
X194569241Y-81825579D01*
X194684137Y-81769060D01*
X194957261Y-81620798D01*
X195373738Y-81389223D01*
X195918693Y-81082768D01*
X196577250Y-80709865D01*
X197334536Y-80278945D01*
X198175673Y-79798442D01*
X199085789Y-79276787D01*
X200050007Y-78722412D01*
X200441711Y-78496733D01*
X206138689Y-75212500D01*
X206138689Y-61612500D01*
X206651596Y-61612500D01*
X206651676Y-75212500D01*
X212422713Y-78535904D01*
X213408618Y-79102725D01*
X214344747Y-79639108D01*
X215216529Y-80136821D01*
X216009394Y-80587633D01*
X216708772Y-80983310D01*
X217300091Y-81315622D01*
X217768782Y-81576336D01*
X218100275Y-81757219D01*
X218279998Y-81850041D01*
X218307817Y-81860904D01*
X218411738Y-81812366D01*
X218674114Y-81671681D01*
X219080412Y-81447078D01*
X219616101Y-81146786D01*
X220266646Y-80779033D01*
X221017514Y-80352047D01*
X221854174Y-79874058D01*
X222762093Y-79353293D01*
X223726736Y-78797981D01*
X224207817Y-78520322D01*
X229993750Y-75178145D01*
X229993750Y-61646854D01*
X229945835Y-61619176D01*
X230493750Y-61619176D01*
X230493750Y-75205823D01*
X236243750Y-78535383D01*
X237491014Y-79255271D01*
X238603072Y-79892263D01*
X239575026Y-80443647D01*
X240401974Y-80906715D01*
X241079019Y-81278757D01*
X241601259Y-81557062D01*
X241963795Y-81738920D01*
X242161729Y-81821622D01*
X242193750Y-81826325D01*
X242312796Y-81770644D01*
X242589768Y-81622792D01*
X243009745Y-81391213D01*
X243557805Y-81084353D01*
X244219027Y-80710658D01*
X244978490Y-80278573D01*
X245821273Y-79796542D01*
X246732453Y-79273013D01*
X247697111Y-78716430D01*
X248093750Y-78486929D01*
X253793750Y-75186151D01*
X253793750Y-61638848D01*
X248093750Y-58338070D01*
X247111913Y-57770652D01*
X246177598Y-57232917D01*
X245305726Y-56733310D01*
X244511217Y-56280276D01*
X243808993Y-55882262D01*
X243213976Y-55547712D01*
X242741086Y-55285073D01*
X242405245Y-55102789D01*
X242221374Y-55009306D01*
X242193750Y-54998674D01*
X242063155Y-55040879D01*
X241765994Y-55183326D01*
X241307166Y-55423306D01*
X240691570Y-55758108D01*
X239924106Y-56185024D01*
X239009674Y-56701341D01*
X237953173Y-57304352D01*
X236759503Y-57991345D01*
X236243750Y-58289616D01*
X230493750Y-61619176D01*
X229945835Y-61619176D01*
X224207817Y-58304677D01*
X223221198Y-57735672D01*
X222284476Y-57197197D01*
X221412164Y-56697482D01*
X220618775Y-56244757D01*
X219918819Y-55847253D01*
X219326809Y-55513200D01*
X218857259Y-55250827D01*
X218524679Y-55068367D01*
X218343582Y-54974048D01*
X218314667Y-54962500D01*
X218211830Y-55011162D01*
X217950369Y-55151673D01*
X217544826Y-55375815D01*
X217009746Y-55675372D01*
X216359672Y-56042127D01*
X215609147Y-56467862D01*
X214772714Y-56944362D01*
X213864917Y-57463409D01*
X212900300Y-58016788D01*
X212429523Y-58287500D01*
X206651596Y-61612500D01*
X206138689Y-61612500D01*
X200416219Y-58312947D01*
X199432224Y-57747287D01*
X198495764Y-57212258D01*
X197621740Y-56716161D01*
X196825050Y-56267296D01*
X196120594Y-55873964D01*
X195523270Y-55544466D01*
X195047978Y-55287102D01*
X194709617Y-55110173D01*
X194523085Y-55021979D01*
X194493750Y-55013395D01*
X194374723Y-55062255D01*
X194097674Y-55203302D01*
X193677499Y-55428234D01*
X193129099Y-55728752D01*
X192467372Y-56096554D01*
X191707217Y-56523340D01*
X190863534Y-57000809D01*
X189951222Y-57520661D01*
X188985179Y-58074595D01*
X188571280Y-58312947D01*
X182848810Y-61612500D01*
X182848610Y-75212500D01*
X182336104Y-75212500D01*
X182336104Y-61612500D01*
X176559065Y-58287500D01*
X175572741Y-57720731D01*
X174636338Y-57184421D01*
X173764402Y-56686789D01*
X172971484Y-56236053D01*
X172272129Y-55840431D01*
X171680887Y-55508143D01*
X171212306Y-55247407D01*
X170880932Y-55066441D01*
X170701315Y-54973465D01*
X170673435Y-54962500D01*
X170570473Y-55011327D01*
X170309051Y-55152320D01*
X169903682Y-55377244D01*
X169368880Y-55677865D01*
X168719158Y-56045948D01*
X167969029Y-56473259D01*
X167133008Y-56951564D01*
X166225607Y-57472627D01*
X165261339Y-58028215D01*
X164779296Y-58306626D01*
X158993750Y-61650752D01*
X158493750Y-61650752D01*
X158493750Y-61616105D01*
X152743750Y-58287995D01*
X151495519Y-57567863D01*
X150382839Y-56930797D01*
X149410569Y-56379482D01*
X148583564Y-55916603D01*
X147906683Y-55544846D01*
X147384783Y-55266896D01*
X147022720Y-55085438D01*
X146825354Y-55003158D01*
X146793750Y-54998589D01*
X146674703Y-55054284D01*
X146397730Y-55202151D01*
X145977753Y-55433743D01*
X145429692Y-55740614D01*
X144768469Y-56114320D01*
X144009005Y-56546415D01*
X143166222Y-57028452D01*
X142255040Y-57551987D01*
X141290381Y-58108573D01*
X140893750Y-58338070D01*
X135193750Y-61638848D01*
X134693750Y-61638848D01*
X134693750Y-61626904D01*
X128943750Y-58299729D01*
X127959234Y-57731325D01*
X127023502Y-57193559D01*
X126151239Y-56694709D01*
X125357127Y-56243057D01*
X124655850Y-55846883D01*
X124062093Y-55514468D01*
X123590538Y-55254093D01*
X123255869Y-55074037D01*
X123072771Y-54982582D01*
X123043750Y-54972540D01*
X122933591Y-55021479D01*
X122665281Y-55162779D01*
X122253501Y-55388156D01*
X121712931Y-55689328D01*
X121058253Y-56058011D01*
X120304146Y-56485922D01*
X119465291Y-56964778D01*
X118556370Y-57486295D01*
X117592063Y-58042191D01*
X117143750Y-58301478D01*
X111393750Y-61630431D01*
X110878342Y-61630431D01*
X105193750Y-58337828D01*
X104211950Y-57770318D01*
X103277668Y-57232527D01*
X102405822Y-56732896D01*
X101611332Y-56279871D01*
X100909118Y-55881895D01*
X100314099Y-55547411D01*
X99841195Y-55284863D01*
X99505325Y-55102694D01*
X99321409Y-55009349D01*
X99293750Y-54998776D01*
X99163931Y-55041208D01*
X98868236Y-55183287D01*
X98412349Y-55421867D01*
X97801956Y-55753803D01*
X97042741Y-56175950D01*
X96140391Y-56685162D01*
X95100591Y-57278294D01*
X93929027Y-57952200D01*
X93343750Y-58290583D01*
X87593750Y-61619914D01*
X87047130Y-61619914D01*
X81293750Y-58295256D01*
X80124787Y-57620586D01*
X79116436Y-57040671D01*
X78256803Y-56549067D01*
X77533993Y-56139328D01*
X76936111Y-55805009D01*
X76451262Y-55539666D01*
X76067553Y-55336852D01*
X75773088Y-55190125D01*
X75555973Y-55093038D01*
X75404313Y-55039146D01*
X75306214Y-55022005D01*
X75263958Y-55028079D01*
X75139296Y-55091611D01*
X74856631Y-55246631D01*
X74431115Y-55484534D01*
X73877897Y-55796715D01*
X73212126Y-56174570D01*
X72448953Y-56609492D01*
X71603528Y-57092879D01*
X70690999Y-57616124D01*
X69726517Y-58170623D01*
X69393345Y-58362500D01*
X63752522Y-61612500D01*
X63239621Y-61612500D01*
X57516685Y-58312773D01*
X56532650Y-57747114D01*
X55596151Y-57212100D01*
X54722086Y-56716030D01*
X53925354Y-56267201D01*
X53220852Y-55873914D01*
X52623481Y-55544466D01*
X52148137Y-55287157D01*
X51809719Y-55110284D01*
X51623126Y-55022147D01*
X51593750Y-55013586D01*
X51474721Y-55062539D01*
X51197668Y-55203673D01*
X50777490Y-55428687D01*
X50229089Y-55729277D01*
X49567363Y-56097141D01*
X48807214Y-56523977D01*
X47963541Y-57001481D01*
X47051244Y-57521352D01*
X46085225Y-58075287D01*
X45671895Y-58313312D01*
X39950040Y-61612500D01*
X39949854Y-75212500D01*
X39436111Y-75212500D01*
X39436111Y-61612500D01*
X33797014Y-58362500D01*
X32818596Y-57799353D01*
X31886974Y-57264587D01*
X31017305Y-56766809D01*
X30224748Y-56314629D01*
X29524461Y-55916652D01*
X28931602Y-55581488D01*
X28461328Y-55317744D01*
X28128797Y-55134027D01*
X27949169Y-55038945D01*
X27925833Y-55028415D01*
X27846729Y-55021303D01*
X27722063Y-55049546D01*
X27537025Y-55120928D01*
X27276808Y-55243237D01*
X26926602Y-55424258D01*
X26471600Y-55671777D01*
X25896993Y-55993579D01*
X25187972Y-56397451D01*
X24329730Y-56891178D01*
X23793750Y-57200943D01*
X22862948Y-57738590D01*
X22090126Y-58182414D01*
X21460843Y-58539941D01*
X20960662Y-58818700D01*
X20575143Y-59026218D01*
X20289848Y-59170022D01*
X20090337Y-59257641D01*
X19962173Y-59296602D01*
X19890915Y-59294432D01*
X19862126Y-59258660D01*
X19860669Y-59251441D01*
X19850498Y-59067407D01*
X19867513Y-59005402D01*
X19959731Y-58948550D01*
X20207388Y-58802050D01*
X20592717Y-58576253D01*
X21097953Y-58281513D01*
X21705330Y-57928184D01*
X22397083Y-57526617D01*
X23155445Y-57087165D01*
X23700593Y-56771704D01*
X27493750Y-54577930D01*
X27506426Y-51229719D01*
X27960214Y-51229719D01*
X27962111Y-52059113D01*
X27966639Y-52742269D01*
X27974023Y-53292625D01*
X27984489Y-53723621D01*
X27998263Y-54048695D01*
X28015570Y-54281286D01*
X28036636Y-54434832D01*
X28061687Y-54522771D01*
X28082624Y-54553267D01*
X28225401Y-54649945D01*
X28519336Y-54831452D01*
X28946952Y-55087790D01*
X29490773Y-55408965D01*
X30133321Y-55784981D01*
X30857119Y-56205844D01*
X31644690Y-56661558D01*
X32478557Y-57142128D01*
X33341242Y-57637559D01*
X34215268Y-58137856D01*
X35083159Y-58633022D01*
X35927437Y-59113064D01*
X36730625Y-59567986D01*
X37475246Y-59987793D01*
X38143823Y-60362489D01*
X38718878Y-60682079D01*
X39182934Y-60936569D01*
X39518514Y-61115963D01*
X39708142Y-61210265D01*
X39743750Y-61222277D01*
X39854072Y-61167242D01*
X40122571Y-61020163D01*
X40534483Y-60789458D01*
X41075044Y-60483543D01*
X41729493Y-60110834D01*
X42483065Y-59679747D01*
X43320998Y-59198698D01*
X44228528Y-58676103D01*
X45190892Y-58120379D01*
X45593750Y-57887304D01*
X51293750Y-54587724D01*
X51319438Y-47792501D01*
X51345109Y-41001902D01*
X51842374Y-41001902D01*
X51893750Y-54585918D01*
X57643750Y-57917338D01*
X58626225Y-58485964D01*
X59558159Y-59024180D01*
X60425086Y-59523705D01*
X61212538Y-59976257D01*
X61906046Y-60373555D01*
X62491143Y-60707319D01*
X62953362Y-60969267D01*
X63278235Y-61151117D01*
X63451294Y-61244590D01*
X63475936Y-61255629D01*
X63574507Y-61208138D01*
X63831593Y-61068768D01*
X64232597Y-60845797D01*
X64762918Y-60547501D01*
X65407958Y-60182159D01*
X66153118Y-59758048D01*
X66983799Y-59283444D01*
X67885402Y-58766627D01*
X68843328Y-58215872D01*
X69225936Y-57995451D01*
X70205725Y-57429964D01*
X71137165Y-56890996D01*
X72005299Y-56387290D01*
X72795169Y-55927592D01*
X73491817Y-55520645D01*
X74080286Y-55175194D01*
X74545619Y-54899983D01*
X74872857Y-54703757D01*
X75047043Y-54595258D01*
X75069448Y-54579320D01*
X75104123Y-54540473D01*
X75133810Y-54477623D01*
X75158821Y-54376424D01*
X75179470Y-54222530D01*
X75196073Y-54001596D01*
X75208942Y-53699274D01*
X75218392Y-53301220D01*
X75224736Y-52793087D01*
X75228289Y-52160529D01*
X75229365Y-51389200D01*
X75228277Y-50464754D01*
X75225339Y-49372845D01*
X75220866Y-48099127D01*
X75219448Y-47725331D01*
X75193750Y-41020424D01*
X75175332Y-41009782D01*
X75642376Y-41009782D01*
X75693750Y-54578304D01*
X81443750Y-57911448D01*
X82426398Y-58480434D01*
X83358712Y-59019047D01*
X84226202Y-59518996D01*
X85014378Y-59971987D01*
X85708751Y-60369729D01*
X86294831Y-60703930D01*
X86758129Y-60966297D01*
X87084155Y-61148539D01*
X87258421Y-61242362D01*
X87283620Y-61253546D01*
X87383300Y-61206303D01*
X87641613Y-61066914D01*
X88044164Y-60843544D01*
X88576559Y-60544355D01*
X89224403Y-60177512D01*
X89973302Y-59751176D01*
X90808862Y-59273513D01*
X91716689Y-58752686D01*
X92682389Y-58196858D01*
X93208620Y-57893255D01*
X99015310Y-54540432D01*
X99443750Y-54540432D01*
X105267483Y-57903057D01*
X106257887Y-58472983D01*
X107199275Y-59010957D01*
X108077107Y-59508909D01*
X108876840Y-59958767D01*
X109583933Y-60352459D01*
X110183842Y-60681914D01*
X110662027Y-60939059D01*
X111003944Y-61115823D01*
X111195053Y-61204136D01*
X111229847Y-61212485D01*
X111338201Y-61154507D01*
X111604975Y-61004794D01*
X112015474Y-60771765D01*
X112555001Y-60463840D01*
X113208862Y-60089438D01*
X113962360Y-59656978D01*
X114800801Y-59174881D01*
X115709488Y-58651566D01*
X116673725Y-58095452D01*
X117106113Y-57845825D01*
X122843750Y-54532363D01*
X122843750Y-54531078D01*
X123243750Y-54531078D01*
X129068750Y-57896656D01*
X130154431Y-58521863D01*
X131161474Y-59097661D01*
X132078333Y-59617651D01*
X132893460Y-60075437D01*
X133595309Y-60464621D01*
X134172332Y-60778807D01*
X134612984Y-61011598D01*
X134905718Y-61156597D01*
X135038986Y-61207406D01*
X135043750Y-61206857D01*
X135154123Y-61148495D01*
X135422868Y-60998430D01*
X135835233Y-60765099D01*
X136376465Y-60456939D01*
X137031812Y-60082387D01*
X137786523Y-59649879D01*
X138625844Y-59167851D01*
X139535023Y-58644742D01*
X140499309Y-58088987D01*
X140918750Y-57846966D01*
X146643750Y-54542452D01*
X146643747Y-54518985D01*
X147042365Y-54518985D01*
X152868057Y-57888079D01*
X153856841Y-58459391D01*
X154794724Y-59000288D01*
X155667377Y-59502570D01*
X156460469Y-59958035D01*
X157159669Y-60358485D01*
X157750646Y-60695717D01*
X158219071Y-60961532D01*
X158550613Y-61147729D01*
X158730940Y-61246107D01*
X158760221Y-61259837D01*
X158855904Y-61211526D01*
X159110241Y-61071143D01*
X159508847Y-60846901D01*
X160037337Y-60547015D01*
X160681324Y-60179696D01*
X161426424Y-59753158D01*
X162258250Y-59275615D01*
X163162418Y-58755280D01*
X164124541Y-58200367D01*
X164610221Y-57919804D01*
X170393750Y-54577108D01*
X170406545Y-51197694D01*
X170859532Y-51197694D01*
X170860915Y-52019003D01*
X170864831Y-52695825D01*
X170871531Y-53242036D01*
X170881270Y-53671512D01*
X170894300Y-53998130D01*
X170910874Y-54235767D01*
X170931245Y-54398299D01*
X170955666Y-54499603D01*
X170984389Y-54553556D01*
X170992578Y-54561527D01*
X171136579Y-54659195D01*
X171431629Y-54841548D01*
X171860236Y-55098587D01*
X172404910Y-55420316D01*
X173048163Y-55796737D01*
X173772504Y-56217852D01*
X174560444Y-56673664D01*
X175394492Y-57154175D01*
X176257159Y-57649387D01*
X177130956Y-58149303D01*
X177998391Y-58643926D01*
X178841976Y-59123257D01*
X179644220Y-59577299D01*
X180387635Y-59996055D01*
X181054729Y-60369527D01*
X181628013Y-60687716D01*
X182089998Y-60940627D01*
X182423193Y-61118261D01*
X182610109Y-61210620D01*
X182643750Y-61221614D01*
X182754071Y-61166444D01*
X183022567Y-61019230D01*
X183434474Y-60788391D01*
X183975030Y-60482347D01*
X184629472Y-60109515D01*
X185383037Y-59678315D01*
X186220962Y-59197165D01*
X187128484Y-58674484D01*
X188090841Y-58118691D01*
X188493750Y-57885561D01*
X194193750Y-54585663D01*
X194219438Y-47793266D01*
X194245126Y-41000870D01*
X194742373Y-41000870D01*
X194768061Y-47794532D01*
X194793750Y-54588193D01*
X200543750Y-57918731D01*
X201526237Y-58487216D01*
X202458165Y-59025289D01*
X203325067Y-59524673D01*
X204112474Y-59977088D01*
X204805921Y-60374256D01*
X205390939Y-60707898D01*
X205853062Y-60969735D01*
X206177823Y-61151488D01*
X206350755Y-61244877D01*
X206375330Y-61255884D01*
X206473575Y-61208246D01*
X206730502Y-61068483D01*
X207131754Y-60844757D01*
X207662972Y-60545228D01*
X208309801Y-60178059D01*
X209057881Y-59751410D01*
X209892856Y-59273443D01*
X210800368Y-58752320D01*
X211766060Y-58196201D01*
X212300990Y-57887500D01*
X218145069Y-54512500D01*
X218119409Y-47765485D01*
X218093750Y-41018470D01*
X218081303Y-41011280D01*
X218542377Y-41011280D01*
X218568063Y-47794792D01*
X218593750Y-54578304D01*
X224343750Y-57911448D01*
X225326383Y-58480430D01*
X226258667Y-59019039D01*
X227126114Y-59518984D01*
X227914237Y-59971974D01*
X228608547Y-60369715D01*
X229194557Y-60703916D01*
X229657779Y-60966285D01*
X229983726Y-61148530D01*
X230157909Y-61242359D01*
X230183071Y-61253546D01*
X230282656Y-61206301D01*
X230540873Y-61066907D01*
X230943331Y-60843528D01*
X231475640Y-60544326D01*
X232123407Y-60177465D01*
X232872241Y-59751108D01*
X233707751Y-59273418D01*
X234615545Y-58752559D01*
X235581231Y-58196694D01*
X236108071Y-57892718D01*
X241908939Y-54543038D01*
X242343750Y-54543038D01*
X248164017Y-57902769D01*
X249152035Y-58472690D01*
X250088670Y-59012180D01*
X250959630Y-59513055D01*
X251750623Y-59967135D01*
X252447354Y-60366238D01*
X253035533Y-60702181D01*
X253500865Y-60966784D01*
X253829059Y-61151865D01*
X254005822Y-61249241D01*
X254033134Y-61262500D01*
X254125786Y-61213809D01*
X254377303Y-61073188D01*
X254773403Y-60848808D01*
X255299805Y-60548841D01*
X255942227Y-60181462D01*
X256686390Y-59754842D01*
X257518011Y-59277154D01*
X258422811Y-58756572D01*
X259386507Y-58201267D01*
X259912866Y-57897631D01*
X265743750Y-54532763D01*
X265741162Y-47772631D01*
X265738574Y-41012500D01*
X259885090Y-37639463D01*
X254031605Y-34266427D01*
X248189155Y-37639463D01*
X242346705Y-41012500D01*
X242345227Y-47777769D01*
X242343750Y-54543038D01*
X241908939Y-54543038D01*
X241943750Y-54522937D01*
X241943750Y-41067110D01*
X241718750Y-40921328D01*
X241594864Y-40847058D01*
X241312875Y-40681661D01*
X240887935Y-40433925D01*
X240335194Y-40112639D01*
X239669804Y-39726590D01*
X238906916Y-39284568D01*
X238061680Y-38795359D01*
X237149249Y-38267753D01*
X236184773Y-37710538D01*
X235856025Y-37520716D01*
X230218301Y-34265885D01*
X224380339Y-37638583D01*
X218542377Y-41011280D01*
X218081303Y-41011280D01*
X212248796Y-37642380D01*
X206403843Y-34266290D01*
X206098796Y-34444148D01*
X205960216Y-34524449D01*
X205664018Y-34695709D01*
X205225809Y-34948916D01*
X204661194Y-35275059D01*
X203985776Y-35665125D01*
X203215161Y-36110102D01*
X202364954Y-36600979D01*
X201450760Y-37128743D01*
X200488183Y-37684382D01*
X200268061Y-37811438D01*
X194742373Y-41000870D01*
X194245126Y-41000870D01*
X188719438Y-37811438D01*
X187748222Y-37250824D01*
X186821931Y-36716090D01*
X185956167Y-36216244D01*
X185166529Y-35760297D01*
X184468619Y-35357258D01*
X183878038Y-35016137D01*
X183410386Y-34745943D01*
X183081265Y-34555686D01*
X182906276Y-34454376D01*
X182889812Y-34444802D01*
X182585874Y-34267598D01*
X170893750Y-41019294D01*
X170868050Y-47728072D01*
X170863353Y-49066104D01*
X170860429Y-50218019D01*
X170859532Y-51197694D01*
X170406545Y-51197694D01*
X170419436Y-47793394D01*
X170445123Y-41009681D01*
X164607569Y-37637963D01*
X158770014Y-34266245D01*
X152931882Y-37639496D01*
X147093750Y-41012748D01*
X147068057Y-47765866D01*
X147042365Y-54518985D01*
X146643747Y-54518985D01*
X146641818Y-41012500D01*
X140797690Y-37639407D01*
X134953561Y-34266315D01*
X129101794Y-37639407D01*
X123250027Y-41012500D01*
X123246888Y-47771789D01*
X123243750Y-54531078D01*
X122843750Y-54531078D01*
X122841241Y-47772431D01*
X122838732Y-41012500D01*
X116987193Y-37639160D01*
X111135654Y-34265821D01*
X105291470Y-37639160D01*
X99447287Y-41012500D01*
X99445518Y-47776466D01*
X99443750Y-54540432D01*
X99015310Y-54540432D01*
X99043750Y-54524011D01*
X99039746Y-47768255D01*
X99035743Y-41012500D01*
X93178383Y-37639998D01*
X87321024Y-34267497D01*
X81481700Y-37638639D01*
X75642376Y-41009782D01*
X75175332Y-41009782D01*
X69348904Y-37643293D01*
X63504058Y-34266163D01*
X63198904Y-34444738D01*
X63060302Y-34525163D01*
X62764080Y-34696540D01*
X62325844Y-34949853D01*
X61761200Y-35276089D01*
X61085754Y-35666234D01*
X60315112Y-36111274D01*
X59464879Y-36602195D01*
X58550661Y-37129983D01*
X57588065Y-37685625D01*
X57368062Y-37812607D01*
X51842374Y-41001902D01*
X51345109Y-41001902D01*
X51345127Y-40997278D01*
X45819438Y-37809636D01*
X44848182Y-37249313D01*
X43921879Y-36714868D01*
X43056131Y-36215306D01*
X42266540Y-35759634D01*
X41568706Y-35356855D01*
X40978231Y-35015976D01*
X40510717Y-34746000D01*
X40181764Y-34555934D01*
X40006975Y-34454782D01*
X39990588Y-34445254D01*
X39687426Y-34268514D01*
X27993750Y-41022596D01*
X27968050Y-47729723D01*
X27963409Y-49078462D01*
X27960722Y-50240648D01*
X27960214Y-51229719D01*
X27506426Y-51229719D01*
X27519436Y-47793398D01*
X27545123Y-41008866D01*
X23848504Y-38874682D01*
X23059471Y-38418570D01*
X22320419Y-37990246D01*
X21650174Y-37600699D01*
X21067564Y-37260924D01*
X20591417Y-36981913D01*
X20240559Y-36774657D01*
X20033818Y-36650150D01*
X19988320Y-36620895D01*
X19867618Y-36432132D01*
X19859253Y-36301876D01*
X19885541Y-36264844D01*
X19955986Y-36262150D01*
X20084805Y-36301224D01*
X20286210Y-36389498D01*
X20574418Y-36534402D01*
X20963643Y-36743366D01*
X21468100Y-37023821D01*
X22102005Y-37383198D01*
X22879571Y-37828927D01*
X23815014Y-38368438D01*
X23837382Y-38381363D01*
X27781015Y-40660268D01*
X28087382Y-40481630D01*
X28226203Y-40401188D01*
X28522634Y-40229789D01*
X28961066Y-39976451D01*
X29525887Y-39650188D01*
X30201486Y-39260015D01*
X30972253Y-38814949D01*
X31822576Y-38324004D01*
X32736846Y-37796195D01*
X33699450Y-37240540D01*
X33918749Y-37113958D01*
X39443749Y-33924924D01*
X39443749Y-28093712D01*
X39443750Y-22262500D01*
X39943750Y-22262500D01*
X39943750Y-33930683D01*
X39943750Y-33930683D01*
G37*
X39943750Y-33930683D02*
X45713070Y-37263258D01*
X46698415Y-37831473D01*
X47633999Y-38369141D01*
X48505272Y-38868017D01*
X49297682Y-39319857D01*
X49996675Y-39716416D01*
X50587701Y-40049450D01*
X51056206Y-40310715D01*
X51387640Y-40491966D01*
X51567449Y-40584959D01*
X51595412Y-40595833D01*
X51699193Y-40547042D01*
X51961430Y-40406164D01*
X52367568Y-40181442D01*
X52903049Y-39881120D01*
X53553318Y-39513440D01*
X54303816Y-39086646D01*
X55139987Y-38608981D01*
X56047275Y-38088688D01*
X57011121Y-37534010D01*
X57476091Y-37265761D01*
X63243750Y-33935690D01*
X63243750Y-22262500D01*
X63743750Y-22262500D01*
X63743750Y-33919901D01*
X69577833Y-37290936D01*
X75411917Y-40661971D01*
X81252833Y-37287114D01*
X87093750Y-33912257D01*
X87119555Y-28087378D01*
X87125117Y-26862807D01*
X87130477Y-25823109D01*
X87136220Y-24953160D01*
X87142931Y-24237837D01*
X87151193Y-23662014D01*
X87161590Y-23210567D01*
X87174707Y-22868371D01*
X87191128Y-22620302D01*
X87211437Y-22451235D01*
X87236219Y-22346046D01*
X87266057Y-22289610D01*
X87301537Y-22266803D01*
X87343241Y-22262501D01*
X87344555Y-22262500D01*
X87386429Y-22266333D01*
X87421981Y-22287917D01*
X87451729Y-22342376D01*
X87476190Y-22444834D01*
X87495881Y-22610417D01*
X87511319Y-22854248D01*
X87523021Y-23191454D01*
X87531505Y-23637157D01*
X87537288Y-24206484D01*
X87540887Y-24914558D01*
X87542819Y-25776505D01*
X87543600Y-26807448D01*
X87543749Y-28022514D01*
X87543750Y-28088142D01*
X87543750Y-33913784D01*
X99231006Y-40660378D01*
X110937472Y-33912500D01*
X110940611Y-28087500D01*
X110941398Y-26862957D01*
X110942687Y-25823288D01*
X110945004Y-24953366D01*
X110948878Y-24238066D01*
X110954837Y-23662261D01*
X110963406Y-23210825D01*
X110975115Y-22868632D01*
X110990490Y-22620556D01*
X111010059Y-22451470D01*
X111034350Y-22346248D01*
X111063889Y-22289764D01*
X111099205Y-22266892D01*
X111140826Y-22262505D01*
X111143750Y-22262500D01*
X111185795Y-22266202D01*
X111221498Y-22287393D01*
X111251382Y-22341199D01*
X111275970Y-22442747D01*
X111295787Y-22607162D01*
X111311357Y-22849571D01*
X111323202Y-23185100D01*
X111331846Y-23628875D01*
X111337814Y-24196023D01*
X111341628Y-24901670D01*
X111343814Y-25760941D01*
X111344893Y-26788964D01*
X111345390Y-28000865D01*
X111345415Y-28087500D01*
X111347081Y-33912500D01*
X117197141Y-37287180D01*
X123047202Y-40661861D01*
X128893707Y-37287180D01*
X134740212Y-33912500D01*
X134741981Y-28087500D01*
X134742480Y-26862958D01*
X134743523Y-25823290D01*
X134745635Y-24953370D01*
X134749339Y-24238070D01*
X134755159Y-23662266D01*
X134763619Y-23210831D01*
X134775244Y-22868638D01*
X134790556Y-22620562D01*
X134810081Y-22451475D01*
X134834341Y-22346253D01*
X134863862Y-22289768D01*
X134899166Y-22266894D01*
X134940778Y-22262505D01*
X134943750Y-22262500D01*
X134985796Y-22266211D01*
X135021504Y-22287429D01*
X135051402Y-22341279D01*
X135076017Y-22442889D01*
X135095876Y-22607384D01*
X135111507Y-22849890D01*
X135123438Y-23185534D01*
X135132195Y-23629442D01*
X135138308Y-24196739D01*
X135142303Y-24902553D01*
X135144707Y-25762009D01*
X135146049Y-26790234D01*
X135146855Y-28002354D01*
X135146902Y-28087500D01*
X135150054Y-33912500D01*
X141005226Y-37286755D01*
X146860399Y-40661010D01*
X152702074Y-37288510D01*
X158543750Y-33916010D01*
X158543750Y-28089255D01*
X158543881Y-26864494D01*
X158544618Y-25824609D01*
X158546480Y-24954479D01*
X158549982Y-24238978D01*
X158555642Y-23662985D01*
X158563977Y-23211375D01*
X158575504Y-22869026D01*
X158590739Y-22620814D01*
X158610200Y-22451617D01*
X158634404Y-22346310D01*
X158663868Y-22289771D01*
X158699108Y-22266877D01*
X158740643Y-22262503D01*
X158742944Y-22262500D01*
X158784841Y-22266490D01*
X158820495Y-22288546D01*
X158850490Y-22343792D01*
X158875411Y-22447354D01*
X158895843Y-22614357D01*
X158912369Y-22859926D01*
X158925573Y-23199188D01*
X158936041Y-23647268D01*
X158944356Y-24219291D01*
X158951103Y-24930382D01*
X158956866Y-25795667D01*
X158962230Y-26830271D01*
X158967778Y-28049321D01*
X158967944Y-28086663D01*
X158993750Y-33910827D01*
X170675230Y-40661495D01*
X182343750Y-33924011D01*
X182343750Y-22262500D01*
X182843750Y-22262500D01*
X182843750Y-33932017D01*
X188611223Y-37263925D01*
X189596450Y-37832124D01*
X190531971Y-38369769D01*
X191403225Y-38868613D01*
X192195653Y-39320410D01*
X192894694Y-39716912D01*
X193485788Y-40049872D01*
X193954374Y-40311044D01*
X194285893Y-40492180D01*
X194465784Y-40585034D01*
X194493750Y-40595833D01*
X194597868Y-40547017D01*
X194860412Y-40406069D01*
X195266821Y-40181236D01*
X195802535Y-39880763D01*
X196452993Y-39512899D01*
X197203636Y-39085890D01*
X198039902Y-38607983D01*
X198947232Y-38087426D01*
X199911067Y-37532464D01*
X200376276Y-37263925D01*
X206143749Y-33932017D01*
X206143750Y-28097258D01*
X206143750Y-22262500D01*
X206643750Y-22262500D01*
X206643750Y-33922937D01*
X212478283Y-37292058D01*
X218312817Y-40661178D01*
X224153283Y-37286002D01*
X229993750Y-33910827D01*
X230019555Y-28086663D01*
X230025117Y-26862172D01*
X230030478Y-25822555D01*
X230036222Y-24952684D01*
X230042933Y-24237436D01*
X230051196Y-23661685D01*
X230061594Y-23210305D01*
X230074713Y-22868170D01*
X230091137Y-22620156D01*
X230111450Y-22451137D01*
X230136236Y-22345988D01*
X230166080Y-22289582D01*
X230201566Y-22266795D01*
X230243278Y-22262501D01*
X230244555Y-22262500D01*
X230286426Y-22266333D01*
X230321976Y-22287915D01*
X230351723Y-22342369D01*
X230376183Y-22444819D01*
X230395874Y-22610388D01*
X230411313Y-22854201D01*
X230423016Y-23191379D01*
X230431501Y-23637048D01*
X230437285Y-24206330D01*
X230440885Y-24914350D01*
X230442817Y-25776230D01*
X230443600Y-26807093D01*
X230443749Y-28022065D01*
X230443750Y-28089022D01*
X230443750Y-33915544D01*
X236285960Y-37287968D01*
X242128171Y-40660391D01*
X247982808Y-37286445D01*
X253837445Y-33912500D01*
X253840597Y-28087500D01*
X253841387Y-26862957D01*
X253842679Y-25823288D01*
X253844998Y-24953366D01*
X253848874Y-24238066D01*
X253854834Y-23662261D01*
X253863404Y-23210825D01*
X253875114Y-22868632D01*
X253890489Y-22620556D01*
X253910059Y-22451470D01*
X253934350Y-22346248D01*
X253963890Y-22289764D01*
X253999206Y-22266892D01*
X254040826Y-22262505D01*
X254043750Y-22262500D01*
X254085795Y-22266202D01*
X254121498Y-22287395D01*
X254151383Y-22341205D01*
X254175973Y-22442757D01*
X254195793Y-22607177D01*
X254211367Y-22849593D01*
X254223218Y-23185130D01*
X254231870Y-23628914D01*
X254237848Y-24196072D01*
X254241675Y-24901731D01*
X254243875Y-25761015D01*
X254244973Y-26789052D01*
X254245492Y-28000968D01*
X254245518Y-28087500D01*
X254247287Y-33912500D01*
X265940983Y-40662258D01*
X269837350Y-38412379D01*
X270642498Y-37948232D01*
X271394189Y-37516390D01*
X272074791Y-37126873D01*
X272666675Y-36789700D01*
X273152212Y-36514893D01*
X273513772Y-36312472D01*
X273733725Y-36192458D01*
X273795688Y-36162500D01*
X273831936Y-36246049D01*
X273825705Y-36387139D01*
X273786942Y-36460632D01*
X273679036Y-36565190D01*
X273488629Y-36709218D01*
X273202363Y-36901117D01*
X272806880Y-37149293D01*
X272288822Y-37462149D01*
X271634830Y-37848088D01*
X270831549Y-38315515D01*
X269971087Y-38812139D01*
X266148425Y-41012500D01*
X266146087Y-47771952D01*
X266143749Y-54531405D01*
X269993749Y-56754741D01*
X270918053Y-57289419D01*
X271683241Y-57734652D01*
X272304034Y-58099897D01*
X272795151Y-58394612D01*
X273171312Y-58628255D01*
X273447235Y-58810283D01*
X273637640Y-58950154D01*
X273757248Y-59057324D01*
X273820776Y-59141252D01*
X273842944Y-59211395D01*
X273843749Y-59228444D01*
X273843749Y-59478811D01*
X273518749Y-59280944D01*
X273135247Y-59050908D01*
X272642062Y-58760410D01*
X272060533Y-58421572D01*
X271411999Y-58046515D01*
X270717799Y-57647360D01*
X269999272Y-57236226D01*
X269277756Y-56825236D01*
X268574590Y-56426511D01*
X267911113Y-56052170D01*
X267308664Y-55714336D01*
X266788581Y-55425128D01*
X266372203Y-55196668D01*
X266080870Y-55041077D01*
X265935918Y-54970475D01*
X265925002Y-54967527D01*
X265818076Y-55017285D01*
X265552875Y-55159280D01*
X265144027Y-55385224D01*
X264606159Y-55686830D01*
X263953896Y-56055811D01*
X263201866Y-56483879D01*
X262364697Y-56962747D01*
X261457014Y-57484128D01*
X260493445Y-58039734D01*
X260043750Y-58299729D01*
X254293750Y-61626904D01*
X254293750Y-75198095D01*
X260043750Y-78525270D01*
X261027769Y-79093620D01*
X261962509Y-79631488D01*
X262833344Y-80130587D01*
X263625647Y-80582630D01*
X264324790Y-80979330D01*
X264916148Y-81312398D01*
X265385092Y-81573549D01*
X265716996Y-81754494D01*
X265897233Y-81846946D01*
X265925002Y-81857472D01*
X266029636Y-81810236D01*
X266286038Y-81674952D01*
X266672869Y-81463739D01*
X267168792Y-81188720D01*
X267752466Y-80862015D01*
X268402554Y-80495744D01*
X269097716Y-80102029D01*
X269816614Y-79692991D01*
X270537909Y-79280750D01*
X271240262Y-78877428D01*
X271902334Y-78495146D01*
X272502787Y-78146023D01*
X273020282Y-77842181D01*
X273433480Y-77595742D01*
X273518750Y-77544055D01*
X273843749Y-77346188D01*
X273843750Y-77595860D01*
X273829717Y-77663918D01*
X273777812Y-77743528D01*
X273673324Y-77844139D01*
X273501544Y-77975201D01*
X273247761Y-78146162D01*
X272897266Y-78366474D01*
X272435348Y-78645583D01*
X271847297Y-78992940D01*
X271118404Y-79417994D01*
X270233957Y-79930195D01*
X269993750Y-80068965D01*
X266143750Y-82292396D01*
X266146087Y-89052448D01*
X266148425Y-95812500D01*
X269971087Y-98012860D01*
X270919961Y-98560704D01*
X271707536Y-99019507D01*
X272347172Y-99397673D01*
X272852227Y-99703605D01*
X273236057Y-99945708D01*
X273512021Y-100132384D01*
X273693477Y-100272037D01*
X273793782Y-100373072D01*
X273825705Y-100437860D01*
X273827475Y-100612337D01*
X273795688Y-100662499D01*
X273698966Y-100614032D01*
X273446828Y-100475308D01*
X273056904Y-100256350D01*
X272546824Y-99967177D01*
X271934216Y-99617810D01*
X271236712Y-99218269D01*
X270471940Y-98778576D01*
X269837350Y-98412620D01*
X265940983Y-96162741D01*
X260094135Y-99537620D01*
X254247287Y-102912500D01*
X254245518Y-108587500D01*
X254245009Y-109794946D01*
X254243932Y-110817718D01*
X254241742Y-111671139D01*
X254237894Y-112370533D01*
X254231843Y-112931227D01*
X254223045Y-113368544D01*
X254210955Y-113697809D01*
X254195027Y-113934346D01*
X254174718Y-114093481D01*
X254149481Y-114190538D01*
X254118773Y-114240842D01*
X254082048Y-114259717D01*
X254043750Y-114262500D01*
X254001194Y-114258723D01*
X253965137Y-114237177D01*
X253935030Y-114182537D01*
X253910325Y-114079478D01*
X253890472Y-113912676D01*
X253874923Y-113666805D01*
X253863130Y-113326543D01*
X253854544Y-112876563D01*
X253848617Y-112301541D01*
X253844799Y-111586152D01*
X253842542Y-110715073D01*
X253841298Y-109672977D01*
X253840597Y-108587500D01*
X253837445Y-102912500D01*
X242128171Y-96164608D01*
X236285960Y-99537031D01*
X230443750Y-102909455D01*
X230443750Y-108585977D01*
X230443613Y-109793620D01*
X230442844Y-110816585D01*
X230440905Y-111670193D01*
X230437258Y-112369767D01*
X230431367Y-112930628D01*
X230422693Y-113368099D01*
X230410699Y-113697500D01*
X230394847Y-113934155D01*
X230374600Y-114093384D01*
X230349419Y-114190509D01*
X230318768Y-114240853D01*
X230282109Y-114259738D01*
X230244575Y-114262500D01*
X230202175Y-114258436D01*
X230166173Y-114236029D01*
X230135963Y-114179955D01*
X230110936Y-114074891D01*
X230090486Y-113905512D01*
X230074004Y-113656494D01*
X230060882Y-113312515D01*
X230050514Y-112858250D01*
X230042291Y-112278375D01*
X230035606Y-111557566D01*
X230029852Y-110680500D01*
X230024419Y-109631854D01*
X230019575Y-108588335D01*
X229993750Y-102914171D01*
X224153283Y-99538996D01*
X218312817Y-96163821D01*
X212478283Y-99532941D01*
X206643749Y-102902062D01*
X206643750Y-108582281D01*
X206643750Y-114262500D01*
X206143750Y-114262500D01*
X206143750Y-102892982D01*
X200376276Y-99561074D01*
X199391049Y-98992875D01*
X198455528Y-98455230D01*
X197584274Y-97956386D01*
X196791846Y-97504589D01*
X196092805Y-97108087D01*
X195501711Y-96775127D01*
X195033125Y-96513955D01*
X194701606Y-96332819D01*
X194521715Y-96239965D01*
X194493750Y-96229166D01*
X194389631Y-96277982D01*
X194127087Y-96418930D01*
X193720678Y-96643763D01*
X193184964Y-96944236D01*
X192534506Y-97312100D01*
X191783863Y-97739109D01*
X190947597Y-98217016D01*
X190040267Y-98737573D01*
X189076432Y-99292535D01*
X188611223Y-99561074D01*
X182843750Y-102892982D01*
X182843750Y-114262500D01*
X182343750Y-114262500D01*
X182343750Y-108581744D01*
X182343749Y-102900988D01*
X176509490Y-99532246D01*
X170675230Y-96163504D01*
X164834490Y-99538838D01*
X158993750Y-102914171D01*
X158967924Y-108588335D01*
X158962286Y-109795732D01*
X158956844Y-110818454D01*
X158950992Y-111671825D01*
X158944121Y-112371169D01*
X158935624Y-112931810D01*
X158924892Y-113369072D01*
X158911320Y-113698277D01*
X158894298Y-113934751D01*
X158873219Y-114093817D01*
X158847476Y-114190799D01*
X158816461Y-114241020D01*
X158779566Y-114259804D01*
X158742924Y-114262500D01*
X158700552Y-114258598D01*
X158664659Y-114236679D01*
X158634708Y-114181421D01*
X158610162Y-114077503D01*
X158590483Y-113909602D01*
X158575133Y-113662398D01*
X158563575Y-113320569D01*
X158555271Y-112868794D01*
X158549684Y-112291750D01*
X158546276Y-111574117D01*
X158544509Y-110700573D01*
X158543846Y-109655796D01*
X158543750Y-108585744D01*
X158543750Y-102908989D01*
X152702074Y-99536489D01*
X146860399Y-96163989D01*
X141005226Y-99538244D01*
X135150054Y-102912500D01*
X135146902Y-108587500D01*
X135146098Y-109794948D01*
X135144770Y-110817720D01*
X135142371Y-111671142D01*
X135138350Y-112370538D01*
X135132160Y-112931232D01*
X135123252Y-113368550D01*
X135111078Y-113697815D01*
X135095088Y-113934353D01*
X135074735Y-114093487D01*
X135049469Y-114190544D01*
X135018742Y-114240846D01*
X134982006Y-114259719D01*
X134943750Y-114262500D01*
X134901195Y-114258731D01*
X134865144Y-114237211D01*
X134835050Y-114182613D01*
X134810370Y-114079614D01*
X134790558Y-113912888D01*
X134775069Y-113667111D01*
X134763359Y-113326958D01*
X134754883Y-112877104D01*
X134749095Y-112302226D01*
X134745452Y-111586997D01*
X134743408Y-110716094D01*
X134742418Y-109674192D01*
X134741981Y-108587500D01*
X134740212Y-102912500D01*
X123047202Y-96163138D01*
X117197141Y-99537819D01*
X111347081Y-102912500D01*
X111345415Y-108587500D01*
X111344928Y-109794946D01*
X111343869Y-110817718D01*
X111341695Y-111671138D01*
X111337860Y-112370533D01*
X111331820Y-112931227D01*
X111323030Y-113368543D01*
X111310946Y-113697808D01*
X111295023Y-113934346D01*
X111274716Y-114093481D01*
X111249482Y-114190538D01*
X111218775Y-114240842D01*
X111182051Y-114259717D01*
X111143750Y-114262500D01*
X111101194Y-114258723D01*
X111065137Y-114237177D01*
X111035031Y-114182538D01*
X111010325Y-114079479D01*
X110990473Y-113912678D01*
X110974925Y-113666808D01*
X110963133Y-113326547D01*
X110954548Y-112876568D01*
X110948621Y-112301547D01*
X110944805Y-111586160D01*
X110942550Y-110715082D01*
X110941309Y-109672989D01*
X110940611Y-108587500D01*
X110937472Y-102912500D01*
X105084239Y-99538560D01*
X99231006Y-96164621D01*
X87543750Y-102911215D01*
X87543750Y-108586857D01*
X87543613Y-109794399D01*
X87542843Y-110817264D01*
X87540904Y-111670775D01*
X87537257Y-112370255D01*
X87531364Y-112931027D01*
X87522688Y-113368415D01*
X87510691Y-113697740D01*
X87494835Y-113934327D01*
X87474583Y-114093498D01*
X87449397Y-114190576D01*
X87418739Y-114240884D01*
X87382071Y-114259746D01*
X87344575Y-114262500D01*
X87302177Y-114258436D01*
X87266177Y-114236031D01*
X87235968Y-114179961D01*
X87210942Y-114074904D01*
X87190492Y-113905536D01*
X87174009Y-113656536D01*
X87160888Y-113312579D01*
X87150519Y-112858343D01*
X87142296Y-112278506D01*
X87135610Y-111557745D01*
X87129856Y-110680736D01*
X87124424Y-109632157D01*
X87119575Y-108587620D01*
X87093750Y-102912740D01*
X81252833Y-99537884D01*
X75411917Y-96163028D01*
X69577833Y-99534063D01*
X63743750Y-102905098D01*
X63743750Y-114262500D01*
X63243750Y-114262500D01*
X63243750Y-102889309D01*
X57476091Y-99559238D01*
X56490836Y-98991337D01*
X55555347Y-98453975D01*
X54684183Y-97955394D01*
X53891900Y-97503839D01*
X53193054Y-97107552D01*
X52602204Y-96774776D01*
X52133905Y-96513754D01*
X51802715Y-96332731D01*
X51623190Y-96239947D01*
X51595412Y-96229166D01*
X51491645Y-96277974D01*
X51229437Y-96418903D01*
X50823338Y-96643708D01*
X50287902Y-96944144D01*
X49637680Y-97311968D01*
X48887224Y-97738935D01*
X48051087Y-98216801D01*
X47143821Y-98737321D01*
X46179978Y-99292251D01*
X45713070Y-99561741D01*
X39943750Y-102894316D01*
X39943750Y-114262500D01*
X39443750Y-114262500D01*
X39443750Y-102900075D01*
X33918750Y-99711041D01*
X32947509Y-99150412D01*
X32021129Y-98615625D01*
X31155219Y-98115693D01*
X30365390Y-97659633D01*
X29667254Y-97256460D01*
X29076421Y-96915189D01*
X28608501Y-96644836D01*
X28279107Y-96454416D01*
X28103848Y-96352944D01*
X28087382Y-96343369D01*
X27781015Y-96164731D01*
X23837382Y-98443636D01*
X22898321Y-98985285D01*
X22117448Y-99432989D01*
X21480549Y-99794178D01*
X20973408Y-100076282D01*
X20581811Y-100286733D01*
X20291542Y-100432960D01*
X20088387Y-100522395D01*
X19958131Y-100562468D01*
X19886559Y-100560609D01*
X19859456Y-100524249D01*
X19859253Y-100523123D01*
X19903718Y-100303637D01*
X19988320Y-100204104D01*
X20107583Y-100129902D01*
X20381340Y-99966894D01*
X20790763Y-99726071D01*
X21317025Y-99418426D01*
X21941298Y-99054952D01*
X22644756Y-98646640D01*
X23408571Y-98204484D01*
X23848504Y-97950317D01*
X27545123Y-95816133D01*
X27519436Y-89031601D01*
X27494243Y-82377117D01*
X27942347Y-82377117D01*
X27968048Y-89089760D01*
X27993750Y-95802403D01*
X39687426Y-102556485D01*
X39990588Y-102379745D01*
X40128846Y-102299663D01*
X40424748Y-102128657D01*
X40862694Y-101875733D01*
X41427082Y-101549896D01*
X42102311Y-101160150D01*
X42872779Y-100715500D01*
X43722884Y-100224952D01*
X44637026Y-99697511D01*
X45599603Y-99142182D01*
X45819438Y-99015363D01*
X51345127Y-95827721D01*
X51345110Y-95823028D01*
X51842374Y-95823028D01*
X57663409Y-99184416D01*
X63484445Y-102545803D01*
X63839097Y-102359163D01*
X63986602Y-102277046D01*
X64291336Y-102103724D01*
X64737495Y-101848296D01*
X65309279Y-101519859D01*
X65990884Y-101127510D01*
X66766508Y-100680348D01*
X67620350Y-100187470D01*
X68536608Y-99657974D01*
X69499478Y-99100957D01*
X69693750Y-98988502D01*
X75175358Y-95815128D01*
X75642376Y-95815128D01*
X81468063Y-99184139D01*
X82456417Y-99754930D01*
X83393669Y-100294701D01*
X84265522Y-100795313D01*
X85057681Y-101248632D01*
X85755850Y-101646519D01*
X86345732Y-101980838D01*
X86813033Y-102243453D01*
X87143456Y-102426226D01*
X87322704Y-102521020D01*
X87351480Y-102532825D01*
X87445733Y-102480710D01*
X87698891Y-102336907D01*
X88096610Y-102109653D01*
X88624544Y-101807180D01*
X89268350Y-101437725D01*
X90013680Y-101009522D01*
X90846192Y-100530806D01*
X91751539Y-100009810D01*
X92715377Y-99454770D01*
X93222657Y-99162500D01*
X99036104Y-95812500D01*
X99043750Y-82300988D01*
X99016295Y-82285135D01*
X99443750Y-82285135D01*
X99445521Y-89048817D01*
X99447292Y-95812500D01*
X105270521Y-99181249D01*
X106258818Y-99752171D01*
X107196181Y-100292099D01*
X108068293Y-100792885D01*
X108860836Y-101246384D01*
X109559493Y-101644448D01*
X110149946Y-101978930D01*
X110617877Y-102241684D01*
X110948968Y-102424564D01*
X111128904Y-102519422D01*
X111158010Y-102531249D01*
X111253371Y-102479361D01*
X111507563Y-102335699D01*
X111906219Y-102108506D01*
X112434975Y-101806022D01*
X113079463Y-101436487D01*
X113825317Y-101008144D01*
X114658172Y-100529232D01*
X115563662Y-100007993D01*
X116527419Y-99452667D01*
X117030643Y-99162500D01*
X122839015Y-95812500D01*
X122841382Y-89052741D01*
X122843749Y-82294316D01*
X123243750Y-82294316D01*
X123246870Y-89053408D01*
X123249991Y-95812500D01*
X129071870Y-99178734D01*
X130060313Y-99749429D01*
X130997975Y-100289201D01*
X131870512Y-100789895D01*
X132663583Y-101243358D01*
X133362845Y-101641436D01*
X133953956Y-101975975D01*
X134422573Y-102238821D01*
X134754355Y-102421821D01*
X134934959Y-102516819D01*
X134964365Y-102528734D01*
X135060804Y-102477235D01*
X135315999Y-102333873D01*
X135715564Y-102106891D01*
X136245113Y-101804535D01*
X136890259Y-101435049D01*
X137636617Y-101006677D01*
X138469799Y-100527663D01*
X139375420Y-100006251D01*
X140339092Y-99450686D01*
X140838503Y-99162500D01*
X146642024Y-95812500D01*
X146642887Y-89047523D01*
X146643747Y-82305838D01*
X147042365Y-82305838D01*
X147068057Y-89059147D01*
X147093750Y-95812456D01*
X152893750Y-99177147D01*
X153879096Y-99748621D01*
X154812744Y-100289832D01*
X155680439Y-100792536D01*
X156467931Y-101248488D01*
X157160965Y-101649445D01*
X157745291Y-101987163D01*
X158206656Y-102253399D01*
X158530807Y-102439907D01*
X158703492Y-102538445D01*
X158728640Y-102552168D01*
X158818855Y-102505221D01*
X159067953Y-102366230D01*
X159461715Y-102143333D01*
X159985923Y-101844670D01*
X160626360Y-101478379D01*
X161368807Y-101052597D01*
X162199047Y-100575463D01*
X163102861Y-100055116D01*
X164066033Y-99499693D01*
X164604327Y-99188909D01*
X170445123Y-95815318D01*
X170419436Y-89031753D01*
X170405820Y-85435801D01*
X170858135Y-85435801D01*
X170859222Y-86360240D01*
X170862158Y-87452136D01*
X170866630Y-88725835D01*
X170868051Y-89100233D01*
X170893750Y-95805705D01*
X182585874Y-102557401D01*
X182889812Y-102380197D01*
X183028193Y-102300013D01*
X183324195Y-102128868D01*
X183762217Y-101875771D01*
X184326659Y-101549731D01*
X185001918Y-101159758D01*
X185772394Y-100714863D01*
X186622486Y-100224053D01*
X187536594Y-99696340D01*
X188499116Y-99140732D01*
X188719438Y-99013561D01*
X194244788Y-95824324D01*
X194742373Y-95824324D01*
X200562428Y-99185564D01*
X206382484Y-102546804D01*
X206738117Y-102359663D01*
X206885798Y-102277456D01*
X207190704Y-102104045D01*
X207637029Y-101848532D01*
X208208967Y-101520014D01*
X208890712Y-101127593D01*
X209666458Y-100680367D01*
X210520401Y-100187436D01*
X211436733Y-99657900D01*
X212399649Y-99100857D01*
X212593750Y-98988502D01*
X218078006Y-95813595D01*
X218542377Y-95813595D01*
X224368063Y-99184336D01*
X225355180Y-99755457D01*
X226289939Y-100296238D01*
X227158184Y-100798491D01*
X227945762Y-101254032D01*
X228638517Y-101654675D01*
X229222295Y-101992234D01*
X229682941Y-102258523D01*
X230006300Y-102445357D01*
X230178218Y-102544549D01*
X230203094Y-102558788D01*
X230288930Y-102510800D01*
X230533549Y-102371056D01*
X230922559Y-102147843D01*
X231441563Y-101849448D01*
X232076166Y-101484159D01*
X232811974Y-101060264D01*
X233634591Y-100586049D01*
X234529622Y-100069803D01*
X235482673Y-99519812D01*
X235853094Y-99305976D01*
X236831741Y-98740735D01*
X237763368Y-98202187D01*
X238632829Y-97699120D01*
X239424977Y-97240319D01*
X240124665Y-96834569D01*
X240716747Y-96490657D01*
X241186076Y-96217368D01*
X241517505Y-96023488D01*
X241695887Y-95917802D01*
X241718750Y-95903671D01*
X241943750Y-95757889D01*
X241943750Y-82302062D01*
X241910830Y-82283052D01*
X242343750Y-82283052D01*
X242345233Y-89047776D01*
X242346717Y-95812500D01*
X248170233Y-99181652D01*
X249158490Y-99752600D01*
X250095766Y-100292545D01*
X250967751Y-100793339D01*
X251760133Y-101246839D01*
X252458602Y-101644898D01*
X253048847Y-101979372D01*
X253516556Y-102242116D01*
X253847419Y-102424984D01*
X254027125Y-102519831D01*
X254056121Y-102531652D01*
X254151163Y-102479709D01*
X254405059Y-102336021D01*
X254803451Y-102108828D01*
X255331978Y-101806368D01*
X255976281Y-101436878D01*
X256721999Y-101008597D01*
X257554774Y-100529764D01*
X258460245Y-100008617D01*
X259424051Y-99453395D01*
X259928686Y-99162500D01*
X265738879Y-95812500D01*
X265741314Y-89052368D01*
X265743750Y-82292236D01*
X259900505Y-78920234D01*
X258746228Y-78254595D01*
X257752328Y-77682793D01*
X256906286Y-77198130D01*
X256195584Y-76793906D01*
X255607703Y-76463424D01*
X255130125Y-76199986D01*
X254750332Y-75996892D01*
X254455804Y-75847446D01*
X254234024Y-75744949D01*
X254072473Y-75682702D01*
X253958633Y-75654007D01*
X253879984Y-75652166D01*
X253825505Y-75669689D01*
X253700417Y-75739745D01*
X253417325Y-75901097D01*
X252991413Y-76145012D01*
X252437867Y-76462760D01*
X251771872Y-76845610D01*
X251008613Y-77284830D01*
X250163276Y-77771691D01*
X249251045Y-78297460D01*
X248287108Y-78853407D01*
X247968750Y-79037098D01*
X242343750Y-82283052D01*
X241910830Y-82283052D01*
X236084847Y-78918870D01*
X230225945Y-75535678D01*
X229859847Y-75742308D01*
X229709904Y-75828080D01*
X229402751Y-76004733D01*
X228954333Y-76263068D01*
X228380598Y-76593885D01*
X227697491Y-76987983D01*
X226920961Y-77436161D01*
X226066954Y-77929220D01*
X225151415Y-78457960D01*
X224190293Y-79013179D01*
X224043750Y-79097848D01*
X218593750Y-82246757D01*
X218568063Y-89030176D01*
X218542377Y-95813595D01*
X218078006Y-95813595D01*
X218093750Y-95804481D01*
X218119409Y-89058490D01*
X218145069Y-82312500D01*
X212287233Y-78929554D01*
X211294463Y-78357904D01*
X210351222Y-77818031D01*
X209471943Y-77317991D01*
X208671062Y-76865839D01*
X207963014Y-76469627D01*
X207362234Y-76137412D01*
X206883156Y-75877247D01*
X206540215Y-75697188D01*
X206347846Y-75605288D01*
X206311573Y-75595187D01*
X206206817Y-75652414D01*
X205943657Y-75801429D01*
X205536765Y-76033799D01*
X205000812Y-76341087D01*
X204350470Y-76714858D01*
X203600410Y-77146678D01*
X202765304Y-77628109D01*
X201859823Y-78150718D01*
X200898638Y-78706068D01*
X200493750Y-78940173D01*
X194793750Y-82236580D01*
X194768061Y-89030452D01*
X194742373Y-95824324D01*
X194244788Y-95824324D01*
X194245126Y-95824129D01*
X194219438Y-89030354D01*
X194193750Y-82236580D01*
X188493750Y-78940173D01*
X187514076Y-78373898D01*
X186584141Y-77836931D01*
X185718614Y-77337706D01*
X184932163Y-76884656D01*
X184239456Y-76486216D01*
X183655162Y-76150820D01*
X183193950Y-75886903D01*
X182870488Y-75702898D01*
X182699445Y-75607239D01*
X182676815Y-75595529D01*
X182576498Y-75637148D01*
X182320630Y-75769169D01*
X181926662Y-75981640D01*
X181412043Y-76264606D01*
X180794222Y-76608117D01*
X180090649Y-77002218D01*
X179318774Y-77436957D01*
X178496046Y-77902380D01*
X177639914Y-78388536D01*
X176767828Y-78885470D01*
X175897238Y-79383230D01*
X175045592Y-79871864D01*
X174230342Y-80341418D01*
X173468935Y-80781939D01*
X172778822Y-81183475D01*
X172177451Y-81536072D01*
X171682274Y-81829778D01*
X171310738Y-82054640D01*
X171080294Y-82200704D01*
X171018051Y-82245488D01*
X170983377Y-82284373D01*
X170953692Y-82347257D01*
X170928681Y-82448486D01*
X170908032Y-82602406D01*
X170891429Y-82823363D01*
X170878560Y-83125703D01*
X170869110Y-83523770D01*
X170862765Y-84031912D01*
X170859211Y-84664473D01*
X170858135Y-85435801D01*
X170405820Y-85435801D01*
X170393750Y-82248188D01*
X164943750Y-79097750D01*
X163977257Y-78539149D01*
X163053965Y-78005691D01*
X162189814Y-77506576D01*
X161400748Y-77051005D01*
X160702710Y-76648176D01*
X160111642Y-76307291D01*
X159643487Y-76037549D01*
X159314188Y-75848149D01*
X159139686Y-75748292D01*
X159127842Y-75741603D01*
X158761935Y-75535892D01*
X147042365Y-82305838D01*
X146643747Y-82305838D01*
X146643750Y-82282547D01*
X140873998Y-78951095D01*
X139887363Y-78382736D01*
X138949395Y-77844976D01*
X138074776Y-77346068D01*
X137278194Y-76894269D01*
X136574331Y-76497834D01*
X135977875Y-76165019D01*
X135503508Y-75904077D01*
X135165917Y-75723266D01*
X134979786Y-75630840D01*
X134948998Y-75620277D01*
X134837930Y-75669263D01*
X134568624Y-75810493D01*
X134155753Y-76035710D01*
X133613992Y-76336654D01*
X132958015Y-76705068D01*
X132202498Y-77132693D01*
X131362115Y-77611271D01*
X130451540Y-78132544D01*
X129485448Y-78688253D01*
X129018750Y-78957614D01*
X123243750Y-82294316D01*
X122843749Y-82294316D01*
X122843750Y-82292982D01*
X117068750Y-78956489D01*
X116081749Y-78387557D01*
X115143423Y-77849209D01*
X114268444Y-77349702D01*
X113471484Y-76897292D01*
X112767217Y-76500237D01*
X112170313Y-76166792D01*
X111695447Y-75905214D01*
X111357289Y-75723760D01*
X111170513Y-75630685D01*
X111139257Y-75619820D01*
X111028303Y-75668650D01*
X110759099Y-75809697D01*
X110346325Y-76034705D01*
X109804661Y-76335417D01*
X109148789Y-76703574D01*
X108393387Y-77130921D01*
X107553138Y-77609200D01*
X106642720Y-78130154D01*
X105676814Y-78685526D01*
X105214257Y-78952389D01*
X99443750Y-82285135D01*
X99016295Y-82285135D01*
X93185124Y-78918177D01*
X87326499Y-75535367D01*
X86960124Y-75742153D01*
X86810131Y-75827952D01*
X86502929Y-76004633D01*
X86054464Y-76262995D01*
X85480684Y-76593836D01*
X84797539Y-76987956D01*
X84020974Y-77436155D01*
X83166938Y-77929230D01*
X82251378Y-78457981D01*
X81290243Y-79013208D01*
X81143750Y-79097848D01*
X75693750Y-82246757D01*
X75668063Y-89030942D01*
X75642376Y-95815128D01*
X75175358Y-95815128D01*
X75193750Y-95804481D01*
X75219448Y-89099621D01*
X75224279Y-87774786D01*
X75227658Y-86635601D01*
X75229272Y-85667721D01*
X75228807Y-84856800D01*
X75225948Y-84188491D01*
X75220382Y-83648448D01*
X75211794Y-83222326D01*
X75199872Y-82895778D01*
X75184299Y-82654458D01*
X75164764Y-82484020D01*
X75140952Y-82370118D01*
X75112548Y-82298407D01*
X75079239Y-82254539D01*
X75069448Y-82245679D01*
X74928433Y-82149504D01*
X74636254Y-81968787D01*
X74210359Y-81713482D01*
X73668199Y-81393544D01*
X73027224Y-81018927D01*
X72304882Y-80599586D01*
X71518625Y-80145476D01*
X70685901Y-79666552D01*
X69824161Y-79172767D01*
X68950855Y-78674078D01*
X68083431Y-78180438D01*
X67239340Y-77701802D01*
X66436031Y-77248125D01*
X65690955Y-76829362D01*
X65021561Y-76455467D01*
X64445299Y-76136396D01*
X63979618Y-75882101D01*
X63641968Y-75702540D01*
X63449800Y-75607665D01*
X63411940Y-75595337D01*
X63307125Y-75652647D01*
X63043917Y-75801762D01*
X62636986Y-76034243D01*
X62101006Y-76341654D01*
X61450646Y-76715555D01*
X60700578Y-77147508D01*
X59865474Y-77629077D01*
X58960004Y-78151821D01*
X57998841Y-78707305D01*
X57593750Y-78941587D01*
X51893750Y-82238828D01*
X51842374Y-95823028D01*
X51345110Y-95823028D01*
X51319438Y-89032167D01*
X51293750Y-82236613D01*
X45693750Y-78992880D01*
X44719797Y-78429022D01*
X43793148Y-77893115D01*
X42928932Y-77393873D01*
X42142276Y-76940007D01*
X41448307Y-76540230D01*
X40862154Y-76203254D01*
X40398945Y-75937791D01*
X40073807Y-75752555D01*
X39901869Y-75656257D01*
X39882069Y-75645840D01*
X39820267Y-75635574D01*
X39719302Y-75654441D01*
X39566819Y-75709090D01*
X39350461Y-75806170D01*
X39057872Y-75952331D01*
X38676696Y-76154222D01*
X38194575Y-76418492D01*
X37599153Y-76751791D01*
X36878075Y-77160769D01*
X36018983Y-77652075D01*
X35009521Y-78232358D01*
X34082069Y-78767028D01*
X33106039Y-79330717D01*
X32175724Y-79868997D01*
X31306538Y-80372886D01*
X30513896Y-80833399D01*
X29813215Y-81241553D01*
X29219908Y-81588366D01*
X28749392Y-81864853D01*
X28417081Y-82062033D01*
X28238391Y-82170920D01*
X28218048Y-82184320D01*
X27942347Y-82377117D01*
X27494243Y-82377117D01*
X27493750Y-82247069D01*
X23700593Y-80053295D01*
X22907057Y-79593981D01*
X22168040Y-79165505D01*
X21501307Y-78778220D01*
X20924623Y-78442479D01*
X20455756Y-78168636D01*
X20112470Y-77967042D01*
X19912531Y-77848050D01*
X19867513Y-77819597D01*
X19848925Y-77701031D01*
X19860669Y-77573558D01*
X19884691Y-77533705D01*
X19949172Y-77526406D01*
X20068549Y-77559190D01*
X20257262Y-77639584D01*
X20529749Y-77775115D01*
X20900451Y-77973312D01*
X21383804Y-78241702D01*
X21994249Y-78587813D01*
X22746223Y-79019172D01*
X23654166Y-79543306D01*
X23793750Y-79624056D01*
X24739572Y-80170044D01*
X25528101Y-80621933D01*
X26174144Y-80987508D01*
X26692509Y-81274555D01*
X27098006Y-81490860D01*
X27405442Y-81644209D01*
X27629625Y-81742387D01*
X27785366Y-81793181D01*
X27887471Y-81804376D01*
X27925833Y-81796584D01*
X28050896Y-81733093D01*
X28333935Y-81578086D01*
X28759791Y-81340171D01*
X29313306Y-81027954D01*
X29979322Y-80650043D01*
X30742682Y-80215048D01*
X31588227Y-79731574D01*
X32500800Y-79208231D01*
X33465242Y-78653625D01*
X33797014Y-78462500D01*
X39436111Y-75212500D01*
X39949854Y-75212500D01*
X45721802Y-78540987D01*
X46863443Y-79197149D01*
X47907149Y-79792624D01*
X48843436Y-80322175D01*
X49662820Y-80780568D01*
X50355814Y-81162566D01*
X50912936Y-81462934D01*
X51324700Y-81676435D01*
X51581621Y-81797833D01*
X51670542Y-81824880D01*
X51785665Y-81768361D01*
X52059008Y-81620091D01*
X52475690Y-81388505D01*
X53020830Y-81082035D01*
X53679548Y-80709116D01*
X54436965Y-80278179D01*
X55278199Y-79797660D01*
X56188371Y-79275990D01*
X57152601Y-78721603D01*
X57543477Y-78496393D01*
X63239621Y-75212500D01*
X63239621Y-61612500D01*
X63752522Y-61612500D01*
X63752578Y-75212500D01*
X69523164Y-78536089D01*
X70509012Y-79102950D01*
X71445086Y-79639365D01*
X72316815Y-80137101D01*
X73109629Y-80587927D01*
X73808958Y-80983609D01*
X74400232Y-81315915D01*
X74868880Y-81576611D01*
X75200332Y-81757467D01*
X75380018Y-81850248D01*
X75407817Y-81861089D01*
X75511738Y-81812519D01*
X75774115Y-81671804D01*
X76180415Y-81447173D01*
X76716104Y-81146855D01*
X77366651Y-80779079D01*
X78117522Y-80352073D01*
X78954184Y-79874068D01*
X79862104Y-79353292D01*
X80826750Y-78797973D01*
X81307817Y-78520322D01*
X87093750Y-75178145D01*
X87093750Y-61646854D01*
X87047130Y-61619914D01*
X87593750Y-61619914D01*
X87593750Y-75205085D01*
X93343750Y-78534416D01*
X94574376Y-79244643D01*
X95675869Y-79875552D01*
X96642544Y-80423996D01*
X97468714Y-80886832D01*
X98148695Y-81260912D01*
X98676801Y-81543093D01*
X99047347Y-81730227D01*
X99254646Y-81819171D01*
X99293750Y-81826223D01*
X99412788Y-81770723D01*
X99689741Y-81623027D01*
X100109689Y-81391578D01*
X100657712Y-81084820D01*
X101318891Y-80711196D01*
X102078306Y-80279151D01*
X102921038Y-79797126D01*
X103832166Y-79273568D01*
X104796772Y-78716918D01*
X105193750Y-78487171D01*
X110893750Y-75185643D01*
X110893750Y-61639356D01*
X110878342Y-61630431D01*
X111393750Y-61630431D01*
X111393750Y-75194568D01*
X117143750Y-78523521D01*
X118128200Y-79092190D01*
X119063874Y-79630210D01*
X119936090Y-80129297D01*
X120730169Y-80581170D01*
X121431428Y-80977544D01*
X122025188Y-81310135D01*
X122496768Y-81570662D01*
X122831488Y-81750840D01*
X123014666Y-81842387D01*
X123043750Y-81852459D01*
X123153921Y-81803535D01*
X123422265Y-81662288D01*
X123834096Y-81436997D01*
X124374731Y-81135945D01*
X125029486Y-80767411D01*
X125783679Y-80339676D01*
X126622624Y-79861021D01*
X127531638Y-79339726D01*
X128496039Y-78784071D01*
X128943750Y-78525270D01*
X134693750Y-75198095D01*
X134693750Y-61638848D01*
X135193750Y-61638848D01*
X135193750Y-75185898D01*
X140943750Y-78517329D01*
X141928145Y-79086453D01*
X142863770Y-79625032D01*
X143735947Y-80124764D01*
X144529997Y-80577353D01*
X145231242Y-80974499D01*
X145825004Y-81307902D01*
X146296606Y-81569265D01*
X146631368Y-81750288D01*
X146814613Y-81842673D01*
X146843750Y-81853118D01*
X146953935Y-81804976D01*
X147222315Y-81664538D01*
X147634200Y-81440067D01*
X148174905Y-81139830D01*
X148829743Y-80772088D01*
X149584027Y-80345108D01*
X150423070Y-79867153D01*
X151332185Y-79346487D01*
X152296685Y-78791376D01*
X152743750Y-78533185D01*
X158493750Y-75208894D01*
X158493750Y-61650752D01*
X158993750Y-61650752D01*
X158993750Y-75174382D01*
X164743750Y-78509580D01*
X165727876Y-79079309D01*
X166663090Y-79618595D01*
X167534738Y-80119123D01*
X168328164Y-80572578D01*
X169028713Y-80970646D01*
X169621730Y-81305012D01*
X170092559Y-81567362D01*
X170426546Y-81749381D01*
X170609034Y-81842753D01*
X170637888Y-81853639D01*
X170747104Y-81806437D01*
X171014739Y-81667215D01*
X171426136Y-81444181D01*
X171966641Y-81145541D01*
X172621599Y-80779504D01*
X173376354Y-80354277D01*
X174216251Y-79878068D01*
X175126636Y-79359084D01*
X176092852Y-78805533D01*
X176559065Y-78537500D01*
X182336104Y-75212500D01*
X182848610Y-75212500D01*
X188621180Y-78541346D01*
X189752270Y-79191437D01*
X190788978Y-79782924D01*
X191721411Y-80310344D01*
X192539680Y-80768236D01*
X193233893Y-81151138D01*
X193794159Y-81453591D01*
X194210588Y-81670131D01*
X194473288Y-81795298D01*
X194569241Y-81825579D01*
X194684137Y-81769060D01*
X194957261Y-81620798D01*
X195373738Y-81389223D01*
X195918693Y-81082768D01*
X196577250Y-80709865D01*
X197334536Y-80278945D01*
X198175673Y-79798442D01*
X199085789Y-79276787D01*
X200050007Y-78722412D01*
X200441711Y-78496733D01*
X206138689Y-75212500D01*
X206138689Y-61612500D01*
X206651596Y-61612500D01*
X206651676Y-75212500D01*
X212422713Y-78535904D01*
X213408618Y-79102725D01*
X214344747Y-79639108D01*
X215216529Y-80136821D01*
X216009394Y-80587633D01*
X216708772Y-80983310D01*
X217300091Y-81315622D01*
X217768782Y-81576336D01*
X218100275Y-81757219D01*
X218279998Y-81850041D01*
X218307817Y-81860904D01*
X218411738Y-81812366D01*
X218674114Y-81671681D01*
X219080412Y-81447078D01*
X219616101Y-81146786D01*
X220266646Y-80779033D01*
X221017514Y-80352047D01*
X221854174Y-79874058D01*
X222762093Y-79353293D01*
X223726736Y-78797981D01*
X224207817Y-78520322D01*
X229993750Y-75178145D01*
X229993750Y-61646854D01*
X229945835Y-61619176D01*
X230493750Y-61619176D01*
X230493750Y-75205823D01*
X236243750Y-78535383D01*
X237491014Y-79255271D01*
X238603072Y-79892263D01*
X239575026Y-80443647D01*
X240401974Y-80906715D01*
X241079019Y-81278757D01*
X241601259Y-81557062D01*
X241963795Y-81738920D01*
X242161729Y-81821622D01*
X242193750Y-81826325D01*
X242312796Y-81770644D01*
X242589768Y-81622792D01*
X243009745Y-81391213D01*
X243557805Y-81084353D01*
X244219027Y-80710658D01*
X244978490Y-80278573D01*
X245821273Y-79796542D01*
X246732453Y-79273013D01*
X247697111Y-78716430D01*
X248093750Y-78486929D01*
X253793750Y-75186151D01*
X253793750Y-61638848D01*
X248093750Y-58338070D01*
X247111913Y-57770652D01*
X246177598Y-57232917D01*
X245305726Y-56733310D01*
X244511217Y-56280276D01*
X243808993Y-55882262D01*
X243213976Y-55547712D01*
X242741086Y-55285073D01*
X242405245Y-55102789D01*
X242221374Y-55009306D01*
X242193750Y-54998674D01*
X242063155Y-55040879D01*
X241765994Y-55183326D01*
X241307166Y-55423306D01*
X240691570Y-55758108D01*
X239924106Y-56185024D01*
X239009674Y-56701341D01*
X237953173Y-57304352D01*
X236759503Y-57991345D01*
X236243750Y-58289616D01*
X230493750Y-61619176D01*
X229945835Y-61619176D01*
X224207817Y-58304677D01*
X223221198Y-57735672D01*
X222284476Y-57197197D01*
X221412164Y-56697482D01*
X220618775Y-56244757D01*
X219918819Y-55847253D01*
X219326809Y-55513200D01*
X218857259Y-55250827D01*
X218524679Y-55068367D01*
X218343582Y-54974048D01*
X218314667Y-54962500D01*
X218211830Y-55011162D01*
X217950369Y-55151673D01*
X217544826Y-55375815D01*
X217009746Y-55675372D01*
X216359672Y-56042127D01*
X215609147Y-56467862D01*
X214772714Y-56944362D01*
X213864917Y-57463409D01*
X212900300Y-58016788D01*
X212429523Y-58287500D01*
X206651596Y-61612500D01*
X206138689Y-61612500D01*
X200416219Y-58312947D01*
X199432224Y-57747287D01*
X198495764Y-57212258D01*
X197621740Y-56716161D01*
X196825050Y-56267296D01*
X196120594Y-55873964D01*
X195523270Y-55544466D01*
X195047978Y-55287102D01*
X194709617Y-55110173D01*
X194523085Y-55021979D01*
X194493750Y-55013395D01*
X194374723Y-55062255D01*
X194097674Y-55203302D01*
X193677499Y-55428234D01*
X193129099Y-55728752D01*
X192467372Y-56096554D01*
X191707217Y-56523340D01*
X190863534Y-57000809D01*
X189951222Y-57520661D01*
X188985179Y-58074595D01*
X188571280Y-58312947D01*
X182848810Y-61612500D01*
X182848610Y-75212500D01*
X182336104Y-75212500D01*
X182336104Y-61612500D01*
X176559065Y-58287500D01*
X175572741Y-57720731D01*
X174636338Y-57184421D01*
X173764402Y-56686789D01*
X172971484Y-56236053D01*
X172272129Y-55840431D01*
X171680887Y-55508143D01*
X171212306Y-55247407D01*
X170880932Y-55066441D01*
X170701315Y-54973465D01*
X170673435Y-54962500D01*
X170570473Y-55011327D01*
X170309051Y-55152320D01*
X169903682Y-55377244D01*
X169368880Y-55677865D01*
X168719158Y-56045948D01*
X167969029Y-56473259D01*
X167133008Y-56951564D01*
X166225607Y-57472627D01*
X165261339Y-58028215D01*
X164779296Y-58306626D01*
X158993750Y-61650752D01*
X158493750Y-61650752D01*
X158493750Y-61616105D01*
X152743750Y-58287995D01*
X151495519Y-57567863D01*
X150382839Y-56930797D01*
X149410569Y-56379482D01*
X148583564Y-55916603D01*
X147906683Y-55544846D01*
X147384783Y-55266896D01*
X147022720Y-55085438D01*
X146825354Y-55003158D01*
X146793750Y-54998589D01*
X146674703Y-55054284D01*
X146397730Y-55202151D01*
X145977753Y-55433743D01*
X145429692Y-55740614D01*
X144768469Y-56114320D01*
X144009005Y-56546415D01*
X143166222Y-57028452D01*
X142255040Y-57551987D01*
X141290381Y-58108573D01*
X140893750Y-58338070D01*
X135193750Y-61638848D01*
X134693750Y-61638848D01*
X134693750Y-61626904D01*
X128943750Y-58299729D01*
X127959234Y-57731325D01*
X127023502Y-57193559D01*
X126151239Y-56694709D01*
X125357127Y-56243057D01*
X124655850Y-55846883D01*
X124062093Y-55514468D01*
X123590538Y-55254093D01*
X123255869Y-55074037D01*
X123072771Y-54982582D01*
X123043750Y-54972540D01*
X122933591Y-55021479D01*
X122665281Y-55162779D01*
X122253501Y-55388156D01*
X121712931Y-55689328D01*
X121058253Y-56058011D01*
X120304146Y-56485922D01*
X119465291Y-56964778D01*
X118556370Y-57486295D01*
X117592063Y-58042191D01*
X117143750Y-58301478D01*
X111393750Y-61630431D01*
X110878342Y-61630431D01*
X105193750Y-58337828D01*
X104211950Y-57770318D01*
X103277668Y-57232527D01*
X102405822Y-56732896D01*
X101611332Y-56279871D01*
X100909118Y-55881895D01*
X100314099Y-55547411D01*
X99841195Y-55284863D01*
X99505325Y-55102694D01*
X99321409Y-55009349D01*
X99293750Y-54998776D01*
X99163931Y-55041208D01*
X98868236Y-55183287D01*
X98412349Y-55421867D01*
X97801956Y-55753803D01*
X97042741Y-56175950D01*
X96140391Y-56685162D01*
X95100591Y-57278294D01*
X93929027Y-57952200D01*
X93343750Y-58290583D01*
X87593750Y-61619914D01*
X87047130Y-61619914D01*
X81293750Y-58295256D01*
X80124787Y-57620586D01*
X79116436Y-57040671D01*
X78256803Y-56549067D01*
X77533993Y-56139328D01*
X76936111Y-55805009D01*
X76451262Y-55539666D01*
X76067553Y-55336852D01*
X75773088Y-55190125D01*
X75555973Y-55093038D01*
X75404313Y-55039146D01*
X75306214Y-55022005D01*
X75263958Y-55028079D01*
X75139296Y-55091611D01*
X74856631Y-55246631D01*
X74431115Y-55484534D01*
X73877897Y-55796715D01*
X73212126Y-56174570D01*
X72448953Y-56609492D01*
X71603528Y-57092879D01*
X70690999Y-57616124D01*
X69726517Y-58170623D01*
X69393345Y-58362500D01*
X63752522Y-61612500D01*
X63239621Y-61612500D01*
X57516685Y-58312773D01*
X56532650Y-57747114D01*
X55596151Y-57212100D01*
X54722086Y-56716030D01*
X53925354Y-56267201D01*
X53220852Y-55873914D01*
X52623481Y-55544466D01*
X52148137Y-55287157D01*
X51809719Y-55110284D01*
X51623126Y-55022147D01*
X51593750Y-55013586D01*
X51474721Y-55062539D01*
X51197668Y-55203673D01*
X50777490Y-55428687D01*
X50229089Y-55729277D01*
X49567363Y-56097141D01*
X48807214Y-56523977D01*
X47963541Y-57001481D01*
X47051244Y-57521352D01*
X46085225Y-58075287D01*
X45671895Y-58313312D01*
X39950040Y-61612500D01*
X39949854Y-75212500D01*
X39436111Y-75212500D01*
X39436111Y-61612500D01*
X33797014Y-58362500D01*
X32818596Y-57799353D01*
X31886974Y-57264587D01*
X31017305Y-56766809D01*
X30224748Y-56314629D01*
X29524461Y-55916652D01*
X28931602Y-55581488D01*
X28461328Y-55317744D01*
X28128797Y-55134027D01*
X27949169Y-55038945D01*
X27925833Y-55028415D01*
X27846729Y-55021303D01*
X27722063Y-55049546D01*
X27537025Y-55120928D01*
X27276808Y-55243237D01*
X26926602Y-55424258D01*
X26471600Y-55671777D01*
X25896993Y-55993579D01*
X25187972Y-56397451D01*
X24329730Y-56891178D01*
X23793750Y-57200943D01*
X22862948Y-57738590D01*
X22090126Y-58182414D01*
X21460843Y-58539941D01*
X20960662Y-58818700D01*
X20575143Y-59026218D01*
X20289848Y-59170022D01*
X20090337Y-59257641D01*
X19962173Y-59296602D01*
X19890915Y-59294432D01*
X19862126Y-59258660D01*
X19860669Y-59251441D01*
X19850498Y-59067407D01*
X19867513Y-59005402D01*
X19959731Y-58948550D01*
X20207388Y-58802050D01*
X20592717Y-58576253D01*
X21097953Y-58281513D01*
X21705330Y-57928184D01*
X22397083Y-57526617D01*
X23155445Y-57087165D01*
X23700593Y-56771704D01*
X27493750Y-54577930D01*
X27506426Y-51229719D01*
X27960214Y-51229719D01*
X27962111Y-52059113D01*
X27966639Y-52742269D01*
X27974023Y-53292625D01*
X27984489Y-53723621D01*
X27998263Y-54048695D01*
X28015570Y-54281286D01*
X28036636Y-54434832D01*
X28061687Y-54522771D01*
X28082624Y-54553267D01*
X28225401Y-54649945D01*
X28519336Y-54831452D01*
X28946952Y-55087790D01*
X29490773Y-55408965D01*
X30133321Y-55784981D01*
X30857119Y-56205844D01*
X31644690Y-56661558D01*
X32478557Y-57142128D01*
X33341242Y-57637559D01*
X34215268Y-58137856D01*
X35083159Y-58633022D01*
X35927437Y-59113064D01*
X36730625Y-59567986D01*
X37475246Y-59987793D01*
X38143823Y-60362489D01*
X38718878Y-60682079D01*
X39182934Y-60936569D01*
X39518514Y-61115963D01*
X39708142Y-61210265D01*
X39743750Y-61222277D01*
X39854072Y-61167242D01*
X40122571Y-61020163D01*
X40534483Y-60789458D01*
X41075044Y-60483543D01*
X41729493Y-60110834D01*
X42483065Y-59679747D01*
X43320998Y-59198698D01*
X44228528Y-58676103D01*
X45190892Y-58120379D01*
X45593750Y-57887304D01*
X51293750Y-54587724D01*
X51319438Y-47792501D01*
X51345109Y-41001902D01*
X51842374Y-41001902D01*
X51893750Y-54585918D01*
X57643750Y-57917338D01*
X58626225Y-58485964D01*
X59558159Y-59024180D01*
X60425086Y-59523705D01*
X61212538Y-59976257D01*
X61906046Y-60373555D01*
X62491143Y-60707319D01*
X62953362Y-60969267D01*
X63278235Y-61151117D01*
X63451294Y-61244590D01*
X63475936Y-61255629D01*
X63574507Y-61208138D01*
X63831593Y-61068768D01*
X64232597Y-60845797D01*
X64762918Y-60547501D01*
X65407958Y-60182159D01*
X66153118Y-59758048D01*
X66983799Y-59283444D01*
X67885402Y-58766627D01*
X68843328Y-58215872D01*
X69225936Y-57995451D01*
X70205725Y-57429964D01*
X71137165Y-56890996D01*
X72005299Y-56387290D01*
X72795169Y-55927592D01*
X73491817Y-55520645D01*
X74080286Y-55175194D01*
X74545619Y-54899983D01*
X74872857Y-54703757D01*
X75047043Y-54595258D01*
X75069448Y-54579320D01*
X75104123Y-54540473D01*
X75133810Y-54477623D01*
X75158821Y-54376424D01*
X75179470Y-54222530D01*
X75196073Y-54001596D01*
X75208942Y-53699274D01*
X75218392Y-53301220D01*
X75224736Y-52793087D01*
X75228289Y-52160529D01*
X75229365Y-51389200D01*
X75228277Y-50464754D01*
X75225339Y-49372845D01*
X75220866Y-48099127D01*
X75219448Y-47725331D01*
X75193750Y-41020424D01*
X75175332Y-41009782D01*
X75642376Y-41009782D01*
X75693750Y-54578304D01*
X81443750Y-57911448D01*
X82426398Y-58480434D01*
X83358712Y-59019047D01*
X84226202Y-59518996D01*
X85014378Y-59971987D01*
X85708751Y-60369729D01*
X86294831Y-60703930D01*
X86758129Y-60966297D01*
X87084155Y-61148539D01*
X87258421Y-61242362D01*
X87283620Y-61253546D01*
X87383300Y-61206303D01*
X87641613Y-61066914D01*
X88044164Y-60843544D01*
X88576559Y-60544355D01*
X89224403Y-60177512D01*
X89973302Y-59751176D01*
X90808862Y-59273513D01*
X91716689Y-58752686D01*
X92682389Y-58196858D01*
X93208620Y-57893255D01*
X99015310Y-54540432D01*
X99443750Y-54540432D01*
X105267483Y-57903057D01*
X106257887Y-58472983D01*
X107199275Y-59010957D01*
X108077107Y-59508909D01*
X108876840Y-59958767D01*
X109583933Y-60352459D01*
X110183842Y-60681914D01*
X110662027Y-60939059D01*
X111003944Y-61115823D01*
X111195053Y-61204136D01*
X111229847Y-61212485D01*
X111338201Y-61154507D01*
X111604975Y-61004794D01*
X112015474Y-60771765D01*
X112555001Y-60463840D01*
X113208862Y-60089438D01*
X113962360Y-59656978D01*
X114800801Y-59174881D01*
X115709488Y-58651566D01*
X116673725Y-58095452D01*
X117106113Y-57845825D01*
X122843750Y-54532363D01*
X122843750Y-54531078D01*
X123243750Y-54531078D01*
X129068750Y-57896656D01*
X130154431Y-58521863D01*
X131161474Y-59097661D01*
X132078333Y-59617651D01*
X132893460Y-60075437D01*
X133595309Y-60464621D01*
X134172332Y-60778807D01*
X134612984Y-61011598D01*
X134905718Y-61156597D01*
X135038986Y-61207406D01*
X135043750Y-61206857D01*
X135154123Y-61148495D01*
X135422868Y-60998430D01*
X135835233Y-60765099D01*
X136376465Y-60456939D01*
X137031812Y-60082387D01*
X137786523Y-59649879D01*
X138625844Y-59167851D01*
X139535023Y-58644742D01*
X140499309Y-58088987D01*
X140918750Y-57846966D01*
X146643750Y-54542452D01*
X146643747Y-54518985D01*
X147042365Y-54518985D01*
X152868057Y-57888079D01*
X153856841Y-58459391D01*
X154794724Y-59000288D01*
X155667377Y-59502570D01*
X156460469Y-59958035D01*
X157159669Y-60358485D01*
X157750646Y-60695717D01*
X158219071Y-60961532D01*
X158550613Y-61147729D01*
X158730940Y-61246107D01*
X158760221Y-61259837D01*
X158855904Y-61211526D01*
X159110241Y-61071143D01*
X159508847Y-60846901D01*
X160037337Y-60547015D01*
X160681324Y-60179696D01*
X161426424Y-59753158D01*
X162258250Y-59275615D01*
X163162418Y-58755280D01*
X164124541Y-58200367D01*
X164610221Y-57919804D01*
X170393750Y-54577108D01*
X170406545Y-51197694D01*
X170859532Y-51197694D01*
X170860915Y-52019003D01*
X170864831Y-52695825D01*
X170871531Y-53242036D01*
X170881270Y-53671512D01*
X170894300Y-53998130D01*
X170910874Y-54235767D01*
X170931245Y-54398299D01*
X170955666Y-54499603D01*
X170984389Y-54553556D01*
X170992578Y-54561527D01*
X171136579Y-54659195D01*
X171431629Y-54841548D01*
X171860236Y-55098587D01*
X172404910Y-55420316D01*
X173048163Y-55796737D01*
X173772504Y-56217852D01*
X174560444Y-56673664D01*
X175394492Y-57154175D01*
X176257159Y-57649387D01*
X177130956Y-58149303D01*
X177998391Y-58643926D01*
X178841976Y-59123257D01*
X179644220Y-59577299D01*
X180387635Y-59996055D01*
X181054729Y-60369527D01*
X181628013Y-60687716D01*
X182089998Y-60940627D01*
X182423193Y-61118261D01*
X182610109Y-61210620D01*
X182643750Y-61221614D01*
X182754071Y-61166444D01*
X183022567Y-61019230D01*
X183434474Y-60788391D01*
X183975030Y-60482347D01*
X184629472Y-60109515D01*
X185383037Y-59678315D01*
X186220962Y-59197165D01*
X187128484Y-58674484D01*
X188090841Y-58118691D01*
X188493750Y-57885561D01*
X194193750Y-54585663D01*
X194219438Y-47793266D01*
X194245126Y-41000870D01*
X194742373Y-41000870D01*
X194768061Y-47794532D01*
X194793750Y-54588193D01*
X200543750Y-57918731D01*
X201526237Y-58487216D01*
X202458165Y-59025289D01*
X203325067Y-59524673D01*
X204112474Y-59977088D01*
X204805921Y-60374256D01*
X205390939Y-60707898D01*
X205853062Y-60969735D01*
X206177823Y-61151488D01*
X206350755Y-61244877D01*
X206375330Y-61255884D01*
X206473575Y-61208246D01*
X206730502Y-61068483D01*
X207131754Y-60844757D01*
X207662972Y-60545228D01*
X208309801Y-60178059D01*
X209057881Y-59751410D01*
X209892856Y-59273443D01*
X210800368Y-58752320D01*
X211766060Y-58196201D01*
X212300990Y-57887500D01*
X218145069Y-54512500D01*
X218119409Y-47765485D01*
X218093750Y-41018470D01*
X218081303Y-41011280D01*
X218542377Y-41011280D01*
X218568063Y-47794792D01*
X218593750Y-54578304D01*
X224343750Y-57911448D01*
X225326383Y-58480430D01*
X226258667Y-59019039D01*
X227126114Y-59518984D01*
X227914237Y-59971974D01*
X228608547Y-60369715D01*
X229194557Y-60703916D01*
X229657779Y-60966285D01*
X229983726Y-61148530D01*
X230157909Y-61242359D01*
X230183071Y-61253546D01*
X230282656Y-61206301D01*
X230540873Y-61066907D01*
X230943331Y-60843528D01*
X231475640Y-60544326D01*
X232123407Y-60177465D01*
X232872241Y-59751108D01*
X233707751Y-59273418D01*
X234615545Y-58752559D01*
X235581231Y-58196694D01*
X236108071Y-57892718D01*
X241908939Y-54543038D01*
X242343750Y-54543038D01*
X248164017Y-57902769D01*
X249152035Y-58472690D01*
X250088670Y-59012180D01*
X250959630Y-59513055D01*
X251750623Y-59967135D01*
X252447354Y-60366238D01*
X253035533Y-60702181D01*
X253500865Y-60966784D01*
X253829059Y-61151865D01*
X254005822Y-61249241D01*
X254033134Y-61262500D01*
X254125786Y-61213809D01*
X254377303Y-61073188D01*
X254773403Y-60848808D01*
X255299805Y-60548841D01*
X255942227Y-60181462D01*
X256686390Y-59754842D01*
X257518011Y-59277154D01*
X258422811Y-58756572D01*
X259386507Y-58201267D01*
X259912866Y-57897631D01*
X265743750Y-54532763D01*
X265741162Y-47772631D01*
X265738574Y-41012500D01*
X259885090Y-37639463D01*
X254031605Y-34266427D01*
X248189155Y-37639463D01*
X242346705Y-41012500D01*
X242345227Y-47777769D01*
X242343750Y-54543038D01*
X241908939Y-54543038D01*
X241943750Y-54522937D01*
X241943750Y-41067110D01*
X241718750Y-40921328D01*
X241594864Y-40847058D01*
X241312875Y-40681661D01*
X240887935Y-40433925D01*
X240335194Y-40112639D01*
X239669804Y-39726590D01*
X238906916Y-39284568D01*
X238061680Y-38795359D01*
X237149249Y-38267753D01*
X236184773Y-37710538D01*
X235856025Y-37520716D01*
X230218301Y-34265885D01*
X224380339Y-37638583D01*
X218542377Y-41011280D01*
X218081303Y-41011280D01*
X212248796Y-37642380D01*
X206403843Y-34266290D01*
X206098796Y-34444148D01*
X205960216Y-34524449D01*
X205664018Y-34695709D01*
X205225809Y-34948916D01*
X204661194Y-35275059D01*
X203985776Y-35665125D01*
X203215161Y-36110102D01*
X202364954Y-36600979D01*
X201450760Y-37128743D01*
X200488183Y-37684382D01*
X200268061Y-37811438D01*
X194742373Y-41000870D01*
X194245126Y-41000870D01*
X188719438Y-37811438D01*
X187748222Y-37250824D01*
X186821931Y-36716090D01*
X185956167Y-36216244D01*
X185166529Y-35760297D01*
X184468619Y-35357258D01*
X183878038Y-35016137D01*
X183410386Y-34745943D01*
X183081265Y-34555686D01*
X182906276Y-34454376D01*
X182889812Y-34444802D01*
X182585874Y-34267598D01*
X170893750Y-41019294D01*
X170868050Y-47728072D01*
X170863353Y-49066104D01*
X170860429Y-50218019D01*
X170859532Y-51197694D01*
X170406545Y-51197694D01*
X170419436Y-47793394D01*
X170445123Y-41009681D01*
X164607569Y-37637963D01*
X158770014Y-34266245D01*
X152931882Y-37639496D01*
X147093750Y-41012748D01*
X147068057Y-47765866D01*
X147042365Y-54518985D01*
X146643747Y-54518985D01*
X146641818Y-41012500D01*
X140797690Y-37639407D01*
X134953561Y-34266315D01*
X129101794Y-37639407D01*
X123250027Y-41012500D01*
X123246888Y-47771789D01*
X123243750Y-54531078D01*
X122843750Y-54531078D01*
X122841241Y-47772431D01*
X122838732Y-41012500D01*
X116987193Y-37639160D01*
X111135654Y-34265821D01*
X105291470Y-37639160D01*
X99447287Y-41012500D01*
X99445518Y-47776466D01*
X99443750Y-54540432D01*
X99015310Y-54540432D01*
X99043750Y-54524011D01*
X99039746Y-47768255D01*
X99035743Y-41012500D01*
X93178383Y-37639998D01*
X87321024Y-34267497D01*
X81481700Y-37638639D01*
X75642376Y-41009782D01*
X75175332Y-41009782D01*
X69348904Y-37643293D01*
X63504058Y-34266163D01*
X63198904Y-34444738D01*
X63060302Y-34525163D01*
X62764080Y-34696540D01*
X62325844Y-34949853D01*
X61761200Y-35276089D01*
X61085754Y-35666234D01*
X60315112Y-36111274D01*
X59464879Y-36602195D01*
X58550661Y-37129983D01*
X57588065Y-37685625D01*
X57368062Y-37812607D01*
X51842374Y-41001902D01*
X51345109Y-41001902D01*
X51345127Y-40997278D01*
X45819438Y-37809636D01*
X44848182Y-37249313D01*
X43921879Y-36714868D01*
X43056131Y-36215306D01*
X42266540Y-35759634D01*
X41568706Y-35356855D01*
X40978231Y-35015976D01*
X40510717Y-34746000D01*
X40181764Y-34555934D01*
X40006975Y-34454782D01*
X39990588Y-34445254D01*
X39687426Y-34268514D01*
X27993750Y-41022596D01*
X27968050Y-47729723D01*
X27963409Y-49078462D01*
X27960722Y-50240648D01*
X27960214Y-51229719D01*
X27506426Y-51229719D01*
X27519436Y-47793398D01*
X27545123Y-41008866D01*
X23848504Y-38874682D01*
X23059471Y-38418570D01*
X22320419Y-37990246D01*
X21650174Y-37600699D01*
X21067564Y-37260924D01*
X20591417Y-36981913D01*
X20240559Y-36774657D01*
X20033818Y-36650150D01*
X19988320Y-36620895D01*
X19867618Y-36432132D01*
X19859253Y-36301876D01*
X19885541Y-36264844D01*
X19955986Y-36262150D01*
X20084805Y-36301224D01*
X20286210Y-36389498D01*
X20574418Y-36534402D01*
X20963643Y-36743366D01*
X21468100Y-37023821D01*
X22102005Y-37383198D01*
X22879571Y-37828927D01*
X23815014Y-38368438D01*
X23837382Y-38381363D01*
X27781015Y-40660268D01*
X28087382Y-40481630D01*
X28226203Y-40401188D01*
X28522634Y-40229789D01*
X28961066Y-39976451D01*
X29525887Y-39650188D01*
X30201486Y-39260015D01*
X30972253Y-38814949D01*
X31822576Y-38324004D01*
X32736846Y-37796195D01*
X33699450Y-37240540D01*
X33918749Y-37113958D01*
X39443749Y-33924924D01*
X39443749Y-28093712D01*
X39443750Y-22262500D01*
X39943750Y-22262500D01*
X39943750Y-33930683D01*
G04 #@! TD*
M02*
